<svg width="57" height="57" viewBox="0 0 57 57" fill="none" xmlns="http://www.w3.org/2000/svg">
<g clip-path="url(#clip0)">
<path d="M32.2124 28.0165C32.2124 28.6331 32.7124 29.133 33.3289 29.133C33.9456 29.133 34.4454 28.633 34.4454 28.0165V24.0137L37.5386 28.4927C37.8601 28.9574 38.3988 29.1533 38.9115 28.9941C39.433 28.8312 39.77 28.3469 39.77 27.7604V20.4178C39.77 19.8011 39.27 19.3013 38.6535 19.3013C38.037 19.3013 37.537 19.8012 37.537 20.4178V24.5605L34.2477 19.7975C33.9701 19.3953 33.4635 19.2209 32.9966 19.366C32.5301 19.5115 32.2124 19.9433 32.2124 20.4319V28.0165Z" fill="white"/>
<path d="M40.5532 27.7845C40.5532 27.8533 40.5603 27.9203 40.5723 27.9858C40.592 28.2535 40.7063 28.5063 40.8981 28.6966C41.1073 28.9043 41.3901 29.0208 41.6848 29.0208H41.6889C41.7521 29.0205 43.2425 29.0149 43.8387 29.0044C46.1645 28.9638 47.8526 26.9504 47.8526 24.2173C47.8526 21.3442 46.2071 19.4138 43.7581 19.4138H41.6697C41.3733 19.4138 41.0889 19.5317 40.8794 19.7416C40.6701 19.9514 40.5527 20.236 40.5532 20.5324V20.5378V20.5379V27.7845ZM43.7582 21.647C45.4853 21.647 45.6195 23.6143 45.6195 24.2173C45.6195 25.9598 44.7055 26.7558 43.7999 26.7717C43.5654 26.7757 43.1777 26.7792 42.7976 26.7817C42.7949 25.9261 42.7917 24.7965 42.7917 24.2092C42.7917 23.7163 42.7898 22.5385 42.7884 21.6468H43.7582V21.647Z" fill="white"/>
<path d="M12.4714 19.3013H10.2642C9.64757 19.3013 9.14771 19.8012 9.14771 20.4178V28.0165C9.14771 28.3135 9.26605 28.5982 9.47646 28.8078C9.68575 29.0162 9.96897 29.1331 10.2642 29.1331H10.2692H12.8569C14.6004 29.1331 16.0188 27.7057 16.0188 25.9621C16.0188 25.0219 15.6057 24.1767 14.9521 23.597C15.196 23.1756 15.3365 22.6872 15.3365 22.1663C15.3364 20.5864 14.0512 19.3013 12.4714 19.3013ZM12.4714 21.5344C12.8199 21.5344 13.1033 21.818 13.1033 22.1663C13.1033 22.5148 12.8198 22.7983 12.4714 22.7983C12.3088 22.7983 11.3807 22.8004 11.3807 22.8004V21.5345H12.4714V21.5344ZM12.8569 26.8908C12.5816 26.8908 11.9515 26.8931 11.3807 26.8952V25.0344C11.4774 25.0341 12.8569 25.0333 12.8569 25.0333C13.369 25.0333 13.7856 25.4499 13.7856 25.962C13.7856 26.4743 13.3689 26.8908 12.8569 26.8908Z" fill="white"/>
<path d="M21.8632 29.1331C22.1252 29.1331 22.3884 29.0414 22.6005 28.8548C23.0634 28.4473 23.1083 27.7418 22.701 27.2789L20.9359 25.2735C22.1303 24.824 22.9793 23.7026 22.9793 22.3926C22.9793 20.6881 21.5424 19.3013 19.7762 19.3013H17.7569C17.7565 19.3013 17.756 19.3013 17.7557 19.3013C17.7552 19.3013 17.7549 19.3013 17.7545 19.3013C17.1378 19.3013 16.6379 19.8012 16.6379 20.4178V28.0165C16.6379 28.6331 17.1378 29.133 17.7545 29.133C18.3711 29.133 18.871 28.633 18.871 28.0165V26.3073L21.0245 28.754C21.2454 29.005 21.5535 29.1331 21.8632 29.1331ZM19.7763 21.5345C20.3021 21.5345 20.7463 21.9275 20.7463 22.3927C20.7463 22.858 20.3021 23.251 19.7763 23.251C19.5631 23.251 19.2223 23.2523 18.8814 23.2537C18.8799 22.924 18.8779 21.881 18.8769 21.5344H19.7763V21.5345Z" fill="white"/>
<path d="M46.6045 40.3006C46.8432 40.0324 47.0766 39.7588 47.3036 39.4795C50.7946 35.1835 52.7172 29.7632 52.7172 24.2172C52.7172 17.7485 50.1982 11.6671 45.6242 7.09294C41.0502 2.5188 34.9686 0 28.4999 0C22.0313 0 15.9498 2.51902 11.3758 7.09305C6.80174 11.6671 4.28271 17.7486 4.28271 24.2172C4.28271 29.7652 6.20669 35.1871 9.70005 39.484C9.92582 39.7617 10.1578 40.0336 10.3952 40.3003L5.13894 51.9843C4.96449 52.3722 5.0255 52.8254 5.29625 53.1533C5.567 53.4814 6.00051 53.6269 6.41454 53.5288L10.7271 52.5076L12.823 56.4116C13.018 56.7748 13.3965 57 13.8066 57C13.8196 57 13.8328 56.9998 13.8458 56.9993C14.2709 56.9844 14.6506 56.7294 14.825 56.3415L19.2143 46.5849C20.5187 47.1285 21.8717 47.5594 23.2584 47.8654C23.3394 47.8833 23.4203 47.8919 23.5001 47.8919C24.0125 47.8919 24.4743 47.5369 24.5894 47.0158C24.7222 46.4136 24.3419 45.8176 23.7397 45.6848C18.93 44.6233 14.5594 41.9208 11.4329 38.0753C8.26214 34.1754 6.51596 29.2538 6.51596 24.2172C6.51596 12.0951 16.3781 2.23302 28.5001 2.23302C40.6222 2.23302 50.4843 12.0951 50.4843 24.2172C50.4843 29.2518 48.7393 34.1719 45.5707 38.0712C42.4463 41.916 38.0783 44.6191 33.2711 45.6825C32.669 45.8156 32.2889 46.4117 32.4221 47.0139C32.5553 47.6159 33.1518 47.9966 33.7535 47.8629C35.136 47.557 36.4849 47.1271 37.7857 46.5851L42.174 56.3415C42.3485 56.7292 42.7281 56.9844 43.1531 56.9993C43.1663 56.9998 43.1793 57 43.1924 57C43.6026 57 43.981 56.7748 44.1759 56.4117L46.2729 52.5077L50.5855 53.5289C50.9993 53.6272 51.4329 53.4815 51.7038 53.1534C51.9746 52.8255 52.0356 52.3722 51.861 51.9844L46.6045 40.3006ZM17.1942 45.6321L13.7183 53.3583L12.2885 50.6952C12.0493 50.2493 11.5394 50.0195 11.0476 50.1368L8.10528 50.8336L12.075 42.0093C13.6207 43.4344 15.3443 44.6525 17.1942 45.6321ZM45.9524 50.137C45.4598 50.0201 44.9509 50.2494 44.7114 50.6952L43.2807 53.3588L39.8055 45.6323C41.6554 44.6527 43.3791 43.4348 44.9249 42.0098L48.8948 50.8339L45.9524 50.137Z" fill="white"/>
<path d="M28.5 48.4312C29.1148 48.4312 29.6133 47.9327 29.6133 47.3179C29.6133 46.703 29.1148 46.2046 28.5 46.2046C27.8852 46.2046 27.3867 46.703 27.3867 47.3179C27.3867 47.9327 27.8852 48.4312 28.5 48.4312Z" fill="white"/>
<path d="M16.0894 12.1231C15.6196 11.7235 14.915 11.7809 14.5154 12.2507L14.4778 12.2952C14.0795 12.7659 14.1383 13.4704 14.609 13.8687C14.8187 14.0463 15.0749 14.1329 15.3297 14.1329C15.6468 14.1329 15.9617 13.9985 16.1826 13.7376L16.2171 13.697C16.6163 13.2271 16.5592 12.5224 16.0894 12.1231Z" fill="white"/>
<path d="M23.5349 8.74931C23.6412 8.74931 23.7493 8.73394 23.8563 8.70188L23.9428 8.67628C24.5346 8.50305 24.8739 7.88284 24.7007 7.29102C24.5275 6.69931 23.9073 6.35987 23.3155 6.53299L23.2143 6.56293C22.6237 6.74028 22.2886 7.36272 22.4659 7.95342C22.611 8.43703 23.0546 8.74931 23.5349 8.74931Z" fill="white"/>
<path d="M19.0254 10.8557C19.2365 10.8557 19.45 10.796 19.6394 10.6709L19.7144 10.6218C20.2316 10.286 20.3786 9.5945 20.0427 9.07727C19.7069 8.56015 19.0153 8.41286 18.4982 8.74896L18.4093 8.80719C17.8947 9.14685 17.7528 9.83942 18.0925 10.3541C18.3071 10.6794 18.6628 10.8557 19.0254 10.8557Z" fill="white"/>
<path d="M28.4772 8.02878L28.5638 8.02901H28.568C29.1827 8.02901 29.6821 7.53181 29.6844 6.9165C29.6867 6.29986 29.1886 5.7981 28.5719 5.79588L28.4699 5.79565C27.8532 5.79565 27.3569 6.29563 27.3569 6.91216C27.3569 7.5287 27.8606 8.02878 28.4772 8.02878Z" fill="white"/>
<path d="M37.3759 10.7114C37.5658 10.8375 37.7803 10.8978 37.9925 10.8978C38.354 10.8978 38.7087 10.7225 38.9237 10.3988C39.2648 9.88508 39.1249 9.19218 38.6111 8.85096L38.5249 8.79407C38.0095 8.45563 37.3173 8.59869 36.9786 9.1138C36.6399 9.62914 36.7829 10.3214 37.2983 10.6602L37.3759 10.7114Z" fill="white"/>
<path d="M33.078 8.69601L33.1709 8.72395C33.2778 8.75602 33.3857 8.77127 33.4918 8.77127C33.9721 8.77127 34.416 8.45866 34.5608 7.97483C34.7379 7.38412 34.4025 6.7618 33.8117 6.58479L33.7168 6.55617C33.1258 6.37927 32.5038 6.71571 32.3274 7.30653C32.1512 7.89757 32.4872 8.51967 33.078 8.69601Z" fill="white"/>
<path d="M42.4887 12.3097C42.0922 11.8374 41.3878 11.7761 40.9157 12.1727C40.4434 12.5692 40.3821 13.2735 40.7786 13.7458L40.8174 13.7916C41.0382 14.0527 41.3532 14.1869 41.6702 14.1869C41.9251 14.1869 42.1812 14.1001 42.3909 13.9228C42.8617 13.5244 42.9203 12.8199 42.522 12.3493L42.4887 12.3097Z" fill="white"/>
<path d="M40.9122 37.3579C41.1219 37.5355 41.378 37.6221 41.6328 37.6221C41.9499 37.6221 42.265 37.4877 42.4857 37.2267L42.5214 37.1848C42.92 36.7143 42.8618 36.0097 42.3913 35.611C41.9209 35.2126 41.2165 35.2707 40.8176 35.7411L40.7811 35.7844C40.3827 36.2552 40.4414 36.9597 40.9122 37.3579Z" fill="white"/>
<path d="M33.37 42.9918C33.4738 42.9918 33.5794 42.9772 33.6841 42.9466L33.7859 42.9164C34.3765 42.7389 34.7111 42.1162 34.5336 41.5256C34.356 40.935 33.7337 40.6 33.1427 40.7779L33.0569 40.8033C32.4651 40.9766 32.1257 41.5968 32.2989 42.1886C32.4415 42.6756 32.8868 42.9918 33.37 42.9918Z" fill="white"/>
<path d="M37.3603 38.809L37.2854 38.8581C36.7683 39.1939 36.6212 39.8854 36.9571 40.4026C37.1711 40.732 37.5291 40.9112 37.8946 40.9112C38.103 40.9112 38.3139 40.8529 38.5016 40.7309L38.5904 40.6727C39.1051 40.333 39.2469 39.6405 38.9071 39.1258C38.5678 38.6109 37.8748 38.4691 37.3603 38.809Z" fill="white"/>
<path d="M28.5226 41.4504L28.436 41.4502C28.4345 41.4502 28.4333 41.4502 28.4318 41.4502C27.8171 41.4502 27.3177 41.9474 27.3154 42.5627C27.3132 43.1793 27.8113 43.6811 28.4279 43.6833L28.5299 43.6836C29.1466 43.6836 29.6428 43.1836 29.6428 42.567C29.6426 41.9504 29.1391 41.4504 28.5226 41.4504Z" fill="white"/>
<path d="M23.9221 40.7834L23.8292 40.7555C23.2382 40.5779 22.616 40.9138 22.4391 41.5046C22.2621 42.0953 22.5975 42.7177 23.1881 42.8947L23.2832 42.9233C23.3898 42.9551 23.4974 42.9703 23.6032 42.9703C24.084 42.9703 24.528 42.6572 24.6726 42.1728C24.8489 41.582 24.5129 40.9599 23.9221 40.7834Z" fill="white"/>
<path d="M19.625 38.7688C19.1115 38.4269 18.4185 38.5663 18.077 39.0799C17.7354 39.5932 17.8747 40.2863 18.388 40.6279L18.4741 40.6849C18.6633 40.8096 18.8764 40.869 19.0873 40.869C19.4502 40.869 19.8061 40.6922 20.0207 40.3666C20.36 39.8516 20.2175 39.1591 19.7026 38.8199L19.625 38.7688Z" fill="white"/>
<path d="M14.5137 37.1728C14.7346 37.4339 15.0495 37.5681 15.3666 37.5681C15.6213 37.5681 15.8776 37.4813 16.0873 37.3039C16.558 36.9056 16.6168 36.2011 16.2185 35.7304L16.1842 35.6897C15.787 35.2181 15.0827 35.1579 14.6109 35.555C14.1392 35.9522 14.079 36.6566 14.4762 37.1283L14.5137 37.1728Z" fill="white"/>
<path d="M30.5897 29.1037C30.1397 29.1037 29.7161 28.829 29.548 28.3832L27.6076 23.2415L25.6481 28.3863C25.4292 28.9608 24.7861 29.2492 24.2115 29.0304C23.6369 28.8116 23.3485 28.1683 23.5674 27.5938L26.4122 20.1241C26.4155 20.1158 26.4188 20.1073 26.4221 20.0988C26.6203 19.6143 27.0867 19.3008 27.6101 19.3003H27.6116C28.1346 19.3003 28.6008 19.6127 28.7999 20.0963C28.8041 20.1064 28.8081 20.1167 28.8119 20.1268L31.631 27.5968C31.8481 28.1721 31.5578 28.8145 30.9826 29.0315C30.8531 29.0806 30.7202 29.1037 30.5897 29.1037Z" fill="white"/>
</g>
<defs>
<clipPath id="clip0">
<rect width="57" height="57" fill="white"/>
</clipPath>
</defs>
</svg>
