<svg width="57" height="57" viewBox="0 0 57 57" fill="none" xmlns="http://www.w3.org/2000/svg">
<path d="M39.3508 49.3604C39.1465 49.3604 38.9506 49.2792 38.8061 49.1348C38.6617 48.9903 38.5805 48.7944 38.5805 48.5901V7.67182L28.8181 3.57629L20.6201 6.80141V48.5901C20.6201 48.7944 20.539 48.9903 20.3945 49.1348C20.2501 49.2792 20.0541 49.3604 19.8499 49.3604C19.6456 49.3604 19.4496 49.2792 19.3052 49.1348C19.1607 48.9903 19.0796 48.7944 19.0796 48.5901V6.27609C19.0795 6.12133 19.1261 5.97015 19.2132 5.84223C19.3003 5.71432 19.4239 5.61561 19.5679 5.55897L28.5454 2.02728C28.7322 1.95368 28.9403 1.95589 29.1255 2.03344L39.6489 6.4494C39.7888 6.50812 39.9082 6.60684 39.9922 6.73318C40.0762 6.85953 40.1211 7.00787 40.1211 7.15959V48.5901C40.1211 48.7944 40.0399 48.9903 39.8955 49.1348C39.751 49.2792 39.5551 49.3604 39.3508 49.3604Z" fill="white"/>
<path d="M28.8274 49.3604C28.6231 49.3604 28.4272 49.2792 28.2827 49.1348C28.1383 48.9903 28.0571 48.7944 28.0571 48.5901V2.74439C28.0571 2.5401 28.1383 2.34418 28.2827 2.19973C28.4272 2.05527 28.6231 1.97412 28.8274 1.97412C29.0317 1.97412 29.2276 2.05527 29.3721 2.19973C29.5165 2.34418 29.5977 2.5401 29.5977 2.74439V48.5901C29.5977 48.7944 29.5165 48.9903 29.3721 49.1348C29.2276 49.2792 29.0317 49.3604 28.8274 49.3604Z" fill="white"/>
<path d="M51.7869 49.3605C51.5826 49.3605 51.3866 49.2793 51.2422 49.1349C51.0977 48.9904 51.0166 48.7945 51.0166 48.5902V24.3806L43.4849 19.9985H39.3508C39.1465 19.9985 38.9506 19.9174 38.8062 19.7729C38.6617 19.6285 38.5806 19.4326 38.5806 19.2283C38.5806 19.024 38.6617 18.8281 38.8062 18.6836C38.9506 18.5392 39.1465 18.458 39.3508 18.458H43.6929C43.8282 18.4585 43.961 18.4946 44.078 18.5628L52.1728 23.2722C52.2896 23.3397 52.3867 23.4367 52.4543 23.5535C52.5219 23.6703 52.5576 23.8028 52.5579 23.9377V48.5864C52.5584 48.6879 52.5388 48.7885 52.5003 48.8825C52.4618 48.9764 52.405 49.0618 52.3334 49.1338C52.2617 49.2057 52.1765 49.2628 52.0828 49.3017C51.989 49.3406 51.8884 49.3606 51.7869 49.3605Z" fill="white"/>
<path d="M43.6929 49.3605C43.4886 49.3605 43.2927 49.2793 43.1482 49.1349C43.0038 48.9904 42.9226 48.7945 42.9226 48.5902V19.2283C42.9226 19.024 43.0038 18.8281 43.1482 18.6836C43.2927 18.5392 43.4886 18.458 43.6929 18.458C43.8972 18.458 44.0931 18.5392 44.2375 18.6836C44.382 18.8281 44.4632 19.024 44.4632 19.2283V48.5902C44.4632 48.7945 44.382 48.9904 44.2375 49.1349C44.0931 49.2793 43.8972 49.3605 43.6929 49.3605Z" fill="white"/>
<path d="M4.02784 49.3604C3.82355 49.3604 3.62763 49.2793 3.48318 49.1348C3.33872 48.9904 3.25757 48.7945 3.25757 48.5902V24.6001C3.25757 24.3958 3.33872 24.1999 3.48318 24.0554C3.62763 23.911 3.82355 23.8298 4.02784 23.8298H19.85C20.0542 23.8298 20.2502 23.911 20.3946 24.0554C20.5391 24.1999 20.6202 24.3958 20.6202 24.6001C20.6202 24.8044 20.5391 25.0003 20.3946 25.1448C20.2502 25.2892 20.0542 25.3704 19.85 25.3704H4.79811V48.5902C4.79811 48.7945 4.71696 48.9904 4.5725 49.1348C4.42805 49.2793 4.23213 49.3604 4.02784 49.3604Z" fill="white"/>
<path d="M8.26818 28.3289H6.63135C6.42707 28.3289 6.23114 28.2477 6.08669 28.1033C5.94224 27.9588 5.86108 27.7629 5.86108 27.5586C5.86108 27.3543 5.94224 27.1584 6.08669 27.0139C6.23114 26.8695 6.42707 26.7883 6.63135 26.7883H8.26818C8.47247 26.7883 8.66839 26.8695 8.81284 27.0139C8.95729 27.1584 9.03845 27.3543 9.03845 27.5586C9.03845 27.7629 8.95729 27.9588 8.81284 28.1033C8.66839 28.2477 8.47247 28.3289 8.26818 28.3289Z" fill="white"/>
<path d="M12.758 28.3289H11.1204C10.9161 28.3289 10.7202 28.2477 10.5757 28.1033C10.4313 27.9588 10.3501 27.7629 10.3501 27.5586C10.3501 27.3543 10.4313 27.1584 10.5757 27.0139C10.7202 26.8695 10.9161 26.7883 11.1204 26.7883H12.758C12.9623 26.7883 13.1582 26.8695 13.3026 27.0139C13.4471 27.1584 13.5282 27.3543 13.5282 27.5586C13.5282 27.7629 13.4471 27.9588 13.3026 28.1033C13.1582 28.2477 12.9623 28.3289 12.758 28.3289Z" fill="white"/>
<path d="M17.2464 28.3289H15.6096C15.4053 28.3289 15.2094 28.2477 15.065 28.1033C14.9205 27.9588 14.8394 27.7629 14.8394 27.5586C14.8394 27.3543 14.9205 27.1584 15.065 27.0139C15.2094 26.8695 15.4053 26.7883 15.6096 26.7883H17.2464C17.4507 26.7883 17.6467 26.8695 17.7911 27.0139C17.9356 27.1584 18.0167 27.3543 18.0167 27.5586C18.0167 27.7629 17.9356 27.9588 17.7911 28.1033C17.6467 28.2477 17.4507 28.3289 17.2464 28.3289Z" fill="white"/>
<path d="M8.26818 31.9439H6.63135C6.42707 31.9439 6.23114 31.8627 6.08669 31.7183C5.94224 31.5738 5.86108 31.3779 5.86108 31.1736C5.86108 30.9693 5.94224 30.7734 6.08669 30.6289C6.23114 30.4845 6.42707 30.4033 6.63135 30.4033H8.26818C8.47247 30.4033 8.66839 30.4845 8.81284 30.6289C8.95729 30.7734 9.03845 30.9693 9.03845 31.1736C9.03845 31.3779 8.95729 31.5738 8.81284 31.7183C8.66839 31.8627 8.47247 31.9439 8.26818 31.9439Z" fill="white"/>
<path d="M12.758 31.9439H11.1204C10.9161 31.9439 10.7202 31.8627 10.5757 31.7183C10.4313 31.5738 10.3501 31.3779 10.3501 31.1736C10.3501 30.9693 10.4313 30.7734 10.5757 30.6289C10.7202 30.4845 10.9161 30.4033 11.1204 30.4033H12.758C12.9623 30.4033 13.1582 30.4845 13.3026 30.6289C13.4471 30.7734 13.5282 30.9693 13.5282 31.1736C13.5282 31.3779 13.4471 31.5738 13.3026 31.7183C13.1582 31.8627 12.9623 31.9439 12.758 31.9439Z" fill="white"/>
<path d="M17.2464 31.9439H15.6096C15.4053 31.9439 15.2094 31.8627 15.065 31.7183C14.9205 31.5738 14.8394 31.3779 14.8394 31.1736C14.8394 30.9693 14.9205 30.7734 15.065 30.6289C15.2094 30.4845 15.4053 30.4033 15.6096 30.4033H17.2464C17.4507 30.4033 17.6467 30.4845 17.7911 30.6289C17.9356 30.7734 18.0167 30.9693 18.0167 31.1736C18.0167 31.3779 17.9356 31.5738 17.7911 31.7183C17.6467 31.8627 17.4507 31.9439 17.2464 31.9439Z" fill="white"/>
<path d="M8.26818 35.5579H6.63135C6.42707 35.5579 6.23114 35.4767 6.08669 35.3323C5.94224 35.1878 5.86108 34.9919 5.86108 34.7876C5.86108 34.5833 5.94224 34.3874 6.08669 34.2429C6.23114 34.0985 6.42707 34.0173 6.63135 34.0173H8.26818C8.47247 34.0173 8.66839 34.0985 8.81284 34.2429C8.95729 34.3874 9.03845 34.5833 9.03845 34.7876C9.03845 34.9919 8.95729 35.1878 8.81284 35.3323C8.66839 35.4767 8.47247 35.5579 8.26818 35.5579Z" fill="white"/>
<path d="M12.758 35.5579H11.1204C10.9161 35.5579 10.7202 35.4767 10.5757 35.3323C10.4313 35.1878 10.3501 34.9919 10.3501 34.7876C10.3501 34.5833 10.4313 34.3874 10.5757 34.2429C10.7202 34.0985 10.9161 34.0173 11.1204 34.0173H12.758C12.9623 34.0173 13.1582 34.0985 13.3026 34.2429C13.4471 34.3874 13.5282 34.5833 13.5282 34.7876C13.5282 34.9919 13.4471 35.1878 13.3026 35.3323C13.1582 35.4767 12.9623 35.5579 12.758 35.5579Z" fill="white"/>
<path d="M17.2464 35.5579H15.6096C15.4053 35.5579 15.2094 35.4767 15.065 35.3323C14.9205 35.1878 14.8394 34.9919 14.8394 34.7876C14.8394 34.5833 14.9205 34.3874 15.065 34.2429C15.2094 34.0985 15.4053 34.0173 15.6096 34.0173H17.2464C17.4507 34.0173 17.6467 34.0985 17.7911 34.2429C17.9356 34.3874 18.0167 34.5833 18.0167 34.7876C18.0167 34.9919 17.9356 35.1878 17.7911 35.3323C17.6467 35.4767 17.4507 35.5579 17.2464 35.5579Z" fill="white"/>
<path d="M8.26818 39.1729H6.63135C6.42707 39.1729 6.23114 39.0917 6.08669 38.9473C5.94224 38.8028 5.86108 38.6069 5.86108 38.4026C5.86108 38.1983 5.94224 38.0024 6.08669 37.8579C6.23114 37.7135 6.42707 37.6323 6.63135 37.6323H8.26818C8.47247 37.6323 8.66839 37.7135 8.81284 37.8579C8.95729 38.0024 9.03845 38.1983 9.03845 38.4026C9.03845 38.6069 8.95729 38.8028 8.81284 38.9473C8.66839 39.0917 8.47247 39.1729 8.26818 39.1729Z" fill="white"/>
<path d="M12.758 39.1729H11.1204C10.9161 39.1729 10.7202 39.0917 10.5757 38.9473C10.4313 38.8028 10.3501 38.6069 10.3501 38.4026C10.3501 38.1983 10.4313 38.0024 10.5757 37.8579C10.7202 37.7135 10.9161 37.6323 11.1204 37.6323H12.758C12.9623 37.6323 13.1582 37.7135 13.3026 37.8579C13.4471 38.0024 13.5282 38.1983 13.5282 38.4026C13.5282 38.6069 13.4471 38.8028 13.3026 38.9473C13.1582 39.0917 12.9623 39.1729 12.758 39.1729Z" fill="white"/>
<path d="M17.2464 39.1729H15.6096C15.4053 39.1729 15.2094 39.0917 15.065 38.9473C14.9205 38.8028 14.8394 38.6069 14.8394 38.4026C14.8394 38.1983 14.9205 38.0024 15.065 37.8579C15.2094 37.7135 15.4053 37.6323 15.6096 37.6323H17.2464C17.4507 37.6323 17.6467 37.7135 17.7911 37.8579C17.9356 38.0024 18.0167 38.1983 18.0167 38.4026C18.0167 38.6069 17.9356 38.8028 17.7911 38.9473C17.6467 39.0917 17.4507 39.1729 17.2464 39.1729Z" fill="white"/>
<path d="M8.26818 42.7876H6.63135C6.42707 42.7876 6.23114 42.7065 6.08669 42.562C5.94224 42.4175 5.86108 42.2216 5.86108 42.0173C5.86108 41.8131 5.94224 41.6171 6.08669 41.4727C6.23114 41.3282 6.42707 41.2471 6.63135 41.2471H8.26818C8.47247 41.2471 8.66839 41.3282 8.81284 41.4727C8.95729 41.6171 9.03845 41.8131 9.03845 42.0173C9.03845 42.2216 8.95729 42.4175 8.81284 42.562C8.66839 42.7065 8.47247 42.7876 8.26818 42.7876Z" fill="white"/>
<path d="M12.758 42.7876H11.1204C10.9161 42.7876 10.7202 42.7065 10.5757 42.562C10.4313 42.4175 10.3501 42.2216 10.3501 42.0173C10.3501 41.8131 10.4313 41.6171 10.5757 41.4727C10.7202 41.3282 10.9161 41.2471 11.1204 41.2471H12.758C12.9623 41.2471 13.1582 41.3282 13.3026 41.4727C13.4471 41.6171 13.5282 41.8131 13.5282 42.0173C13.5282 42.2216 13.4471 42.4175 13.3026 42.562C13.1582 42.7065 12.9623 42.7876 12.758 42.7876Z" fill="white"/>
<path d="M17.2464 42.7876H15.6096C15.4053 42.7876 15.2094 42.7065 15.065 42.562C14.9205 42.4175 14.8394 42.2216 14.8394 42.0173C14.8394 41.8131 14.9205 41.6171 15.065 41.4727C15.2094 41.3282 15.4053 41.2471 15.6096 41.2471H17.2464C17.4507 41.2471 17.6467 41.3282 17.7911 41.4727C17.9356 41.6171 18.0167 41.8131 18.0167 42.0173C18.0167 42.2216 17.9356 42.4175 17.7911 42.562C17.6467 42.7065 17.4507 42.7876 17.2464 42.7876Z" fill="white"/>
<path d="M8.26818 46.4026H6.63135C6.42707 46.4026 6.23114 46.3214 6.08669 46.177C5.94224 46.0325 5.86108 45.8366 5.86108 45.6323C5.86108 45.428 5.94224 45.2321 6.08669 45.0877C6.23114 44.9432 6.42707 44.8621 6.63135 44.8621H8.26818C8.47247 44.8621 8.66839 44.9432 8.81284 45.0877C8.95729 45.2321 9.03845 45.428 9.03845 45.6323C9.03845 45.8366 8.95729 46.0325 8.81284 46.177C8.66839 46.3214 8.47247 46.4026 8.26818 46.4026Z" fill="white"/>
<path d="M12.758 46.4026H11.1204C10.9161 46.4026 10.7202 46.3214 10.5757 46.177C10.4313 46.0325 10.3501 45.8366 10.3501 45.6323C10.3501 45.428 10.4313 45.2321 10.5757 45.0877C10.7202 44.9432 10.9161 44.8621 11.1204 44.8621H12.758C12.9623 44.8621 13.1582 44.9432 13.3026 45.0877C13.4471 45.2321 13.5282 45.428 13.5282 45.6323C13.5282 45.8366 13.4471 46.0325 13.3026 46.177C13.1582 46.3214 12.9623 46.4026 12.758 46.4026Z" fill="white"/>
<path d="M17.2464 46.4026H15.6096C15.4053 46.4026 15.2094 46.3214 15.065 46.177C14.9205 46.0325 14.8394 45.8366 14.8394 45.6323C14.8394 45.428 14.9205 45.2321 15.065 45.0877C15.2094 44.9432 15.4053 44.8621 15.6096 44.8621H17.2464C17.4507 44.8621 17.6467 44.9432 17.7911 45.0877C17.9356 45.2321 18.0167 45.428 18.0167 45.6323C18.0167 45.8366 17.9356 46.0325 17.7911 46.177C17.6467 46.3214 17.4507 46.4026 17.2464 46.4026Z" fill="white"/>
<path d="M26.1123 10.2846C25.908 10.2846 25.7121 10.2034 25.5676 10.059C25.4232 9.91451 25.342 9.71859 25.342 9.5143V8.0608C25.342 7.85651 25.4232 7.66059 25.5676 7.51613C25.7121 7.37168 25.908 7.29053 26.1123 7.29053C26.3166 7.29053 26.5125 7.37168 26.657 7.51613C26.8014 7.66059 26.8826 7.85651 26.8826 8.0608V9.5143C26.8826 9.71859 26.8014 9.91451 26.657 10.059C26.5125 10.2034 26.3166 10.2846 26.1123 10.2846Z" fill="white"/>
<path d="M22.5996 11.1806C22.3953 11.1806 22.1994 11.0994 22.055 10.955C21.9105 10.8105 21.8293 10.6146 21.8293 10.4103V8.95679C21.8293 8.75251 21.9105 8.55658 22.055 8.41213C22.1994 8.26768 22.3953 8.18652 22.5996 8.18652C22.8039 8.18652 22.9998 8.26768 23.1443 8.41213C23.2887 8.55658 23.3699 8.75251 23.3699 8.95679V10.4103C23.3699 10.6146 23.2887 10.8105 23.1443 10.955C22.9998 11.0994 22.8039 11.1806 22.5996 11.1806Z" fill="white"/>
<path d="M26.1123 16.0785C25.908 16.0785 25.7121 15.9974 25.5676 15.8529C25.4232 15.7084 25.342 15.5125 25.342 15.3082V13.8547C25.342 13.6505 25.4232 13.4545 25.5676 13.3101C25.7121 13.1656 25.908 13.0845 26.1123 13.0845C26.3166 13.0845 26.5125 13.1656 26.657 13.3101C26.8014 13.4545 26.8826 13.6505 26.8826 13.8547V15.3082C26.8826 15.5125 26.8014 15.7084 26.657 15.8529C26.5125 15.9974 26.3166 16.0785 26.1123 16.0785Z" fill="white"/>
<path d="M22.5996 16.9745C22.3953 16.9745 22.1994 16.8934 22.055 16.7489C21.9105 16.6045 21.8293 16.4085 21.8293 16.2042V14.7507C21.8293 14.5465 21.9105 14.3505 22.055 14.2061C22.1994 14.0616 22.3953 13.9805 22.5996 13.9805C22.8039 13.9805 22.9998 14.0616 23.1443 14.2061C23.2887 14.3505 23.3699 14.5465 23.3699 14.7507V16.2042C23.3699 16.4085 23.2887 16.6045 23.1443 16.7489C22.9998 16.8934 22.8039 16.9745 22.5996 16.9745Z" fill="white"/>
<path d="M26.1123 21.8758C25.908 21.8758 25.7121 21.7946 25.5676 21.6502C25.4232 21.5057 25.342 21.3098 25.342 21.1055V19.6489C25.342 19.4446 25.4232 19.2487 25.5676 19.1043C25.7121 18.9598 25.908 18.8787 26.1123 18.8787C26.3166 18.8787 26.5125 18.9598 26.657 19.1043C26.8014 19.2487 26.8826 19.4446 26.8826 19.6489V21.1055C26.8826 21.3098 26.8014 21.5057 26.657 21.6502C26.5125 21.7946 26.3166 21.8758 26.1123 21.8758Z" fill="white"/>
<path d="M22.5996 22.7684C22.3953 22.7684 22.1994 22.6873 22.055 22.5428C21.9105 22.3984 21.8293 22.2025 21.8293 21.9982V20.5447C21.8293 20.3404 21.9105 20.1445 22.055 20C22.1994 19.8556 22.3953 19.7744 22.5996 19.7744C22.8039 19.7744 22.9998 19.8556 23.1443 20C23.2887 20.1445 23.3699 20.3404 23.3699 20.5447V21.9982C23.3699 22.2025 23.2887 22.3984 23.1443 22.5428C22.9998 22.6873 22.8039 22.7684 22.5996 22.7684Z" fill="white"/>
<path d="M26.1123 27.6657C25.908 27.6657 25.7121 27.5845 25.5676 27.4401C25.4232 27.2956 25.342 27.0997 25.342 26.8954V25.4419C25.342 25.2376 25.4232 25.0417 25.5676 24.8972C25.7121 24.7528 25.908 24.6716 26.1123 24.6716C26.3166 24.6716 26.5125 24.7528 26.657 24.8972C26.8014 25.0417 26.8826 25.2376 26.8826 25.4419V26.8954C26.8826 27.0997 26.8014 27.2956 26.657 27.4401C26.5125 27.5845 26.3166 27.6657 26.1123 27.6657Z" fill="white"/>
<path d="M22.5996 28.5617C22.3953 28.5617 22.1994 28.4805 22.055 28.3361C21.9105 28.1916 21.8293 27.9957 21.8293 27.7914V26.3379C21.8293 26.1336 21.9105 25.9377 22.055 25.7932C22.1994 25.6488 22.3953 25.5676 22.5996 25.5676C22.8039 25.5676 22.9998 25.6488 23.1443 25.7932C23.2887 25.9377 23.3699 26.1336 23.3699 26.3379V27.7914C23.3699 27.9957 23.2887 28.1916 23.1443 28.3361C22.9998 28.4805 22.8039 28.5617 22.5996 28.5617Z" fill="white"/>
<path d="M26.1123 33.4599C25.908 33.4599 25.7121 33.3787 25.5676 33.2343C25.4232 33.0898 25.342 32.8939 25.342 32.6896V31.2361C25.342 31.0318 25.4232 30.8359 25.5676 30.6914C25.7121 30.547 25.908 30.4658 26.1123 30.4658C26.3166 30.4658 26.5125 30.547 26.657 30.6914C26.8014 30.8359 26.8826 31.0318 26.8826 31.2361V32.6896C26.8826 32.8939 26.8014 33.0898 26.657 33.2343C26.5125 33.3787 26.3166 33.4599 26.1123 33.4599Z" fill="white"/>
<path d="M22.5996 34.3541C22.3953 34.3541 22.1994 34.2729 22.055 34.1285C21.9105 33.984 21.8293 33.7881 21.8293 33.5838V32.1318C21.8293 31.9276 21.9105 31.7316 22.055 31.5872C22.1994 31.4427 22.3953 31.3616 22.5996 31.3616C22.8039 31.3616 22.9998 31.4427 23.1443 31.5872C23.2887 31.7316 23.3699 31.9276 23.3699 32.1318V33.5838C23.3699 33.7881 23.2887 33.984 23.1443 34.1285C22.9998 34.2729 22.8039 34.3541 22.5996 34.3541Z" fill="white"/>
<path d="M26.1123 39.2538C25.908 39.2538 25.7121 39.1727 25.5676 39.0282C25.4232 38.8837 25.342 38.6878 25.342 38.4835V37.03C25.342 36.8257 25.4232 36.6298 25.5676 36.4854C25.7121 36.3409 25.908 36.2598 26.1123 36.2598C26.3166 36.2598 26.5125 36.3409 26.657 36.4854C26.8014 36.6298 26.8826 36.8257 26.8826 37.03V38.4835C26.8826 38.6878 26.8014 38.8837 26.657 39.0282C26.5125 39.1727 26.3166 39.2538 26.1123 39.2538Z" fill="white"/>
<path d="M22.5996 40.1496C22.3953 40.1496 22.1994 40.0684 22.055 39.924C21.9105 39.7795 21.8293 39.5836 21.8293 39.3793V37.9258C21.8293 37.7215 21.9105 37.5256 22.055 37.3811C22.1994 37.2367 22.3953 37.1555 22.5996 37.1555C22.8039 37.1555 22.9998 37.2367 23.1443 37.3811C23.2887 37.5256 23.3699 37.7215 23.3699 37.9258V39.3793C23.3699 39.5836 23.2887 39.7795 23.1443 39.924C22.9998 40.0684 22.8039 40.1496 22.5996 40.1496Z" fill="white"/>
<path d="M26.1123 45.0471C25.908 45.0471 25.7121 44.9659 25.5676 44.8215C25.4232 44.677 25.342 44.4811 25.342 44.2768V42.8272C25.342 42.6229 25.4232 42.4269 25.5676 42.2825C25.7121 42.138 25.908 42.0569 26.1123 42.0569C26.3166 42.0569 26.5125 42.138 26.657 42.2825C26.8014 42.4269 26.8826 42.6229 26.8826 42.8272V44.2807C26.8816 44.4843 26.8 44.6792 26.6556 44.8228C26.5113 44.9665 26.3159 45.0471 26.1123 45.0471Z" fill="white"/>
<path d="M22.5996 45.9435C22.3953 45.9435 22.1994 45.8624 22.055 45.7179C21.9105 45.5735 21.8293 45.3776 21.8293 45.1733V43.719C21.8293 43.5147 21.9105 43.3188 22.055 43.1743C22.1994 43.0299 22.3953 42.9487 22.5996 42.9487C22.8039 42.9487 22.9998 43.0299 23.1443 43.1743C23.2887 43.3188 23.3699 43.5147 23.3699 43.719V45.1725C23.37 45.2737 23.3501 45.374 23.3115 45.4675C23.2728 45.561 23.2161 45.646 23.1445 45.7177C23.073 45.7893 22.9881 45.8461 22.8946 45.8848C22.8011 45.9236 22.7008 45.9435 22.5996 45.9435Z" fill="white"/>
<path d="M31.427 9.55134C31.2227 9.55134 31.0268 9.47019 30.8823 9.32573C30.7379 9.18128 30.6567 8.98536 30.6567 8.78107V7.32911C30.6567 7.12482 30.7379 6.9289 30.8823 6.78444C31.0268 6.63999 31.2227 6.55884 31.427 6.55884C31.6313 6.55884 31.8272 6.63999 31.9717 6.78444C32.1161 6.9289 32.1973 7.12482 32.1973 7.32911V8.78107C32.1973 8.98536 32.1161 9.18128 31.9717 9.32573C31.8272 9.47019 31.6313 9.55134 31.427 9.55134Z" fill="white"/>
<path d="M34.0281 10.5336C33.8238 10.5336 33.6279 10.4524 33.4834 10.3079C33.339 10.1635 33.2578 9.96757 33.2578 9.76328V8.31055C33.2578 8.10627 33.339 7.91034 33.4834 7.76589C33.6279 7.62144 33.8238 7.54028 34.0281 7.54028C34.2324 7.54028 34.4283 7.62144 34.5727 7.76589C34.7172 7.91034 34.7984 8.10627 34.7984 8.31055V9.76405C34.7982 9.96821 34.7169 10.1639 34.5725 10.3082C34.428 10.4525 34.2322 10.5336 34.0281 10.5336Z" fill="white"/>
<path d="M36.6279 11.5148C36.4236 11.5148 36.2277 11.4336 36.0833 11.2891C35.9388 11.1447 35.8577 10.9488 35.8577 10.7445V9.29175C35.8577 9.08747 35.9388 8.89155 36.0833 8.74709C36.2277 8.60264 36.4236 8.52148 36.6279 8.52148C36.8322 8.52148 37.0281 8.60264 37.1726 8.74709C37.3171 8.89155 37.3982 9.08747 37.3982 9.29175V10.7453C37.398 10.9494 37.3168 11.1451 37.1723 11.2894C37.0279 11.4337 36.8321 11.5148 36.6279 11.5148Z" fill="white"/>
<path d="M31.427 15.3284C31.2227 15.3284 31.0268 15.2472 30.8823 15.1028C30.7379 14.9583 30.6567 14.7624 30.6567 14.5581V13.1023C30.6567 12.898 30.7379 12.7021 30.8823 12.5576C31.0268 12.4132 31.2227 12.332 31.427 12.332C31.6313 12.332 31.8272 12.4132 31.9717 12.5576C32.1161 12.7021 32.1973 12.898 32.1973 13.1023V14.5581C32.1973 14.7624 32.1161 14.9583 31.9717 15.1028C31.8272 15.2472 31.6313 15.3284 31.427 15.3284Z" fill="white"/>
<path d="M34.0281 16.3065C33.8238 16.3065 33.6279 16.2253 33.4834 16.0809C33.339 15.9364 33.2578 15.7405 33.2578 15.5362V14.0835C33.2578 13.8792 33.339 13.6833 33.4834 13.5388C33.6279 13.3944 33.8238 13.3132 34.0281 13.3132C34.2324 13.3132 34.4283 13.3944 34.5727 13.5388C34.7172 13.6833 34.7984 13.8792 34.7984 14.0835V15.5362C34.7984 15.7405 34.7172 15.9364 34.5727 16.0809C34.4283 16.2253 34.2324 16.3065 34.0281 16.3065Z" fill="white"/>
<path d="M36.6279 17.2879C36.4236 17.2879 36.2277 17.2068 36.0833 17.0623C35.9388 16.9179 35.8577 16.722 35.8577 16.5177V15.0649C35.8577 14.8607 35.9388 14.6647 36.0833 14.5203C36.2277 14.3758 36.4236 14.2947 36.6279 14.2947C36.8322 14.2947 37.0281 14.3758 37.1726 14.5203C37.3171 14.6647 37.3982 14.8607 37.3982 15.0649V16.5184C37.398 16.7226 37.3168 16.9183 37.1723 17.0626C37.0279 17.2069 36.8321 17.2879 36.6279 17.2879Z" fill="white"/>
<path d="M31.427 21.0992C31.2227 21.0992 31.0268 21.0181 30.8823 20.8736C30.7379 20.7291 30.6567 20.5332 30.6567 20.3289V18.8716C30.6567 18.6673 30.7379 18.4714 30.8823 18.3269C31.0268 18.1825 31.2227 18.1013 31.427 18.1013C31.6313 18.1013 31.8272 18.1825 31.9717 18.3269C32.1161 18.4714 32.1973 18.6673 32.1973 18.8716V20.3251C32.1978 20.4266 32.1782 20.5271 32.1398 20.621C32.1013 20.7149 32.0446 20.8003 31.973 20.8722C31.9015 20.9442 31.8164 21.0013 31.7227 21.0402C31.629 21.0792 31.5285 21.0992 31.427 21.0992Z" fill="white"/>
<path d="M34.0281 22.0805C33.8238 22.0805 33.6279 21.9993 33.4834 21.8549C33.339 21.7104 33.2578 21.5145 33.2578 21.3102V19.8567C33.2578 19.6524 33.339 19.4565 33.4834 19.312C33.6279 19.1676 33.8238 19.0864 34.0281 19.0864C34.2324 19.0864 34.4283 19.1676 34.5727 19.312C34.7172 19.4565 34.7984 19.6524 34.7984 19.8567V21.3102C34.7984 21.5145 34.7172 21.7104 34.5727 21.8549C34.4283 21.9993 34.2324 22.0805 34.0281 22.0805Z" fill="white"/>
<path d="M36.6279 23.0611C36.4236 23.0611 36.2277 22.98 36.0833 22.8355C35.9388 22.6911 35.8577 22.4952 35.8577 22.2909V20.8381C35.8577 20.6339 35.9388 20.4379 36.0833 20.2935C36.2277 20.149 36.4236 20.0679 36.6279 20.0679C36.8322 20.0679 37.0281 20.149 37.1726 20.2935C37.3171 20.4379 37.3982 20.6339 37.3982 20.8381V22.2916C37.398 22.4958 37.3168 22.6915 37.1723 22.8358C37.0279 22.9801 36.8321 23.0611 36.6279 23.0611Z" fill="white"/>
<path d="M31.427 26.8725C31.2227 26.8725 31.0268 26.7913 30.8823 26.6469C30.7379 26.5024 30.6567 26.3065 30.6567 26.1022V24.6487C30.6567 24.4444 30.7379 24.2485 30.8823 24.104C31.0268 23.9596 31.2227 23.8784 31.427 23.8784C31.6313 23.8784 31.8272 23.9596 31.9717 24.104C32.1161 24.2485 32.1973 24.4444 32.1973 24.6487V26.1022C32.1973 26.3065 32.1161 26.5024 31.9717 26.6469C31.8272 26.7913 31.6313 26.8725 31.427 26.8725Z" fill="white"/>
<path d="M34.0281 27.8537C33.8238 27.8537 33.6279 27.7725 33.4834 27.6281C33.339 27.4836 33.2578 27.2877 33.2578 27.0834V25.6299C33.2578 25.4256 33.339 25.2297 33.4834 25.0852C33.6279 24.9408 33.8238 24.8596 34.0281 24.8596C34.2324 24.8596 34.4283 24.9408 34.5727 25.0852C34.7172 25.2297 34.7984 25.4256 34.7984 25.6299V27.0834C34.7984 27.2877 34.7172 27.4836 34.5727 27.6281C34.4283 27.7725 34.2324 27.8537 34.0281 27.8537Z" fill="white"/>
<path d="M36.6279 28.8351C36.4236 28.8351 36.2277 28.7539 36.0833 28.6095C35.9388 28.465 35.8577 28.2691 35.8577 28.0648V26.6113C35.8577 26.407 35.9388 26.2111 36.0833 26.0667C36.2277 25.9222 36.4236 25.8411 36.6279 25.8411C36.8322 25.8411 37.0281 25.9222 37.1726 26.0667C37.3171 26.2111 37.3982 26.407 37.3982 26.6113V28.0648C37.3982 28.2691 37.3171 28.465 37.1726 28.6095C37.0281 28.7539 36.8322 28.8351 36.6279 28.8351Z" fill="white"/>
<path d="M31.427 32.6455C31.2227 32.6455 31.0268 32.5643 30.8823 32.4199C30.7379 32.2754 30.6567 32.0795 30.6567 31.8752V30.4255C30.6567 30.2213 30.7379 30.0253 30.8823 29.8809C31.0268 29.7364 31.2227 29.6553 31.427 29.6553C31.6313 29.6553 31.8272 29.7364 31.9717 29.8809C32.1161 30.0253 32.1973 30.2213 32.1973 30.4255V31.879C32.1963 32.0827 32.1147 32.2776 31.9703 32.4212C31.826 32.5648 31.6306 32.6455 31.427 32.6455Z" fill="white"/>
<path d="M34.0281 33.6269C33.8238 33.6269 33.6279 33.5457 33.4834 33.4012C33.339 33.2568 33.2578 33.0609 33.2578 32.8566V31.4031C33.2578 31.1988 33.339 31.0029 33.4834 30.8584C33.6279 30.714 33.8238 30.6328 34.0281 30.6328C34.2324 30.6328 34.4283 30.714 34.5727 30.8584C34.7172 31.0029 34.7984 31.1988 34.7984 31.4031V32.8566C34.7984 33.0609 34.7172 33.2568 34.5727 33.4012C34.4283 33.5457 34.2324 33.6269 34.0281 33.6269Z" fill="white"/>
<path d="M36.6279 34.6083C36.4236 34.6083 36.2277 34.5272 36.0833 34.3827C35.9388 34.2382 35.8577 34.0423 35.8577 33.838V32.3845C35.8577 32.1802 35.9388 31.9843 36.0833 31.8399C36.2277 31.6954 36.4236 31.6143 36.6279 31.6143C36.8322 31.6143 37.0281 31.6954 37.1726 31.8399C37.3171 31.9843 37.3982 32.1802 37.3982 32.3845V33.838C37.3982 34.0423 37.3171 34.2382 37.1726 34.3827C37.0281 34.5272 36.8322 34.6083 36.6279 34.6083Z" fill="white"/>
<path d="M31.427 38.4186C31.2227 38.4186 31.0268 38.3374 30.8823 38.193C30.7379 38.0485 30.6567 37.8526 30.6567 37.6483V36.1948C30.6567 35.9905 30.7379 35.7946 30.8823 35.6502C31.0268 35.5057 31.2227 35.4246 31.427 35.4246C31.6313 35.4246 31.8272 35.5057 31.9717 35.6502C32.1161 35.7946 32.1973 35.9905 32.1973 36.1948V37.6483C32.1973 37.8526 32.1161 38.0485 31.9717 38.193C31.8272 38.3374 31.6313 38.4186 31.427 38.4186Z" fill="white"/>
<path d="M34.0281 39.4001C33.8238 39.4001 33.6279 39.3189 33.4834 39.1744C33.339 39.03 33.2578 38.8341 33.2578 38.6298V37.1763C33.2578 36.972 33.339 36.7761 33.4834 36.6316C33.6279 36.4872 33.8238 36.406 34.0281 36.406C34.2324 36.406 34.4283 36.4872 34.5727 36.6316C34.7172 36.7761 34.7984 36.972 34.7984 37.1763V38.6298C34.7984 38.8341 34.7172 39.03 34.5727 39.1744C34.4283 39.3189 34.2324 39.4001 34.0281 39.4001Z" fill="white"/>
<path d="M36.6279 40.3815C36.4236 40.3815 36.2277 40.3003 36.0833 40.1559C35.9388 40.0114 35.8577 39.8155 35.8577 39.6112V38.1577C35.8577 37.9534 35.9388 37.7575 36.0833 37.6131C36.2277 37.4686 36.4236 37.3875 36.6279 37.3875C36.8322 37.3875 37.0281 37.4686 37.1726 37.6131C37.3171 37.7575 37.3982 37.9534 37.3982 38.1577V39.6112C37.3982 39.8155 37.3171 40.0114 37.1726 40.1559C37.0281 40.3003 36.8322 40.3815 36.6279 40.3815Z" fill="white"/>
<path d="M31.427 44.192C31.2227 44.192 31.0268 44.1109 30.8823 43.9664C30.7379 43.822 30.6567 43.6261 30.6567 43.4218V41.9683C30.6567 41.764 30.7379 41.5681 30.8823 41.4236C31.0268 41.2792 31.2227 41.198 31.427 41.198C31.6313 41.198 31.8272 41.2792 31.9717 41.4236C32.1161 41.5681 32.1973 41.764 32.1973 41.9683V43.4218C32.1973 43.6261 32.1161 43.822 31.9717 43.9664C31.8272 44.1109 31.6313 44.192 31.427 44.192Z" fill="white"/>
<path d="M34.0281 45.1732C33.8238 45.1732 33.6279 45.0921 33.4834 44.9476C33.339 44.8032 33.2578 44.6073 33.2578 44.403V42.9495C33.2578 42.7452 33.339 42.5493 33.4834 42.4048C33.6279 42.2604 33.8238 42.1792 34.0281 42.1792C34.2324 42.1792 34.4283 42.2604 34.5727 42.4048C34.7172 42.5493 34.7984 42.7452 34.7984 42.9495V44.403C34.7984 44.6073 34.7172 44.8032 34.5727 44.9476C34.4283 45.0921 34.2324 45.1732 34.0281 45.1732Z" fill="white"/>
<path d="M36.6279 46.1547C36.4236 46.1547 36.2277 46.0735 36.0833 45.9291C35.9388 45.7846 35.8577 45.5887 35.8577 45.3844V43.9309C35.8577 43.7266 35.9388 43.5307 36.0833 43.3863C36.2277 43.2418 36.4236 43.1606 36.6279 43.1606C36.8322 43.1606 37.0281 43.2418 37.1726 43.3863C37.3171 43.5307 37.3982 43.7266 37.3982 43.9309V45.3844C37.3982 45.5887 37.3171 45.7846 37.1726 45.9291C37.0281 46.0735 36.8322 46.1547 36.6279 46.1547Z" fill="white"/>
<path d="M46.3701 25.9196C46.1658 25.9196 45.9699 25.8385 45.8255 25.694C45.681 25.5496 45.5999 25.3536 45.5999 25.1494V24.3706C45.5999 24.1663 45.681 23.9704 45.8255 23.8259C45.9699 23.6815 46.1658 23.6003 46.3701 23.6003C46.5744 23.6003 46.7703 23.6815 46.9148 23.8259C47.0592 23.9704 47.1404 24.1663 47.1404 24.3706V25.1494C47.1404 25.3536 47.0592 25.5496 46.9148 25.694C46.7703 25.8385 46.5744 25.9196 46.3701 25.9196Z" fill="white"/>
<path d="M48.9661 27.551C48.7618 27.551 48.5659 27.4698 48.4214 27.3254C48.277 27.1809 48.1958 26.985 48.1958 26.7807V26.002C48.1958 25.7977 48.277 25.6018 48.4214 25.4573C48.5659 25.3128 48.7618 25.2317 48.9661 25.2317C49.1704 25.2317 49.3663 25.3128 49.5107 25.4573C49.6552 25.6018 49.7363 25.7977 49.7363 26.002V26.7807C49.7363 26.985 49.6552 27.1809 49.5107 27.3254C49.3663 27.4698 49.1704 27.551 48.9661 27.551Z" fill="white"/>
<path d="M46.3701 29.7231C46.1658 29.7231 45.9699 29.6419 45.8255 29.4974C45.681 29.353 45.5999 29.1571 45.5999 28.9528V28.1748C45.5999 27.9705 45.681 27.7746 45.8255 27.6301C45.9699 27.4857 46.1658 27.4045 46.3701 27.4045C46.5744 27.4045 46.7703 27.4857 46.9148 27.6301C47.0592 27.7746 47.1404 27.9705 47.1404 28.1748V28.9536C47.1402 29.1577 47.059 29.3534 46.9145 29.4977C46.7701 29.642 46.5743 29.7231 46.3701 29.7231Z" fill="white"/>
<path d="M48.9661 31.3547C48.7618 31.3547 48.5659 31.2736 48.4214 31.1291C48.277 30.9847 48.1958 30.7888 48.1958 30.5845V29.8096C48.1958 29.6053 48.277 29.4094 48.4214 29.2649C48.5659 29.1205 48.7618 29.0393 48.9661 29.0393C49.1704 29.0393 49.3663 29.1205 49.5107 29.2649C49.6552 29.4094 49.7363 29.6053 49.7363 29.8096V30.5883C49.7353 30.7919 49.6537 30.9869 49.5094 31.1305C49.365 31.2741 49.1697 31.3547 48.9661 31.3547Z" fill="white"/>
<path d="M46.3701 33.5275C46.1658 33.5275 45.9699 33.4464 45.8255 33.3019C45.681 33.1575 45.5999 32.9616 45.5999 32.7573V31.9785C45.5999 31.7742 45.681 31.5783 45.8255 31.4339C45.9699 31.2894 46.1658 31.2083 46.3701 31.2083C46.5744 31.2083 46.7703 31.2894 46.9148 31.4339C47.0592 31.5783 47.1404 31.7742 47.1404 31.9785V32.7573C47.1404 32.9616 47.0592 33.1575 46.9148 33.3019C46.7703 33.4464 46.5744 33.5275 46.3701 33.5275Z" fill="white"/>
<path d="M48.9661 35.1589C48.7618 35.1589 48.5659 35.0777 48.4214 34.9333C48.277 34.7888 48.1958 34.5929 48.1958 34.3886V33.6099C48.1958 33.4056 48.277 33.2097 48.4214 33.0652C48.5659 32.9208 48.7618 32.8396 48.9661 32.8396C49.1704 32.8396 49.3663 32.9208 49.5107 33.0652C49.6552 33.2097 49.7363 33.4056 49.7363 33.6099V34.3886C49.7363 34.5929 49.6552 34.7888 49.5107 34.9333C49.3663 35.0777 49.1704 35.1589 48.9661 35.1589Z" fill="white"/>
<path d="M46.3701 37.332C46.1658 37.332 45.9699 37.2508 45.8255 37.1064C45.681 36.9619 45.5999 36.766 45.5999 36.5617V35.783C45.5999 35.5787 45.681 35.3828 45.8255 35.2383C45.9699 35.0938 46.1658 35.0127 46.3701 35.0127C46.5744 35.0127 46.7703 35.0938 46.9148 35.2383C47.0592 35.3828 47.1404 35.5787 47.1404 35.783V36.5617C47.1404 36.766 47.0592 36.9619 46.9148 37.1064C46.7703 37.2508 46.5744 37.332 46.3701 37.332Z" fill="white"/>
<path d="M48.9661 38.9626C48.7618 38.9626 48.5659 38.8814 48.4214 38.737C48.277 38.5925 48.1958 38.3966 48.1958 38.1923V37.4136C48.1958 37.2093 48.277 37.0134 48.4214 36.8689C48.5659 36.7245 48.7618 36.6433 48.9661 36.6433C49.1704 36.6433 49.3663 36.7245 49.5107 36.8689C49.6552 37.0134 49.7363 37.2093 49.7363 37.4136V38.1923C49.7363 38.3966 49.6552 38.5925 49.5107 38.737C49.3663 38.8814 49.1704 38.9626 48.9661 38.9626Z" fill="white"/>
<path d="M46.3701 41.1324C46.1658 41.1324 45.9699 41.0512 45.8255 40.9068C45.681 40.7623 45.5999 40.5664 45.5999 40.3621V39.5864C45.5999 39.3821 45.681 39.1862 45.8255 39.0418C45.9699 38.8973 46.1658 38.8162 46.3701 38.8162C46.5744 38.8162 46.7703 38.8973 46.9148 39.0418C47.0592 39.1862 47.1404 39.3821 47.1404 39.5864V40.3621C47.1404 40.5664 47.0592 40.7623 46.9148 40.9068C46.7703 41.0512 46.5744 41.1324 46.3701 41.1324Z" fill="white"/>
<path d="M48.9661 42.767C48.7618 42.767 48.5659 42.6859 48.4214 42.5414C48.277 42.397 48.1958 42.2011 48.1958 41.9968V41.218C48.1958 41.0137 48.277 40.8178 48.4214 40.6734C48.5659 40.5289 48.7618 40.4478 48.9661 40.4478C49.1704 40.4478 49.3663 40.5289 49.5107 40.6734C49.6552 40.8178 49.7363 41.0137 49.7363 41.218V41.9968C49.7363 42.2011 49.6552 42.397 49.5107 42.5414C49.3663 42.6859 49.1704 42.767 48.9661 42.767Z" fill="white"/>
<path d="M46.3701 44.9399C46.1658 44.9399 45.9699 44.8587 45.8255 44.7143C45.681 44.5698 45.5999 44.3739 45.5999 44.1696V43.3909C45.5999 43.1866 45.681 42.9907 45.8255 42.8462C45.9699 42.7018 46.1658 42.6206 46.3701 42.6206C46.5744 42.6206 46.7703 42.7018 46.9148 42.8462C47.0592 42.9907 47.1404 43.1866 47.1404 43.3909V44.1696C47.1404 44.3739 47.0592 44.5698 46.9148 44.7143C46.7703 44.8587 46.5744 44.9399 46.3701 44.9399Z" fill="white"/>
<path d="M48.9661 46.5705C48.7618 46.5705 48.5659 46.4894 48.4214 46.3449C48.277 46.2004 48.1958 46.0045 48.1958 45.8002V45.0215C48.1958 44.8172 48.277 44.6213 48.4214 44.4768C48.5659 44.3324 48.7618 44.2512 48.9661 44.2512C49.1704 44.2512 49.3663 44.3324 49.5107 44.4768C49.6552 44.6213 49.7363 44.8172 49.7363 45.0215V45.8002C49.7363 46.0045 49.6552 46.2004 49.5107 46.3449C49.3663 46.4894 49.1704 46.5705 48.9661 46.5705Z" fill="white"/>
<path d="M54.0969 49.3482H1.71851C1.51422 49.3482 1.3183 49.267 1.17385 49.1225C1.0294 48.9781 0.948242 48.7822 0.948242 48.5779C0.948242 48.3736 1.0294 48.1777 1.17385 48.0332C1.3183 47.8888 1.51422 47.8076 1.71851 47.8076H54.0969C54.3012 47.8076 54.4971 47.8888 54.6416 48.0332C54.786 48.1777 54.8672 48.3736 54.8672 48.5779C54.8672 48.7822 54.786 48.9781 54.6416 49.1225C54.4971 49.267 54.3012 49.3482 54.0969 49.3482Z" fill="white"/>
</svg>
