<svg width="1022" height="1025" viewBox="0 0 1022 1025" fill="none" xmlns="http://www.w3.org/2000/svg">
<path d="M245.379 398.908C131.592 421.63 162.563 554.517 282.552 576.583C332.387 585.783 371.795 581.958 405.336 625.43C413.7 636.197 423.01 646.265 431.87 656.593C448.275 675.761 485.044 685.494 517.153 671.184C563.88 650.479 605.842 619.77 644.935 586.971C696.071 543.864 723.493 484.786 676.186 434.44C648.601 405.089 616.053 393.053 615.682 352.089C615.389 328.062 614.814 311.563 599.01 290.843C570.819 253.73 583.446 259.163 576.247 231.787C558.927 165.809 475.039 163.182 426.448 212.474C393.995 245.32 392.193 288.751 386.744 312.208C367.3 397.157 337.714 380.392 245.379 398.908Z" fill="url(#paint0_linear_144:35)"/>
<path d="M908.082 364.388C882.82 321.841 831.098 305.331 786.038 313.075C735.102 321.828 699.215 338.832 657.18 304.449C643.476 293.342 623.889 278.056 607.677 271.318C548.212 246.157 510.612 303.17 474.558 337.084C440.783 368.957 400.349 368.549 339.665 369.972C339.297 370.066 181.991 338.03 232.324 464.368C241.695 487.85 252.868 503.819 258.747 516.026C281.823 563.833 247.1 592.542 216.036 660.704C176.621 746.724 224.043 843.798 315.802 808.432C351.047 794.835 375.244 775.78 412.014 766.012C487.145 746.232 529.482 805.84 595.118 789.126C620.322 785.222 646.72 765.85 660.88 748.459C715.24 680.934 716.978 632.404 775.539 605.734C795.517 596.592 823.091 588.679 849.63 571.541C918.086 527.755 947.659 431.186 908.082 364.388Z" fill="url(#paint1_linear_144:35)"/>
<path d="M361.978 483.023C376.43 428.425 411.362 382.568 460.01 354.283C508.92 325.847 565.793 318.328 620.391 332.78C674.988 347.231 720.846 382.164 749.13 430.812C777.415 479.461 785.086 536.595 770.634 591.192C756.182 645.79 721.25 691.648 672.602 719.932C623.953 748.217 566.819 755.888 512.221 741.436C457.624 726.984 411.766 692.052 383.481 643.404C355.197 594.755 347.526 537.621 361.978 483.023ZM770.014 591.028C799.738 478.73 732.676 363.386 620.378 333.662C508.081 303.937 392.736 370.999 363.012 483.297C333.287 595.595 400.349 710.939 512.647 740.664C624.945 770.388 740.344 703.119 770.014 591.028Z" fill="#FCFCFC"/>
<path d="M387.416 489.755C413.527 391.106 515.064 331.897 613.919 358.064C712.774 384.23 771.777 485.712 745.61 584.567C719.499 683.215 617.962 742.425 519.107 716.258C420.252 690.092 361.304 588.403 387.416 489.755ZM744.576 584.293C770.579 486.059 711.88 385.1 613.645 359.098C515.411 333.095 414.452 391.794 388.45 490.028C362.448 588.263 421.146 689.222 519.381 715.224C617.615 741.227 718.629 682.321 744.576 584.293Z" fill="#FCFCFC"/>
<path d="M413.059 496.542C435.448 411.957 522.545 361.318 607.13 383.707C691.715 406.096 742.354 493.193 719.965 577.778C697.576 662.363 610.479 713.002 525.894 690.613C441.308 668.224 390.67 581.127 413.059 496.542ZM718.931 577.504C741.211 493.333 690.821 406.966 606.856 384.741C522.685 362.461 436.318 412.851 414.093 496.816C391.813 580.987 442.203 667.354 526.167 689.579C610.339 711.859 696.706 661.469 718.931 577.504Z" fill="#FCFCFC"/>
<path d="M438.505 503.27C457.172 432.748 529.883 390.473 600.406 409.139C670.928 427.806 713.203 500.517 694.536 571.04C675.869 641.562 603.158 683.837 532.636 665.17C462.113 646.503 419.838 573.792 438.505 503.27ZM693.502 570.766C712.059 500.657 670.24 428.731 600.132 410.173C530.023 391.616 458.097 433.435 439.539 503.543C420.982 573.652 462.801 645.579 532.909 664.136C603.018 682.693 674.999 640.668 693.502 570.766Z" fill="#FCFCFC"/>
<path d="M463.939 510.011C478.883 453.552 537.002 419.586 593.668 434.586C650.127 449.53 684.093 507.649 669.094 564.315C654.15 620.774 596.031 654.74 539.365 639.741C482.906 624.797 448.994 566.471 463.939 510.011ZM668.06 564.041C682.895 507.996 649.44 450.455 593.395 435.62C537.349 420.785 479.808 454.24 464.973 510.285C450.138 566.331 483.593 623.872 539.639 638.707C595.684 653.542 653.28 619.88 668.06 564.041Z" fill="#FCFCFC"/>
<defs>
<linearGradient id="paint0_linear_144:35" x1="517.758" y1="179.134" x2="391.46" y2="656.278" gradientUnits="userSpaceOnUse">
<stop stop-color="#FF8A00"/>
<stop offset="1" stop-color="#FFBC00"/>
</linearGradient>
<linearGradient id="paint1_linear_144:35" x1="692.626" y1="721.828" x2="322.353" y2="308.018" gradientUnits="userSpaceOnUse">
<stop stop-color="#FBB12E"/>
<stop offset="1" stop-color="#C83439"/>
</linearGradient>
</defs>
</svg>
