<svg width="1206" height="1225" viewBox="0 0 1206 1225" fill="none" xmlns="http://www.w3.org/2000/svg">
<path fill-rule="evenodd" clip-rule="evenodd" d="M839.135 993.336C743.388 1019.96 665.956 928.489 570.445 915.233C495.885 904.886 413.775 953.557 346.006 924.899C275.057 894.897 222.78 830.847 200.777 758.912C179.489 689.316 211.481 614.3 228.51 540.776C245.277 468.385 256.384 395.494 299.612 332.194C348.531 260.561 404.717 176.157 490.038 157.815C575.414 139.461 642.879 211.526 720.511 241.71C788.933 268.313 867.31 275.41 919.217 324.683C973.999 376.684 997.159 449.879 1016.73 522.889C1039.63 608.337 1075.07 697.302 1042.33 784.017C1008.3 874.177 934.672 966.771 839.135 993.336Z" fill="url(#paint0_linear_144:73)"/>
<path d="M287.916 484.286C314.368 385.566 377.832 302.776 466.021 251.86C554.684 200.67 657.641 187.377 756.361 213.829C855.08 240.281 937.871 303.746 988.787 391.935C1039.7 480.124 1053.27 583.554 1026.82 682.274C1000.37 780.994 936.901 863.784 848.712 914.7C760.523 965.616 657.092 979.183 558.373 952.731C459.653 926.279 376.862 862.815 325.946 774.626C275.031 686.437 261.464 583.006 287.916 484.286ZM1025.7 681.973C1080.1 478.925 959.382 269.832 756.334 215.425C553.285 161.019 344.192 281.739 289.785 484.787C235.379 687.835 356.099 896.929 559.147 951.335C762.196 1005.74 971.389 884.648 1025.7 681.973Z" fill="#FCFCFC"/>
<path d="M333.908 496.607C381.702 318.238 565.766 211.652 744.508 259.546C923.251 307.44 1029.46 491.404 981.569 670.147C933.775 848.515 749.711 955.101 570.968 907.207C392.226 859.313 286.114 674.975 333.908 496.607ZM979.699 669.646C1027.29 492.025 921.628 309.009 744.007 261.416C566.387 213.823 383.371 319.487 335.778 497.108C288.184 674.728 393.849 857.744 571.469 905.338C749.09 952.931 932.206 846.892 979.699 669.646Z" fill="#FCFCFC"/>
<path d="M380.274 509.03C421.254 356.09 579.141 264.934 732.082 305.914C885.023 346.894 976.179 504.781 935.198 657.722C894.218 810.663 736.331 901.819 583.39 860.838C430.45 819.858 339.294 661.971 380.274 509.03ZM933.329 657.221C974.108 505.028 883.4 348.463 731.581 307.784C579.388 267.004 422.823 357.713 382.144 509.531C341.364 661.724 432.072 818.289 583.891 858.969C736.084 899.749 892.649 809.04 933.329 657.221Z" fill="#FCFCFC"/>
<path d="M426.285 521.344C460.452 393.831 592.262 317.731 719.775 351.898C847.287 386.065 923.388 517.875 889.221 645.387C855.054 772.9 723.244 849.001 595.731 814.834C468.218 780.667 392.118 648.857 426.285 521.344ZM887.351 644.886C921.318 518.121 846.039 387.735 719.274 353.768C592.509 319.801 462.122 395.08 428.155 521.845C394.188 648.61 469.467 778.997 596.232 812.964C722.997 846.931 853.485 771.278 887.351 644.886Z" fill="#FCFCFC"/>
<path d="M472.279 533.685C499.633 431.6 604.991 370.455 707.45 397.909C809.535 425.263 870.68 530.621 843.226 633.08C815.872 735.165 710.514 796.309 608.055 768.856C505.97 741.502 444.926 635.77 472.279 533.685ZM841.356 632.579C868.509 531.241 808.286 426.932 706.949 399.779C605.612 372.625 501.302 432.849 474.149 534.186C446.996 635.523 507.219 739.833 608.556 766.986C709.893 794.139 814.303 733.542 841.356 632.579Z" fill="#FCFCFC"/>
<defs>
<linearGradient id="paint0_linear_144:73" x1="839.632" y1="1002.84" x2="366.184" y2="222.041" gradientUnits="userSpaceOnUse">
<stop stop-color="#C83439"/>
<stop offset="1" stop-color="#FBB12E"/>
</linearGradient>
</defs>
</svg>
