<svg width="902" height="1030" viewBox="0 0 902 1030" fill="none" xmlns="http://www.w3.org/2000/svg">
<path fill-rule="evenodd" clip-rule="evenodd" d="M233.467 199.431C297.434 170.913 360.92 226.614 428.87 225.916C481.915 225.372 534.083 182.906 584.3 195.83C636.873 209.361 679.973 248.566 702.793 296.416C724.871 342.71 710.377 398.324 706.156 451.343C702 503.544 701.842 555.505 678.297 604.122C651.652 659.14 621.271 723.815 563.71 745.475C506.112 767.15 451.592 723.939 394.342 710.977C343.884 699.552 288.517 702.759 247.211 673.816C203.618 643.27 179.861 594.662 158.626 545.81C133.774 488.635 99.8188 430.312 113.614 366.466C127.957 300.083 169.641 227.886 233.467 199.431Z" fill="url(#paint0_linear_144:86)"/>
<path d="M862.477 689.315C852.116 780.102 806.922 861.687 735.659 918.35C664.013 975.318 574.725 1000.66 483.938 990.3C393.152 979.939 311.566 934.745 254.903 863.482C198.239 792.219 172.592 702.548 182.953 611.761C193.314 520.975 238.508 439.389 309.771 382.726C381.034 326.063 470.705 300.415 561.492 310.776C652.278 321.138 733.864 366.331 790.527 437.594C847.191 508.857 872.838 598.528 862.477 689.315ZM183.985 611.879C162.673 798.611 297.02 967.574 483.751 988.885C670.483 1010.2 839.446 875.85 860.758 689.119C882.069 502.387 747.722 333.424 560.991 312.112C374.259 290.801 205.257 425.492 183.985 611.879Z" fill="#FCFCFC"/>
<path d="M820.179 684.491C801.458 848.526 652.762 967.07 488.383 948.31C324.005 929.549 205.804 780.893 224.564 616.514C243.285 452.479 391.982 333.934 556.36 352.695C720.739 371.455 838.901 520.456 820.179 684.491ZM226.284 616.71C207.641 780.057 325.232 927.948 488.58 946.59C651.927 965.233 799.817 847.642 818.46 684.295C837.103 520.947 719.511 373.057 556.164 354.414C392.817 335.771 244.887 453.707 226.284 616.71Z" fill="#FCFCFC"/>
<path d="M777.543 679.624C761.491 820.275 633.906 921.72 493.256 905.668C352.605 889.615 251.16 762.031 267.212 621.38C283.264 480.73 410.849 379.285 551.499 395.337C692.15 411.389 793.595 538.974 777.543 679.624ZM268.932 621.577C252.958 761.539 353.833 888.014 493.452 903.948C633.415 919.922 759.889 819.047 775.823 679.428C791.797 539.465 690.922 412.991 551.303 397.056C411.34 381.083 284.866 481.958 268.932 621.577Z" fill="#FCFCFC"/>
<path d="M735.225 674.807C721.841 792.073 615.329 876.763 498.063 863.379C380.797 849.996 296.107 743.484 309.491 626.218C322.874 508.952 429.386 424.262 546.652 437.645C663.918 451.029 748.608 557.541 735.225 674.807ZM311.21 626.414C297.905 742.993 381.681 848.355 498.26 861.66C614.838 874.965 720.2 791.189 733.505 674.61C746.81 558.032 663.034 452.67 546.456 439.365C429.878 426.06 324.476 510.18 311.21 626.414Z" fill="#FCFCFC"/>
<path d="M692.931 669.966C682.216 763.847 597.121 831.821 502.895 821.067C409.014 810.353 341.04 725.257 351.794 631.032C362.508 537.15 447.604 469.176 541.829 479.93C635.711 490.644 703.646 576.084 692.931 669.966ZM353.513 631.228C342.877 724.422 409.898 808.712 503.092 819.348C596.286 829.984 680.575 762.963 691.212 669.769C701.848 576.576 634.827 492.285 541.633 481.649C448.439 471.013 364.11 538.378 353.513 631.228Z" fill="#FCFCFC"/>
<defs>
<linearGradient id="paint0_linear_144:86" x1="232.132" y1="192.858" x2="643.355" y2="687.825" gradientUnits="userSpaceOnUse">
<stop stop-color="#C83439"/>
<stop offset="1" stop-color="#FBB12E"/>
</linearGradient>
</defs>
</svg>
