<svg width="48" height="48" viewBox="0 0 48 48" fill="none" xmlns="http://www.w3.org/2000/svg">
<g clip-path="url(#clip0_141:390)">
<path d="M31.6586 31.3876C29.4223 33.6239 29.7018 38.1364 29.7018 38.1364H18.3607C18.3607 38.1364 18.6003 33.6239 16.404 31.3876C13.968 29.2312 12.4106 26.1164 12.4106 22.6422C12.4106 16.2529 17.602 11.0615 23.9913 11.0615C30.3807 11.0615 35.572 16.2529 35.572 22.6422C35.572 26.1164 34.0546 29.2312 31.6586 31.3876Z" fill="#FFD517"/>
<path d="M30.02 41.6905C30.02 42.2895 29.5408 42.7687 28.9418 42.7687H19.0782C18.4792 42.7687 18 42.2895 18 41.6905C18 41.0915 18.4792 40.6123 19.0782 40.6123H28.9018C29.5008 40.6123 30.02 41.0915 30.02 41.6905Z" fill="#E5E5E5"/>
<path d="M28.5415 46.1632C28.5415 46.7622 28.0623 47.2414 27.4633 47.2414H20.5548C19.9558 47.2414 19.4766 46.7622 19.4766 46.1632C19.4766 45.5642 19.9558 45.085 20.5548 45.085H27.4633C28.0623 45.085 28.5415 45.5642 28.5415 46.1632Z" fill="#E5E5E5"/>
<path d="M32.257 31.7869C34.8527 29.4309 36.3302 26.1164 36.3302 22.6422C36.3302 15.8535 30.7795 10.3027 23.9908 10.3027C17.2021 10.3027 11.6514 15.8535 11.6514 22.6422C11.6514 26.1962 13.2088 29.5906 15.8444 31.9067C17.8011 33.8635 17.6014 38.0165 17.6014 38.0565C17.6014 38.2561 17.6813 38.4558 17.8011 38.6155C17.9609 38.7753 18.1605 38.8551 18.3602 38.8551H29.6613C29.861 38.8551 30.0607 38.7753 30.2204 38.6155C30.3801 38.4558 30.4201 38.2561 30.4201 38.0565C30.4201 38.0165 30.2204 33.8635 32.1772 31.9067C32.2171 31.8668 32.257 31.8269 32.257 31.7869ZM31.1389 30.7886C31.059 30.8285 31.0191 30.9084 30.9792 30.9883C29.2221 32.8651 28.9425 35.94 28.9026 37.3776H19.1189C19.079 35.9001 18.7595 32.7054 16.8826 30.8285C14.5266 28.752 13.1688 25.7969 13.1688 22.6821C13.1688 16.6921 18.0407 11.8601 23.9908 11.8601C29.9808 11.8601 34.8128 16.732 34.8128 22.6821C34.8128 25.757 33.495 28.752 31.1389 30.7886Z" fill="#210B20"/>
<path d="M23.9912 13.4971C23.5918 13.4971 23.2324 13.8165 23.2324 14.2558C23.2324 14.6551 23.5519 15.0145 23.9912 15.0145C28.4637 15.0145 32.0976 18.6485 32.0976 23.121C32.0976 23.5204 32.4171 23.8798 32.8564 23.8798C33.2557 23.8798 33.6151 23.5603 33.6151 23.121C33.6151 17.8099 29.3023 13.4971 23.9912 13.4971Z" fill="#210B20"/>
<path d="M30.7786 41.6905C30.7786 40.6522 29.94 39.8535 28.9417 39.8535H19.0781C18.0399 39.8535 17.2412 40.6921 17.2412 41.6905C17.2412 42.7287 18.0798 43.5274 19.0781 43.5274H28.9018C29.94 43.5274 30.7786 42.7287 30.7786 41.6905ZM28.9018 42.0099H19.0781C18.8785 42.0099 18.7587 41.8502 18.7587 41.6905C18.7587 41.4908 18.9184 41.371 19.0781 41.371H28.9018C29.1014 41.371 29.2212 41.5307 29.2212 41.6905C29.2612 41.8901 29.1014 42.0099 28.9018 42.0099Z" fill="#210B20"/>
<path d="M27.4671 44.3262H20.5586C19.5203 44.3262 18.7217 45.1648 18.7217 46.1631C18.7217 47.2014 19.5603 48 20.5586 48H27.4671C28.5054 48 29.304 47.1614 29.304 46.1631C29.304 45.1648 28.4654 44.3262 27.4671 44.3262ZM27.4671 46.4826H20.5586C20.359 46.4826 20.2392 46.3228 20.2392 46.1631C20.2392 45.9634 20.3989 45.8436 20.5586 45.8436H27.4671C27.6668 45.8436 27.7866 46.0034 27.7866 46.1631C27.7866 46.3628 27.6668 46.4826 27.4671 46.4826Z" fill="#210B20"/>
<path d="M24.7499 5.87022V0.758735C24.7499 0.359401 24.4304 0 23.9912 0C23.5918 0 23.2324 0.319468 23.2324 0.758735V5.91015C23.2324 6.30948 23.5519 6.66889 23.9912 6.66889C24.4304 6.62895 24.7499 6.30948 24.7499 5.87022Z" fill="#210B20"/>
<path d="M36.5733 3.79348C36.2139 3.55388 35.7746 3.67368 35.535 3.99315L32.6997 8.26603C32.4601 8.62543 32.5799 9.0647 32.8994 9.3043C33.0192 9.38417 33.1789 9.4241 33.2987 9.4241C33.5383 9.4241 33.7779 9.3043 33.9377 9.10463L36.7729 4.83175C37.0125 4.51229 36.8927 4.03308 36.5733 3.79348Z" fill="#210B20"/>
<path d="M14.9657 9.26471C15.0855 9.26471 15.2452 9.22478 15.365 9.14491C15.7244 8.90531 15.8043 8.46604 15.6046 8.10664L12.8492 3.79383C12.6096 3.43443 12.1703 3.35456 11.8109 3.55423C11.4515 3.79383 11.3717 4.2331 11.5713 4.5925L14.3267 8.90531C14.4865 9.14491 14.7261 9.26471 14.9657 9.26471Z" fill="#210B20"/>
<path d="M4.384 12.8588L8.89648 15.2948C9.01628 15.3746 9.13608 15.3746 9.25588 15.3746C9.53542 15.3746 9.77502 15.2149 9.93475 14.9753C10.1344 14.6159 10.0146 14.1367 9.61528 13.937L5.10281 11.5011C4.7434 11.3014 4.2642 11.4212 4.06454 11.8206C3.9048 12.2199 4.0246 12.6592 4.384 12.8588Z" fill="#210B20"/>
<path d="M38.7258 15.4146C38.8456 15.4146 38.9654 15.3747 39.0852 15.3348L43.5977 12.8988C43.9571 12.6992 44.1168 12.2599 43.9172 11.8606C43.7175 11.5011 43.2782 11.3414 42.8789 11.5411L38.3664 13.977C38.007 14.1767 37.8473 14.616 38.0469 15.0153C38.1667 15.2549 38.4463 15.4146 38.7258 15.4146Z" fill="#210B20"/>
</g>
<defs>
<clipPath id="clip0_141:390">
<rect width="48" height="48" fill="white"/>
</clipPath>
</defs>
</svg>
