<svg width="57" height="57" viewBox="0 0 57 57" fill="none" xmlns="http://www.w3.org/2000/svg">
<g clip-path="url(#clip0)">
<path d="M26.3019 38.6604C26.7371 38.2251 26.7371 37.5206 26.3019 37.0853C25.8661 36.6513 25.1603 36.6513 24.7241 37.0853C24.2892 37.5206 24.2892 38.2251 24.7241 38.6604C25.1603 39.0944 25.8661 39.0944 26.3019 38.6604Z" fill="white"/>
<path d="M21.0208 12.2426C21.0208 18.9932 26.5235 24.4857 33.2873 24.4857C40.0511 24.4857 45.5539 18.9932 45.5539 12.2426C45.5539 5.49204 40.0511 0 33.2873 0C26.5235 0 21.0208 5.49204 21.0208 12.2426ZM43.3238 12.2426C43.3238 17.766 38.8215 22.2595 33.2873 22.2595C27.7532 22.2595 23.2508 17.766 23.2508 12.2426C23.2508 6.7197 27.7532 2.22613 33.2873 2.22613C38.8215 2.22613 43.3238 6.7197 43.3238 12.2426Z" fill="white"/>
<path d="M12.9006 56.6707C13.3328 57.1055 14.0365 57.1103 14.4744 56.6798L19.8809 51.3639C20.7994 50.4472 21.0787 49.0899 20.6748 47.9101L21.8378 46.7907C22.4639 46.1871 23.2883 45.8544 24.1598 45.8544H38.9845C41.6145 45.8544 44.1003 44.8464 45.9849 43.016C46.0624 42.9408 45.3962 43.724 56.0985 30.9578C57.6859 29.0835 57.4484 26.2689 55.5687 24.683C53.7007 23.1117 50.9025 23.3374 49.3108 25.1796L42.7304 31.9297C41.8995 30.9091 40.6324 30.2728 39.2633 30.2728H26.8281C25.0587 29.534 23.1811 29.16 21.2439 29.16C15.874 29.16 11.1851 31.6353 8.66881 36.2763C7.60868 36.0758 6.49061 36.3959 5.68626 37.1987L0.381288 42.5089C-0.0518245 42.9425 -0.0526959 43.644 0.379545 44.0788L12.9006 56.6707ZM21.2434 31.3857C22.9515 31.3857 24.6029 31.7288 26.1528 32.4055C26.2939 32.4672 26.446 32.499 26.5998 32.499H39.2633C40.4725 32.499 41.4938 33.4831 41.4938 34.7247C41.4938 35.9523 40.4934 36.9508 39.2633 36.9508H30.1649C29.5493 36.9508 29.0499 37.4492 29.0499 38.0636C29.0499 38.6786 29.5493 39.1765 30.1649 39.1765H39.2633C41.723 39.1765 43.7239 37.1795 43.7239 34.7247C43.7239 34.529 43.7099 34.335 43.6847 34.1428C50.0502 27.6123 50.9478 26.6947 50.9861 26.649C51.7809 25.7127 53.1918 25.594 54.1303 26.3838C55.0698 27.1765 55.1887 28.5838 54.3918 29.5253L44.3897 41.4592C42.9291 42.8586 41.0115 43.6287 38.9845 43.6287H24.1598C22.707 43.6287 21.3319 44.1832 20.2888 45.1891L19.3411 46.1019L10.6047 37.3831C12.6466 33.5601 16.4779 31.3857 21.2434 31.3857ZM7.26446 38.7716C7.63221 38.4046 8.19691 38.3385 8.64528 38.6151C8.8383 38.7325 8.28406 38.2289 18.304 48.2154C18.7498 48.6603 18.7258 49.3691 18.3101 49.784L13.701 54.3158L2.7438 43.2965L7.26446 38.7716Z" fill="white"/>
<path d="M31.9492 5.56519V6.86938C30.6512 7.32861 29.7187 8.56583 29.7187 10.017C29.7187 11.8578 31.2194 13.356 33.0643 13.356C33.6791 13.356 34.1793 13.8552 34.1793 14.4688C34.1793 15.0824 33.6791 15.5817 33.0643 15.5817C32.588 15.5817 32.0734 15.2829 31.6163 14.7398C31.2198 14.2692 30.5166 14.2088 30.0451 14.6041C29.5736 14.9998 29.5126 15.7017 29.9092 16.1722C30.5052 16.8798 31.2063 17.3729 31.9492 17.6217V18.9207C31.9492 19.5356 32.4486 20.0335 33.0643 20.0335C33.6799 20.0335 34.1793 19.5356 34.1793 18.9207V17.6165C35.4773 17.1568 36.4098 15.9196 36.4098 14.4688C36.4098 12.6276 34.9091 11.1299 33.0643 11.1299C32.4494 11.1299 31.9492 10.6306 31.9492 10.017C31.9492 9.4034 32.4494 8.90373 33.0643 8.90373C33.4595 8.90373 33.8764 9.10507 34.2703 9.48559C34.713 9.91307 35.4189 9.90133 35.8472 9.45993C36.2756 9.0181 36.2638 8.3136 35.8215 7.88612C35.2555 7.33948 34.6891 7.03028 34.1793 6.86155V5.56519C34.1793 4.95027 33.6799 4.4519 33.0643 4.4519C32.4486 4.4519 31.9492 4.95027 31.9492 5.56519Z" fill="white"/>
</g>
<defs>
<clipPath id="clip0">
<rect width="57" height="57" fill="white"/>
</clipPath>
</defs>
</svg>
