<svg width="57" height="57" viewBox="0 0 57 57" fill="none" xmlns="http://www.w3.org/2000/svg">
<path d="M56.3252 21.5859L28.9386 9.84464C28.6585 9.72464 28.3413 9.72464 28.0612 9.84464L0.674647 21.5859C0.265429 21.7613 0 22.1638 0 22.6091C0 23.0545 0.265429 23.4569 0.674647 23.6323L8.67783 27.0634V35.1911C8.67783 37.6899 10.8471 39.9517 14.7859 41.5598C18.4087 43.039 23.2013 43.8536 28.2812 43.8536C33.361 43.8536 38.1537 43.0389 41.7766 41.5598C45.7153 39.9517 47.8846 37.6899 47.8846 35.1911V27.2509L50.5813 26.0948V27.2752C50.5813 27.89 51.0798 28.3885 51.6946 28.3885C52.3093 28.3885 52.8079 27.89 52.8079 27.2752V25.1402L56.3254 23.6322C56.7346 23.4569 57 23.0543 57 22.609C57 22.1637 56.7345 21.7613 56.3252 21.5859ZM28.281 41.627C18.0407 41.627 10.9043 38.2352 10.9043 35.1911V28.0179L28.0612 35.3734C28.2012 35.4335 28.3506 35.4635 28.4998 35.4635C28.6491 35.4635 28.7984 35.4335 28.9385 35.3734L45.6578 28.2054V35.1911H45.6579C45.6579 38.2351 38.5216 41.627 28.281 41.627ZM28.4999 33.139L3.93866 22.6091L28.4999 12.0792L53.0612 22.6091L28.4999 33.139Z" fill="white"/>
<path d="M52.808 41.516V30.9224C52.808 30.3076 52.3095 29.8091 51.6947 29.8091C51.0799 29.8091 50.5814 30.3076 50.5814 30.9224V41.516C49.4921 41.9575 48.7214 43.0263 48.7214 44.2721C48.7214 45.9114 50.0551 47.2452 51.6947 47.2452C53.3343 47.2452 54.668 45.9115 54.668 44.2721C54.6679 43.0263 53.8972 41.9575 52.808 41.516ZM51.6947 45.0187C51.283 45.0187 50.948 44.6838 50.948 44.2721C50.948 43.8604 51.2829 43.5254 51.6947 43.5254C52.1064 43.5254 52.4414 43.8603 52.4414 44.2721C52.4413 44.6839 52.1064 45.0187 51.6947 45.0187Z" fill="white"/>
<path d="M26.8292 14.4546L23.6007 15.8671C23.0373 16.1134 22.7805 16.7698 23.027 17.3331C23.2099 17.7512 23.6185 18.0005 24.0475 18.0005C24.1965 18.0005 24.3479 17.9704 24.493 17.9069L27.7215 16.4944C28.2849 16.2481 28.5417 15.5917 28.2953 15.0284C28.0488 14.4648 27.3919 14.2078 26.8292 14.4546Z" fill="white"/>
<path d="M19.4816 17.6693L10.798 21.4684C10.2346 21.7147 9.97781 22.3711 10.2243 22.9344C10.4072 23.3525 10.8158 23.6018 11.2447 23.6018C11.3938 23.6018 11.5452 23.5717 11.6903 23.5082L20.3738 19.7091C20.9373 19.4627 21.194 18.8064 20.9476 18.2431C20.7011 17.6794 20.0442 17.4224 19.4816 17.6693Z" fill="white"/>
</svg>
