<svg width="10" height="10" viewBox="0 0 10 10" fill="none" xmlns="http://www.w3.org/2000/svg">
<g clip-path="url(#clip0)">
<path d="M5.27442 7.58656L9.88692 2.96126C10.038 2.80972 10.0377 2.56437 9.88614 2.41308C9.73459 2.26191 9.48911 2.2623 9.33795 2.41386L4.99998 6.76385L0.662031 2.41371C0.51086 2.26216 0.265529 2.26177 0.113967 2.41292C0.0379907 2.48876 2.14591e-06 2.58812 2.14591e-06 2.68747C2.14591e-06 2.78658 0.0377366 2.88554 0.113186 2.96124L4.72557 7.58656C4.79819 7.65955 4.89701 7.7005 4.99998 7.7005C5.10295 7.7005 5.20166 7.65943 5.27442 7.58656Z" fill="black"/>
</g>
<defs>
<clipPath id="clip0">
<rect width="10" height="10" fill="white" transform="translate(10) rotate(90)"/>
</clipPath>
</defs>
</svg>
