<svg width="54" height="54" viewBox="0 0 54 54" fill="none" xmlns="http://www.w3.org/2000/svg">
<g clip-path="url(#clip0_141:575)">
<path d="M32.2258 18.2899C32.2258 18.7709 31.8358 19.1609 31.3549 19.1609C30.8739 19.1609 30.4839 18.7709 30.4839 18.2899C30.4839 17.8089 30.8739 17.4189 31.3549 17.4189C31.8358 17.4189 32.2258 17.8089 32.2258 18.2899Z" fill="#FFE4E4"/>
<path d="M40.9372 18.2899C40.9372 18.7709 40.5473 19.1609 40.0663 19.1609C39.5853 19.1609 39.1953 18.7709 39.1953 18.2899C39.1953 17.8089 39.5853 17.4189 40.0663 17.4189C40.5473 17.4189 40.9372 17.8089 40.9372 18.2899Z" fill="#FFE4E4"/>
<path d="M35.7095 25.2585C34.7488 25.2585 33.9675 24.4773 33.9675 23.5166H32.2256C32.2256 25.438 33.7881 27.0005 35.7095 27.0005C37.6309 27.0005 39.1933 25.438 39.1933 23.5166H37.4514C37.4514 24.4773 36.6702 25.2585 35.7095 25.2585Z" fill="#FFE4E4"/>
<path d="M49.8314 34.5644L48.8031 34.2212C48.8673 33.7849 49.0817 33.5255 49.4189 33.155C49.8812 32.6456 50.5161 31.9481 50.5161 30.6527C50.5161 29.3586 49.8812 28.6599 49.4189 28.1504C49.0162 27.7072 48.7742 27.4414 48.7742 26.8197C48.7742 26.1996 49.0162 25.9321 49.4176 25.4915C49.8812 24.9821 50.5161 24.285 50.5161 22.9901C50.5161 21.6951 49.8812 20.9989 49.4176 20.4894C49.0162 20.0488 48.7742 19.7813 48.7742 19.1613V13.0645C48.7742 5.86075 42.9134 0 35.7097 0C28.5059 0 22.6452 5.86075 22.6452 13.0645V19.1613C22.6452 19.7813 22.4032 20.0488 22.0017 20.4894C21.8299 20.6778 21.6356 20.8926 21.4582 21.1524C21.0593 21.0138 20.643 20.9338 20.2168 20.9156C21.2298 19.3714 21.7742 17.5639 21.7742 15.6774C21.7742 10.3951 17.4759 6.09677 12.1935 6.09677C6.91118 6.09677 2.6129 10.3951 2.6129 15.6774C2.6129 17.5657 3.15811 19.3756 4.17282 20.9215C1.85761 21.0189 0 22.9195 0 25.2581V49.6452C0 52.0463 1.95372 54 4.35484 54H20.0323C22.1357 54 23.8951 52.5009 24.2991 50.5161H54V40.3469C54 37.7191 52.3244 35.3945 49.8314 34.5644ZM48.1307 21.6619C48.5322 22.1034 48.7742 22.3709 48.7742 22.9901C48.7742 23.6093 48.5322 23.8776 48.1307 24.3182C47.6672 24.8285 47.0323 25.5256 47.0323 26.8197C47.0323 28.1138 47.6672 28.8125 48.1295 29.322C48.5322 29.7643 48.7742 30.0301 48.7742 30.6519C48.7742 31.274 48.5322 31.5411 48.1295 31.983C47.7769 32.3721 47.3257 32.8731 47.1305 33.6628L40.9355 31.5977V29.7932C43.1087 28.3728 44.666 26.095 45.1351 23.443C46.3459 23.241 47.3903 22.5486 48.0453 21.5662C48.0729 21.5981 48.1027 21.6313 48.1307 21.6619ZM35.7097 29.6129C31.3872 29.6129 27.871 26.0967 27.871 21.7742V15.7846C27.871 14.2289 28.8283 12.86 30.2487 12.3092C33.736 15.6085 38.2792 17.4194 43.0997 17.4194H43.5484V21.7742C43.5484 26.0967 40.0322 29.6129 35.7097 29.6129ZM35.7097 31.3548C36.9396 31.3548 38.1116 31.1137 39.1936 30.6893V31.8069L35.7097 34.595L32.2258 31.8069V30.6893C33.3077 31.1137 34.4798 31.3548 35.7097 31.3548ZM31.1805 33.2022L34.3326 35.7237L30.9925 38.5072L29.7817 33.6679L31.1805 33.2022ZM34.7558 41.8064H36.6636L37.3602 48.7742H34.0592L34.7558 41.8064ZM36.9587 40.0645H34.4615L33.5888 38.6109L35.7097 36.8435L37.8305 38.6109L36.9587 40.0645ZM37.0867 35.7237L40.2389 33.2022L41.6368 33.6679L40.426 38.5072L37.0867 35.7237ZM45.2903 16.7087C46.3016 17.0694 47.0323 18.0275 47.0323 19.1613C47.0323 20.2951 46.3016 21.2532 45.2903 21.6139V16.7087ZM35.7097 1.74194C41.9527 1.74194 47.0323 6.82145 47.0323 13.0645V15.7C46.5236 15.3151 45.9376 15.0267 45.2903 14.8953V12.1935H43.5484V15.6774H43.0997C38.5663 15.6774 34.305 13.9129 31.0997 10.7068L30.7514 10.3585L30.2729 10.4784C28.1287 11.0143 26.556 12.7647 26.2047 14.8873C25.529 15.0127 24.9149 15.3002 24.3871 15.7V13.0645C24.3871 6.82145 29.4666 1.74194 35.7097 1.74194ZM24.3871 19.1613C24.3871 18.0275 25.1177 17.0694 26.129 16.7087V21.613C25.1177 21.2532 24.3871 20.2951 24.3871 19.1613ZM23.2886 21.6619C23.3167 21.6313 23.3473 21.5973 23.3758 21.565C24.0273 22.5405 25.0671 23.2312 26.283 23.4413C26.7508 26.0942 28.309 28.3728 30.483 29.7941V31.5985L24.288 33.6637C24.0928 32.8739 23.6416 32.373 23.2886 31.9838C22.8871 31.5411 22.6452 31.274 22.6452 30.6519C22.6452 30.0301 22.8871 29.7635 23.2899 29.322C23.7522 28.8125 24.3871 28.1138 24.3871 26.8197C24.3871 25.5256 23.7522 24.8285 23.2886 24.3191C22.8871 23.8776 22.6452 23.6101 22.6452 22.9901C22.6452 22.37 22.8871 22.1034 23.2886 21.6619ZM12.1935 7.83871C16.5161 7.83871 20.0323 11.3549 20.0323 15.6774C20.0323 17.6248 19.3165 19.4637 18.0245 20.9032H13.0645V19.8719C14.0758 19.5113 14.8065 18.5531 14.8065 17.4194C14.8065 15.9789 13.634 14.8065 12.1935 14.8065C11.713 14.8065 11.3226 14.416 11.3226 13.9355C11.3226 13.4549 11.713 13.0645 12.1935 13.0645C12.6741 13.0645 13.0645 13.4549 13.0645 13.9355H14.8065C14.8065 12.8017 14.0758 11.8435 13.0645 11.4829V9.58065H11.3226V11.4829C10.3113 11.8435 9.58065 12.8017 9.58065 13.9355C9.58065 15.3759 10.7531 16.5484 12.1935 16.5484C12.6741 16.5484 13.0645 16.9388 13.0645 17.4194C13.0645 17.8999 12.6741 18.2903 12.1935 18.2903C11.713 18.2903 11.3226 17.8999 11.3226 17.4194H9.58065C9.58065 18.5531 10.3113 19.5113 11.3226 19.8719V20.9032H6.36257C5.07058 19.4637 4.35484 17.6248 4.35484 15.6774C4.35484 11.3549 7.87103 7.83871 12.1935 7.83871ZM22.6452 48.7742V49.6452C22.6452 51.0856 21.4727 52.2581 20.0323 52.2581H4.35484C2.91442 52.2581 1.74194 51.0856 1.74194 49.6452V25.2581C1.74194 23.8176 2.91442 22.6452 4.35484 22.6452H20.0323C20.3363 22.6452 20.6332 22.7034 20.9147 22.8046C20.9117 22.8672 20.9032 22.9246 20.9032 22.9901C20.9032 24.2842 21.5382 24.9812 22.0017 25.4907C22.4032 25.9321 22.6452 26.1996 22.6452 26.8197C22.6452 27.4414 22.4032 27.7081 22.0004 28.1495C21.5382 28.659 20.9032 29.3577 20.9032 30.6519C20.9032 31.9473 21.5382 32.6447 22.0004 33.1542C22.3377 33.5255 22.552 33.7849 22.6162 34.2204L21.5879 34.5636C21.3493 34.6427 21.1261 34.7481 20.9032 34.8536V33.0968H3.48387V48.7742C3.48387 49.7349 4.26511 50.5161 5.22581 50.5161H20.9032V48.7742H19.1613V40.3469C19.1613 38.4697 20.358 36.809 22.1391 36.2158L28.1253 34.2204L29.9752 41.6219L32.2343 39.7396L33.0725 41.1366L32.3087 48.7742H26.129V48.4136L25.3635 47.6481C24.7426 47.0272 24.3871 46.1681 24.3871 45.2903C24.3871 44.4126 24.7426 43.5535 25.3635 42.9326L26.129 42.1671V40.0645H24.3871V41.4458L24.1319 41.701C23.187 42.646 22.6452 43.9541 22.6452 45.2903C22.6452 46.5793 23.1529 47.8377 24.0371 48.7742H22.6452ZM17.4194 48.7742H15.6774V45.2903H17.4194V48.7742ZM10.4516 38.3226V34.8387H13.9355V38.3226H10.4516ZM13.9355 40.0645V43.5484H10.4516V40.0645H13.9355ZM8.70968 38.3226H5.22581V34.8387H8.70968V38.3226ZM5.22581 40.0645H8.70968V43.5484H5.22581V40.0645ZM5.22581 45.2903H8.70968V48.7742H5.22581V45.2903ZM10.4516 45.2903H13.9355V48.7742H10.4516V45.2903ZM17.4194 40.3469V43.5484H15.6774V40.0645H17.4419C17.4376 40.1594 17.4194 40.2508 17.4194 40.3469ZM17.774 38.3226H15.6774V34.8387H19.1613V36.0797C18.5404 36.7129 18.07 37.4805 17.774 38.3226ZM52.2581 48.7742H47.3823C48.2664 47.8377 48.7742 46.5793 48.7742 45.2903C48.7742 43.9541 48.2324 42.646 47.2874 41.701L47.0323 41.4458V40.0645H45.2903V42.1671L46.0558 42.9326C46.6767 43.5535 47.0323 44.4126 47.0323 45.2903C47.0323 46.1681 46.6767 47.0272 46.0558 47.6481L45.2903 48.4136V48.7742H39.1106L38.3468 41.1358L39.185 39.7388L41.4441 41.621L43.2941 34.2195L49.2803 36.2149C51.0613 36.8099 52.2581 38.4697 52.2581 40.3469V48.7742Z" fill="#FFE4E4"/>
<path d="M3.48389 24.3867V31.3545H20.9032V24.3867H3.48389ZM19.1613 29.6125H5.22582V26.1287H19.1613V29.6125Z" fill="#FFE4E4"/>
</g>
<defs>
<clipPath id="clip0_141:575">
<rect width="54" height="54" fill="white"/>
</clipPath>
</defs>
</svg>
