<svg width="48" height="54" viewBox="0 0 48 54" fill="none" xmlns="http://www.w3.org/2000/svg">
<path d="M12.939 18.9971C12.5734 18.7579 12.0831 18.8604 11.844 19.2259C11.6048 19.5915 11.7073 20.0818 12.0729 20.3209C13.2164 21.069 13.9892 21.2772 15.0124 21.3251V22.3693C15.0124 22.8062 15.3666 23.1603 15.8034 23.1603C16.2403 23.1603 16.5944 22.8062 16.5944 22.3693V21.2655C18.5794 20.911 19.7385 19.2906 19.9929 17.7774C20.3151 15.8608 19.3118 14.1941 17.437 13.5315C17.1604 13.4337 16.8768 13.3307 16.5945 13.2232V8.86584C17.3466 9.01571 17.797 9.40025 17.8332 9.4322C18.1544 9.72382 18.6514 9.7022 18.9462 9.38274C19.2423 9.06159 19.2221 8.56114 18.901 8.26498C18.8509 8.21878 17.9942 7.44812 16.5945 7.26324V6.3291C16.5945 5.89225 16.2404 5.53809 15.8035 5.53809C15.3667 5.53809 15.0125 5.89225 15.0125 6.3291V7.32409C14.8605 7.35531 14.7052 7.39423 14.5464 7.44201C13.3157 7.81273 12.3958 8.8671 12.1459 10.1935C11.7284 12.4083 13.0414 13.4165 15.0126 14.285V19.7427C14.2592 19.7009 13.7692 19.5402 12.939 18.9971ZM16.5944 14.9102C16.6973 14.9475 16.8018 14.985 16.9097 15.0232C18.6105 15.6244 18.5053 17.0826 18.4327 17.5152C18.2859 18.3882 17.6606 19.3184 16.5944 19.639V14.9102ZM13.7004 10.4865C13.8103 9.90354 14.21 9.19553 15.0026 8.95675C15.0059 8.9558 15.0091 8.95496 15.0124 8.95401V12.5334C14.0504 12.0341 13.487 11.6186 13.7004 10.4865Z" fill="white"/>
<path d="M11.7144 26.9756C11.7144 27.4124 12.0685 27.7666 12.5054 27.7666H39.8936C40.3305 27.7666 40.6846 27.4124 40.6846 26.9756C40.6846 26.5387 40.3305 26.1846 39.8936 26.1846H12.5054C12.0685 26.1846 11.7144 26.5387 11.7144 26.9756Z" fill="white"/>
<path d="M40.6846 33.5537C40.6846 33.1169 40.3305 32.7627 39.8936 32.7627H12.5054C12.0685 32.7627 11.7144 33.1169 11.7144 33.5537C11.7144 33.9906 12.0685 34.3447 12.5054 34.3447H39.8936C40.3305 34.3447 40.6846 33.9906 40.6846 33.5537Z" fill="white"/>
<path d="M12.5054 39.3408C12.0685 39.3408 11.7144 39.695 11.7144 40.1318C11.7144 40.5687 12.0685 40.9229 12.5054 40.9229H25.9582C26.3951 40.9229 26.7492 40.5687 26.7492 40.1318C26.7492 39.695 26.3951 39.3408 25.9582 39.3408H12.5054Z" fill="white"/>
<path d="M25.3726 18.4619H39.8913C40.3281 18.4619 40.6823 18.1078 40.6823 17.6709C40.6823 17.234 40.3281 16.8799 39.8913 16.8799H25.3726C24.9357 16.8799 24.5815 17.234 24.5815 17.6709C24.5815 18.1078 24.9357 18.4619 25.3726 18.4619Z" fill="white"/>
<path d="M25.3726 11.8184H39.8913C40.3281 11.8184 40.6823 11.4642 40.6823 11.0273C40.6823 10.5905 40.3281 10.2363 39.8913 10.2363H25.3726C24.9357 10.2363 24.5815 10.5905 24.5815 11.0273C24.5815 11.4642 24.9357 11.8184 25.3726 11.8184Z" fill="white"/>
<path d="M43.1511 0H8.76457C6.53854 0 4.72754 1.811 4.72754 4.03713V42.7171C4.72754 43.1539 5.0817 43.5081 5.51855 43.5081C5.95541 43.5081 6.30957 43.1539 6.30957 42.7171V4.03713C6.30957 2.68334 7.41088 1.58203 8.76457 1.58203H43.151C44.5048 1.58203 45.6061 2.68334 45.6061 4.03713V9.17673C45.6061 9.61358 45.9602 9.96775 46.3971 9.96775C46.8339 9.96775 47.1881 9.61358 47.1881 9.17673V4.03713C47.1882 1.811 45.3772 0 43.1511 0V0Z" fill="white"/>
<path d="M46.397 12.0869C45.9602 12.0869 45.606 12.4411 45.606 12.8779V49.1616C45.606 50.925 44.1732 52.3837 42.4109 52.4164C40.5977 52.3767 39.1347 50.8905 39.1347 49.0681V47.9657C39.1347 46.6903 38.097 45.6526 36.8215 45.6526H3.12955C1.85411 45.6526 0.816406 46.6903 0.816406 47.9657V49.0681C0.816406 51.7878 3.02904 54.0003 5.74865 54.0003H42.4849C44.8878 54.0003 47.1881 51.8874 47.1881 49.1616V12.8779C47.1881 12.4411 46.8339 12.0869 46.397 12.0869ZM5.74865 52.4183C3.90126 52.4183 2.39844 50.9153 2.39844 49.0681V47.9657C2.39844 47.5626 2.72645 47.2346 3.12955 47.2346H36.8214C37.2245 47.2346 37.5525 47.5626 37.5525 47.9657V49.0681C37.5525 50.3603 38.0519 51.5379 38.8681 52.4183H5.74865Z" fill="white"/>
</svg>
