<svg width="50" height="50" viewBox="0 0 50 50" fill="none" xmlns="http://www.w3.org/2000/svg">
<path d="M44.4844 38.832L39.8438 37.6719V36.0469C40.799 35.5919 41.6361 34.9222 42.2896 34.09C42.9431 33.2579 43.3954 32.2859 43.6109 31.25H44.5312C45.1529 31.25 45.749 31.0031 46.1885 30.5635C46.6281 30.124 46.875 29.5279 46.875 28.9062C46.875 28.2846 46.6281 27.6885 46.1885 27.249C45.749 26.8094 45.1529 26.5625 44.5312 26.5625H44.1227L44.8813 24.6648C45.247 23.7512 45.3832 22.7618 45.2779 21.7833C45.1726 20.8048 44.8291 19.867 44.2774 19.052C43.7257 18.2371 42.9827 17.5698 42.1133 17.1085C41.2439 16.6473 40.2748 16.4061 39.2906 16.4062H35.1562V7.8125H35.1492C35.151 7.60632 35.0713 7.40778 34.9273 7.26016L28.6773 1.01016C28.6045 0.938561 28.5181 0.882096 28.4233 0.844016C28.3286 0.805936 28.2272 0.786994 28.125 0.788281V0.78125H1.5625C1.3553 0.78125 1.15659 0.86356 1.01007 1.01007C0.86356 1.15659 0.78125 1.3553 0.78125 1.5625V45.3125C0.78125 45.5197 0.86356 45.7184 1.01007 45.8649C1.15659 46.0114 1.3553 46.0938 1.5625 46.0938H24.2188V48.4375C24.2188 48.6447 24.3011 48.8434 24.4476 48.9899C24.5941 49.1364 24.7928 49.2188 25 49.2188H48.4375C48.6447 49.2188 48.8434 49.1364 48.9899 48.9899C49.1364 48.8434 49.2188 48.6447 49.2188 48.4375V44.8953C49.2206 43.501 48.7554 42.1462 47.8972 41.0472C47.0391 39.9482 45.8376 39.1683 44.4844 38.832ZM34.1352 39.1445L35.6141 40.625L34.5312 41.7094L33.1422 39.3945L34.1352 39.1445ZM39.3023 39.1445L40.2961 39.393L38.9062 41.7094L37.8234 40.625L39.3023 39.1445ZM38.2812 37.9578L36.7188 39.5203L35.1562 37.9578V36.5312C35.6784 36.6542 36.2128 36.7171 36.7492 36.7188H36.9055C37.3676 36.7191 37.8286 36.6725 38.2812 36.5797V37.9578ZM42.1875 29.8742C42.1861 31.2745 41.6292 32.6171 40.6391 33.6073C39.649 34.5975 38.3066 35.1546 36.9062 35.1562H36.75C35.2961 35.1583 33.9007 34.5838 32.8697 33.5587C31.8387 32.5335 31.2562 31.1414 31.25 29.6875V27.3438H31.6625C32.6363 27.3471 33.5981 27.128 34.4743 26.7031C35.3506 26.2783 36.1183 25.6589 36.7188 24.8922C37.3192 25.6589 38.0869 26.2783 38.9632 26.7031C39.8394 27.128 40.8012 27.3471 41.775 27.3438H42.1875V29.8742ZM44.5312 28.125C44.7384 28.125 44.9372 28.2073 45.0837 28.3538C45.2302 28.5003 45.3125 28.699 45.3125 28.9062C45.3125 29.1135 45.2302 29.3122 45.0837 29.4587C44.9372 29.6052 44.7384 29.6875 44.5312 29.6875H43.75V28.125H44.5312ZM43.75 22.4281C43.7508 22.9956 43.6423 23.5579 43.4305 24.0844L42.7523 25.7812H41.775C40.8703 25.7837 39.983 25.5327 39.2137 25.0568C38.4443 24.5808 37.8236 23.8989 37.4219 23.0883C37.3497 22.9672 37.2473 22.8669 37.1247 22.7973C37.0022 22.7277 36.8636 22.6911 36.7227 22.6911C36.5817 22.6911 36.4431 22.7277 36.3206 22.7973C36.198 22.8669 36.0956 22.9672 36.0234 23.0883C35.6211 23.9001 34.9992 24.5828 34.2283 25.0588C33.4575 25.5349 32.5685 25.7852 31.6625 25.7812H30.6852L30.0063 24.0844C29.7358 23.4077 29.6352 22.6751 29.7134 21.9506C29.7915 21.2261 30.046 20.5318 30.4545 19.9284C30.8631 19.3249 31.4132 18.8308 32.0569 18.4892C32.7006 18.1476 33.4182 17.9689 34.1469 17.9688H39.2906C40.4729 17.9702 41.6063 18.4405 42.4423 19.2765C43.2783 20.1124 43.7486 21.2459 43.75 22.4281ZM29.6875 29.6875H28.9062C28.699 29.6875 28.5003 29.6052 28.3538 29.4587C28.2073 29.3122 28.125 29.1135 28.125 28.9062C28.125 28.699 28.2073 28.5003 28.3538 28.3538C28.5003 28.2073 28.699 28.125 28.9062 28.125H29.6875V29.6875ZM33.5938 8.59375V16.4344C33.0589 16.4845 32.5333 16.6067 32.0312 16.7977V8.59375H33.5938ZM28.9062 3.44844L32.4891 7.03125H28.9062V3.44844ZM30.4688 8.59375V17.6711C29.7401 18.2318 29.1499 18.9523 28.7436 19.777C28.3373 20.6017 28.1256 21.5087 28.125 22.4281C28.125 22.5063 28.1328 22.5844 28.1359 22.6562H5.46875V5.46875H27.3438V7.8125C27.3438 8.0197 27.4261 8.21841 27.5726 8.36493C27.7191 8.51144 27.9178 8.59375 28.125 8.59375H30.4688ZM2.34375 2.34375H27.3438V3.90625H4.6875C4.4803 3.90625 4.28159 3.98856 4.13507 4.13507C3.98856 4.28159 3.90625 4.4803 3.90625 4.6875V23.4375C3.90625 23.6447 3.98856 23.8434 4.13507 23.9899C4.28159 24.1364 4.4803 24.2188 4.6875 24.2188H28.4008C28.4477 24.3687 28.4969 24.518 28.557 24.6648L29.3148 26.5625H28.9062C28.2846 26.5625 27.6885 26.8094 27.249 27.249C26.8094 27.6885 26.5625 28.2846 26.5625 28.9062C26.5625 29.5279 26.8094 30.124 27.249 30.5635C27.6885 31.0031 28.2846 31.25 28.9062 31.25H29.8695C30.1046 32.2622 30.5604 33.21 31.2041 34.0257C31.8479 34.8414 32.6639 35.5049 33.5938 35.9688V37.6719L28.9531 38.832C27.6611 39.1536 26.506 39.8804 25.6568 40.9059C24.8077 41.9315 24.3092 43.2019 24.2344 44.5312H2.34375V2.34375ZM47.6562 47.6562H44.5312V43.75H42.9688V47.6562H30.4688V43.75H28.9062V47.6562H25.7812V44.8953C25.7799 43.8495 26.1288 42.8334 26.7724 42.0092C27.416 41.1849 28.3171 40.5999 29.332 40.3477L31.557 39.7906L33.7055 43.3711C33.7666 43.4727 33.8501 43.5591 33.9496 43.6237C34.0491 43.6882 34.162 43.7293 34.2797 43.7438C34.3113 43.7478 34.3431 43.7499 34.375 43.75C34.5822 43.75 34.7809 43.6676 34.9273 43.5211L36.7188 41.7297L38.5102 43.5211C38.6566 43.6676 38.8553 43.75 39.0625 43.75C39.0944 43.7499 39.1262 43.7478 39.1578 43.7438C39.2755 43.7293 39.3884 43.6882 39.4879 43.6237C39.5874 43.5591 39.6709 43.4727 39.732 43.3711L41.8805 39.7906L44.1063 40.3477C45.121 40.6001 46.022 41.1851 46.6654 42.0094C47.3088 42.8336 47.6577 43.8496 47.6562 44.8953V47.6562Z" fill="white"/>
<path d="M13.2812 10.1562C13.6957 10.1562 14.0931 10.3209 14.3861 10.6139C14.6791 10.9069 14.8438 11.3043 14.8438 11.7188H16.4062C16.4037 11.028 16.1723 10.3575 15.7482 9.81216C15.3242 9.26683 14.7314 8.87738 14.0625 8.70469V7.03125H12.5V8.70469C11.7644 8.89403 11.1231 9.34535 10.6966 9.97394C10.2701 10.6025 10.0877 11.3652 10.1836 12.1187C10.2795 12.8723 10.6471 13.5649 11.2174 14.0666C11.7878 14.5684 12.5216 14.8447 13.2812 14.8438C13.5903 14.8438 13.8924 14.9354 14.1493 15.1071C14.4063 15.2788 14.6066 15.5228 14.7248 15.8083C14.8431 16.0938 14.874 16.408 14.8137 16.7111C14.7534 17.0142 14.6046 17.2926 14.3861 17.5111C14.1676 17.7296 13.8892 17.8784 13.5861 17.9387C13.283 17.999 12.9688 17.9681 12.6833 17.8498C12.3978 17.7316 12.1538 17.5313 11.9821 17.2743C11.8104 17.0174 11.7188 16.7153 11.7188 16.4062H10.1562C10.1588 17.097 10.3902 17.7675 10.8143 18.3128C11.2383 18.8582 11.8311 19.2476 12.5 19.4203V21.0938H14.0625V19.4203C14.7981 19.231 15.4394 18.7797 15.8659 18.1511C16.2924 17.5225 16.4748 16.7598 16.3789 16.0063C16.283 15.2527 15.9154 14.5601 15.3451 14.0584C14.7747 13.5566 14.0409 13.2803 13.2812 13.2812C12.8668 13.2812 12.4694 13.1166 12.1764 12.8236C11.8834 12.5306 11.7188 12.1332 11.7188 11.7188C11.7188 11.3043 11.8834 10.9069 12.1764 10.6139C12.4694 10.3209 12.8668 10.1562 13.2812 10.1562Z" fill="white"/>
<path d="M22.6562 10.1562C23.0707 10.1562 23.4681 10.3209 23.7611 10.6139C24.0541 10.9069 24.2188 11.3043 24.2188 11.7188H25.7812C25.7787 11.028 25.5473 10.3575 25.1232 9.81216C24.6992 9.26683 24.1064 8.87738 23.4375 8.70469V7.03125H21.875V8.70469C21.1394 8.89403 20.4981 9.34535 20.0716 9.97394C19.6451 10.6025 19.4627 11.3652 19.5586 12.1187C19.6545 12.8723 20.0221 13.5649 20.5924 14.0666C21.1628 14.5684 21.8966 14.8447 22.6562 14.8438C22.9653 14.8438 23.2674 14.9354 23.5243 15.1071C23.7813 15.2788 23.9816 15.5228 24.0998 15.8083C24.2181 16.0938 24.249 16.408 24.1887 16.7111C24.1284 17.0142 23.9796 17.2926 23.7611 17.5111C23.5426 17.7296 23.2642 17.8784 22.9611 17.9387C22.658 17.999 22.3438 17.9681 22.0583 17.8498C21.7728 17.7316 21.5288 17.5313 21.3571 17.2743C21.1854 17.0174 21.0938 16.7153 21.0938 16.4062H19.5312C19.5338 17.097 19.7652 17.7675 20.1893 18.3128C20.6133 18.8582 21.2061 19.2476 21.875 19.4203V21.0938H23.4375V19.4203C24.1731 19.231 24.8144 18.7797 25.2409 18.1511C25.6674 17.5225 25.8498 16.7598 25.7539 16.0063C25.658 15.2527 25.2904 14.5601 24.7201 14.0584C24.1497 13.5566 23.4159 13.2803 22.6562 13.2812C22.2418 13.2812 21.8444 13.1166 21.5514 12.8236C21.2584 12.5306 21.0938 12.1332 21.0938 11.7188C21.0938 11.3043 21.2584 10.9069 21.5514 10.6139C21.8444 10.3209 22.2418 10.1562 22.6562 10.1562Z" fill="white"/>
<path d="M25 25.7812H3.90625V27.3438H25V25.7812Z" fill="white"/>
<path d="M25 28.9062H3.90625V30.4688H25V28.9062Z" fill="white"/>
<path d="M28.9062 32.0312H3.90625V33.5938H28.9062V32.0312Z" fill="white"/>
<path d="M28.9062 35.1562H3.90625V36.7188H28.9062V35.1562Z" fill="white"/>
<path d="M25 38.2812H3.90625V39.8438H25V38.2812Z" fill="white"/>
<path d="M20.3125 41.4062H3.90625V42.9688H20.3125V41.4062Z" fill="white"/>
<path d="M23.4375 41.4062H21.875V42.9688H23.4375V41.4062Z" fill="white"/>
</svg>
