<svg width="44" height="52" viewBox="0 0 44 52" fill="none" xmlns="http://www.w3.org/2000/svg">
<path d="M39.227 18.1108H4.78516C4.56138 18.1108 4.34677 18.0219 4.18854 17.8637C4.0303 17.7055 3.94141 17.4909 3.94141 17.2671V5.18459C3.94141 3.84193 4.47478 2.55426 5.42418 1.60486C6.37358 0.655455 7.66125 0.122086 9.00391 0.122086H29.2539C29.369 0.121376 29.483 0.144214 29.5889 0.189195C29.6948 0.234177 29.7904 0.300351 29.8698 0.383649L39.843 11.074C39.9907 11.2317 40.0722 11.4401 40.0708 11.6561V17.2755C40.0686 17.4978 39.9787 17.7103 39.8207 17.8667C39.6627 18.0231 39.4494 18.1108 39.227 18.1108ZM5.62047 16.4233H38.3833V11.9852L28.8152 1.86021H8.97016C8.07505 1.86021 7.21661 2.21579 6.58367 2.84873C5.95074 3.48166 5.59516 4.34011 5.59516 5.23521V16.4233H5.62047Z" fill="white"/>
<path d="M35.0406 51.8443H8.96875C7.62609 51.8443 6.33843 51.3109 5.38902 50.3615C4.43962 49.4121 3.90625 48.1244 3.90625 46.7818V38.1924C3.90625 37.9686 3.99515 37.754 4.15338 37.5958C4.31161 37.4375 4.52622 37.3486 4.75 37.3486H39.2256C39.4494 37.3486 39.664 37.4375 39.8223 37.5958C39.9805 37.754 40.0694 37.9686 40.0694 38.1924V46.8071C40.0627 48.1395 39.5311 49.4156 38.5897 50.3586C37.6483 51.3016 36.3731 51.8354 35.0406 51.8443ZM5.6275 39.0361V46.8071C5.6275 47.7022 5.98308 48.5606 6.61601 49.1936C7.24895 49.8265 8.10739 50.1821 9.0025 50.1821H35.0406C35.9357 50.1821 36.7942 49.8265 37.4271 49.1936C38.0601 48.5606 38.4156 47.7022 38.4156 46.8071V39.0361H5.6275Z" fill="white"/>
<path d="M39.2242 12.5H29.1836C28.9598 12.5 28.7452 12.4111 28.587 12.2529C28.4288 12.0946 28.3399 11.88 28.3399 11.6562V0.999689C28.3387 0.829973 28.3888 0.663865 28.4836 0.523061C28.5784 0.382257 28.7134 0.273302 28.871 0.210427C29.0287 0.147552 29.2016 0.133679 29.3673 0.170621C29.5329 0.207563 29.6836 0.293603 29.7996 0.417502L39.8402 11.0741C39.9545 11.1939 40.0309 11.3448 40.0601 11.5078C40.0892 11.6708 40.0697 11.8388 40.0041 11.9908C39.9384 12.1429 39.8294 12.2722 39.6908 12.3628C39.5521 12.4533 39.3899 12.501 39.2242 12.5ZM30.0274 10.8125H37.2752L30.0274 3.12594V10.8125Z" fill="white"/>
<path d="M39.6452 39.0363H4.35953C3.42337 39.0363 2.52542 38.665 1.86267 38.0038C1.19991 37.3426 0.826453 36.4456 0.824219 35.5094V19.9591C0.824219 19.0215 1.19669 18.1223 1.85969 17.4593C2.52269 16.7963 3.42191 16.4238 4.35953 16.4238H39.6452C40.5828 16.4238 41.482 16.7963 42.145 17.4593C42.808 18.1223 43.1805 19.0215 43.1805 19.9591V35.5094C43.1782 36.4456 42.8048 37.3426 42.142 38.0038C41.4793 38.665 40.5813 39.0363 39.6452 39.0363ZM4.35953 18.1113C3.86946 18.1113 3.39946 18.306 3.05293 18.6525C2.7064 18.9991 2.51172 19.4691 2.51172 19.9591V35.5094C2.51172 35.9995 2.7064 36.4695 3.05293 36.816C3.39946 37.1626 3.86946 37.3572 4.35953 37.3572H39.6452C40.1352 37.3572 40.6052 37.1626 40.9518 36.816C41.2983 36.4695 41.493 35.9995 41.493 35.5094V19.9591C41.493 19.4691 41.2983 18.9991 40.9518 18.6525C40.6052 18.306 40.1352 18.1113 39.6452 18.1113H4.35953Z" fill="white"/>
<path d="M7.65829 22.4901H10.4258C11.0478 22.4803 11.6685 22.5483 12.2736 22.6926C12.787 22.8389 13.2583 23.105 13.6489 23.4688C14.2102 24.0106 14.645 24.6697 14.9221 25.399C15.1992 26.1283 15.3119 26.9097 15.252 27.6876C15.2559 28.2541 15.2022 28.8195 15.0917 29.3751C14.993 29.8644 14.8224 30.3363 14.5855 30.7757C14.3667 31.1929 14.0817 31.5718 13.7417 31.8979C13.4678 32.1459 13.1577 32.3508 12.822 32.5054C12.4807 32.6594 12.1203 32.7672 11.7505 32.826C11.3205 32.8914 10.886 32.9225 10.4511 32.9188H7.65829C7.36659 32.9319 7.07633 32.871 6.81454 32.7416C6.63052 32.6325 6.4948 32.4576 6.43485 32.2523C6.36575 31.9765 6.33453 31.6927 6.34204 31.4085V23.7979C6.30802 23.4389 6.41719 23.0811 6.64579 22.8023C6.78529 22.6855 6.9467 22.5977 7.12056 22.5441C7.29443 22.4905 7.47724 22.4721 7.65829 22.4901ZM8.50204 24.1776V31.2904H10.1136C10.468 31.2904 10.7492 31.2904 10.9574 31.2904C11.1706 31.2686 11.3803 31.2204 11.5817 31.147C11.7862 31.0767 11.9752 30.9679 12.1386 30.8263C12.5245 30.4081 12.8137 29.9102 12.9858 29.3678C13.1578 28.8254 13.2085 28.2518 13.1342 27.6876C13.1862 26.8868 13.0261 26.0865 12.6702 25.3673C12.4212 24.9076 12.0087 24.5582 11.5142 24.3885C10.9655 24.2341 10.3966 24.163 9.82673 24.1776H8.45142H8.50204Z" fill="white"/>
<path d="M21.7641 22.313C22.7393 22.2843 23.705 22.5112 24.5654 22.9711C25.3355 23.401 25.9543 24.0581 26.3373 24.8526C26.748 25.7402 26.9501 26.7099 26.9279 27.6876C26.9373 28.4374 26.8261 29.1838 26.5988 29.8983C26.3897 30.5228 26.0535 31.0974 25.6116 31.5858C25.1725 32.0941 24.6206 32.4929 24.0001 32.7501C22.5812 33.2717 21.023 33.2717 19.6041 32.7501C18.9857 32.5043 18.4316 32.1205 17.9841 31.628C17.5392 31.1239 17.2056 30.5316 17.0054 29.8898C16.78 29.1807 16.6689 28.4402 16.6763 27.6961C16.6669 26.9423 16.7838 26.1922 17.0222 25.477C17.2358 24.8507 17.5777 24.276 18.0263 23.7895C18.4728 23.3137 19.0208 22.9446 19.6294 22.7095C20.3094 22.4433 21.0339 22.3087 21.7641 22.313ZM24.7763 27.6876C24.7921 27.0053 24.6656 26.3272 24.4051 25.6964C24.1889 25.1732 23.8179 24.7287 23.3419 24.4223C22.8653 24.1299 22.3147 23.9806 21.7557 23.992C21.3525 23.9875 20.9529 24.068 20.5829 24.2283C20.2243 24.3881 19.9069 24.6276 19.6548 24.9286C19.375 25.2725 19.1657 25.6681 19.0388 26.093C18.8846 26.6102 18.8107 27.148 18.8194 27.6876C18.8136 28.2333 18.8905 28.7766 19.0472 29.2992C19.1732 29.738 19.3887 30.1459 19.6801 30.4973C19.9383 30.8011 20.2612 31.0432 20.6251 31.2061C21.0519 31.3875 21.5153 31.4667 21.9782 31.4374C22.4411 31.4081 22.8907 31.2711 23.2913 31.0373C23.7723 30.7373 24.1517 30.2991 24.3798 29.7801C24.665 29.1205 24.8005 28.4059 24.7763 27.6876Z" fill="white"/>
<path d="M37.6701 29.6618C37.6615 30.0345 37.5783 30.4017 37.4254 30.7418C37.2389 31.1735 36.9759 31.5679 36.6492 31.9062C36.2673 32.3002 35.8075 32.6106 35.2992 32.8174C34.6913 33.0638 34.0397 33.1844 33.3839 33.1718C32.876 33.1758 32.3693 33.1221 31.8736 33.0115C31.4397 32.9143 31.024 32.7491 30.6417 32.5221C30.2585 32.2972 29.9138 32.0123 29.6208 31.6783C29.3388 31.3413 29.1007 30.9699 28.912 30.573C28.7138 30.1563 28.5665 29.7172 28.4733 29.2652C28.3747 28.7821 28.3266 28.2901 28.3298 27.7971C28.3183 27.0245 28.444 26.256 28.7011 25.5274C28.9318 24.8978 29.291 24.3232 29.7558 23.8399C30.21 23.3694 30.7594 23.0012 31.3673 22.7599C31.9925 22.5102 32.6601 22.3841 33.3333 22.3886C34.1194 22.3732 34.8978 22.5469 35.6029 22.8949C36.2039 23.1842 36.7252 23.6157 37.1217 24.1521C37.4406 24.5553 37.6264 25.0477 37.6533 25.5611C37.6552 25.7996 37.5645 26.0296 37.4001 26.2024C37.3212 26.2898 37.2249 26.3597 37.1174 26.4077C37.0099 26.4556 36.8935 26.4806 36.7758 26.4808C36.5557 26.4981 36.3376 26.4284 36.1683 26.2868C35.9835 26.0889 35.8299 25.8642 35.7126 25.6202C35.4848 25.159 35.149 24.7596 34.7339 24.4558C34.3237 24.1869 33.8404 24.0514 33.3501 24.0677C32.9571 24.0512 32.5657 24.1264 32.2069 24.2875C31.8481 24.4486 31.5317 24.6912 31.2829 24.9958C30.7158 25.8249 30.4425 26.82 30.5067 27.8224C30.4861 28.5164 30.6037 29.2076 30.8526 29.8558C31.0354 30.346 31.3655 30.7675 31.7976 31.0624C32.2385 31.3334 32.7484 31.4711 33.2658 31.459C33.8159 31.4755 34.3568 31.3159 34.8098 31.0033C35.2561 30.6666 35.5888 30.2014 35.7633 29.6702C35.8372 29.4279 35.9512 29.1997 36.1008 28.9952C36.1793 28.9039 36.2783 28.8326 36.3898 28.7871C36.5013 28.7416 36.622 28.7233 36.742 28.7337C36.8623 28.7318 36.9817 28.7539 37.0933 28.7989C37.2048 28.8438 37.3063 28.9105 37.3917 28.9952C37.4846 29.0788 37.5577 29.1819 37.6059 29.2972C37.654 29.4125 37.676 29.537 37.6701 29.6618Z" fill="white"/>
</svg>
