<svg width="54" height="46" viewBox="0 0 54 46" fill="none" xmlns="http://www.w3.org/2000/svg">
<path d="M53.209 30.2577C53.6459 30.2577 54 29.9035 54 29.4667V16.4338C54 16.2129 53.9019 15.9932 53.7377 15.8456L49.0852 11.6624L49.0857 4.98148C49.0857 4.54463 48.7316 4.19046 48.2947 4.19046H40.7754L37.3575 1.11688C37.2123 0.986309 37.0239 0.914062 36.8286 0.914062H32.4241C31.9871 0.914062 31.6331 1.26823 31.6331 1.70508C31.6331 2.14193 31.9871 2.4961 32.4241 2.4961H36.5252L38.4094 4.19046H15.5922L17.4748 2.4961H28.9774C29.4144 2.4961 29.7685 2.14193 29.7685 1.70508C29.7685 1.26823 29.4144 0.914062 28.9774 0.914062H17.1712C16.9758 0.914062 16.7873 0.986415 16.6421 1.11709L13.2273 4.19046H5.70514C5.26829 4.19046 4.91412 4.54463 4.91412 4.98148L4.91465 11.6599L0.26188 15.8473C0.0951332 15.9973 0 16.211 0 16.4352C0 16.4376 0.000316408 16.4401 0.000421877 16.4425C0.000421877 16.4443 0 16.446 0 16.4478V44.2949C0 44.7232 0.362708 45.0859 0.791019 45.0859H53.2088C53.6372 45.0859 54 44.7228 54 44.2946V32.9134C54 32.4766 53.6459 32.1224 53.209 32.1224C52.772 32.1224 52.418 32.4766 52.418 32.9134V42.6487L38.0502 31.1542L52.4181 18.211V29.4666C52.418 29.9035 52.772 30.2577 53.209 30.2577ZM4.91465 13.7883V19.0824L1.97343 16.4353L4.91465 13.7883ZM1.58204 18.2239L15.9498 31.1548L1.58204 42.649V18.2239ZM27.4498 25.9917H26.5501C25.4552 25.9917 25.4551 24.2976 26.5501 24.2976H27.354C27.6606 24.2976 27.9126 24.4992 28.0139 24.7887C28.3535 25.7601 29.8124 25.3909 29.5292 24.3339C29.3062 23.502 28.6096 22.9163 27.791 22.7587V21.7792C27.791 21.3424 27.437 20.9882 27 20.9882C26.5631 20.9882 26.209 21.3424 26.209 21.7792V22.7401C23.3326 23.1462 23.59 27.5737 26.5501 27.5737H27.4498C28.5448 27.5737 28.5448 29.2679 27.4498 29.2679H26.435C26.1284 29.2679 25.906 29.0541 25.7751 28.7769C25.33 27.8343 24.082 28.3969 24.2598 29.2316C24.3645 29.7234 24.6934 30.1159 25.0718 30.3993H22.4858C20.6877 26.7526 21.5883 18.8766 27 18.8766C32.4116 18.8766 33.3123 26.7527 31.5142 30.3993H28.8567C30.6649 29.1096 29.8483 25.9917 27.4498 25.9917ZM20.7544 30.3992H17.4751L16.0847 29.1478C17.0708 28.5974 17.7418 27.5232 17.7418 26.2909C17.7418 24.4997 16.3243 23.0424 14.582 23.0424C13.2347 23.0424 12.0823 23.914 11.6287 25.1374L9.77267 23.467V22.077C11.4858 21.6567 12.5523 20.5899 12.9722 18.8765H23.0336C20.2147 20.8607 19.0194 25.9183 20.7544 30.3992ZM14.7509 27.9475L13.0083 26.3792C13.0068 26.3497 13.004 26.3204 13.004 26.2911C13.004 25.3723 13.7118 24.6247 14.5819 24.6247C15.4519 24.6247 16.1597 25.3723 16.1597 26.2911C16.1598 27.1495 15.5417 27.8581 14.7509 27.9475ZM50.9537 43.5039H3.04595L17.449 31.9813H36.5507L50.9537 43.5039ZM40.945 26.4171L39.243 27.9504C38.4339 27.88 37.7957 27.1633 37.7957 26.291C37.7957 25.3721 38.5035 24.6246 39.3735 24.6246C40.2484 24.6245 41.0039 25.5811 40.945 26.4171ZM44.2272 23.4604L42.3368 25.1633C41.8899 23.9264 40.7304 23.0424 39.3735 23.0424C37.6312 23.0424 36.2137 24.4997 36.2137 26.2909C36.2137 27.5344 36.8971 28.6163 37.8978 29.1621L36.5246 30.3991H33.2454C34.7405 26.6611 34.0827 21.628 30.9663 18.8764H41.0278C41.4476 20.5899 42.514 21.6567 44.2272 22.0769V23.4604ZM47.5031 20.5093L45.8092 22.0352C45.826 21.0052 45.8437 20.6273 45.0181 20.5714C43.5004 20.4687 42.6754 19.6001 42.5333 18.0855C42.5333 17.6486 42.1792 17.2945 41.7423 17.2945H12.2573C11.8205 17.2945 11.4663 17.6486 11.4663 18.0855C11.3242 19.6002 10.4982 20.4551 8.98144 20.5714C8.13842 20.6361 8.2229 21.2731 8.19042 22.0431L6.49658 20.5187L6.50249 15.6006H47.503V20.5093H47.5031ZM47.5031 10.7426H19.5063C19.0695 10.7426 18.7153 11.0968 18.7153 11.5336C18.7153 11.9705 19.0695 12.3247 19.5063 12.3247H47.5031V14.0185H6.50449L6.5066 12.3247H16.0596C16.4964 12.3247 16.8506 11.9705 16.8506 11.5336C16.8506 11.0968 16.4964 10.7426 16.0596 10.7426H6.49669V9.04879H47.5031V10.7426ZM47.5035 7.46644H6.49616V5.77239H47.5035V7.46644ZM49.0856 19.0835V13.7903L52.0263 16.4344L49.0856 19.0835Z" fill="white"/>
</svg>
