<svg width="15" height="15" viewBox="0 0 15 15" fill="none" xmlns="http://www.w3.org/2000/svg">
<g clip-path="url(#clip0_141:490)">
<path d="M7.91162 11.3793L14.8304 4.44141C15.0569 4.21409 15.0565 3.84607 14.8292 3.61913C14.6019 3.39238 14.2337 3.39296 14.0069 3.62031L7.49997 10.1453L0.993047 3.62007C0.76629 3.39276 0.398293 3.39217 0.17095 3.6189C0.0569859 3.73266 2.86102e-06 3.88169 2.86102e-06 4.03072C2.86102e-06 4.17938 0.0566044 4.32782 0.169778 4.44138L7.08835 11.3793C7.19728 11.4888 7.34552 11.5503 7.49997 11.5503C7.65443 11.5503 7.80249 11.4887 7.91162 11.3793Z" fill="white"/>
</g>
<defs>
<clipPath id="clip0_141:490">
<rect width="15" height="15" fill="white" transform="translate(15) rotate(90)"/>
</clipPath>
</defs>
</svg>
