<svg width="135" height="129" viewBox="0 0 135 129" fill="none" xmlns="http://www.w3.org/2000/svg">
<g clip-path="url(#clip0)">
<path fill-rule="evenodd" clip-rule="evenodd" d="M135 79.7C134.4 92.8 131.8 106.7 122.5 115.9C113.5 124.9 99.7001 125.6 87.1001 127.4C75.6001 129 64.6001 127.8 53.3001 125.4C39.1001 122.3 23.0001 122.2 13.2001 111.4C2.70005 99.8 -1.49995 82.9 0.500054 67.4C2.40005 52.1 12.2001 38.9 23.8001 28.9C34.3001 19.7 48.9001 19.4 61.8001 14.1C78.2001 7.2 90.4001 -5.2 106.5 2.4C122.8 10 120.6 26.6 125.7 44C129.3 56 135.6 67.1 135 79.7Z" fill="url(#paint0_linear)"/>
<path fill-rule="evenodd" clip-rule="evenodd" d="M46.8001 109.2C38.0001 103.9 28.6001 99.8 22.0001 91.7C14.0001 81.8 4.9001 71.2 5.2001 57.8C5.5001 44.1 13.2001 30.1 23.7001 21.1C33.6001 12.5 47.5001 14.6 59.6001 10.9C71.0001 7.49998 81.3001 -1.10002 92.7001 0.199983C104.5 1.59998 116.8 7.39998 122.2 18.1C127.4 28.6 117.4 42.2 119.5 54C121.7 66.8 136.8 75.1 134.5 88.3C132.3 101.2 120 111 108.7 117.4C98.0001 123.5 85.6001 124.1 73.9001 122.5C63.5001 121.2 55.6001 114.5 46.8001 109.2Z" fill="url(#paint1_linear)" fill-opacity="0.8"/>
<path d="M114.6 38.9C111.3 38.9 108.6 41.6 108.6 44.9C108.6 48.2 111.3 50.9 114.6 50.9C117.9 50.9 120.6 48.2 120.6 44.9C120.6 41.6 117.9 38.9 114.6 38.9ZM114.6 47.9C112.9 47.9 111.6 46.6 111.6 44.9C111.6 43.2 112.9 41.9 114.6 41.9C116.3 41.9 117.6 43.2 117.6 44.9C117.6 46.6 116.2 47.9 114.6 47.9Z" fill="white"/>
<path d="M36.6001 88.4C33.3001 88.4 30.6001 91.1 30.6001 94.4C30.6001 97.7 33.3001 100.4 36.6001 100.4C39.9001 100.4 42.6001 97.7 42.6001 94.4C42.6001 91.1 39.9001 88.4 36.6001 88.4ZM36.6001 97.4C34.9001 97.4 33.6001 96.1 33.6001 94.4C33.6001 92.7 34.9001 91.4 36.6001 91.4C38.3001 91.4 39.6001 92.7 39.6001 94.4C39.6001 96.1 38.2001 97.4 36.6001 97.4Z" fill="white"/>
<path d="M111.7 40.8L98.8 34.6C98.1 34.2 97.2 34.6 96.8 35.3C96.4 36 96.8 36.9 97.5 37.3L110.4 43.5C110.6 43.6 110.8 43.7 111.1 43.7C111.7 43.7 112.2 43.4 112.5 42.9C112.7 42.1 112.4 41.2 111.7 40.8Z" fill="white"/>
<path d="M98.1001 98.9C94.8001 98.9 92.1001 101.6 92.1001 104.9C92.1001 108.2 94.8001 110.9 98.1001 110.9C101.4 110.9 104.1 108.2 104.1 104.9C104.1 101.6 101.4 98.9 98.1001 98.9ZM98.1001 107.9C96.4001 107.9 95.1001 106.6 95.1001 104.9C95.1001 103.2 96.4001 101.9 98.1001 101.9C99.8001 101.9 101.1 103.2 101.1 104.9C101.1 106.6 99.7001 107.9 98.1001 107.9Z" fill="white"/>
<path d="M95.2 100.8L82.3 94.6C81.6 94.2 80.7 94.6 80.3 95.3C79.9 96 80.3 96.9 81 97.3L93.9 103.5C94.1 103.6 94.3 103.6 94.6 103.6C95.2 103.6 95.7 103.3 96 102.8C96.2 102.1 95.9 101.2 95.2 100.8Z" fill="white"/>
<path d="M75.6001 61.4C72.3001 61.4 69.6001 64.1 69.6001 67.4C69.6001 70.7 72.3001 73.4 75.6001 73.4C78.9001 73.4 81.6001 70.7 81.6001 67.4C81.6001 64.1 78.9001 61.4 75.6001 61.4ZM75.6001 70.4C73.9001 70.4 72.6001 69.1 72.6001 67.4C72.6001 65.7 73.9001 64.4 75.6001 64.4C77.3001 64.4 78.6001 65.7 78.6001 67.4C78.6001 69.1 77.2001 70.4 75.6001 70.4Z" fill="white"/>
<path d="M73.0001 63.5L63.0001 55.7C62.3001 55.2 61.4001 55.3 60.9001 56C60.4001 56.7 60.5001 57.6 61.2001 58.1L71.1001 65.8C71.4001 66 71.7001 66.1 72.0001 66.1C72.4001 66.1 72.9001 65.9 73.2001 65.5C73.7001 64.9 73.6001 64 73.0001 63.5Z" fill="white"/>
<path d="M102.6 59.9C93.5001 59.9 86.1001 67.3 86.1001 76.4C86.1001 85.5 93.5001 92.9 102.6 92.9C111.7 92.9 119.1 85.5 119.1 76.4C119.1 67.3 111.7 59.9 102.6 59.9ZM102.6 89.9C95.2001 89.9 89.1001 83.8 89.1001 76.4C89.1001 69 95.2001 62.9 102.6 62.9C110 62.9 116.1 69 116.1 76.4C116.1 83.9 110 89.9 102.6 89.9Z" fill="white"/>
<path d="M102.6 65.9C99.3001 65.9 96.6001 68.6 96.6001 71.9C96.6001 75.2 99.3001 77.9 102.6 77.9C105.9 77.9 108.6 75.2 108.6 71.9C108.6 68.6 105.9 65.9 102.6 65.9ZM102.6 74.9C100.9 74.9 99.6001 73.6 99.6001 71.9C99.6001 70.2 100.9 68.9 102.6 68.9C104.3 68.9 105.6 70.2 105.6 71.9C105.6 73.6 104.2 74.9 102.6 74.9Z" fill="white"/>
<path d="M106.9 80.9H98.2001C95.6001 80.9 93.6001 82.9 93.6001 85.4V89.4C93.6001 89.9 93.9001 90.4 94.3001 90.7C96.8001 92.2 99.7001 92.9 102.6 92.9C105.5 92.9 108.3 92.1 110.9 90.7C111.4 90.4 111.6 89.9 111.6 89.4V85.4C111.6 83 109.5 80.9 106.9 80.9ZM108.6 88.5C104.9 90.4 100.3 90.4 96.6001 88.5V85.4C96.6001 84.6 97.3001 83.9 98.2001 83.9H106.9C107.8 83.9 108.5 84.6 108.5 85.4V88.5H108.6Z" fill="white"/>
<path d="M66.6001 77.9C57.5001 77.9 50.1001 85.3 50.1001 94.4C50.1001 103.5 57.5001 110.9 66.6001 110.9C75.7001 110.9 83.1001 103.5 83.1001 94.4C83.1001 85.3 75.7001 77.9 66.6001 77.9ZM66.6001 107.9C59.2001 107.9 53.1001 101.8 53.1001 94.4C53.1001 87 59.2001 80.9 66.6001 80.9C74.0001 80.9 80.1001 87 80.1001 94.4C80.1001 101.9 74.0001 107.9 66.6001 107.9Z" fill="white"/>
<path d="M66.6001 83.9C63.3001 83.9 60.6001 86.6 60.6001 89.9C60.6001 93.2 63.3001 95.9 66.6001 95.9C69.9001 95.9 72.6001 93.2 72.6001 89.9C72.6001 86.6 69.9001 83.9 66.6001 83.9ZM66.6001 92.9C64.9001 92.9 63.6001 91.6 63.6001 89.9C63.6001 88.2 64.9001 86.9 66.6001 86.9C68.3001 86.9 69.6001 88.2 69.6001 89.9C69.6001 91.6 68.2001 92.9 66.6001 92.9Z" fill="white"/>
<path d="M70.9001 98.9H62.2001C59.6001 98.9 57.6001 100.9 57.6001 103.4V107.4C57.6001 107.9 57.9001 108.4 58.3001 108.7C60.8001 110.2 63.7001 110.9 66.6001 110.9C69.5001 110.9 72.3001 110.1 74.9001 108.7C75.4001 108.4 75.6001 107.9 75.6001 107.4V103.4C75.6001 101 73.5001 98.9 70.9001 98.9ZM72.6001 106.5C68.9001 108.4 64.3001 108.4 60.6001 106.5V103.4C60.6001 102.6 61.3001 101.9 62.2001 101.9H70.9001C71.8001 101.9 72.5001 102.6 72.5001 103.4V106.5H72.6001Z" fill="white"/>
<path d="M47.1001 40.4C38.0001 40.4 30.6001 47.8 30.6001 56.9C30.6001 66 38.0001 73.4 47.1001 73.4C56.2001 73.4 63.6001 66 63.6001 56.9C63.6001 47.8 56.2001 40.4 47.1001 40.4ZM47.1001 70.4C39.7001 70.4 33.6001 64.3 33.6001 56.9C33.6001 49.5 39.7001 43.4 47.1001 43.4C54.5001 43.4 60.6001 49.5 60.6001 56.9C60.6001 64.4 54.5001 70.4 47.1001 70.4Z" fill="white"/>
<path d="M47.1001 46.4C43.8001 46.4 41.1001 49.1 41.1001 52.4C41.1001 55.7 43.8001 58.4 47.1001 58.4C50.4001 58.4 53.1001 55.7 53.1001 52.4C53.1001 49.1 50.4001 46.4 47.1001 46.4ZM47.1001 55.4C45.4001 55.4 44.1001 54.1 44.1001 52.4C44.1001 50.7 45.4001 49.4 47.1001 49.4C48.8001 49.4 50.1001 50.7 50.1001 52.4C50.1001 54.1 48.7001 55.4 47.1001 55.4Z" fill="white"/>
<path d="M51.4001 61.4H42.7001C40.1001 61.4 38.1001 63.4 38.1001 65.9V69.9C38.1001 70.4 38.4001 70.9 38.8001 71.2C41.3001 72.7 44.2001 73.4 47.1001 73.4C50.0001 73.4 52.8001 72.6 55.4001 71.2C55.9001 70.9 56.1001 70.4 56.1001 69.9V65.9C56.1001 63.5 54.0001 61.4 51.4001 61.4ZM53.1001 69C49.4001 70.9 44.8001 70.9 41.1001 69V66C41.1001 65.2 41.8001 64.5 42.7001 64.5H51.4001C52.3001 64.5 53.0001 65.2 53.0001 66V69H53.1001Z" fill="white"/>
<path d="M83.1001 20.9C74.0001 20.9 66.6001 28.3 66.6001 37.4C66.6001 46.5 74.0001 53.9 83.1001 53.9C92.2001 53.9 99.6001 46.5 99.6001 37.4C99.6001 28.3 92.2001 20.9 83.1001 20.9ZM83.1001 50.9C75.7001 50.9 69.6001 44.8 69.6001 37.4C69.6001 30 75.7001 23.9 83.1001 23.9C90.5001 23.9 96.6001 30 96.6001 37.4C96.6001 44.9 90.5001 50.9 83.1001 50.9Z" fill="white"/>
<path d="M83.1001 26.9C79.8001 26.9 77.1001 29.6 77.1001 32.9C77.1001 36.2 79.8001 38.9 83.1001 38.9C86.4001 38.9 89.1001 36.2 89.1001 32.9C89.1001 29.6 86.4001 26.9 83.1001 26.9ZM83.1001 35.9C81.4001 35.9 80.1001 34.6 80.1001 32.9C80.1001 31.2 81.4001 29.9 83.1001 29.9C84.8001 29.9 86.1001 31.2 86.1001 32.9C86.1001 34.6 84.7001 35.9 83.1001 35.9Z" fill="white"/>
<path d="M87.4001 41.9H78.7001C76.1001 41.9 74.1001 43.9 74.1001 46.4V50.4C74.1001 50.9 74.4001 51.4 74.8001 51.7C77.3001 53.2 80.2001 53.9 83.1001 53.9C86.0001 53.9 88.8001 53.1 91.4001 51.7C91.9001 51.4 92.1001 50.9 92.1001 50.4V46.4C92.1001 44 90.0001 41.9 87.4001 41.9ZM89.1001 49.5C85.4001 51.4 80.8001 51.4 77.1001 49.5V46.4C77.1001 45.6 77.8001 44.9 78.7001 44.9H87.4001C88.3001 44.9 89.0001 45.6 89.0001 46.4V49.5H89.1001Z" fill="white"/>
<path d="M69.2001 36.5C68.7001 35.9 67.7001 35.8 67.1001 36.3L56.7001 45.2C56.1001 45.7 56.0001 46.7 56.5001 47.3C56.8001 47.6 57.2001 47.8 57.6001 47.8C57.9001 47.8 58.3001 47.7 58.6001 47.4L69.0001 38.5C69.7001 38 69.8001 37.1 69.2001 36.5Z" fill="white"/>
<path d="M102.3 60.5L93.3001 48.5C92.8001 47.8 91.9001 47.7 91.2001 48.2C90.5001 48.7 90.4001 49.6 90.9001 50.3L99.9001 62.3C100.2 62.7 100.6 62.9 101.1 62.9C101.4 62.9 101.7 62.8 102 62.6C102.7 62.1 102.8 61.2 102.3 60.5Z" fill="white"/>
<path d="M90.0002 81.4C89.5002 80.7 88.6002 80.6 87.9002 81.1L79.5002 87.4C78.8002 87.9 78.7002 88.8 79.2002 89.5C79.5002 89.9 79.9002 90.1 80.4002 90.1C80.7002 90.1 81.0002 90 81.3002 89.8L89.7002 83.5C90.3002 83 90.5002 82.1 90.0002 81.4Z" fill="white"/>
<path d="M51.6001 92.9H41.1001C40.3001 92.9 39.6001 93.6 39.6001 94.4C39.6001 95.2 40.3001 95.9 41.1001 95.9H51.6001C52.4001 95.9 53.1001 95.2 53.1001 94.4C53.1001 93.6 52.4001 92.9 51.6001 92.9Z" fill="white"/>
<path d="M47.1001 20.9C43.8001 20.9 41.1001 23.6 41.1001 26.9C41.1001 30.2 43.8001 32.9 47.1001 32.9C50.4001 32.9 53.1001 30.2 53.1001 26.9C53.1001 23.6 50.4001 20.9 47.1001 20.9ZM47.1001 29.9C45.4001 29.9 44.1001 28.6 44.1001 26.9C44.1001 25.2 45.4001 23.9 47.1001 23.9C48.8001 23.9 50.1001 25.2 50.1001 26.9C50.1001 28.6 48.7001 29.9 47.1001 29.9Z" fill="white"/>
<path d="M47.1001 29.9C46.3001 29.9 45.6001 30.6 45.6001 31.4V41.9C45.6001 42.7 46.3001 43.4 47.1001 43.4C47.9001 43.4 48.6001 42.7 48.6001 41.9V31.4C48.6001 30.6 47.9001 29.9 47.1001 29.9Z" fill="white"/>
</g>
<defs>
<linearGradient id="paint0_linear" x1="136.145" y1="68.7356" x2="1.44066" y2="56.3985" gradientUnits="userSpaceOnUse">
<stop stop-color="#C02E00" stop-opacity="0.28"/>
<stop offset="0.5781" stop-color="#FD801B" stop-opacity="0.28"/>
<stop offset="1" stop-color="#FBB12E" stop-opacity="0.28"/>
</linearGradient>
<linearGradient id="paint1_linear" x1="74.072" y1="124.093" x2="65.371" y2="15.0445" gradientUnits="userSpaceOnUse">
<stop stop-color="#D30823"/>
<stop offset="1" stop-color="#FBB12E"/>
</linearGradient>
<clipPath id="clip0">
<rect width="135" height="128.1" fill="white"/>
</clipPath>
</defs>
</svg>
