<svg width="136" height="130" viewBox="0 0 136 130" fill="none" xmlns="http://www.w3.org/2000/svg">
<g clip-path="url(#clip0)">
<path fill-rule="evenodd" clip-rule="evenodd" d="M135.1 75.8C135.8 88.9 134.5 103 126.1 113.1C118 122.9 104.3 125 92 127.9C80.7 130.5 69.6 130.5 58.2 129.1C43.8 127.4 27.7 128.7 16.9 119C5.30001 108.3 -0.499992 91.9 8.07084e-06 76.3C0.500008 60.9 9.00001 46.8 19.5 35.7C29.1 25.6 43.6 23.9 55.9 17.4C71.7 8.99999 82.7 -4.50001 99.5 1.49999C116.5 7.49999 115.8 24.3 122.6 41.1C127.2 52.8 134.5 63.1 135.1 75.8Z" fill="url(#paint0_linear)"/>
<path fill-rule="evenodd" clip-rule="evenodd" d="M51.1001 113.8C41.7001 109.6 31.9001 106.5 24.5001 99.2C15.4001 90.4 5.10008 80.8 3.90008 67.5C2.70008 53.9 8.70008 39.1 18.1001 28.9C27.0001 19.3 41.0001 19.7 52.7001 14.7C63.5001 10 72.8001 0.299998 84.2001 0.399998C96.1001 0.399998 109 4.8 115.5 14.8C121.9 24.7 113.5 39.3 116.9 50.8C120.6 63.2 136.5 69.8 135.7 83.1C135 96.2 123.9 107.3 113.3 115C103.3 122.2 91.1001 124.3 79.3001 124.1C69.0001 123.9 60.4001 118.1 51.1001 113.8Z" fill="url(#paint1_linear)" fill-opacity="0.8"/>
<path d="M108.9 90.3V74.8H106.1V90.3H97.6999V84.7H94.8999V90.3H86.4999V41.1H106.2V72H109V39.7C109 39.3 108.9 39 108.6 38.7C108.3 38.4 108 38.3 107.6 38.3H106.2V34C106.2 33.6 106.1 33.3 105.8 33C105.5 32.7 105.2 32.6 104.8 32.6H97.7999V27H94.9999V32.6H87.9999C87.5999 32.6 87.2999 32.7 86.9999 33C86.6999 33.3 86.5999 33.6 86.5999 34V38.2H84.9999C84.5999 38.2 84.2999 38.3 83.9999 38.6C83.6999 38.9 83.5999 39.2 83.5999 39.6V48H76.5999C76.3999 48 76.1999 48 76.0999 48.1C75.8999 48.2 75.7999 48.3 75.5999 48.4L64.2999 59.8C64.1999 59.9 64.0999 60.1 63.9999 60.3C63.8999 60.5 63.8999 60.7 63.8999 60.8V69L56.3999 62.6C56.0999 62.4 55.7999 62.3 55.4999 62.3C55.1999 62.3 54.7999 62.4 54.5999 62.6L44.7999 71C44.5999 71.1 44.4999 71.3 44.3999 71.5C44.2999 71.7 44.2999 71.9 44.2999 72.1V78.1L39.2999 75C39.0999 74.9 38.7999 74.8 38.5999 74.8C38.3999 74.8 38.0999 74.9 37.8999 75L30.8999 79.2C30.6999 79.3 30.4999 79.5 30.3999 79.7C30.2999 79.9 30.1999 80.2 30.1999 80.4V90.2H27.3999V93H34.7999C38.6999 98.6 43.8999 103.2 49.8999 106.4C55.9999 109.6 62.6999 111.2 69.4999 111.2C76.2999 111.2 83.0999 109.5 89.0999 106.4C95.1999 103.2 100.3 98.6 104.2 93H111.6V90.2H108.9V90.3ZM89.1999 35.4H103.3V38.2H89.1999V35.4ZM85.0999 93.1C83.8999 95.6 82.3999 97.9 80.7999 100.1H58.2999C56.6999 97.9 55.1999 95.5 53.9999 93.1H85.0999ZM66.6999 61.3L77.0999 50.9H83.4999V90.3H76.4999V84.7H73.6999V90.3H66.6999V61.3V61.3ZM46.9999 72.6L55.3999 65.4L63.7999 72.6V90.2H56.7999V84.6H53.9999V90.2H46.9999V72.6ZM32.9999 81.2L38.5999 77.8L44.1999 81.2V90.2H39.9999V84.6H37.1999V90.2H32.9999V81.2ZM38.1999 93.1H50.7999C51.8999 95.5 53.2999 97.9 54.7999 100.1H45.0999C42.5999 98.1 40.1999 95.7 38.1999 93.1ZM56.8999 102.9C58.1999 104.6 59.5999 106.1 60.9999 107.6C56.7999 106.7 52.7999 105.1 49.1999 102.9H56.8999ZM66.0999 108.4C64.0999 106.7 62.2999 104.9 60.5999 102.9H78.5999C76.8999 104.9 75.0999 106.7 73.0999 108.4C71.9999 108.5 70.7999 108.6 69.5999 108.6C68.3999 108.6 67.1999 108.5 66.0999 108.4ZM82.1999 102.9H89.8999C86.1999 105.1 82.1999 106.7 78.0999 107.6C79.4999 106.2 80.8999 104.6 82.1999 102.9ZM93.8999 100.1H84.1999C85.6999 97.9 86.9999 95.5 88.1999 93.1H100.8C98.7999 95.7 96.4999 98.1 93.8999 100.1Z" fill="white"/>
<path d="M28.1999 71.9C28.3999 72 28.6999 72 28.9999 72C29.2999 72 29.4999 71.8 29.6999 71.6L49.8999 52.8L57.3999 59C57.6999 59.2 57.9999 59.3 58.3999 59.3C58.7999 59.3 59.0999 59.1 59.2999 58.9L75.3999 41.5L78.5999 43.6C78.7999 43.7 78.9999 43.8 79.2999 43.8C79.4999 43.8 79.7999 43.8 79.9999 43.7C80.1999 43.6 80.3999 43.4 80.4999 43.2C80.5999 43 80.6999 42.8 80.7999 42.5L82.1999 28.4C82.1999 28.2 82.1999 27.9 82.0999 27.7C81.9999 27.5 81.8999 27.3 81.6999 27.2C81.4999 27.1 81.2999 27 81.0999 26.9C80.8999 26.9 80.5999 26.9 80.3999 26.9L66.2999 31.1C65.9999 31.2 65.7999 31.3 65.5999 31.5C65.3999 31.7 65.2999 31.9 65.2999 32.2C65.2999 32.5 65.2999 32.7 65.3999 33C65.4999 33.2 65.6999 33.5 65.8999 33.6L68.7999 35.5L58.0999 47.6L50.6999 41.4C50.3999 41.2 50.0999 41.1 49.7999 41.1C49.4999 41.1 49.0999 41.2 48.8999 41.5L41.3999 48.5L43.2999 50.6L49.8999 44.4L57.3999 50.6C57.6999 50.8 57.9999 50.9 58.3999 50.9C58.7999 50.9 59.0999 50.7 59.2999 50.4L71.9999 36.4C72.0999 36.2 72.1999 36.1 72.2999 35.9C72.3999 35.7 72.3999 35.5 72.3999 35.3C72.3999 35.1 72.2999 34.9 72.1999 34.7C72.0999 34.5 71.9999 34.4 71.7999 34.3L69.9999 33.1L79.1999 30.3L78.1999 39.9L75.8999 38.4C75.5999 38.2 75.2999 38.1 74.9999 38.2C74.6999 38.2 74.3999 38.4 74.0999 38.6L58.1999 56L50.7999 49.8C50.4999 49.6 50.1999 49.5 49.8999 49.5C49.5999 49.5 49.1999 49.6 48.9999 49.9L30.1999 67.4V62.8L40.9999 52.7L38.9999 50.6L27.7999 61.1C27.6999 61.2 27.4999 61.4 27.4999 61.6C27.3999 61.8 27.3999 62 27.3999 62.2V70.6C27.3999 70.9 27.4999 71.1 27.5999 71.4C27.6999 71.6 27.8999 71.8 28.1999 71.9Z" fill="white"/>
</g>
<defs>
<linearGradient id="paint0_linear" x1="135.22" y1="64.7555" x2="-0.0475515" y2="65.2518" gradientUnits="userSpaceOnUse">
<stop stop-color="#C02E00" stop-opacity="0.28"/>
<stop offset="0.5781" stop-color="#FD801B" stop-opacity="0.28"/>
<stop offset="1" stop-color="#FBB12E" stop-opacity="0.28"/>
</linearGradient>
<linearGradient id="paint1_linear" x1="88.655" y1="124.161" x2="47.5901" y2="7.43249" gradientUnits="userSpaceOnUse">
<stop stop-color="#D30823"/>
<stop offset="1" stop-color="#FBB12E"/>
</linearGradient>
<clipPath id="clip0">
<rect width="135.7" height="129.9" fill="white"/>
</clipPath>
</defs>
</svg>
