<svg width="67" height="63" viewBox="0 0 67 63" fill="none" xmlns="http://www.w3.org/2000/svg">
<path d="M33.4413 10.317C34.1452 10.317 34.7159 9.70129 34.7159 8.94199V1.93754C34.7159 1.17824 34.1453 0.5625 33.4413 0.5625C32.7374 0.5625 32.1667 1.17811 32.1667 1.93754V8.94199C32.1669 9.70129 32.7375 10.317 33.4413 10.317Z" fill="white"/>
<path d="M23.8585 12.5759C24.1008 12.9908 24.5147 13.2179 24.938 13.2179C25.1702 13.2179 25.4054 13.1495 25.6163 13.006C26.2118 12.6012 26.3902 11.7521 26.015 11.1096L22.619 5.2966C22.2436 4.65418 21.4566 4.46154 20.8612 4.86649C20.2657 5.2713 20.0873 6.12039 20.4625 6.76295L23.8585 12.5759Z" fill="white"/>
<path d="M41.2705 13.0063C41.4814 13.1495 41.7163 13.2178 41.9483 13.2178C42.3717 13.2178 42.7858 12.9904 43.0281 12.5753L46.4205 6.76229C46.7955 6.11959 46.6167 5.27078 46.021 4.86597C45.425 4.46157 44.6384 4.65463 44.2633 5.29705L40.8709 11.11C40.4959 11.7529 40.6748 12.6017 41.2705 13.0063Z" fill="white"/>
<path d="M65.6604 32.9346L63.4458 28.7139C63.0988 28.0528 62.3211 27.8204 61.7089 28.1947C61.0962 28.5689 60.8808 29.4078 61.2276 30.0685L63.4412 34.2874C63.5521 34.4994 63.5233 34.7039 63.4962 34.8069C63.4702 34.906 63.3986 35.089 63.2113 35.2007L59.7982 37.2403C59.4949 37.4209 59.0992 37.3068 58.9339 36.9922L58.0668 35.3375C58.0632 35.3301 58.0591 35.3232 58.0554 35.3159L49.0913 18.2112C48.9805 18.0007 49.0086 17.7989 49.0351 17.6972C49.0607 17.5989 49.1318 17.4173 49.3192 17.3055L52.7363 15.2655C53.0434 15.0821 53.4295 15.1934 53.5973 15.5144L55.5951 19.3223C55.9419 19.9832 56.7198 20.2155 57.3321 19.8416C57.9448 19.4676 58.1602 18.6286 57.8135 17.9677L55.8166 14.1615C54.9649 12.5326 53.0299 11.9483 51.5027 12.859L48.0856 14.899C47.3462 15.3399 46.8121 16.0685 46.5816 16.9511C46.3642 17.7833 46.4419 18.6521 46.7979 19.4145L44.9156 20.003C44.1138 20.2533 43.6271 20.389 43.357 20.389C43.3559 20.389 43.3549 20.389 43.3539 20.389C43.1679 20.3883 42.9651 20.3117 42.3863 20.0752C42.1238 19.968 41.7968 19.8343 41.395 19.6831L38.06 18.4253C36.2155 17.7304 35.3836 17.7678 34.1784 17.8864L28.4917 18.4355C25.8993 18.6833 24.2466 19.3141 23.3342 20.4083L20.0935 19.3953C20.4422 18.6361 20.517 17.7758 20.3016 16.9511C20.0711 16.0691 19.5374 15.3406 18.7987 14.8997L15.3836 12.8588C13.8551 11.9472 11.9189 12.5318 11.0671 14.1602L1.2268 32.9327C0.80555 33.7328 0.701289 34.6634 0.933519 35.5532C1.16422 36.4368 1.69827 37.1662 2.43625 37.6064L5.85138 39.6471C6.33967 39.9384 6.87015 40.0767 7.39362 40.0767C8.5057 40.0767 9.5868 39.4526 10.1679 38.3458L10.5287 37.6572C11.5135 38.1248 12.3403 38.8042 12.9038 39.6086C12.3534 40.3025 12.0067 41.1587 11.9095 42.09C11.781 43.3217 12.1035 44.53 12.8175 45.4933C13.5254 46.4482 14.5377 47.0508 15.6696 47.1927C15.5498 48.4138 15.8736 49.6104 16.5821 50.5629C17.3145 51.5507 18.3496 52.127 19.4323 52.263C19.313 53.4824 19.6356 54.6778 20.342 55.6309C21.0495 56.5879 22.062 57.1917 23.1952 57.3336C23.0752 58.5557 23.399 59.753 24.1075 60.7056C24.952 61.8447 26.1988 62.4377 27.4575 62.4376C28.3971 62.4376 29.3434 62.107 30.1334 61.4264L32.8021 59.1227C33.014 58.9402 33.2066 58.7385 33.3799 58.5212L34.9043 59.8349C35.6926 60.5136 36.6367 60.8434 37.575 60.8432C38.8343 60.8431 40.0831 60.2494 40.9288 59.1092C41.3746 58.508 41.6567 57.8219 41.7842 57.1136C42.2299 57.28 42.7005 57.3659 43.1803 57.3658C43.3411 57.3658 43.503 57.3561 43.6654 57.3367C44.8074 57.1999 45.8286 56.5941 46.5382 55.634C47.248 54.68 47.5717 53.4836 47.452 52.2626C48.534 52.1263 49.5696 51.5502 50.3042 50.5628C51.0358 49.5759 51.3294 48.3609 51.2145 47.1924C52.3458 47.0502 53.3576 46.4478 54.0638 45.495C54.7783 44.5344 55.1022 43.3278 54.9756 42.0972C54.8795 41.163 54.5326 40.3039 53.9812 39.6081C54.5431 38.804 55.3682 38.1237 56.3536 37.6564L56.7152 38.3463C57.2959 39.4527 58.3765 40.0766 59.4888 40.0766C60.0126 40.0764 60.5435 39.9381 61.0323 39.6466L64.4456 37.6069C65.1833 37.1668 65.7171 36.4386 65.9487 35.5565C66.1822 34.6676 66.0801 33.7369 65.6604 32.9346ZM7.94934 36.9915C7.78365 37.3072 7.38763 37.4211 7.08568 37.2408L3.67069 35.2003C3.48422 35.0889 3.4131 34.9065 3.38709 34.8077C3.36046 34.7052 3.33203 34.5019 3.44445 34.2887L13.2863 15.5126C13.399 15.2971 13.6113 15.1764 13.8318 15.1764C13.9391 15.1764 14.0482 15.2048 14.1489 15.2649L17.563 17.3052C17.5634 17.3055 17.5638 17.3058 17.5642 17.3059C17.751 17.4174 17.822 17.5991 17.8478 17.6974C17.8743 17.799 17.9023 18.0008 17.7903 18.2137L7.94934 36.9915ZM17.2505 44.0675C16.8911 44.3781 16.4372 44.5185 15.9734 44.4628C15.5093 44.4072 15.0957 44.1633 14.8084 43.7758C14.5205 43.3874 14.3907 42.8979 14.4428 42.3976C14.4947 41.8995 14.721 41.4555 15.0822 41.1454L19.854 37.0304C20.6029 36.3854 21.6992 36.5181 22.2977 37.3246C22.5855 37.7127 22.7154 38.2014 22.6634 38.7001C22.6117 39.1972 22.3853 39.6408 22.0261 39.9491C22.0182 39.9558 22.0114 39.9634 22.0038 39.9704L17.2516 44.0665C17.2513 44.0668 17.2509 44.0672 17.2505 44.0675ZM18.5715 48.8435C18.2838 48.4567 18.1538 47.9693 18.2052 47.471C18.2565 46.9722 18.483 46.5262 18.8427 46.215L18.8431 46.2147C18.8433 46.2146 18.8436 46.2143 18.8439 46.2142C18.844 46.2142 18.844 46.2141 18.8441 46.2139L25.7174 40.2897C26.4662 39.6445 27.5628 39.7763 28.1612 40.5838C28.4486 40.9714 28.5785 41.4596 28.5271 41.9582C28.4756 42.4573 28.2485 42.9034 27.8879 43.2141L21.0164 49.1361C20.2667 49.7816 19.1705 49.6514 18.5715 48.8435ZM23.4988 54.6036C23.0348 54.548 22.6216 54.3038 22.3339 53.9147C22.0465 53.5271 21.9166 53.0389 21.968 52.5403C22.0195 52.0416 22.2462 51.596 22.6063 51.2852C22.6066 51.2849 22.6069 51.2846 22.6072 51.2844L27.3637 47.1851C27.3693 47.1804 27.3754 47.1764 27.381 47.1716C28.1279 46.5266 29.2241 46.6579 29.8231 47.4634C30.1111 47.8517 30.2409 48.3412 30.1888 48.8415C30.1368 49.3397 29.9106 49.7837 29.5495 50.0937L24.7778 54.2085C24.4172 54.5192 23.9628 54.6589 23.4988 54.6036ZM31.8496 55.7198C31.798 56.2186 31.5715 56.6637 31.2108 56.9744L28.5419 59.2786C27.7921 59.9242 26.6959 59.7942 26.0971 58.9862C25.8095 58.5997 25.6793 58.1119 25.7307 57.6126C25.7821 57.1133 26.0083 56.6679 26.3673 56.3585C26.3677 56.3583 26.3682 56.3579 26.3686 56.3576L29.0368 54.0566C29.0382 54.0554 29.0398 54.0544 29.0412 54.0533C29.7902 53.4084 30.8865 53.5405 31.4851 54.3474C31.7717 54.7343 31.9013 55.2215 31.8496 55.7198ZM52.0744 43.7757C51.7871 44.1632 51.3734 44.4072 50.9095 44.4628C50.4459 44.519 49.9918 44.3782 49.6323 44.0675C49.6322 44.0673 49.632 44.0672 49.6317 44.0671C49.6316 44.0669 49.6313 44.0668 49.6312 44.0667L46.2207 41.127C45.6705 40.6528 44.8686 40.7496 44.4294 41.3428C43.99 41.936 44.0796 42.8013 44.6295 43.2753L48.0389 46.2141C48.7868 46.8602 48.91 48.0405 48.3148 48.8434C47.7142 49.6508 46.6179 49.7821 45.8695 49.1355L42.17 45.9506C41.6199 45.477 40.8179 45.5742 40.3789 46.1677C39.9399 46.7612 40.0299 47.6264 40.5801 48.1001L44.2778 51.2834C44.6381 51.5947 44.8649 52.0411 44.9164 52.5403C44.9677 53.0387 44.8377 53.5262 44.5476 53.9161C44.261 54.3038 43.8478 54.5479 43.3839 54.6036C42.9196 54.6587 42.4652 54.5189 42.106 54.2096L40.2653 52.6215C40.2621 52.6187 40.2593 52.6158 40.2561 52.6131L38.7009 51.2717L38.4101 51.0209C37.8601 50.5465 37.0582 50.6429 36.6187 51.2358C36.5638 51.3101 36.517 51.3885 36.4785 51.4699C36.2939 51.859 36.297 52.3154 36.4702 52.698C36.5504 52.8753 36.6659 53.0371 36.818 53.1685L38.6689 54.7653C39.4118 55.4125 39.5333 56.5889 38.9384 57.3912C38.3398 58.1985 37.2434 58.3303 36.4948 57.6861L34.3949 55.8763C34.4824 54.6994 34.1591 53.5517 33.4754 52.6294C33.0505 52.0565 32.5235 51.6225 31.9447 51.3314C32.3689 50.6965 32.6382 49.9507 32.7218 49.1488C32.8503 47.9173 32.5278 46.7089 31.8125 45.7441C31.3874 45.1726 30.861 44.7396 30.2834 44.4492C30.7083 43.8124 30.9776 43.0651 31.0605 42.262C31.1873 41.0333 30.8646 39.8273 30.1518 38.8657C28.9254 37.2115 26.8514 36.7087 25.1253 37.4991C24.9871 36.8146 24.7048 36.1688 24.288 35.6066C22.8123 33.6172 20.1099 33.2917 18.2629 34.8815L14.8501 37.8245C14.0783 36.762 13.0292 35.8809 11.7888 35.2525L18.8091 21.8567L22.5469 23.0251C22.564 23.2409 22.5964 23.4677 22.6505 23.7081C23.5554 27.7216 26.9807 29.5916 31.59 28.5896C35.4736 27.7466 37.0725 29.0024 40.2567 31.504C40.5871 31.7635 40.9304 32.0331 41.2897 32.3107C43.5797 34.0832 46.0269 36.1665 47.6677 37.5785L51.805 41.1457C52.1644 41.455 52.3907 41.9006 52.442 42.4002C52.4934 42.8995 52.3634 43.3874 52.0744 43.7757ZM52.0348 37.8237L49.2584 35.4299C47.5949 33.9983 45.1132 31.8859 42.7749 30.076C42.4206 29.8023 42.0827 29.5367 41.7574 29.2813C38.4555 26.6873 36.0691 24.8131 31.087 25.894C29.5621 26.2255 25.929 26.6131 25.1277 23.0589C25.0148 22.5572 25.1295 22.3848 25.1783 22.3112C25.3487 22.0549 26.0344 21.431 28.7173 21.1747L34.41 20.6251C35.3376 20.5338 35.803 20.4879 37.2188 21.0214L40.5541 22.2793C40.9249 22.419 41.2214 22.54 41.483 22.647C43.089 23.3033 43.5146 23.3031 45.6244 22.6444L48.0833 21.8757L55.0942 35.2533C53.8534 35.8813 52.8053 36.7618 52.0348 37.8237Z" fill="white"/>
<path d="M59.5158 25.3947C60.2196 25.3947 60.7904 24.7771 60.7904 24.0176C60.7904 23.2582 60.2196 22.6426 59.5158 22.6426C58.812 22.6426 58.2412 23.2583 58.2412 24.0176V24.0215C58.2412 24.7809 58.812 25.3947 59.5158 25.3947Z" fill="white"/>
</svg>
