<svg width="57" height="57" viewBox="0 0 57 57" fill="none" xmlns="http://www.w3.org/2000/svg">
<path d="M54.3281 34.7345H48.9844V32.0626C48.9844 30.5895 47.7856 29.3908 46.3125 29.3908H37.4062C36.6385 29.3908 35.9501 29.7212 35.462 30.2413L25.8281 28.6364V26.4045C28.4858 24.8619 30.2812 21.9914 30.2812 18.7033H31.1719C32.645 18.7033 33.8438 17.5045 33.8438 16.0314C33.8438 14.5583 32.645 13.3595 31.1719 13.3595H30.7444L31.2324 12.2275C32.148 10.1069 31.9841 7.65773 30.796 5.67698C30.0426 4.4212 28.9409 3.43706 27.6085 2.83143L25.1227 1.69945C22.1881 0.363512 18.5909 0.754496 16.0108 2.68804L14.6062 3.74076L14.608 3.74343C13.2187 4.10592 11.9923 5.00011 11.2388 6.25589C10.2582 7.89107 10.1816 9.88518 11.034 11.5907L11.9183 13.3595H11.5781C10.105 13.3595 8.90625 14.5583 8.90625 16.0314C8.90625 17.5045 10.105 18.7033 11.5781 18.7033H12.4688C12.4688 21.9914 14.2642 24.8619 16.9219 26.4045V28.6364L6.09989 30.4399C3.08156 30.9431 0.890625 33.5286 0.890625 36.5897V55.2189C0.890625 55.7114 1.28963 56.1095 1.78125 56.1095H29.3906H30.2812H54.3281C55.3105 56.1095 56.1094 55.3106 56.1094 54.3283V36.5158C56.1094 35.5334 55.3105 34.7345 54.3281 34.7345ZM47.2031 32.0626V34.7345H41.5637C41.0863 33.2107 40.0443 31.9442 38.679 31.172H46.3125C46.8032 31.172 47.2031 31.571 47.2031 32.0626ZM36.5156 32.2363C37.9184 32.524 39.0753 33.4663 39.6595 34.7345H36.5156V32.2363ZM32.0625 16.0314C32.0625 16.5221 31.6626 16.922 31.1719 16.922H30.2812V15.1408H31.1719C31.6626 15.1408 32.0625 15.5407 32.0625 16.0314ZM12.7662 7.17234C13.4431 6.04481 14.6811 5.34389 15.9956 5.34389C17.3921 5.34389 18.688 6.03768 19.4637 7.19906L19.7434 7.61854L21.2254 6.63084L20.9457 6.21136C20.1424 5.00723 18.9445 4.16114 17.5863 3.78529C19.6027 2.53486 22.2149 2.33179 24.3844 3.3195L26.8702 4.45148C27.8721 4.90748 28.7013 5.64759 29.2686 6.59254C30.1628 8.08256 30.2857 9.92526 29.5972 11.5213L29.5376 11.6602L28.4065 9.39801C28.288 9.162 28.0716 8.99011 27.8142 8.92954C27.5577 8.86809 27.287 8.92598 27.075 9.08362L25.65 10.1524C24.4245 11.0724 22.906 11.5783 21.375 11.5783C19.844 11.5783 18.3255 11.0724 17.1 10.1533L15.675 9.08451C15.463 8.92509 15.1914 8.86809 14.9358 8.93043C14.6784 8.991 14.462 9.16289 14.3435 9.3989L13.1367 11.8134L12.6273 10.7945C12.0484 9.6367 12.1 8.28206 12.7662 7.17234ZM11.5781 16.922C11.0874 16.922 10.6875 16.5221 10.6875 16.0314C10.6875 15.5407 11.0874 15.1408 11.5781 15.1408H12.4688V16.922H11.5781ZM14.25 18.7033V13.5697L15.4595 11.1499L16.0312 11.5783C17.5631 12.7272 19.461 13.3595 21.375 13.3595C23.289 13.3595 25.1869 12.7272 26.7188 11.5783L27.2905 11.1499L28.5 13.5697V18.7033C28.5 22.6318 25.3035 25.8283 21.375 25.8283C17.4465 25.8283 14.25 22.6318 14.25 18.7033ZM21.375 27.6095C22.3057 27.6095 23.2026 27.4652 24.0469 27.1989V29.022L21.375 31.6939L18.7031 29.022V27.1989C19.5474 27.4652 20.4443 27.6095 21.375 27.6095ZM21.0873 37.4064H21.6627L23.1162 41.0401L21.375 48.5864L19.6338 41.0401L21.0873 37.4064ZM23.0636 33.713L21.7891 35.6251H20.9609L19.6855 33.713L19.983 32.8214L20.7453 33.5838C20.919 33.7566 21.147 33.8439 21.375 33.8439C21.603 33.8439 21.831 33.7566 22.0047 33.5829L22.767 32.8206L23.0636 33.713ZM11.5781 54.3283V39.1876H9.79688V54.3283H2.67188V36.5897C2.67188 34.4041 4.2367 32.556 6.39291 32.1962L17.507 30.3446L18.5749 31.4125L17.8579 33.5624C17.7706 33.8234 17.8089 34.1093 17.9621 34.3382L19.4833 36.62L17.8757 40.6385C17.808 40.8068 17.7947 40.992 17.8348 41.1693L20.5066 52.7474C20.6002 53.1517 20.96 53.4376 21.375 53.4376C21.79 53.4376 22.1498 53.1517 22.2434 52.7474L24.9152 41.1693C24.9553 40.9929 24.942 40.8077 24.8743 40.6385L23.2667 36.62L24.7879 34.3382C24.9402 34.1093 24.9785 33.8234 24.8921 33.5624L24.1751 31.4125L25.243 30.3446L34.7477 31.9282C34.746 31.9736 34.7344 32.0163 34.7344 32.0626V34.7345H29.3906C28.4083 34.7345 27.6094 35.5334 27.6094 36.5158V54.3283H11.5781ZM30.2812 54.3283H29.3906V52.547H54.329V54.3283H30.2812ZM54.329 50.7658H29.3906V43.5419C30.5235 44.7006 32.0999 45.422 33.8438 45.422H39.1875V46.3126C39.1875 47.7857 40.3863 48.9845 41.8594 48.9845C43.3325 48.9845 44.5312 47.7857 44.5312 46.3126V45.422H49.875C51.6188 45.422 53.1961 44.6997 54.329 43.5419V50.7658ZM40.9688 46.3126V41.8595H42.75V46.3126C42.75 46.8043 42.3501 47.2033 41.8594 47.2033C41.3686 47.2033 40.9688 46.8043 40.9688 46.3126ZM54.3281 39.1876C54.3281 41.6431 52.3305 43.6408 49.875 43.6408H44.5312V40.9689C44.5312 40.4764 44.1323 40.0783 43.6406 40.0783H40.0781C39.5865 40.0783 39.1875 40.4764 39.1875 40.9689V43.6408H33.8438C31.3883 43.6408 29.3906 41.6431 29.3906 39.1876V36.5158H54.3281V39.1876Z" fill="white"/>
</svg>
