<svg width="57" height="57" viewBox="0 0 57 57" fill="none" xmlns="http://www.w3.org/2000/svg">
<path d="M20.511 47.2041H20.5012C20.0096 47.2041 19.616 47.6022 19.616 48.0947C19.616 48.5872 20.0185 48.9854 20.511 48.9854C21.0027 48.9854 21.4017 48.5872 21.4017 48.0947C21.4017 47.6022 21.0027 47.2041 20.511 47.2041Z" fill="white"/>
<path d="M16.9485 47.2031H16.9387C16.4471 47.2031 16.0535 47.6012 16.0535 48.0938C16.0535 48.5863 16.456 48.9844 16.9485 48.9844C17.4402 48.9844 17.8392 48.5863 17.8392 48.0938C17.8392 47.6012 17.4402 47.2031 16.9485 47.2031Z" fill="white"/>
<path d="M13.386 47.2021H13.3762C12.8846 47.2021 12.491 47.6003 12.491 48.0928C12.491 48.5853 12.8935 48.9834 13.386 48.9834C13.8777 48.9834 14.2767 48.5853 14.2767 48.0928C14.2767 47.6003 13.8777 47.2021 13.386 47.2021Z" fill="white"/>
<path d="M43.6673 47.2041H43.6575C43.1659 47.2041 42.7722 47.6022 42.7722 48.0947C42.7722 48.5872 43.1748 48.9854 43.6673 48.9854C44.1589 48.9854 44.5579 48.5872 44.5579 48.0947C44.5579 47.6022 44.1589 47.2041 43.6673 47.2041Z" fill="white"/>
<path d="M40.1048 47.2031H40.095C39.6034 47.2031 39.2097 47.6012 39.2097 48.0938C39.2097 48.5863 39.6123 48.9844 40.1048 48.9844C40.5964 48.9844 40.9954 48.5863 40.9954 48.0938C40.9954 47.6012 40.5964 47.2031 40.1048 47.2031Z" fill="white"/>
<path d="M36.5423 47.2021H36.5325C36.0409 47.2021 35.6472 47.6003 35.6472 48.0928C35.6472 48.5853 36.0498 48.9834 36.5423 48.9834C37.0339 48.9834 37.4329 48.5853 37.4329 48.0928C37.4329 47.6003 37.0339 47.2021 36.5423 47.2021Z" fill="white"/>
<path d="M11.5781 0C8.1412 0 5.34375 2.79745 5.34375 6.23438C5.34375 6.72689 5.74186 7.125 6.23438 7.125C6.72689 7.125 7.125 6.72689 7.125 6.23438C7.125 3.77892 9.12267 1.78125 11.5781 1.78125C12.0706 1.78125 12.4688 1.38314 12.4688 0.890625C12.4688 0.398109 12.0706 0 11.5781 0Z" fill="white"/>
<path d="M45.4219 0C44.9294 0 44.5312 0.398109 44.5312 0.890625C44.5312 1.38314 44.9294 1.78125 45.4219 1.78125C47.8773 1.78125 49.875 3.77892 49.875 6.23438C49.875 6.72689 50.2731 7.125 50.7656 7.125C51.2581 7.125 51.6562 6.72689 51.6562 6.23438C51.6562 2.79745 48.8588 0 45.4219 0Z" fill="white"/>
<path d="M45.4219 0H11.5781C11.0856 0 10.6875 0.398109 10.6875 0.890625C10.6875 1.38314 11.0856 1.78125 11.5781 1.78125H45.4219C45.9144 1.78125 46.3125 1.38314 46.3125 0.890625C46.3125 0.398109 45.9144 0 45.4219 0Z" fill="white"/>
<path d="M50.7656 7.125H6.23438C5.74186 7.125 5.34375 7.52311 5.34375 8.01562C5.34375 8.50814 5.74186 8.90625 6.23438 8.90625H50.7656C51.2581 8.90625 51.6562 8.50814 51.6562 8.01562C51.6562 7.52311 51.2581 7.125 50.7656 7.125Z" fill="white"/>
<path d="M6.23438 5.34375C5.74186 5.34375 5.34375 5.74186 5.34375 6.23438V8.01562C5.34375 8.50814 5.74186 8.90625 6.23438 8.90625C6.72689 8.90625 7.125 8.50814 7.125 8.01562V6.23438C7.125 5.74186 6.72689 5.34375 6.23438 5.34375Z" fill="white"/>
<path d="M50.7656 5.34375C50.2731 5.34375 49.875 5.74186 49.875 6.23438V8.01562C49.875 8.50814 50.2731 8.90625 50.7656 8.90625C51.2581 8.90625 51.6562 8.50814 51.6562 8.01562V6.23438C51.6562 5.74186 51.2581 5.34375 50.7656 5.34375Z" fill="white"/>
<path d="M50.7656 47.2041C50.2731 47.2041 49.875 47.6022 49.875 48.0947C49.875 50.5502 47.8773 52.5479 45.4219 52.5479C44.9294 52.5479 44.5312 52.946 44.5312 53.4385C44.5312 53.931 44.9294 54.3291 45.4219 54.3291C48.8588 54.3291 51.6562 51.5316 51.6562 48.0947C51.6562 47.6022 51.2581 47.2041 50.7656 47.2041Z" fill="white"/>
<path d="M11.5781 52.5479C9.12267 52.5479 7.125 50.5502 7.125 48.0947C7.125 47.6022 6.72689 47.2041 6.23438 47.2041C5.74186 47.2041 5.34375 47.6022 5.34375 48.0947C5.34375 51.5316 8.1412 54.3291 11.5781 54.3291C12.0706 54.3291 12.4688 53.931 12.4688 53.4385C12.4688 52.946 12.0706 52.5479 11.5781 52.5479Z" fill="white"/>
<path d="M45.4219 52.5479H11.5781C11.0856 52.5479 10.6875 52.946 10.6875 53.4385C10.6875 53.931 11.0856 54.3291 11.5781 54.3291H45.4219C45.9144 54.3291 46.3125 53.931 46.3125 53.4385C46.3125 52.946 45.9144 52.5479 45.4219 52.5479Z" fill="white"/>
<path d="M50.7656 41.8604H6.23438C5.74186 41.8604 5.34375 42.2585 5.34375 42.751C5.34375 43.2435 5.74186 43.6416 6.23438 43.6416H50.7656C51.2581 43.6416 51.6562 43.2435 51.6562 42.751C51.6562 42.2585 51.2581 41.8604 50.7656 41.8604Z" fill="white"/>
<path d="M50.7656 41.8604C50.2731 41.8604 49.875 42.2585 49.875 42.751V48.0947C49.875 48.5872 50.2731 48.9854 50.7656 48.9854C51.2581 48.9854 51.6562 48.5872 51.6562 48.0947V42.751C51.6562 42.2585 51.2581 41.8604 50.7656 41.8604Z" fill="white"/>
<path d="M6.23438 41.8604C5.74186 41.8604 5.34375 42.2585 5.34375 42.751V48.0947C5.34375 48.5872 5.74186 48.9854 6.23438 48.9854C6.72689 48.9854 7.125 48.5872 7.125 48.0947V42.751C7.125 42.2585 6.72689 41.8604 6.23438 41.8604Z" fill="white"/>
<path d="M7.125 7.125C6.63248 7.125 6.23438 7.52311 6.23438 8.01563V42.6013C6.23438 43.0938 6.63248 43.4919 7.125 43.4919C7.61752 43.4919 8.01562 43.0938 8.01562 42.6013V8.01563C8.01562 7.52311 7.61752 7.125 7.125 7.125Z" fill="white"/>
<path d="M49.875 7.125C49.3825 7.125 48.9844 7.52311 48.9844 8.01563V42.6013C48.9844 43.0938 49.3825 43.4919 49.875 43.4919C50.3675 43.4919 50.7656 43.0938 50.7656 42.6013V8.01563C50.7656 7.52311 50.3675 7.125 49.875 7.125Z" fill="white"/>
<path d="M11.5781 52.5479C11.0856 52.5479 10.6875 52.946 10.6875 53.4385V56.1095C10.6875 56.602 11.0856 57.0001 11.5781 57.0001C12.0706 57.0001 12.4688 56.602 12.4688 56.1095V53.4385C12.4688 52.946 12.0706 52.5479 11.5781 52.5479Z" fill="white"/>
<path d="M21.375 55.2188H11.5781C11.0856 55.2188 10.6875 55.6169 10.6875 56.1094C10.6875 56.6019 11.0856 57 11.5781 57H21.375C21.8675 57 22.2656 56.6019 22.2656 56.1094C22.2656 55.6169 21.8675 55.2188 21.375 55.2188Z" fill="white"/>
<path d="M21.375 52.5479C20.8825 52.5479 20.4844 52.946 20.4844 53.4385V56.1095C20.4844 56.602 20.8825 57.0001 21.375 57.0001C21.8675 57.0001 22.2656 56.602 22.2656 56.1095V53.4385C22.2656 52.946 21.8675 52.5479 21.375 52.5479Z" fill="white"/>
<path d="M35.625 52.5479C35.1325 52.5479 34.7344 52.946 34.7344 53.4385V56.1095C34.7344 56.602 35.1325 57.0001 35.625 57.0001C36.1175 57.0001 36.5156 56.602 36.5156 56.1095V53.4385C36.5156 52.946 36.1175 52.5479 35.625 52.5479Z" fill="white"/>
<path d="M45.4219 55.2188H35.625C35.1325 55.2188 34.7344 55.6169 34.7344 56.1094C34.7344 56.6019 35.1325 57 35.625 57H45.4219C45.9144 57 46.3125 56.6019 46.3125 56.1094C46.3125 55.6169 45.9144 55.2188 45.4219 55.2188Z" fill="white"/>
<path d="M45.4219 52.5479C44.9294 52.5479 44.5312 52.946 44.5312 53.4385V56.1095C44.5312 56.602 44.9294 57.0001 45.4219 57.0001C45.9144 57.0001 46.3125 56.602 46.3125 56.1095V53.4385C46.3125 52.946 45.9144 52.5479 45.4219 52.5479Z" fill="white"/>
<path d="M32.9531 45.4229H24.0469C23.5544 45.4229 23.1562 45.821 23.1562 46.3135V49.8751C23.1562 50.3676 23.5544 50.7657 24.0469 50.7657H32.9531C33.4456 50.7657 33.8438 50.3676 33.8438 49.8751V46.3135C33.8438 45.821 33.4456 45.4229 32.9531 45.4229ZM32.0625 48.9845H24.9375V47.2041H32.0625V48.9845Z" fill="white"/>
<path d="M18.7031 4.45312C18.2106 4.45312 17.8125 4.85123 17.8125 5.34375V8.01562C17.8125 8.50814 18.2106 8.90625 18.7031 8.90625C19.1956 8.90625 19.5938 8.50814 19.5938 8.01562V5.34375C19.5938 4.85123 19.1956 4.45312 18.7031 4.45312Z" fill="white"/>
<path d="M38.2969 4.45312C37.8044 4.45312 37.4062 4.85123 37.4062 5.34375V8.01562C37.4062 8.50814 37.8044 8.90625 38.2969 8.90625C38.7894 8.90625 39.1875 8.50814 39.1875 8.01562V5.34375C39.1875 4.85123 38.7894 4.45312 38.2969 4.45312Z" fill="white"/>
<path d="M38.2969 4.45312H18.7031C18.2106 4.45312 17.8125 4.85123 17.8125 5.34375C17.8125 5.83627 18.2106 6.23438 18.7031 6.23438H38.2969C38.7894 6.23438 39.1875 5.83627 39.1875 5.34375C39.1875 4.85123 38.7894 4.45312 38.2969 4.45312Z" fill="white"/>
<path d="M48.9844 38.2969H8.01562C7.52311 38.2969 7.125 38.695 7.125 39.1875C7.125 39.68 7.52311 40.0781 8.01562 40.0781H48.9844C49.4769 40.0781 49.875 39.68 49.875 39.1875C49.875 38.695 49.4769 38.2969 48.9844 38.2969Z" fill="white"/>
<path d="M15.1406 35.625C14.6481 35.625 14.25 36.0231 14.25 36.5156V39.1875C14.25 39.68 14.6481 40.0781 15.1406 40.0781C15.6331 40.0781 16.0312 39.68 16.0312 39.1875V36.5156C16.0312 36.0231 15.6331 35.625 15.1406 35.625Z" fill="white"/>
<path d="M20.4844 35.625H15.1406C14.6481 35.625 14.25 36.0231 14.25 36.5156C14.25 37.0081 14.6481 37.4062 15.1406 37.4062H20.4844C20.9769 37.4062 21.375 37.0081 21.375 36.5156C21.375 36.0231 20.9769 35.625 20.4844 35.625Z" fill="white"/>
<path d="M20.4844 35.625C19.9919 35.625 19.5938 36.0231 19.5938 36.5156V39.1875C19.5938 39.68 19.9919 40.0781 20.4844 40.0781C20.9769 40.0781 21.375 39.68 21.375 39.1875V36.5156C21.375 36.0231 20.9769 35.625 20.4844 35.625Z" fill="white"/>
<path d="M25.8281 35.625C25.3356 35.625 24.9375 36.0231 24.9375 36.5156V39.1875C24.9375 39.68 25.3356 40.0781 25.8281 40.0781C26.3206 40.0781 26.7188 39.68 26.7188 39.1875V36.5156C26.7188 36.0231 26.3206 35.625 25.8281 35.625Z" fill="white"/>
<path d="M31.1719 35.625H25.8281C25.3356 35.625 24.9375 36.0231 24.9375 36.5156C24.9375 37.0081 25.3356 37.4062 25.8281 37.4062H31.1719C31.6644 37.4062 32.0625 37.0081 32.0625 36.5156C32.0625 36.0231 31.6644 35.625 31.1719 35.625Z" fill="white"/>
<path d="M31.1719 35.625C30.6794 35.625 30.2812 36.0231 30.2812 36.5156V39.1875C30.2812 39.68 30.6794 40.0781 31.1719 40.0781C31.6644 40.0781 32.0625 39.68 32.0625 39.1875V36.5156C32.0625 36.0231 31.6644 35.625 31.1719 35.625Z" fill="white"/>
<path d="M36.5156 35.625C36.0231 35.625 35.625 36.0231 35.625 36.5156V39.1875C35.625 39.68 36.0231 40.0781 36.5156 40.0781C37.0081 40.0781 37.4062 39.68 37.4062 39.1875V36.5156C37.4062 36.0231 37.0081 35.625 36.5156 35.625Z" fill="white"/>
<path d="M41.8594 35.625H36.5156C36.0231 35.625 35.625 36.0231 35.625 36.5156C35.625 37.0081 36.0231 37.4062 36.5156 37.4062H41.8594C42.3519 37.4062 42.75 37.0081 42.75 36.5156C42.75 36.0231 42.3519 35.625 41.8594 35.625Z" fill="white"/>
<path d="M41.8594 35.625C41.3669 35.625 40.9688 36.0231 40.9688 36.5156V39.1875C40.9688 39.68 41.3669 40.0781 41.8594 40.0781C42.3519 40.0781 42.75 39.68 42.75 39.1875V36.5156C42.75 36.0231 42.3519 35.625 41.8594 35.625Z" fill="white"/>
<path d="M21.0703 17.1419C20.7007 16.8186 20.1378 16.8542 19.8136 17.2265C19.4903 17.5961 19.5277 18.159 19.8982 18.4832C26.8487 24.5643 27.6093 28.8447 27.6093 36.5156C27.6093 37.0081 28.0074 37.4063 28.4999 37.4063C28.9924 37.4063 29.3905 37.0081 29.3905 36.5156C29.3905 27.987 28.2345 23.4101 21.0703 17.1419Z" fill="white"/>
<path d="M26.0443 15.8159C24.467 14.2386 20.184 11.8989 17.497 11.8989C16.5752 11.8989 15.8475 12.1572 15.3381 12.6666C12.9414 15.0642 16.8174 21.7029 18.4873 23.3729C19.4973 24.3819 20.8386 24.9377 22.2663 24.9377C23.693 24.9377 25.0343 24.3819 26.0452 23.3729C28.1284 21.2897 28.1275 17.8991 26.0443 15.8159ZM24.785 22.1135C24.1116 22.7859 23.2174 23.1564 22.2663 23.1564C21.3151 23.1564 20.42 22.7859 19.7467 22.1126C17.9681 20.334 15.5162 15.0072 16.5974 13.9251C16.8014 13.722 17.1995 13.6793 17.497 13.6793C19.6086 13.6793 23.4739 15.7651 24.7841 17.0752C26.1734 18.4637 26.1734 20.7241 24.785 22.1135Z" fill="white"/>
<path d="M35.4583 19.966C35.1716 19.5661 34.6149 19.4744 34.2168 19.7603C33.9469 19.9527 27.6173 24.559 27.457 32.0438C27.4472 32.5354 27.8373 32.9425 28.3289 32.9531C28.3351 32.9531 28.3414 32.9531 28.3476 32.9531C28.8312 32.9531 29.2275 32.5666 29.2391 32.0821C29.3789 25.5039 35.1956 21.2512 35.2535 21.2085C35.6525 20.9217 35.7442 20.365 35.4583 19.966Z" fill="white"/>
<path d="M40.2714 14.9473C39.916 14.591 39.4235 14.4111 38.8081 14.4111C36.5637 14.4111 32.5488 17.0011 31.4542 18.0956C30.6981 18.8536 30.2812 19.86 30.2812 20.9305C30.2812 22.001 30.699 23.0074 31.4542 23.7636C32.2112 24.5197 33.2176 24.9374 34.2891 24.9374C35.3587 24.9374 36.3651 24.5206 37.1221 23.7645C37.872 23.0137 39.0138 21.2894 39.7771 19.7522C40.9607 17.3698 41.1228 15.7978 40.2714 14.9473ZM35.8619 22.5051C35.0212 23.3459 33.5534 23.3459 32.7144 22.5034C32.2941 22.0839 32.0625 21.5246 32.0625 20.9305C32.0625 20.3356 32.2941 19.7763 32.7135 19.3559C33.703 18.3673 37.2949 16.1933 38.8081 16.1933C38.9319 16.1933 38.996 16.2102 39.0031 16.204C39.3879 17.0376 37.237 21.1291 35.8619 22.5051Z" fill="white"/>
<path d="M15.7587 29.64C15.4034 29.2989 14.8405 29.3105 14.4994 29.6641C14.1583 30.0185 14.1699 30.5823 14.5234 30.9234C16.204 32.539 16.9219 34.2116 16.9219 36.5156C16.9219 37.0082 17.32 37.4063 17.8125 37.4063C18.305 37.4063 18.7031 37.0082 18.7031 36.5156C18.7031 33.7547 17.7671 31.57 15.7587 29.64Z" fill="white"/>
<path d="M46.4231 24.8521C46.0107 24.4389 45.4327 24.2305 44.7059 24.2305C42.7029 24.2305 39.706 25.9004 38.6043 27.003C37.8472 27.76 37.4304 28.7664 37.4304 29.837C37.4304 30.9075 37.8472 31.9139 38.6043 32.6691C39.3604 33.4262 40.3668 33.8439 41.4391 33.8439C42.5088 33.8439 43.5143 33.428 44.2731 32.6709C45.5128 31.4294 48.2506 26.6779 46.4231 24.8521ZM43.0129 31.4116C42.5925 31.8311 42.0332 32.0626 41.4391 32.0626H41.4382C40.8433 32.0626 40.2849 31.8311 39.8636 31.4098C39.4441 30.9903 39.2117 30.431 39.2117 29.837C39.2117 29.2429 39.4423 28.6836 39.8645 28.2632C40.732 27.3949 43.2996 26.0117 44.7059 26.0117C44.9696 26.0117 45.1174 26.066 45.1637 26.1124C45.7221 26.6708 44.3345 30.089 43.0129 31.4116Z" fill="white"/>
<path d="M42.5078 28.7567C42.1586 28.412 41.594 28.4147 41.2484 28.7656C39.4271 30.6118 38.2969 32.5534 38.2969 36.5158C38.2969 37.0083 38.695 37.4064 39.1875 37.4064C39.68 37.4064 40.0781 37.0083 40.0781 36.5158C40.0781 33.1465 40.9723 31.5817 42.5167 30.016C42.8613 29.666 42.8587 29.1022 42.5078 28.7567Z" fill="white"/>
<path d="M17.6594 27.7617C16.6824 26.7838 14.039 25.3071 12.28 25.3071C11.6289 25.3071 11.1079 25.4968 10.733 25.8727C9.98575 26.6199 9.97506 27.8988 10.7 29.673C11.1899 30.8726 11.9799 32.1578 12.622 32.8C13.2953 33.4733 14.1895 33.8438 15.1407 33.8438C16.0919 33.8438 16.9861 33.4733 17.6594 32.8C18.3327 32.1266 18.7032 31.2325 18.7032 30.2813C18.7032 29.3301 18.3327 28.4359 17.6594 27.7617ZM16.4 31.5406C15.7267 32.2139 14.5547 32.2139 13.8813 31.5406C12.7556 30.4149 11.6494 27.6094 11.9888 27.1365C11.9897 27.1356 12.06 27.0893 12.28 27.0893C13.4458 27.0893 15.6724 28.2943 16.4 29.0219C16.7367 29.3586 16.9219 29.8057 16.9219 30.2813C16.9219 30.7569 16.7367 31.204 16.4 31.5406Z" fill="white"/>
</svg>
