<svg width="120" height="120" viewBox="0 0 120 120" fill="none" xmlns="http://www.w3.org/2000/svg">
<path d="M60 81.4094C58.6512 81.4094 57.3711 80.8125 56.5042 79.7788L32.1719 50.767C30.5527 48.8362 30.8051 45.9587 32.7359 44.3393C34.6664 42.7202 37.5442 42.9726 39.1636 44.9034L59.994 69.7399L111.249 8.40936C112.865 6.47628 115.742 6.21822 117.676 7.8342C119.609 9.45018 119.867 12.3274 118.251 14.2608L63.5011 79.7726C62.6351 80.8088 61.3548 81.4079 60.0043 81.4094C60.0025 81.4094 60.0014 81.4094 60 81.4094V81.4094Z" fill="#BE3126"/>
<path d="M60 119.312C27.2951 119.312 0.6875 92.7049 0.6875 60C0.6875 27.2951 27.2951 0.6875 60 0.6875C72.3641 0.6875 84.2175 4.46126 94.2784 11.6007C96.3332 13.059 96.8168 15.9071 95.3588 17.962C93.9005 20.0168 91.0524 20.5007 88.9973 19.0424C80.4885 13.0043 70.4612 9.8125 60 9.8125C32.3264 9.8125 9.8125 32.3264 9.8125 60C9.8125 87.6736 32.3264 110.188 60 110.188C87.6736 110.188 110.188 87.6736 110.188 60C110.188 54.7229 109.373 49.5282 107.766 44.5599C106.99 42.1623 108.305 39.5902 110.703 38.8146C113.101 38.0398 115.672 39.3544 116.448 41.7514C118.349 47.6285 119.312 53.7682 119.312 60C119.312 92.7049 92.7049 119.312 60 119.312Z" fill="#BE3126"/>
</svg>
