<svg width="174" height="154" viewBox="0 0 174 154" fill="none" xmlns="http://www.w3.org/2000/svg">
<g clip-path="url(#clip0)">
<path fill-rule="evenodd" clip-rule="evenodd" d="M0.700002 60.5C5.7 39.2 31.1 29.7 53.8 22.1C75.8 14.7 100.5 8.99997 122.2 19.6C144.1 30.3 154.3 52.3 159.2 73.6C164.1 94.6 162.6 116.2 148.6 132.5C133.6 149.9 112.7 155.9 87.1 152.7C62.8 149.6 46.5 135.6 31.4 117.7C16.3 99.8 -4.1 81.4 0.700002 60.5Z" fill="url(#paint0_linear)" fill-opacity="0.9"/>
<path fill-rule="evenodd" clip-rule="evenodd" d="M78.4 2.30001C103.7 -3.09999 130.6 1.30002 149.2 14.6C168.1 28.1 176 49 173 70C170 90.9 163.1 114.3 140.8 126.3C118.9 138.2 91.9 140.1 67.7 134.5C43.7 129 14.8 112.8 7.9 93.6C1.4 75.5 15.2 57.1 28.2 40.3C40.9 23.9 55.4 7.20002 78.4 2.30001Z" fill="url(#paint1_linear)" fill-opacity="0.66"/>
<path d="M94.1 81.9C94.1 82.9 94.9 83.7 95.9 83.7C96.9 83.7 97.7 82.9 97.7 81.9V75.6L102.6 82.7C103.1 83.4 104 83.7 104.8 83.5C105.6 83.2 106.2 82.5 106.2 81.6V69.9C106.2 68.9 105.4 68.1 104.4 68.1C103.4 68.1 102.6 68.9 102.6 69.9V76.4L97.3 69C96.9 68.4 96.1 68.1 95.3 68.3C94.6 68.5 94.1 69.2 94.1 70V81.9Z" fill="white"/>
<path d="M107.3 81.6C107.3 81.7 107.3 81.8 107.3 81.9C107.3 82.3 107.5 82.7 107.8 83C108.1 83.3 108.6 83.5 109 83.5C109.1 83.5 111.5 83.5 112.4 83.5C116.1 83.4 118.7 80.3 118.7 75.9C118.7 71.4 116.1 68.3 112.2 68.3H109C108.5 68.3 108.1 68.5 107.8 68.8C107.5 69.1 107.3 69.6 107.3 70V81.6ZM112.3 71.9C115 71.9 115.2 75 115.2 76C115.2 78.8 113.8 80 112.3 80C111.9 80 111.3 80 110.7 80C110.7 78.6 110.7 76.9 110.7 75.9C110.7 75.1 110.7 73.3 110.7 71.9H112.3Z" fill="white"/>
<path d="M62.9 68.2H59.4C58.4 68.2 57.6 69 57.6 70V82C57.6 82.5 57.8 82.9 58.1 83.2C58.4 83.5 58.9 83.7 59.3 83.7H63.4C66.2 83.7 68.4 81.4 68.4 78.7C68.4 77.2 67.7 75.9 66.7 75C67.1 74.3 67.3 73.6 67.3 72.7C67.4 70.2 65.4 68.2 62.9 68.2ZM62.9 71.7C63.5 71.7 63.9 72.1 63.9 72.7C63.9 73.3 63.5 73.7 62.9 73.7C62.6 73.7 61.2 73.7 61.2 73.7V71.7H62.9ZM63.5 80.2C63.1 80.2 62.1 80.2 61.2 80.2V77.3C61.4 77.3 63.5 77.3 63.5 77.3C64.3 77.3 65 78 65 78.8C65 79.5 64.3 80.2 63.5 80.2Z" fill="white"/>
<path d="M77.7 83.7C78.1 83.7 78.5 83.6 78.9 83.3C79.6 82.7 79.7 81.5 79.1 80.8L76.3 77.6C78.2 76.9 79.5 75.1 79.5 73.1C79.5 70.4 77.2 68.2 74.4 68.2H71.2C70.2 68.2 69.4 69 69.4 70V82C69.4 83 70.2 83.8 71.2 83.8C72.2 83.8 73 83 73 82V79.3L76.4 83.2C76.8 83.5 77.3 83.7 77.7 83.7ZM74.5 71.7C75.3 71.7 76 72.3 76 73.1C76 73.8 75.3 74.5 74.5 74.5C74.2 74.5 73.6 74.5 73.1 74.5C73.1 74 73.1 72.3 73.1 71.8L74.5 71.7Z" fill="white"/>
<path d="M116.8 101.3C117.2 100.9 117.5 100.4 117.9 100C123.4 93.2 126.4 84.7 126.4 75.9C126.4 65.7 122.4 56.1 115.2 48.9C108 41.7 98.4 37.7 88.2 37.7C78 37.7 68.4 41.7 61.2 48.9C54 56.1 50 65.7 50 75.9C50 84.7 53 93.2 58.6 100C59 100.4 59.3 100.9 59.7 101.3L51.4 119.7C51.1 120.3 51.2 121 51.6 121.5C52 122 52.7 122.2 53.4 122.1L60.2 120.5L63.5 126.7C63.8 127.3 64.4 127.6 65.1 127.6C65.1 127.6 65.1 127.6 65.2 127.6C65.9 127.6 66.5 127.2 66.7 126.6L73.6 111.2C75.7 112.1 77.8 112.7 80 113.2C80.1 113.2 80.3 113.2 80.4 113.2C81.2 113.2 81.9 112.6 82.1 111.8C82.3 110.9 81.7 109.9 80.8 109.7C73.2 108 66.3 103.8 61.4 97.7C56.4 91.5 53.6 83.8 53.6 75.8C53.6 56.7 69.2 41.1 88.3 41.1C107.4 41.1 123 56.7 123 75.8C123 83.7 120.2 91.5 115.2 97.7C110.3 103.8 103.4 108 95.8 109.7C94.9 109.9 94.2 110.9 94.5 111.8C94.7 112.8 95.7 113.4 96.6 113.1C98.8 112.6 100.9 111.9 103 111.1L109.9 126.5C110.2 127.1 110.8 127.5 111.4 127.5C111.4 127.5 111.4 127.5 111.5 127.5C112.1 127.5 112.7 127.1 113.1 126.6L116.4 120.4L123.2 122C123.9 122.2 124.5 121.9 125 121.4C125.4 120.9 125.5 120.2 125.2 119.6L116.8 101.3ZM70.4 109.7L64.9 121.9L62.6 117.7C62.2 117 61.4 116.6 60.6 116.8L56 118L62.3 104.1C64.7 106.3 67.5 108.2 70.4 109.7ZM115.8 116.9C115 116.7 114.2 117.1 113.8 117.8L111.5 122L106 109.8C108.9 108.3 111.6 106.3 114.1 104.1L120.4 118L115.8 116.9Z" fill="white"/>
<path d="M88.2 114.2C89.2 114.2 90 113.4 90 112.4C90 111.4 89.2 110.6 88.2 110.6C87.2 110.6 86.4 111.4 86.4 112.4C86.5 113.4 87.3 114.2 88.2 114.2Z" fill="white"/>
<path d="M68.6 56.8C67.9 56.2 66.7 56.3 66.1 57L66 57.1C65.4 57.8 65.5 59 66.2 59.6C66.5 59.9 66.9 60 67.3 60C67.8 60 68.3 59.8 68.6 59.4L68.7 59.3C69.5 58.6 69.4 57.5 68.6 56.8Z" fill="white"/>
<path d="M80.4 51.5C80.6 51.5 80.7 51.5 80.9 51.4H81C81.9 51.1 82.5 50.1 82.2 49.2C82 48.3 81 47.7 80 48H79.8C78.9 48.3 78.3 49.3 78.6 50.2C78.9 51 79.6 51.5 80.4 51.5Z" fill="white"/>
<path d="M73.3 54.8C73.6 54.8 74 54.7 74.3 54.5L74.4 54.4C75.2 53.9 75.4 52.8 74.9 52C74.4 51.2 73.3 51 72.5 51.5L72.4 51.6C71.6 52.1 71.4 53.2 71.9 54C72.1 54.6 72.7 54.8 73.3 54.8Z" fill="white"/>
<path d="M88.2 50.4H88.3C89.3 50.4 90.1 49.6 90.1 48.6C90.1 47.6 89.3 46.8 88.3 46.8H88.1C87.1 46.8 86.3 47.6 86.3 48.6C86.4 49.6 87.2 50.4 88.2 50.4Z" fill="white"/>
<path d="M102.2 54.6C102.5 54.8 102.8 54.9 103.2 54.9C103.8 54.9 104.3 54.6 104.7 54.1C105.2 53.3 105 52.2 104.2 51.7L104.1 51.6C103.3 51.1 102.2 51.3 101.7 52.1C101.2 52.9 101.4 54 102.2 54.5V54.6Z" fill="white"/>
<path d="M95.5 51.4H95.6C95.8 51.5 95.9 51.5 96.1 51.5C96.9 51.5 97.6 51 97.8 50.2C98.1 49.3 97.6 48.3 96.6 48H96.4C95.5 47.7 94.5 48.3 94.2 49.2C94 50.2 94.5 51.1 95.5 51.4Z" fill="white"/>
<path d="M110.3 57.1C109.7 56.4 108.6 56.3 107.8 56.9C107.1 57.5 107 58.6 107.6 59.4L107.7 59.5C108 59.9 108.5 60.1 109 60.1C109.4 60.1 109.8 60 110.1 59.7C110.9 59 111 57.9 110.3 57.1Z" fill="white"/>
<path d="M107.8 96.7C108.1 97 108.5 97.1 108.9 97.1C109.4 97.1 109.9 96.9 110.2 96.5L110.3 96.4C110.9 95.7 110.8 94.5 110.1 93.9C109.4 93.3 108.2 93.4 107.6 94.1L107.5 94.2C107 94.9 107.1 96.1 107.8 96.7Z" fill="white"/>
<path d="M95.9 105.6C96.1 105.6 96.2 105.6 96.4 105.5H96.6C97.5 105.2 98.1 104.2 97.8 103.3C97.5 102.4 96.5 101.8 95.6 102.1H95.5C94.6 102.4 94 103.4 94.3 104.3C94.5 105.1 95.2 105.6 95.9 105.6Z" fill="white"/>
<path d="M102.2 99L102.1 99.1C101.3 99.6 101.1 100.7 101.6 101.5C101.9 102 102.5 102.3 103.1 102.3C103.4 102.3 103.8 102.2 104.1 102L104.2 101.9C105 101.4 105.2 100.3 104.7 99.5C104.1 98.7 103 98.4 102.2 99Z" fill="white"/>
<path d="M88.3 103.1H88.2C87.2 103.1 86.4 103.9 86.4 104.9C86.4 105.9 87.2 106.7 88.2 106.7H88.4C89.4 106.7 90.2 105.9 90.2 104.9C90 103.9 89.2 103.1 88.3 103.1Z" fill="white"/>
<path d="M81 102.1H80.9C80 101.8 79 102.3 78.7 103.3C78.4 104.2 79 105.2 79.9 105.5H80.1C80.3 105.5 80.4 105.6 80.6 105.6C81.4 105.6 82.1 105.1 82.3 104.3C82.5 103.3 81.9 102.4 81 102.1Z" fill="white"/>
<path d="M74.2 98.9C73.4 98.4 72.3 98.6 71.8 99.4C71.3 100.2 71.5 101.3 72.3 101.8L72.4 101.9C72.7 102.1 73 102.2 73.4 102.2C74 102.2 74.5 101.9 74.9 101.4C75.4 100.6 75.2 99.5 74.4 99L74.2 98.9Z" fill="white"/>
<path d="M66.1 96.4C66.4 96.8 66.9 97 67.4 97C67.8 97 68.2 96.9 68.5 96.6C69.2 96 69.3 94.9 68.7 94.1L68.8 94C68.2 93.3 67.1 93.2 66.3 93.8C65.6 94.5 65.5 95.6 66.1 96.4Z" fill="white"/>
<path d="M91.5 83.6C90.8 83.6 90.1 83.2 89.9 82.5L86.8 74.4L83.7 82.5C83.4 83.4 82.3 83.9 81.4 83.5C80.5 83.2 80 82.1 80.4 81.2L84.9 69.4C85.2 68.6 85.9 68.1 86.8 68.1C87.6 68.1 88.4 68.6 88.7 69.4L93.2 81.2C93.5 82.1 93.1 83.1 92.2 83.5C91.9 83.6 91.7 83.6 91.5 83.6Z" fill="white"/>
</g>
<defs>
<linearGradient id="paint0_linear" x1="31.8827" y1="120.398" x2="142.606" y2="47.6717" gradientUnits="userSpaceOnUse">
<stop offset="0.0261466" stop-color="#FBB12E"/>
<stop offset="1" stop-color="#D30823" stop-opacity="0.81"/>
</linearGradient>
<linearGradient id="paint1_linear" x1="34.5348" y1="29.5043" x2="153.473" y2="109.317" gradientUnits="userSpaceOnUse">
<stop stop-color="#FBB12E" stop-opacity="0.28"/>
<stop offset="0.5612" stop-color="#E86129" stop-opacity="0.28"/>
<stop offset="1" stop-color="#D30823" stop-opacity="0.28"/>
</linearGradient>
<clipPath id="clip0">
<rect width="173.6" height="153.5" fill="white"/>
</clipPath>
</defs>
</svg>
