<svg width="174" height="160" viewBox="0 0 174 160" fill="none" xmlns="http://www.w3.org/2000/svg">
<g clip-path="url(#clip0)">
<path fill-rule="evenodd" clip-rule="evenodd" d="M0.699995 60.5C5.69999 39.2 31.1 29.7 53.8 22.1C75.8 14.7 100.5 8.99997 122.2 19.6C144.1 30.3 154.3 52.3 159.2 73.6C164.1 94.6 162.6 116.2 148.6 132.5C133.6 149.9 109.7 162.4 84.1 159.2C59.8 156.1 46.5 135.6 31.4 117.7C16.3 99.8 -4.10001 81.4 0.699995 60.5Z" fill="url(#paint0_linear)" fill-opacity="0.9"/>
<path fill-rule="evenodd" clip-rule="evenodd" d="M78.4 2.30001C103.7 -3.09999 130.6 1.30002 149.2 14.6C168.1 28.1 176 49 173 70C170 90.9 163.1 114.3 140.8 126.3C118.9 138.2 91.9 140.1 67.7 134.5C43.7 129 14.8 112.8 7.90001 93.6C1.40001 75.5 15.2 57.1 28.2 40.3C40.9 23.9 55.4 7.20002 78.4 2.30001Z" fill="url(#paint1_linear)" fill-opacity="0.66"/>
<path d="M76.6 105.2C75.8 105.2 75.2 105.8 75.2 106.6C75.2 107.4 75.8 108 76.6 108C77.4 108 78 107.4 78 106.6C78 105.8 77.4 105.2 76.6 105.2Z" fill="white"/>
<path d="M71 105.2C70.2 105.2 69.6 105.8 69.6 106.6C69.6 107.4 70.2 108 71 108C71.8 108 72.4 107.4 72.4 106.6C72.4 105.9 71.8 105.2 71 105.2Z" fill="white"/>
<path d="M65.4 105.2C64.6 105.2 64 105.8 64 106.6C64 107.4 64.6 108 65.4 108C66.2 108 66.8 107.4 66.8 106.6C66.8 105.8 66.1 105.2 65.4 105.2Z" fill="white"/>
<path d="M113.2 105.2C112.4 105.2 111.8 105.8 111.8 106.6C111.8 107.4 112.4 108 113.2 108C114 108 114.6 107.4 114.6 106.6C114.6 105.8 114 105.2 113.2 105.2Z" fill="white"/>
<path d="M107.6 105.2C106.8 105.2 106.2 105.8 106.2 106.6C106.2 107.4 106.8 108 107.6 108C108.4 108 109 107.4 109 106.6C109 105.9 108.3 105.2 107.6 105.2Z" fill="white"/>
<path d="M101.9 105.2C101.1 105.2 100.5 105.8 100.5 106.6C100.5 107.4 101.1 108 101.9 108C102.7 108 103.3 107.4 103.3 106.6C103.3 105.8 102.7 105.2 101.9 105.2Z" fill="white"/>
<path d="M62.5 30.7C57.1 30.7 52.7 35.1 52.7 40.5C52.7 41.3 53.3 41.9 54.1 41.9C54.9 41.9 55.5 41.3 55.5 40.5C55.5 36.6 58.7 33.5 62.5 33.5C63.3 33.5 63.9 32.9 63.9 32.1C63.9 31.3 63.3 30.7 62.5 30.7Z" fill="white"/>
<path d="M115.9 30.7C115.1 30.7 114.5 31.3 114.5 32.1C114.5 32.9 115.1 33.5 115.9 33.5C119.8 33.5 122.9 36.7 122.9 40.5C122.9 41.3 123.5 41.9 124.3 41.9C125.1 41.9 125.7 41.3 125.7 40.5C125.8 35.1 121.4 30.7 115.9 30.7Z" fill="white"/>
<path d="M115.9 30.7H62.5C61.7 30.7 61.1 31.3 61.1 32.1C61.1 32.9 61.7 33.5 62.5 33.5H115.9C116.7 33.5 117.3 32.9 117.3 32.1C117.4 31.3 116.7 30.7 115.9 30.7Z" fill="white"/>
<path d="M124.4 41.9H54.1C53.3 41.9 52.7 42.5 52.7 43.3C52.7 44.1 53.3 44.7 54.1 44.7H124.4C125.2 44.7 125.8 44.1 125.8 43.3C125.8 42.6 125.2 41.9 124.4 41.9Z" fill="white"/>
<path d="M54.1 39.1C53.3 39.1 52.7 39.7 52.7 40.5V43.3C52.7 44.1 53.3 44.7 54.1 44.7C54.9 44.7 55.5 44.1 55.5 43.3V40.5C55.5 39.8 54.8 39.1 54.1 39.1Z" fill="white"/>
<path d="M124.4 39.1C123.6 39.1 123 39.7 123 40.5V43.3C123 44.1 123.6 44.7 124.4 44.7C125.2 44.7 125.8 44.1 125.8 43.3V40.5C125.8 39.8 125.2 39.1 124.4 39.1Z" fill="white"/>
<path d="M124.4 105.2C123.6 105.2 123 105.8 123 106.6C123 110.5 119.8 113.6 116 113.6C115.2 113.6 114.6 114.2 114.6 115C114.6 115.8 115.2 116.4 116 116.4C121.4 116.4 125.8 112 125.8 106.6C125.8 105.9 125.2 105.2 124.4 105.2Z" fill="white"/>
<path d="M62.5 113.7C58.6 113.7 55.5 110.5 55.5 106.7C55.5 105.9 54.9 105.3 54.1 105.3C53.3 105.3 52.7 105.9 52.7 106.7C52.7 112.1 57.1 116.5 62.5 116.5C63.3 116.5 63.9 115.9 63.9 115.1C63.9 114.3 63.3 113.7 62.5 113.7Z" fill="white"/>
<path d="M115.9 113.7H62.5C61.7 113.7 61.1 114.3 61.1 115.1C61.1 115.9 61.7 116.5 62.5 116.5H115.9C116.7 116.5 117.3 115.9 117.3 115.1C117.4 114.3 116.7 113.7 115.9 113.7Z" fill="white"/>
<path d="M124.4 96.8H54.1C53.3 96.8 52.7 97.4 52.7 98.2C52.7 99 53.3 99.6 54.1 99.6H124.4C125.2 99.6 125.8 99 125.8 98.2C125.8 97.4 125.2 96.8 124.4 96.8Z" fill="white"/>
<path d="M124.4 96.8C123.6 96.8 123 97.4 123 98.2V106.6C123 107.4 123.6 108 124.4 108C125.2 108 125.8 107.4 125.8 106.6V98.2C125.8 97.4 125.2 96.8 124.4 96.8Z" fill="white"/>
<path d="M54.1 96.8C53.3 96.8 52.7 97.4 52.7 98.2V106.6C52.7 107.4 53.3 108 54.1 108C54.9 108 55.5 107.4 55.5 106.6V98.2C55.5 97.4 54.8 96.8 54.1 96.8Z" fill="white"/>
<path d="M55.5 41.9C54.7 41.9 54.1 42.5 54.1 43.3V98C54.1 98.8 54.7 99.4 55.5 99.4C56.3 99.4 56.9 98.8 56.9 98V43.3C56.9 42.6 56.3 41.9 55.5 41.9Z" fill="white"/>
<path d="M123 41.9C122.2 41.9 121.6 42.5 121.6 43.3V98C121.6 98.8 122.2 99.4 123 99.4C123.8 99.4 124.4 98.8 124.4 98V43.3C124.4 42.6 123.8 41.9 123 41.9Z" fill="white"/>
<path d="M62.5 113.7C61.7 113.7 61.1 114.3 61.1 115.1V119.3C61.1 120.1 61.7 120.7 62.5 120.7C63.3 120.7 63.9 120.1 63.9 119.3V115.1C63.9 114.3 63.3 113.7 62.5 113.7Z" fill="white"/>
<path d="M78 117.9H62.5C61.7 117.9 61.1 118.5 61.1 119.3C61.1 120.1 61.7 120.7 62.5 120.7H78C78.8 120.7 79.4 120.1 79.4 119.3C79.4 118.5 78.8 117.9 78 117.9Z" fill="white"/>
<path d="M78 113.7C77.2 113.7 76.6 114.3 76.6 115.1V119.3C76.6 120.1 77.2 120.7 78 120.7C78.8 120.7 79.4 120.1 79.4 119.3V115.1C79.4 114.3 78.8 113.7 78 113.7Z" fill="white"/>
<path d="M100.5 113.7C99.7 113.7 99.1 114.3 99.1 115.1V119.3C99.1 120.1 99.7 120.7 100.5 120.7C101.3 120.7 101.9 120.1 101.9 119.3V115.1C101.9 114.3 101.3 113.7 100.5 113.7Z" fill="white"/>
<path d="M115.9 117.9H100.4C99.6 117.9 99 118.5 99 119.3C99 120.1 99.6 120.7 100.4 120.7H115.9C116.7 120.7 117.3 120.1 117.3 119.3C117.4 118.5 116.7 117.9 115.9 117.9Z" fill="white"/>
<path d="M115.9 113.7C115.1 113.7 114.5 114.3 114.5 115.1V119.3C114.5 120.1 115.1 120.7 115.9 120.7C116.7 120.7 117.3 120.1 117.3 119.3V115.1C117.4 114.3 116.7 113.7 115.9 113.7Z" fill="white"/>
<path d="M96.3 102.4H82.2C81.4 102.4 80.8 103 80.8 103.8V109.4C80.8 110.2 81.4 110.8 82.2 110.8H96.3C97.1 110.8 97.7 110.2 97.7 109.4V103.8C97.7 103 97 102.4 96.3 102.4ZM94.9 108H83.6V105.2H94.8V108H94.9Z" fill="white"/>
<path d="M73.8 37.7C73 37.7 72.4 38.3 72.4 39.1V43.3C72.4 44.1 73 44.7 73.8 44.7C74.6 44.7 75.2 44.1 75.2 43.3V39.1C75.2 38.4 74.5 37.7 73.8 37.7Z" fill="white"/>
<path d="M104.7 37.7C103.9 37.7 103.3 38.3 103.3 39.1V43.3C103.3 44.1 103.9 44.7 104.7 44.7C105.5 44.7 106.1 44.1 106.1 43.3V39.1C106.1 38.4 105.5 37.7 104.7 37.7Z" fill="white"/>
<path d="M104.7 37.7H73.8C73 37.7 72.4 38.3 72.4 39.1C72.4 39.9 73 40.5 73.8 40.5H104.7C105.5 40.5 106.1 39.9 106.1 39.1C106.1 38.3 105.5 37.7 104.7 37.7Z" fill="white"/>
<path d="M121.6 91.2H56.9C56.1 91.2 55.5 91.8 55.5 92.6C55.5 93.4 56.1 94 56.9 94H121.6C122.4 94 123 93.4 123 92.6C123 91.8 122.3 91.2 121.6 91.2Z" fill="white"/>
<path d="M68.1 86.9C67.3 86.9 66.7 87.5 66.7 88.3V92.5C66.7 93.3 67.3 93.9 68.1 93.9C68.9 93.9 69.5 93.3 69.5 92.5V88.3C69.5 87.6 68.9 86.9 68.1 86.9Z" fill="white"/>
<path d="M76.6 86.9H68.2C67.4 86.9 66.8 87.5 66.8 88.3C66.8 89.1 67.4 89.7 68.2 89.7H76.6C77.4 89.7 78 89.1 78 88.3C78 87.6 77.3 86.9 76.6 86.9Z" fill="white"/>
<path d="M76.6 86.9C75.8 86.9 75.2 87.5 75.2 88.3V92.5C75.2 93.3 75.8 93.9 76.6 93.9C77.4 93.9 78 93.3 78 92.5V88.3C78 87.6 77.3 86.9 76.6 86.9Z" fill="white"/>
<path d="M85 86.9C84.2 86.9 83.6 87.5 83.6 88.3V92.5C83.6 93.3 84.2 93.9 85 93.9C85.8 93.9 86.4 93.3 86.4 92.5V88.3C86.4 87.6 85.8 86.9 85 86.9Z" fill="white"/>
<path d="M93.4 86.9H85C84.2 86.9 83.6 87.5 83.6 88.3C83.6 89.1 84.2 89.7 85 89.7H93.4C94.2 89.7 94.8 89.1 94.8 88.3C94.9 87.6 94.2 86.9 93.4 86.9Z" fill="white"/>
<path d="M93.4 86.9C92.6 86.9 92 87.5 92 88.3V92.5C92 93.3 92.6 93.9 93.4 93.9C94.2 93.9 94.8 93.3 94.8 92.5V88.3C94.9 87.6 94.2 86.9 93.4 86.9Z" fill="white"/>
<path d="M101.9 86.9C101.1 86.9 100.5 87.5 100.5 88.3V92.5C100.5 93.3 101.1 93.9 101.9 93.9C102.7 93.9 103.3 93.3 103.3 92.5V88.3C103.3 87.6 102.7 86.9 101.9 86.9Z" fill="white"/>
<path d="M110.3 86.9H101.9C101.1 86.9 100.5 87.5 100.5 88.3C100.5 89.1 101.1 89.7 101.9 89.7H110.3C111.1 89.7 111.7 89.1 111.7 88.3C111.7 87.6 111.1 86.9 110.3 86.9Z" fill="white"/>
<path d="M110.3 86.9C109.5 86.9 108.9 87.5 108.9 88.3V92.5C108.9 93.3 109.5 93.9 110.3 93.9C111.1 93.9 111.7 93.3 111.7 92.5V88.3C111.7 87.6 111.1 86.9 110.3 86.9Z" fill="white"/>
<path d="M77.5 57.8C76.9 57.3 76 57.3 75.5 57.9C75 58.5 75 59.4 75.6 59.9C86.6 69.5 87.8 76.3 87.8 88.4C87.8 89.2 88.4 89.8 89.2 89.8C90 89.8 90.6 89.2 90.6 88.4C90.6 74.9 88.8 67.7 77.5 57.8Z" fill="white"/>
<path d="M85.4 55.7C82.9 53.2 76.1 49.5 71.9 49.5C70.4 49.5 69.3 49.9 68.5 50.7C64.7 54.5 70.8 65 73.5 67.6C75.1 69.2 77.2 70.1 79.5 70.1C81.8 70.1 83.9 69.2 85.5 67.6C88.6 64.3 88.6 59 85.4 55.7ZM83.4 65.6C82.3 66.7 80.9 67.2 79.4 67.2C77.9 67.2 76.5 66.6 75.4 65.6C72.6 62.8 68.7 54.4 70.4 52.7C70.7 52.4 71.4 52.3 71.8 52.3C75.1 52.3 81.2 55.6 83.3 57.7C85.6 59.8 85.6 63.4 83.4 65.6Z" fill="white"/>
<path d="M100.2 62.2C99.7 61.6 98.9 61.4 98.2 61.9C97.8 62.2 87.8 69.5 87.5 81.3C87.5 82.1 88.1 82.7 88.9 82.7C89.7 82.7 90.3 82.1 90.3 81.3C90.5 70.9 99.7 64.2 99.8 64.1C100.5 63.7 100.7 62.8 100.2 62.2Z" fill="white"/>
<path d="M107.8 54.3C107.2 53.7 106.5 53.5 105.5 53.5C102 53.5 95.6 57.6 93.9 59.3C92.7 60.5 92 62.1 92 63.8C92 65.5 92.7 67.1 93.9 68.3C95.1 69.5 96.7 70.2 98.4 70.2C100.1 70.2 101.7 69.5 102.9 68.3C104.1 67.1 105.9 64.4 107.1 62C108.9 58.1 109.2 55.6 107.8 54.3ZM100.9 66.2C99.6 67.5 97.3 67.5 95.9 66.2C95.2 65.5 94.9 64.7 94.9 63.7C94.9 62.8 95.3 61.9 95.9 61.2C97.5 59.6 103.1 56.2 105.5 56.2C105.7 56.2 105.8 56.2 105.8 56.2C106.4 57.6 103 64.1 100.9 66.2Z" fill="white"/>
<path d="M69.1 77.5C68.5 77 67.7 77 67.1 77.5C66.6 78.1 66.6 78.9 67.1 79.5C69.8 82.1 70.9 84.7 70.9 88.3C70.9 89.1 71.5 89.7 72.3 89.7C73.1 89.7 73.7 89.1 73.7 88.3C73.8 84 72.3 80.5 69.1 77.5Z" fill="white"/>
<path d="M117.5 69.9C116.8 69.2 115.9 68.9 114.8 68.9C111.6 68.9 106.9 71.5 105.2 73.3C104 74.5 103.3 76.1 103.3 77.8C103.3 79.5 104 81.1 105.2 82.3C106.4 83.5 108 84.2 109.7 84.2C111.4 84.2 113 83.5 114.2 82.3C116.1 80.3 120.4 72.8 117.5 69.9ZM112.1 80.3C111.4 81 110.6 81.3 109.6 81.3C108.7 81.3 107.8 80.9 107.1 80.3C106.4 79.6 106.1 78.8 106.1 77.8C106.1 76.9 106.5 76 107.1 75.3C108.5 73.9 112.5 71.7 114.7 71.7C115.1 71.7 115.4 71.8 115.4 71.9C116.4 72.8 114.2 78.2 112.1 80.3Z" fill="white"/>
<path d="M111.3 76.1C110.7 75.6 109.9 75.6 109.3 76.1C106.4 79 104.6 82.1 104.6 88.3C104.6 89.1 105.2 89.7 106 89.7C106.8 89.7 107.4 89.1 107.4 88.3C107.4 83 108.8 80.5 111.3 78C111.9 77.5 111.9 76.6 111.3 76.1Z" fill="white"/>
<path d="M72.1 74.5C70.6 73 66.4 70.6 63.6 70.6C62.6 70.6 61.7 70.9 61.2 71.5C60 72.7 60 74.7 61.1 77.5C61.9 79.4 63.1 81.4 64.1 82.4C65.2 83.5 66.6 84 68.1 84C69.6 84 71 83.4 72.1 82.4C73.2 81.3 73.7 79.9 73.7 78.4C73.7 76.9 73.2 75.6 72.1 74.5ZM70.1 80.5C69 81.6 67.2 81.6 66.1 80.5C64.3 78.7 62.6 74.3 63.1 73.5C63.1 73.5 63.2 73.4 63.6 73.4C65.4 73.4 69 75.3 70.1 76.5C70.6 77 70.9 77.7 70.9 78.5C70.9 79.3 70.7 80 70.1 80.5Z" fill="white"/>
</g>
<defs>
<linearGradient id="paint0_linear" x1="32.0906" y1="120.713" x2="142.814" y2="47.9867" gradientUnits="userSpaceOnUse">
<stop offset="0.0261466" stop-color="#FBB12E"/>
<stop offset="1" stop-color="#D30823" stop-opacity="0.81"/>
</linearGradient>
<linearGradient id="paint1_linear" x1="34.5348" y1="29.5043" x2="153.473" y2="109.317" gradientUnits="userSpaceOnUse">
<stop stop-color="#FBB12E" stop-opacity="0.28"/>
<stop offset="0.5612" stop-color="#E86129" stop-opacity="0.28"/>
<stop offset="1" stop-color="#D30823" stop-opacity="0.28"/>
</linearGradient>
<clipPath id="clip0">
<rect width="173.6" height="159.7" fill="white"/>
</clipPath>
</defs>
</svg>
