<svg width="174" height="153" viewBox="0 0 174 153" fill="none" xmlns="http://www.w3.org/2000/svg">
<g clip-path="url(#clip0)">
<path fill-rule="evenodd" clip-rule="evenodd" d="M0.699995 60.5C5.69999 39.2 31.1 29.7 53.8 22.1C75.8 14.7 100.5 8.99997 122.2 19.6C144.1 30.3 154.3 52.3 159.2 73.6C164.1 94.6 162.6 116.2 148.6 132.5C133.6 149.9 113.7 154.9 88.1 151.7C63.8 148.6 46.5 135.6 31.4 117.7C16.3 99.8 -4.10001 81.4 0.699995 60.5Z" fill="url(#paint0_linear)" fill-opacity="0.9"/>
<path fill-rule="evenodd" clip-rule="evenodd" d="M78.4 2.30001C103.7 -3.09999 130.6 1.30002 149.2 14.6C168.1 28.1 176 49 173 70C170 90.9 163.1 114.3 140.8 126.3C118.9 138.2 91.9 140.1 67.7 134.5C43.7 129 14.8 112.8 7.90001 93.6C1.40001 75.5 15.2 57.1 28.2 40.3C40.9 23.9 55.4 7.20002 78.4 2.30001Z" fill="url(#paint1_linear)" fill-opacity="0.66"/>
<path d="M107.3 114.3C106.9 114.3 106.6 114.2 106.3 113.9C106 113.6 105.9 113.3 105.9 112.9V41.2L88.8 34L74.4 39.7V113C74.4 113.4 74.3 113.7 74 114C73.7 114.3 73.4 114.4 73 114.4C72.6 114.4 72.3 114.3 72 114C71.7 113.7 71.6 113.4 71.6 113V38.7C71.6 38.4 71.7 38.2 71.8 37.9C72 37.7 72.2 37.5 72.4 37.4L88.2 31.2C88.5 31.1 88.9 31.1 89.2 31.2L107.7 38.9C107.9 39 108.2 39.2 108.3 39.4C108.4 39.6 108.5 39.9 108.5 40.1V112.8C108.5 113.2 108.4 113.5 108.1 113.8C108 114.1 107.6 114.3 107.3 114.3Z" fill="white"/>
<path d="M88.8 114.3C88.4 114.3 88.1 114.2 87.8 113.9C87.5 113.6 87.4 113.3 87.4 112.9V32.5C87.4 32.1 87.5 31.8 87.8 31.5C88.1 31.2 88.4 31.1 88.8 31.1C89.2 31.1 89.5 31.2 89.8 31.5C90.1 31.8 90.2 32.1 90.2 32.5V112.9C90.2 113.3 90.1 113.6 89.8 113.9C89.5 114.1 89.2 114.3 88.8 114.3Z" fill="white"/>
<path d="M129.1 114.3C128.7 114.3 128.4 114.2 128.1 113.9C127.8 113.6 127.7 113.3 127.7 112.9V70.5L114.5 62.8H107.2C106.8 62.8 106.5 62.7 106.2 62.4C105.9 62.1 105.8 61.8 105.8 61.4C105.8 61 105.9 60.7 106.2 60.4C106.5 60.1 106.8 60 107.2 60H114.8C115 60 115.3 60.1 115.5 60.2L129.7 68.5C129.9 68.6 130.1 68.8 130.2 69C130.3 69.2 130.4 69.4 130.4 69.7V112.9C130.4 113.1 130.4 113.3 130.3 113.4C130.2 113.6 130.1 113.7 130 113.8C129.9 113.9 129.7 114 129.6 114.1C129.4 114.3 129.3 114.3 129.1 114.3Z" fill="white"/>
<path d="M114.9 114.3C114.5 114.3 114.2 114.2 113.9 113.9C113.6 113.6 113.5 113.3 113.5 112.9V61.4C113.5 61 113.6 60.7 113.9 60.4C114.2 60.1 114.5 60 114.9 60C115.3 60 115.6 60.1 115.9 60.4C116.2 60.7 116.3 61 116.3 61.4V112.9C116.3 113.3 116.2 113.6 115.9 113.9C115.6 114.1 115.2 114.3 114.9 114.3Z" fill="white"/>
<path d="M45.3 114.3C44.9 114.3 44.6 114.2 44.3 113.9C44 113.6 43.9 113.3 43.9 112.9V70.9C43.9 70.5 44 70.2 44.3 69.9C44.6 69.6 44.9 69.5 45.3 69.5H73.1C73.5 69.5 73.8 69.6 74.1 69.9C74.4 70.2 74.5 70.5 74.5 70.9C74.5 71.3 74.4 71.6 74.1 71.9C73.8 72.2 73.5 72.3 73.1 72.3H46.6V113C46.6 113.4 46.5 113.7 46.2 114C46 114.1 45.7 114.3 45.3 114.3Z" fill="white"/>
<path d="M52.7 77.4H49.8C49.4 77.4 49.1 77.3 48.8 77C48.5 76.7 48.4 76.4 48.4 76C48.4 75.6 48.5 75.3 48.8 75C49.1 74.7 49.4 74.6 49.8 74.6H52.7C53.1 74.6 53.4 74.7 53.7 75C54 75.3 54.1 75.6 54.1 76C54.1 76.4 54 76.7 53.7 77C53.4 77.2 53.1 77.4 52.7 77.4Z" fill="white"/>
<path d="M60.6 77.4H57.7C57.3 77.4 57 77.3 56.7 77C56.4 76.7 56.3 76.4 56.3 76C56.3 75.6 56.4 75.3 56.7 75C57 74.7 57.3 74.6 57.7 74.6H60.6C61 74.6 61.3 74.7 61.6 75C61.9 75.3 62 75.6 62 76C62 76.4 61.9 76.7 61.6 77C61.3 77.2 61 77.4 60.6 77.4Z" fill="white"/>
<path d="M68.5 77.4H65.6C65.2 77.4 64.9 77.3 64.6 77C64.3 76.7 64.2 76.4 64.2 76C64.2 75.6 64.3 75.3 64.6 75C64.9 74.7 65.2 74.6 65.6 74.6H68.5C68.9 74.6 69.2 74.7 69.5 75C69.8 75.3 69.9 75.6 69.9 76C69.9 76.4 69.8 76.7 69.5 77C69.2 77.2 68.8 77.4 68.5 77.4Z" fill="white"/>
<path d="M52.7 83.7H49.8C49.4 83.7 49.1 83.6 48.8 83.3C48.5 83 48.4 82.7 48.4 82.3C48.4 81.9 48.5 81.6 48.8 81.3C49.1 81 49.4 80.9 49.8 80.9H52.7C53.1 80.9 53.4 81 53.7 81.3C54 81.6 54.1 81.9 54.1 82.3C54.1 82.7 54 83 53.7 83.3C53.4 83.6 53.1 83.7 52.7 83.7Z" fill="white"/>
<path d="M60.6 83.7H57.7C57.3 83.7 57 83.6 56.7 83.3C56.4 83 56.3 82.7 56.3 82.3C56.3 81.9 56.4 81.6 56.7 81.3C57 81 57.3 80.9 57.7 80.9H60.6C61 80.9 61.3 81 61.6 81.3C61.9 81.6 62 81.9 62 82.3C62 82.7 61.9 83 61.6 83.3C61.3 83.6 61 83.7 60.6 83.7Z" fill="white"/>
<path d="M68.5 83.7H65.6C65.2 83.7 64.9 83.6 64.6 83.3C64.3 83 64.2 82.7 64.2 82.3C64.2 81.9 64.3 81.6 64.6 81.3C64.9 81 65.2 80.9 65.6 80.9H68.5C68.9 80.9 69.2 81 69.5 81.3C69.8 81.6 69.9 81.9 69.9 82.3C69.9 82.7 69.8 83 69.5 83.3C69.2 83.6 68.8 83.7 68.5 83.7Z" fill="white"/>
<path d="M52.7 90.1H49.8C49.4 90.1 49.1 90 48.8 89.7C48.5 89.4 48.4 89.1 48.4 88.7C48.4 88.3 48.5 88 48.8 87.7C49.1 87.4 49.4 87.3 49.8 87.3H52.7C53.1 87.3 53.4 87.4 53.7 87.7C54 88 54.1 88.3 54.1 88.7C54.1 89.1 54 89.4 53.7 89.7C53.4 89.9 53.1 90.1 52.7 90.1Z" fill="white"/>
<path d="M60.6 90.1H57.7C57.3 90.1 57 90 56.7 89.7C56.4 89.4 56.3 89.1 56.3 88.7C56.3 88.3 56.4 88 56.7 87.7C57 87.4 57.3 87.3 57.7 87.3H60.6C61 87.3 61.3 87.4 61.6 87.7C61.9 88 62 88.3 62 88.7C62 89.1 61.9 89.4 61.6 89.7C61.3 89.9 61 90.1 60.6 90.1Z" fill="white"/>
<path d="M68.5 90.1H65.6C65.2 90.1 64.9 90 64.6 89.7C64.3 89.4 64.2 89.1 64.2 88.7C64.2 88.3 64.3 88 64.6 87.7C64.9 87.4 65.2 87.3 65.6 87.3H68.5C68.9 87.3 69.2 87.4 69.5 87.7C69.8 88 69.9 88.3 69.9 88.7C69.9 89.1 69.8 89.4 69.5 89.7C69.2 89.9 68.8 90.1 68.5 90.1Z" fill="white"/>
<path d="M52.7 96.4H49.8C49.4 96.4 49.1 96.3 48.8 96C48.5 95.7 48.4 95.4 48.4 95C48.4 94.6 48.5 94.3 48.8 94C49.1 93.7 49.4 93.6 49.8 93.6H52.7C53.1 93.6 53.4 93.7 53.7 94C54 94.3 54.1 94.6 54.1 95C54.1 95.4 54 95.7 53.7 96C53.4 96.3 53.1 96.4 52.7 96.4Z" fill="white"/>
<path d="M60.6 96.4H57.7C57.3 96.4 57 96.3 56.7 96C56.4 95.7 56.3 95.4 56.3 95C56.3 94.6 56.4 94.3 56.7 94C57 93.7 57.3 93.6 57.7 93.6H60.6C61 93.6 61.3 93.7 61.6 94C61.9 94.3 62 94.6 62 95C62 95.4 61.9 95.7 61.6 96C61.3 96.3 61 96.4 60.6 96.4Z" fill="white"/>
<path d="M68.5 96.4H65.6C65.2 96.4 64.9 96.3 64.6 96C64.3 95.7 64.2 95.4 64.2 95C64.2 94.6 64.3 94.3 64.6 94C64.9 93.7 65.2 93.6 65.6 93.6H68.5C68.9 93.6 69.2 93.7 69.5 94C69.8 94.3 69.9 94.6 69.9 95C69.9 95.4 69.8 95.7 69.5 96C69.2 96.3 68.8 96.4 68.5 96.4Z" fill="white"/>
<path d="M52.7 102.8H49.8C49.4 102.8 49.1 102.7 48.8 102.4C48.5 102.1 48.4 101.8 48.4 101.4C48.4 101 48.5 100.7 48.8 100.4C49.1 100.1 49.4 100 49.8 100H52.7C53.1 100 53.4 100.1 53.7 100.4C54 100.7 54.1 101 54.1 101.4C54.1 101.8 54 102.1 53.7 102.4C53.4 102.6 53.1 102.8 52.7 102.8Z" fill="white"/>
<path d="M60.6 102.8H57.7C57.3 102.8 57 102.7 56.7 102.4C56.4 102.1 56.3 101.8 56.3 101.4C56.3 101 56.4 100.7 56.7 100.4C57 100.1 57.3 100 57.7 100H60.6C61 100 61.3 100.1 61.6 100.4C61.9 100.7 62 101 62 101.4C62 101.8 61.9 102.1 61.6 102.4C61.3 102.6 61 102.8 60.6 102.8Z" fill="white"/>
<path d="M68.5 102.8H65.6C65.2 102.8 64.9 102.7 64.6 102.4C64.3 102.1 64.2 101.8 64.2 101.4C64.2 101 64.3 100.7 64.6 100.4C64.9 100.1 65.2 100 65.6 100H68.5C68.9 100 69.2 100.1 69.5 100.4C69.8 100.7 69.9 101 69.9 101.4C69.9 101.8 69.8 102.1 69.5 102.4C69.2 102.6 68.8 102.8 68.5 102.8Z" fill="white"/>
<path d="M52.7 109.1H49.8C49.4 109.1 49.1 109 48.8 108.7C48.5 108.4 48.4 108.1 48.4 107.7C48.4 107.3 48.5 107 48.8 106.7C49.1 106.4 49.4 106.3 49.8 106.3H52.7C53.1 106.3 53.4 106.4 53.7 106.7C54 107 54.1 107.3 54.1 107.7C54.1 108.1 54 108.4 53.7 108.7C53.4 109 53.1 109.1 52.7 109.1Z" fill="white"/>
<path d="M60.6 109.1H57.7C57.3 109.1 57 109 56.7 108.7C56.4 108.4 56.3 108.1 56.3 107.7C56.3 107.3 56.4 107 56.7 106.7C57 106.4 57.3 106.3 57.7 106.3H60.6C61 106.3 61.3 106.4 61.6 106.7C61.9 107 62 107.3 62 107.7C62 108.1 61.9 108.4 61.6 108.7C61.3 109 61 109.1 60.6 109.1Z" fill="white"/>
<path d="M68.5 109.1H65.6C65.2 109.1 64.9 109 64.6 108.7C64.3 108.4 64.2 108.1 64.2 107.7C64.2 107.3 64.3 107 64.6 106.7C64.9 106.4 65.2 106.3 65.6 106.3H68.5C68.9 106.3 69.2 106.4 69.5 106.7C69.8 107 69.9 107.3 69.9 107.7C69.9 108.1 69.8 108.4 69.5 108.7C69.2 109 68.8 109.1 68.5 109.1Z" fill="white"/>
<path d="M84 45.7C83.6 45.7 83.3 45.6 83 45.3C82.7 45 82.6 44.7 82.6 44.3V41.8C82.6 41.4 82.7 41.1 83 40.8C83.3 40.5 83.6 40.4 84 40.4C84.4 40.4 84.7 40.5 85 40.8C85.3 41.1 85.4 41.4 85.4 41.8V44.3C85.4 44.7 85.3 45 85 45.3C84.7 45.6 84.4 45.7 84 45.7Z" fill="white"/>
<path d="M77.9 47.3C77.5 47.3 77.2 47.2 76.9 46.9C76.6 46.6 76.5 46.3 76.5 45.9V43.4C76.5 43 76.6 42.7 76.9 42.4C77.2 42.1 77.5 42 77.9 42C78.3 42 78.6 42.1 78.9 42.4C79.2 42.7 79.3 43 79.3 43.4V46C79.3 46.4 79.2 46.7 78.9 47C78.6 47.2 78.2 47.3 77.9 47.3Z" fill="white"/>
<path d="M84 55.9C83.6 55.9 83.3 55.8 83 55.5C82.7 55.2 82.6 54.9 82.6 54.5V52C82.6 51.6 82.7 51.3 83 51C83.3 50.7 83.6 50.6 84 50.6C84.4 50.6 84.7 50.7 85 51C85.3 51.3 85.4 51.6 85.4 52V54.5C85.4 54.9 85.3 55.2 85 55.5C84.7 55.8 84.4 55.9 84 55.9Z" fill="white"/>
<path d="M77.9 57.5C77.5 57.5 77.2 57.4 76.9 57.1C76.6 56.8 76.5 56.5 76.5 56.1V53.6C76.5 53.2 76.6 52.9 76.9 52.6C77.2 52.3 77.5 52.2 77.9 52.2C78.3 52.2 78.6 52.3 78.9 52.6C79.2 52.9 79.3 53.2 79.3 53.6V56.1C79.3 56.5 79.2 56.8 78.9 57.1C78.6 57.3 78.2 57.5 77.9 57.5Z" fill="white"/>
<path d="M84 66.1C83.6 66.1 83.3 66 83 65.7C82.7 65.4 82.6 65.1 82.6 64.7V62.1C82.6 61.7 82.7 61.4 83 61.1C83.3 60.8 83.6 60.7 84 60.7C84.4 60.7 84.7 60.8 85 61.1C85.3 61.4 85.4 61.7 85.4 62.1V64.7C85.4 65.1 85.3 65.4 85 65.7C84.7 65.9 84.4 66.1 84 66.1Z" fill="white"/>
<path d="M77.9 67.6C77.5 67.6 77.2 67.5 76.9 67.2C76.6 66.9 76.5 66.6 76.5 66.2V63.6C76.5 63.2 76.6 62.9 76.9 62.6C77.2 62.3 77.5 62.2 77.9 62.2C78.3 62.2 78.6 62.3 78.9 62.6C79.2 62.9 79.3 63.2 79.3 63.6V66.2C79.3 66.6 79.2 66.9 78.9 67.2C78.6 67.5 78.2 67.6 77.9 67.6Z" fill="white"/>
<path d="M84 76.2C83.6 76.2 83.3 76.1 83 75.8C82.7 75.5 82.6 75.2 82.6 74.8V72.3C82.6 71.9 82.7 71.6 83 71.3C83.3 71 83.6 70.9 84 70.9C84.4 70.9 84.7 71 85 71.3C85.3 71.6 85.4 71.9 85.4 72.3V74.8C85.4 75.2 85.3 75.5 85 75.8C84.7 76.1 84.4 76.2 84 76.2Z" fill="white"/>
<path d="M77.9 77.8C77.5 77.8 77.2 77.7 76.9 77.4C76.6 77.1 76.5 76.8 76.5 76.4V73.9C76.5 73.5 76.6 73.2 76.9 72.9C77.2 72.6 77.5 72.5 77.9 72.5C78.3 72.5 78.6 72.6 78.9 72.9C79.2 73.2 79.3 73.5 79.3 73.9V76.4C79.3 76.8 79.2 77.1 78.9 77.4C78.6 77.7 78.2 77.8 77.9 77.8Z" fill="white"/>
<path d="M84 86.4C83.6 86.4 83.3 86.3 83 86C82.7 85.7 82.6 85.4 82.6 85V82.5C82.6 82.1 82.7 81.8 83 81.5C83.3 81.2 83.6 81.1 84 81.1C84.4 81.1 84.7 81.2 85 81.5C85.3 81.8 85.4 82.1 85.4 82.5V85C85.4 85.4 85.3 85.7 85 86C84.7 86.3 84.4 86.4 84 86.4Z" fill="white"/>
<path d="M77.9 88C77.5 88 77.2 87.9 76.9 87.6C76.6 87.3 76.5 87 76.5 86.6V84.1C76.5 83.7 76.6 83.4 76.9 83.1C77.2 82.8 77.5 82.7 77.9 82.7C78.3 82.7 78.6 82.8 78.9 83.1C79.2 83.4 79.3 83.7 79.3 84.1V86.6C79.3 87 79.2 87.3 78.9 87.6C78.6 87.8 78.2 88 77.9 88Z" fill="white"/>
<path d="M84 96.6C83.6 96.6 83.3 96.5 83 96.2C82.7 95.9 82.6 95.6 82.6 95.2V92.6C82.6 92.2 82.7 91.9 83 91.6C83.3 91.3 83.6 91.2 84 91.2C84.4 91.2 84.7 91.3 85 91.6C85.3 91.9 85.4 92.2 85.4 92.6V95.2C85.4 95.6 85.3 95.9 85 96.2C84.7 96.4 84.4 96.6 84 96.6Z" fill="white"/>
<path d="M77.9 98.1C77.5 98.1 77.2 98 76.9 97.7C76.6 97.4 76.5 97.1 76.5 96.7V94.2C76.5 93.8 76.6 93.5 76.9 93.2C77.2 92.9 77.5 92.8 77.9 92.8C78.3 92.8 78.6 92.9 78.9 93.2C79.2 93.5 79.3 93.8 79.3 94.2V96.7C79.3 97.1 79.2 97.4 78.9 97.7C78.6 98 78.2 98.1 77.9 98.1Z" fill="white"/>
<path d="M84 106.7C83.6 106.7 83.3 106.6 83 106.3C82.7 106 82.6 105.7 82.6 105.3V102.8C82.6 102.4 82.7 102.1 83 101.8C83.3 101.5 83.6 101.4 84 101.4C84.4 101.4 84.7 101.5 85 101.8C85.3 102.1 85.4 102.4 85.4 102.8V105.3C85.4 105.7 85.3 106 85 106.3C84.7 106.6 84.4 106.7 84 106.7Z" fill="white"/>
<path d="M77.9 108.3C77.5 108.3 77.2 108.2 76.9 107.9C76.6 107.6 76.5 107.3 76.5 106.9V104.3C76.5 103.9 76.6 103.6 76.9 103.3C77.2 103 77.5 102.9 77.9 102.9C78.3 102.9 78.6 103 78.9 103.3C79.2 103.6 79.3 103.9 79.3 104.3V106.9C79.3 107.1 79.3 107.3 79.2 107.4C79.1 107.6 79 107.7 78.9 107.8C78.8 107.9 78.6 108 78.5 108.1C78.2 108.3 78.1 108.3 77.9 108.3Z" fill="white"/>
<path d="M93.4 44.4C93 44.4 92.7 44.3 92.4 44C92.1 43.7 92 43.4 92 43V40.5C92 40.1 92.1 39.8 92.4 39.5C92.7 39.2 93 39.1 93.4 39.1C93.8 39.1 94.1 39.2 94.4 39.5C94.7 39.8 94.8 40.1 94.8 40.5V43C94.8 43.4 94.7 43.7 94.4 44C94.1 44.3 93.7 44.4 93.4 44.4Z" fill="white"/>
<path d="M97.9 46.2C97.5 46.2 97.2 46.1 96.9 45.8C96.6 45.5 96.5 45.2 96.5 44.8V42.3C96.5 41.9 96.6 41.6 96.9 41.3C97.2 41 97.5 40.9 97.9 40.9C98.3 40.9 98.6 41 98.9 41.3C99.2 41.6 99.3 41.9 99.3 42.3V44.9C99.3 45.3 99.2 45.6 98.9 45.9C98.6 46 98.3 46.2 97.9 46.2Z" fill="white"/>
<path d="M102.5 47.9C102.1 47.9 101.8 47.8 101.5 47.5C101.2 47.2 101.1 46.9 101.1 46.5V44C101.1 43.6 101.2 43.3 101.5 43C101.8 42.7 102.1 42.6 102.5 42.6C102.9 42.6 103.2 42.7 103.5 43C103.8 43.3 103.9 43.6 103.9 44V46.5C103.9 46.9 103.8 47.2 103.5 47.5C103.2 47.8 102.8 47.9 102.5 47.9Z" fill="white"/>
<path d="M93.4 54.6C93 54.6 92.7 54.5 92.4 54.2C92.1 53.9 92 53.6 92 53.2V50.6C92 50.2 92.1 49.9 92.4 49.6C92.7 49.3 93 49.2 93.4 49.2C93.8 49.2 94.1 49.3 94.4 49.6C94.7 49.9 94.8 50.2 94.8 50.6V53.2C94.8 53.6 94.7 53.9 94.4 54.2C94.1 54.4 93.7 54.6 93.4 54.6Z" fill="white"/>
<path d="M97.9 56.3C97.5 56.3 97.2 56.2 96.9 55.9C96.6 55.6 96.5 55.3 96.5 54.9V52.4C96.5 52 96.6 51.7 96.9 51.4C97.2 51.1 97.5 51 97.9 51C98.3 51 98.6 51.1 98.9 51.4C99.2 51.7 99.3 52 99.3 52.4V54.9C99.3 55.3 99.2 55.6 98.9 55.9C98.6 56.2 98.3 56.3 97.9 56.3Z" fill="white"/>
<path d="M102.5 58C102.1 58 101.8 57.9 101.5 57.6C101.2 57.3 101.1 57 101.1 56.6V54.1C101.1 53.7 101.2 53.4 101.5 53.1C101.8 52.8 102.1 52.7 102.5 52.7C102.9 52.7 103.2 52.8 103.5 53.1C103.8 53.4 103.9 53.7 103.9 54.1V56.6C103.9 57 103.8 57.3 103.5 57.6C103.2 57.9 102.8 58 102.5 58Z" fill="white"/>
<path d="M93.4 64.7C93 64.7 92.7 64.6 92.4 64.3C92.1 64 92 63.7 92 63.3V60.7C92 60.3 92.1 60 92.4 59.7C92.7 59.4 93 59.3 93.4 59.3C93.8 59.3 94.1 59.4 94.4 59.7C94.7 60 94.8 60.3 94.8 60.7V63.3C94.8 63.5 94.8 63.7 94.7 63.8C94.6 64 94.5 64.1 94.4 64.2C94.3 64.3 94.1 64.4 94 64.5C93.7 64.7 93.5 64.7 93.4 64.7Z" fill="white"/>
<path d="M97.9 66.4C97.5 66.4 97.2 66.3 96.9 66C96.6 65.7 96.5 65.4 96.5 65V62.5C96.5 62.1 96.6 61.8 96.9 61.5C97.2 61.2 97.5 61.1 97.9 61.1C98.3 61.1 98.6 61.2 98.9 61.5C99.2 61.8 99.3 62.1 99.3 62.5V65C99.3 65.4 99.2 65.7 98.9 66C98.6 66.3 98.3 66.4 97.9 66.4Z" fill="white"/>
<path d="M102.5 68.2C102.1 68.2 101.8 68.1 101.5 67.8C101.2 67.5 101.1 67.2 101.1 66.8V64.3C101.1 63.9 101.2 63.6 101.5 63.3C101.8 63 102.1 62.9 102.5 62.9C102.9 62.9 103.2 63 103.5 63.3C103.8 63.6 103.9 63.9 103.9 64.3V66.9C103.9 67.3 103.8 67.6 103.5 67.9C103.2 68 102.8 68.2 102.5 68.2Z" fill="white"/>
<path d="M93.4 74.8C93 74.8 92.7 74.7 92.4 74.4C92.1 74.1 92 73.8 92 73.4V70.9C92 70.5 92.1 70.2 92.4 69.9C92.7 69.6 93 69.5 93.4 69.5C93.8 69.5 94.1 69.6 94.4 69.9C94.7 70.2 94.8 70.5 94.8 70.9V73.4C94.8 73.8 94.7 74.1 94.4 74.4C94.1 74.7 93.7 74.8 93.4 74.8Z" fill="white"/>
<path d="M97.9 76.6C97.5 76.6 97.2 76.5 96.9 76.2C96.6 75.9 96.5 75.6 96.5 75.2V72.6C96.5 72.2 96.6 71.9 96.9 71.6C97.2 71.3 97.5 71.2 97.9 71.2C98.3 71.2 98.6 71.3 98.9 71.6C99.2 71.9 99.3 72.2 99.3 72.6V75.2C99.3 75.6 99.2 75.9 98.9 76.2C98.6 76.4 98.3 76.6 97.9 76.6Z" fill="white"/>
<path d="M102.5 78.3C102.1 78.3 101.8 78.2 101.5 77.9C101.2 77.6 101.1 77.3 101.1 76.9V74.4C101.1 74 101.2 73.7 101.5 73.4C101.8 73.1 102.1 73 102.5 73C102.9 73 103.2 73.1 103.5 73.4C103.8 73.7 103.9 74 103.9 74.4V76.9C103.9 77.3 103.8 77.6 103.5 77.9C103.2 78.1 102.8 78.3 102.5 78.3Z" fill="white"/>
<path d="M93.4 85C93 85 92.7 84.9 92.4 84.6C92.1 84.3 92 84 92 83.6V81.1C92 80.7 92.1 80.4 92.4 80.1C92.7 79.8 93 79.7 93.4 79.7C93.8 79.7 94.1 79.8 94.4 80.1C94.7 80.4 94.8 80.7 94.8 81.1V83.6C94.8 84 94.7 84.3 94.4 84.6C94.1 84.8 93.7 85 93.4 85Z" fill="white"/>
<path d="M97.9 86.7C97.5 86.7 97.2 86.6 96.9 86.3C96.6 86 96.5 85.7 96.5 85.3V82.7C96.5 82.3 96.6 82 96.9 81.7C97.2 81.4 97.5 81.3 97.9 81.3C98.3 81.3 98.6 81.4 98.9 81.7C99.2 82 99.3 82.3 99.3 82.7V85.3C99.3 85.7 99.2 86 98.9 86.3C98.6 86.5 98.3 86.7 97.9 86.7Z" fill="white"/>
<path d="M102.5 88.4C102.1 88.4 101.8 88.3 101.5 88C101.2 87.7 101.1 87.4 101.1 87V84.5C101.1 84.1 101.2 83.8 101.5 83.5C101.8 83.2 102.1 83.1 102.5 83.1C102.9 83.1 103.2 83.2 103.5 83.5C103.8 83.8 103.9 84.1 103.9 84.5V87C103.9 87.4 103.8 87.7 103.5 88C103.2 88.3 102.8 88.4 102.5 88.4Z" fill="white"/>
<path d="M93.4 95.1C93 95.1 92.7 95 92.4 94.7C92.1 94.4 92 94.1 92 93.7V91.1C92 90.7 92.1 90.4 92.4 90.1C92.7 89.8 93 89.7 93.4 89.7C93.8 89.7 94.1 89.8 94.4 90.1C94.7 90.4 94.8 90.7 94.8 91.1V93.7C94.8 94.1 94.7 94.4 94.4 94.7C94.1 95 93.7 95.1 93.4 95.1Z" fill="white"/>
<path d="M97.9 96.8C97.5 96.8 97.2 96.7 96.9 96.4C96.6 96.1 96.5 95.8 96.5 95.4V92.8C96.5 92.4 96.6 92.1 96.9 91.8C97.2 91.5 97.5 91.4 97.9 91.4C98.3 91.4 98.6 91.5 98.9 91.8C99.2 92.1 99.3 92.4 99.3 92.8V95.4C99.3 95.8 99.2 96.1 98.9 96.4C98.6 96.7 98.3 96.8 97.9 96.8Z" fill="white"/>
<path d="M102.5 98.5C102.1 98.5 101.8 98.4 101.5 98.1C101.2 97.8 101.1 97.5 101.1 97.1V94.6C101.1 94.2 101.2 93.9 101.5 93.6C101.8 93.3 102.1 93.2 102.5 93.2C102.9 93.2 103.2 93.3 103.5 93.6C103.8 93.9 103.9 94.2 103.9 94.6V97.1C103.9 97.5 103.8 97.8 103.5 98.1C103.2 98.4 102.8 98.5 102.5 98.5Z" fill="white"/>
<path d="M93.4 105.2C93 105.2 92.7 105.1 92.4 104.8C92.1 104.5 92 104.2 92 103.8V101.2C92 100.8 92.1 100.5 92.4 100.2C92.7 99.9 93 99.8 93.4 99.8C93.8 99.8 94.1 99.9 94.4 100.2C94.7 100.5 94.8 100.8 94.8 101.2V103.8C94.8 104.2 94.7 104.5 94.4 104.8C94.1 105.1 93.7 105.2 93.4 105.2Z" fill="white"/>
<path d="M97.9 106.9C97.5 106.9 97.2 106.8 96.9 106.5C96.6 106.2 96.5 105.9 96.5 105.5V103C96.5 102.6 96.6 102.3 96.9 102C97.2 101.7 97.5 101.6 97.9 101.6C98.3 101.6 98.6 101.7 98.9 102C99.2 102.3 99.3 102.6 99.3 103V105.6C99.3 106 99.2 106.3 98.9 106.6C98.6 106.8 98.3 106.9 97.9 106.9Z" fill="white"/>
<path d="M102.5 108.7C102.1 108.7 101.8 108.6 101.5 108.3C101.2 108 101.1 107.7 101.1 107.3V104.7C101.1 104.3 101.2 104 101.5 103.7C101.8 103.4 102.1 103.3 102.5 103.3C102.9 103.3 103.2 103.4 103.5 103.7C103.8 104 103.9 104.3 103.9 104.7V107.3C103.9 107.7 103.8 108 103.5 108.3C103.2 108.5 102.8 108.7 102.5 108.7Z" fill="white"/>
<path d="M119.6 73.2C119.2 73.2 118.9 73.1 118.6 72.8C118.3 72.5 118.2 72.2 118.2 71.8V70.4C118.2 70 118.3 69.7 118.6 69.4C118.9 69.1 119.2 69 119.6 69C120 69 120.3 69.1 120.6 69.4C120.9 69.7 121 70 121 70.4V71.8C121 72.2 120.9 72.5 120.6 72.8C120.3 73 119.9 73.2 119.6 73.2Z" fill="white"/>
<path d="M124.1 76C123.7 76 123.4 75.9 123.1 75.6C122.8 75.3 122.7 75 122.7 74.6V73.2C122.7 72.8 122.8 72.5 123.1 72.2C123.4 71.9 123.7 71.8 124.1 71.8C124.5 71.8 124.8 71.9 125.1 72.2C125.4 72.5 125.5 72.8 125.5 73.2V74.6C125.5 75 125.4 75.3 125.1 75.6C124.8 75.9 124.5 76 124.1 76Z" fill="white"/>
<path d="M119.6 79.8C119.2 79.8 118.9 79.7 118.6 79.4C118.3 79.1 118.2 78.8 118.2 78.4V77C118.2 76.6 118.3 76.3 118.6 76C118.9 75.7 119.2 75.6 119.6 75.6C120 75.6 120.3 75.7 120.6 76C120.9 76.3 121 76.6 121 77V78.4C121 78.8 120.9 79.1 120.6 79.4C120.3 79.7 119.9 79.8 119.6 79.8Z" fill="white"/>
<path d="M124.1 82.7C123.7 82.7 123.4 82.6 123.1 82.3C122.8 82 122.7 81.7 122.7 81.3V80C122.7 79.6 122.8 79.3 123.1 79C123.4 78.7 123.7 78.6 124.1 78.6C124.5 78.6 124.8 78.7 125.1 79C125.4 79.3 125.5 79.6 125.5 80V81.4C125.5 81.8 125.4 82.1 125.1 82.4C124.8 82.6 124.5 82.7 124.1 82.7Z" fill="white"/>
<path d="M119.6 86.5C119.2 86.5 118.9 86.4 118.6 86.1C118.3 85.8 118.2 85.5 118.2 85.1V83.7C118.2 83.3 118.3 83 118.6 82.7C118.9 82.4 119.2 82.3 119.6 82.3C120 82.3 120.3 82.4 120.6 82.7C120.9 83 121 83.3 121 83.7V85.1C121 85.5 120.9 85.8 120.6 86.1C120.3 86.4 119.9 86.5 119.6 86.5Z" fill="white"/>
<path d="M124.1 89.4C123.7 89.4 123.4 89.3 123.1 89C122.8 88.7 122.7 88.4 122.7 88V86.6C122.7 86.2 122.8 85.9 123.1 85.6C123.4 85.3 123.7 85.2 124.1 85.2C124.5 85.2 124.8 85.3 125.1 85.6C125.4 85.9 125.5 86.2 125.5 86.6V88C125.5 88.4 125.4 88.7 125.1 89C124.8 89.2 124.5 89.4 124.1 89.4Z" fill="white"/>
<path d="M119.6 93.2C119.2 93.2 118.9 93.1 118.6 92.8C118.3 92.5 118.2 92.2 118.2 91.8V90.4C118.2 90 118.3 89.7 118.6 89.4C118.9 89.1 119.2 89 119.6 89C120 89 120.3 89.1 120.6 89.4C120.9 89.7 121 90 121 90.4V91.8C121 92.2 120.9 92.5 120.6 92.8C120.3 93 119.9 93.2 119.6 93.2Z" fill="white"/>
<path d="M124.1 96C123.7 96 123.4 95.9 123.1 95.6C122.8 95.3 122.7 95 122.7 94.6V93.2C122.7 92.8 122.8 92.5 123.1 92.2C123.4 91.9 123.7 91.8 124.1 91.8C124.5 91.8 124.8 91.9 125.1 92.2C125.4 92.5 125.5 92.8 125.5 93.2V94.6C125.5 95 125.4 95.3 125.1 95.6C124.8 95.9 124.5 96 124.1 96Z" fill="white"/>
<path d="M119.6 99.9C119.2 99.9 118.9 99.8 118.6 99.5C118.3 99.2 118.2 98.9 118.2 98.5V97.1C118.2 96.7 118.3 96.4 118.6 96.1C118.9 95.8 119.2 95.7 119.6 95.7C120 95.7 120.3 95.8 120.6 96.1C120.9 96.4 121 96.7 121 97.1V98.5C121 98.9 120.9 99.2 120.6 99.5C120.3 99.7 119.9 99.9 119.6 99.9Z" fill="white"/>
<path d="M124.1 102.7C123.7 102.7 123.4 102.6 123.1 102.3C122.8 102 122.7 101.7 122.7 101.3V100C122.7 99.6 122.8 99.3 123.1 99C123.4 98.7 123.7 98.6 124.1 98.6C124.5 98.6 124.8 98.7 125.1 99C125.4 99.3 125.5 99.6 125.5 100V101.4C125.5 101.8 125.4 102.1 125.1 102.4C124.8 102.6 124.5 102.7 124.1 102.7Z" fill="white"/>
<path d="M119.6 106.5C119.2 106.5 118.9 106.4 118.6 106.1C118.3 105.8 118.2 105.5 118.2 105.1V103.7C118.2 103.3 118.3 103 118.6 102.7C118.9 102.4 119.2 102.3 119.6 102.3C120 102.3 120.3 102.4 120.6 102.7C120.9 103 121 103.3 121 103.7V105.1C121 105.5 120.9 105.8 120.6 106.1C120.3 106.4 119.9 106.5 119.6 106.5Z" fill="white"/>
<path d="M124.1 109.4C123.7 109.4 123.4 109.3 123.1 109C122.8 108.7 122.7 108.4 122.7 108V106.6C122.7 106.2 122.8 105.9 123.1 105.6C123.4 105.3 123.7 105.2 124.1 105.2C124.5 105.2 124.8 105.3 125.1 105.6C125.4 105.9 125.5 106.2 125.5 106.6V108C125.5 108.4 125.4 108.7 125.1 109C124.8 109.3 124.5 109.4 124.1 109.4Z" fill="white"/>
<path d="M133.1 114.3H41.2C40.8 114.3 40.5 114.2 40.2 113.9C39.9 113.6 39.8 113.3 39.8 112.9C39.8 112.5 39.9 112.2 40.2 111.9C40.5 111.6 40.8 111.5 41.2 111.5H133.1C133.5 111.5 133.8 111.6 134.1 111.9C134.4 112.2 134.5 112.5 134.5 112.9C134.5 113.3 134.4 113.6 134.1 113.9C133.8 114.1 133.5 114.3 133.1 114.3Z" fill="white"/>
</g>
<defs>
<linearGradient id="paint0_linear" x1="31.87" y1="120.38" x2="142.592" y2="47.6531" gradientUnits="userSpaceOnUse">
<stop offset="0.0261466" stop-color="#FBB12E"/>
<stop offset="1" stop-color="#D30823" stop-opacity="0.81"/>
</linearGradient>
<linearGradient id="paint1_linear" x1="34.5347" y1="29.5043" x2="153.473" y2="109.317" gradientUnits="userSpaceOnUse">
<stop stop-color="#FBB12E" stop-opacity="0.28"/>
<stop offset="0.5612" stop-color="#E86129" stop-opacity="0.28"/>
<stop offset="1" stop-color="#D30823" stop-opacity="0.28"/>
</linearGradient>
<clipPath id="clip0">
<rect width="173.6" height="152.6" fill="white"/>
</clipPath>
</defs>
</svg>
