<svg width="135" height="138" viewBox="0 0 135 138" fill="none" xmlns="http://www.w3.org/2000/svg">
<g clip-path="url(#clip0)">
<path fill-rule="evenodd" clip-rule="evenodd" d="M9.40009 112.6C-2.49991 95.3 -2.39991 72.5 5.80009 51.6C14.1001 30.4 29.6001 9.9 52.4001 2.5C74.1001 -4.6 96.0001 4.3 112.5 16.8C126.3 27.2 128.6 44.6 130.8 61.6C133.2 80.2 138.8 100.4 125.4 115.9C110.9 132.7 86.9001 138.3 65.0001 137.7C42.7001 137.1 21.1001 129.5 9.40009 112.6Z" fill="url(#paint0_linear)" fill-opacity="0.8"/>
<path fill-rule="evenodd" clip-rule="evenodd" d="M115.6 52.9C122.3 65.4 130.2 78.9 127.5 92.7C124.7 107 114 119.2 101.3 125.9C89.3999 132.2 75.3999 127.1 61.8999 127.5C47.8999 127.9 32.7999 136.1 20.9999 128.2C9.29989 120.5 8.19989 103.7 5.29989 89.8C2.69989 77.5 2.79989 65.4 5.29989 53.2C7.99989 39.6 9.19989 23.8 20.0999 15.7C31.0999 7.6 46.3999 10.6 59.9999 12.7C71.7999 14.5 82.2999 19.7 91.9999 26.7C101.8 33.7 109.9 42.3 115.6 52.9Z" fill="url(#paint1_linear)" fill-opacity="0.8"/>
<path d="M111.7 72.3L108.5 66.2C108 65.2 106.9 64.9 106 65.4C105.1 65.9 104.8 67.2 105.3 68.1L108.5 74.2C108.7 74.5 108.6 74.8 108.6 75C108.6 75.1 108.5 75.4 108.2 75.6L103.2 78.6C102.8 78.9 102.2 78.7 101.9 78.2L100.6 75.8L87.6002 50.9C87.4002 50.6 87.5002 50.3 87.5002 50.2C87.5002 50.1 87.6002 49.8 87.9002 49.6L92.9002 46.6C93.3002 46.3 93.9002 46.5 94.2002 47L97.1002 52.5C97.6002 53.5 98.7002 53.8 99.6002 53.3C100.5 52.8 100.8 51.5 100.3 50.6L97.4002 45.1C96.2002 42.7 93.3002 41.9 91.1002 43.2L86.1002 46.2C85.0002 46.8 84.2002 47.9 83.9002 49.2C83.6002 50.4 83.7002 51.7 84.2002 52.8L81.5002 53.7C80.3002 54.1 79.6002 54.3 79.2002 54.3C78.9002 54.3 78.6002 54.2 77.8002 53.8C77.4002 53.6 76.9002 53.4 76.4002 53.2L71.5002 51.4C68.8002 50.4 67.6002 50.4 65.9002 50.6L57.6002 51.4C53.8002 51.8 51.4002 52.7 50.1002 54.3L45.4002 52.8C45.9002 51.7 46.0002 50.4 45.7002 49.2C45.4002 47.9 44.6002 46.9 43.5002 46.2L38.5002 43.2C36.3002 41.9 33.5002 42.7 32.2002 45.1L18.0002 72.2C17.4002 73.4 17.2002 74.7 17.6002 76C17.9002 77.3 18.7002 78.3 19.8002 79L24.8002 82C25.5002 82.4 26.3002 82.6 27.0002 82.6C28.6002 82.6 30.2002 81.7 31.0002 80.1L31.5002 79.1C32.9002 79.8 34.1002 80.8 35.0002 81.9C34.2002 82.9 33.7002 84.2 33.6002 85.5C33.4002 87.3 33.9002 89 34.9002 90.4C35.9002 91.8 37.4002 92.7 39.0002 92.9C38.8002 94.7 39.3002 96.4 40.3002 97.8C41.4002 99.2 42.9002 100.1 44.4002 100.3C44.2002 102.1 44.7002 103.8 45.7002 105.2C46.7002 106.6 48.2002 107.5 49.9002 107.7C49.7002 109.5 50.2002 111.2 51.2002 112.6C52.4002 114.3 54.2002 115.1 56.1002 115.1C57.5002 115.1 58.8002 114.6 60.0002 113.6L63.9002 110.2C64.2002 109.9 64.5002 109.6 64.7002 109.3L66.9002 111.2C68.0002 112.2 69.4002 112.7 70.8002 112.7C72.6002 112.7 74.4002 111.8 75.7002 110.2C76.3002 109.3 76.8002 108.3 76.9002 107.3C77.5002 107.5 78.2002 107.7 78.9002 107.7C79.1002 107.7 79.4002 107.7 79.6002 107.7C81.3002 107.5 82.7002 106.6 83.8002 105.2C84.8002 103.8 85.3002 102.1 85.1002 100.3C86.7002 100.1 88.2002 99.3 89.2002 97.8C90.3002 96.4 90.7002 94.6 90.5002 92.9C92.1002 92.7 93.6002 91.8 94.6002 90.4C95.6002 89 96.1002 87.2 95.9002 85.5C95.8002 84.1 95.3002 82.9 94.5002 81.9C95.3002 80.7 96.5002 79.7 98.0002 79.1L98.5002 80.1C99.3002 81.7 100.9 82.6 102.5 82.6C103.3 82.6 104 82.4 104.7 82L109.7 79C110.8 78.4 111.5 77.3 111.9 76C112.5 74.8 112.4 73.4 111.7 72.3ZM27.8002 78.2C27.6002 78.7 27.0002 78.8 26.5002 78.6L21.5002 75.6C21.2002 75.4 21.1002 75.2 21.1002 75C21.1002 74.9 21.0002 74.6 21.2002 74.2L35.5002 46.9C35.7002 46.6 36.0002 46.4 36.3002 46.4C36.5002 46.4 36.6002 46.4 36.8002 46.5L41.8002 49.5C42.1002 49.7 42.2002 49.9 42.2002 50.1C42.2002 50.2 42.3002 50.5 42.1002 50.9L27.8002 78.2ZM41.3002 88.4C40.8002 88.9 40.1002 89.1 39.4002 89C38.7002 88.9 38.1002 88.6 37.7002 88C37.3002 87.4 37.1002 86.7 37.2002 86C37.3002 85.3 37.6002 84.6 38.1002 84.2L45.0002 78.2C46.1002 77.3 47.7002 77.5 48.6002 78.6C49.0002 79.2 49.2002 79.9 49.1002 80.6C49.0002 81.3 48.7002 82 48.2002 82.4L41.3002 88.4ZM43.3002 95.4C42.9002 94.8 42.7002 94.1 42.8002 93.4C42.9002 92.7 43.2002 92 43.7002 91.6L53.7002 83C54.8002 82.1 56.4002 82.3 57.3002 83.4C57.7002 84 57.9002 84.7 57.8002 85.4C57.7002 86.1 57.4002 86.8 56.9002 87.2L46.9002 95.8C45.7002 96.8 44.1002 96.6 43.3002 95.4ZM50.4002 103.8C49.7002 103.7 49.1002 103.4 48.7002 102.8C48.3002 102.2 48.1002 101.5 48.2002 100.8C48.3002 100.1 48.6002 99.4 49.1002 99L56.0002 93C57.1002 92.1 58.7002 92.3 59.6002 93.4C60.0002 94 60.2002 94.7 60.1002 95.4C60.0002 96.1 59.7002 96.8 59.2002 97.2L52.3002 103.2C51.8002 103.6 51.1002 103.9 50.4002 103.8ZM62.6002 105.4C62.5002 106.1 62.2002 106.8 61.7002 107.2L57.8002 110.6C56.7002 111.5 55.1002 111.4 54.2002 110.2C53.8002 109.6 53.6002 108.9 53.7002 108.2C53.8002 107.5 54.1002 106.8 54.6002 106.4L58.5002 103.1C59.6002 102.2 61.2002 102.4 62.1002 103.5C62.5002 104 62.6002 104.7 62.6002 105.4ZM92.0002 88C91.6002 88.6 91.0002 88.9 90.3002 89C89.6002 89.1 89.0002 88.9 88.4002 88.4L83.4002 84.1C82.6002 83.4 81.4002 83.6 80.8002 84.4C80.2002 85.2 80.3002 86.5 81.1002 87.2L86.1002 91.5C87.2002 92.4 87.4002 94.2 86.5002 95.3C85.6002 96.5 84.0002 96.7 82.9002 95.7L77.5002 91.1C76.7002 90.4 75.5002 90.6 74.9002 91.4C74.3002 92.3 74.4002 93.5 75.2002 94.2L80.6002 98.8C81.1002 99.3 81.5002 99.9 81.5002 100.6C81.6002 101.3 81.4002 102 81.0002 102.6C80.6002 103.2 80.0002 103.5 79.3002 103.6C78.6002 103.7 78.0002 103.5 77.4002 103L74.7002 100.7L72.4002 98.7L72.0002 98.3C71.2002 97.6 70.0002 97.8 69.4002 98.6C69.3002 98.7 69.3002 98.8 69.2002 98.9C68.9002 99.5 68.9002 100.1 69.2002 100.7C69.3002 101 69.5002 101.2 69.7002 101.4L72.4002 103.7C73.5002 104.6 73.7002 106.4 72.8002 107.5C71.9002 108.7 70.3002 108.9 69.2002 107.9L66.1002 105.3C66.2002 103.6 65.8002 101.9 64.8002 100.6C64.2002 99.8 63.4002 99.1 62.6002 98.7C63.2002 97.8 63.6002 96.7 63.7002 95.5C63.9002 93.7 63.4002 92 62.4002 90.5C61.8002 89.7 61.0002 89 60.2002 88.6C60.8002 87.7 61.2002 86.6 61.3002 85.4C61.5002 83.6 61.0002 81.9 60.0002 80.5C58.2002 78.1 55.2002 77.4 52.7002 78.5C52.5002 77.5 52.1002 76.6 51.5002 75.7C49.4002 72.8 45.4002 72.3 42.7002 74.6L37.7002 78.9C36.6002 77.4 35.1002 76.1 33.2002 75.2L43.4002 55.7L48.8002 57.4C48.8002 57.7 48.9002 58 49.0002 58.4C50.3002 64.2 55.3002 67 62.0002 65.5C67.6002 64.3 70.0002 66.1 74.6002 69.7C75.1002 70.1 75.6002 70.5 76.1002 70.9C79.4002 73.5 83.0002 76.5 85.4002 78.6L91.4002 83.8C91.9002 84.3 92.3002 84.9 92.3002 85.6C92.6002 86.7 92.4002 87.5 92.0002 88ZM91.9002 79.4L87.9002 75.9C85.5002 73.8 81.9002 70.7 78.5002 68.1C78.0002 67.7 77.5002 67.3 77.0002 66.9C72.2002 63.1 68.7002 60.4 61.5002 62C59.3002 62.5 54.0002 63 52.8002 57.9C52.6002 57.2 52.8002 56.9 52.9002 56.8C53.1002 56.4 54.1002 55.5 58.0002 55.1L66.3002 54.3C67.6002 54.2 68.3002 54.1 70.4002 54.9L75.3002 56.7C75.8002 56.9 76.3002 57.1 76.7002 57.2C79.0002 58.2 79.7002 58.2 82.7002 57.2L86.3002 56.1L96.5002 75.6C94.6002 76.5 93.1002 77.8 91.9002 79.4Z" fill="white"/>
</g>
<defs>
<linearGradient id="paint0_linear" x1="82.6993" y1="44.4229" x2="45.6123" y2="134.972" gradientUnits="userSpaceOnUse">
<stop stop-color="#FBB12E" stop-opacity="0.17"/>
<stop offset="1" stop-color="#D30823" stop-opacity="0.26"/>
</linearGradient>
<linearGradient id="paint1_linear" x1="92.61" y1="31.024" x2="21.5415" y2="128.121" gradientUnits="userSpaceOnUse">
<stop stop-color="#FBB12E"/>
<stop offset="1" stop-color="#D30823"/>
</linearGradient>
<clipPath id="clip0">
<rect width="134.1" height="137.8" fill="white"/>
</clipPath>
</defs>
</svg>
