<svg width="135" height="138" viewBox="0 0 135 138" fill="none" xmlns="http://www.w3.org/2000/svg">
<g clip-path="url(#clip0)">
<path fill-rule="evenodd" clip-rule="evenodd" d="M9.40009 112.6C-2.49991 95.3 -2.39991 72.5 5.80009 51.6C14.1001 30.4 29.6001 9.9 52.4001 2.5C74.1001 -4.6 96.0001 4.3 112.5 16.8C126.3 27.2 128.6 44.6 130.8 61.6C133.2 80.2 138.8 100.4 125.4 115.9C110.9 132.7 86.9001 138.3 65.0001 137.7C42.7001 137.1 21.1001 129.5 9.40009 112.6Z" fill="url(#paint0_linear)" fill-opacity="0.8"/>
<path fill-rule="evenodd" clip-rule="evenodd" d="M113.8 48C121.6 59.9 130.7 72.5 129.2 86.6C127.7 101.1 118.1 114.2 106.1 122C94.8 129.3 80.4 125.6 67 127.2C53.1 128.9 38.7 138.3 26.3 131.6C13.9 124.8 11.3 108.2 7.19996 94.6C3.59996 82.6 2.59996 70.5 3.99996 58.1C5.49996 44.4 5.19996 28.5 15.4 19.5C25.6 10.4 41.2 12.1 54.8 12.9C66.7 13.6 77.7 17.9 88 24C98.3 30.2 107.2 37.9 113.8 48Z" fill="url(#paint1_linear)" fill-opacity="0.8"/>
<path d="M93.1 97.2C94.9 94.8 95.8 91.8 95.9 88.8C95.9 88.4 95.8 88 95.5 87.7C95.2 87.4 94.9 87.2 94.5 87.2C93.7 87.2 93 87.8 92.9 88.6C92.9 91 92.2 93.3 90.8 95.3C87.9 99 82.3 99.2 81.2 99.2C80.4 99.2 79.7 99.9 79.7 100.7C79.7 101.5 80.4 102.2 81.2 102.2C82.5 102.2 89.3 102 93.1 97.2Z" fill="white"/>
<path d="M62.8999 78.1999C62.8999 77.3999 62.1999 76.6999 61.3999 76.6999C60.5999 76.6999 59.8999 77.3999 59.8999 78.1999C59.8999 81.4999 62.5999 84.1999 65.8999 84.1999V85.6999C65.8999 86.4999 66.5999 87.1999 67.3999 87.1999C68.1999 87.1999 68.8999 86.4999 68.8999 85.6999V84.1999C72.1999 84.1999 74.8999 81.4999 74.8999 78.1999C74.8999 74.8999 72.1999 72.1999 68.8999 72.1999V66.1999C70.5999 66.1999 71.8999 67.4999 71.8999 69.1999C71.8999 69.9999 72.5999 70.6999 73.3999 70.6999C74.1999 70.6999 74.8999 69.9999 74.8999 69.1999C74.8999 65.8999 72.1999 63.2 68.8999 63.2V61.7C68.8999 60.9 68.1999 60.2 67.3999 60.2C66.5999 60.2 65.8999 60.9 65.8999 61.7V63.2C62.5999 63.2 59.8999 65.8999 59.8999 69.1999C59.8999 72.4999 62.5999 75.1999 65.8999 75.1999V81.1999C64.1999 81.1999 62.8999 79.8999 62.8999 78.1999ZM62.8999 69.1999C62.8999 67.4999 64.1999 66.1999 65.8999 66.1999V72.1999C64.1999 72.1999 62.8999 70.8999 62.8999 69.1999ZM68.8999 75.1999C70.5999 75.1999 71.8999 76.4999 71.8999 78.1999C71.8999 79.8999 70.5999 81.1999 68.8999 81.1999V75.1999Z" fill="white"/>
<path d="M100.6 77.9C96.9 62.2 88.7 53.1 82.8 48.3C90.2 48.9 92.6 52 92.7 52.1C93.2 52.8 94.1 52.9 94.8 52.5C95.5 52 95.7 51.1 95.2 50.4C95.1 50.2 93 47.3 87 45.9C88.5 44.6 89.5 42.7 89.5 40.7C89.3 37.4 87 34.6 83.8 33.7C83.9 32.6 84 31.5 84 30.4C84 29.4 83.5 28.5 82.7 27.9C81.9 27.3 80.8 27.2 79.9 27.6C79.1 27.9 78.4 28.4 77.8 28.9C77.1 29.7 76 30.1 75 30.1C73.9 30.1 72.8999 29.7 72.1999 28.9C69.5999 26.5 65.4999 26.5 62.7999 28.9C62.0999 29.7 61 30.1 60 30.1C58.9 30.1 57.9 29.7 57.2 28.9C56.6 28.4 55.8999 27.9 55.0999 27.6C54.1999 27.2 53.0999 27.3 52.2999 27.9C51.4999 28.5 51 29.4 51 30.4C51 34.1 51.7 40.8 56.4 45.3C53.9 46.8 51.6999 48.5 49.5999 50.5V39.2C49.5999 35.8 44.8 33.2 38.4 33.2C32 33.2 27.2 35.8 27.2 39.2V54.3C21.9 54.8 18.2 57.2 18.2 60.2V98.4C14.6 99.4 12.2 101.3 12.2 103.7V111.2C12.2 114.6 17 117.2 23.4 117.2C29.1 117.2 33.6 115.1 34.5 112.3C37.1 113.7 40 114.3 42.9 114.2C49.3 114.2 54.0999 111.6 54.0999 108.2V88.7C54.0999 85.3 49.3 82.7 42.9 82.7C42.1 82.7 41.4 82.7 40.7 82.8V60.2C40.7 56.9 36.2 54.4 30.2 54.2V43.4C32.8 44.7 35.6 45.3 38.4 45.2C41.3 45.3 44.0999 44.7 46.5999 43.4V53.6C45.5999 54.7 44.5999 55.9 43.5999 57.2C43.1999 57.9 43.3 58.8 44 59.2C44.6 59.7 45.5999 59.6 46.0999 58.9C47.0999 57.6 48.1 56.3 49.2 55.1C52.1 51.9 55.4 49.2 59.2 47.1C59.9 47.5 60.7 47.7 61.5 47.9L57.5999 51.5C56.9999 52.1 57 53 57.5 53.6C58.1 54.2 58.9999 54.2 59.5999 53.7L65.5999 48.1H66.0999V52.6C66.0999 53.4 66.7999 54.1 67.5999 54.1C68.3999 54.1 69.0999 53.4 69.0999 52.6V48.1H69.5999L75.5999 53.7C75.9999 54.1 76.5 54.2 77.1 54C77.6 53.8 78 53.4 78.1 52.9C78.2 52.4 78.1 51.8 77.7 51.5L73.5 48C74.3 47.8 75.1 47.6 75.8 47.2C79.8 49.3 92.8 57.8 97.7 78.5C99.8 87.5 99.1 94.4 95.4 99C90.8 104.9 82.7 105.2 81.1 105.2H59.9C59.1 105.2 58.4 105.9 58.4 106.7C58.4 107.5 59.1 108.2 59.9 108.2H81.2C83.7 108.2 92.5 107.7 97.8 100.9C102 95.6 103 87.8 100.6 77.9ZM23.1 100.7C28.1 100.7 31.2999 102.5 31.2999 103.7C31.2999 104.9 28 106.7 23.1 106.7C18.2 106.7 14.9 104.9 14.9 103.7C14.9 102.5 18.2 100.7 23.1 100.7ZM23.1 114.2C18.1 114.2 14.9 112.4 14.9 111.2V107.9C17.5 109.2 20.3 109.8 23.1 109.7C26 109.8 28.7999 109.1 31.2999 107.9V111.2C31.3999 112.4 28.1 114.2 23.1 114.2ZM42.5999 111.2C37.5999 111.2 34.4 109.4 34.4 108.2V92.9C37 94.2 39.7999 94.8 42.5999 94.7C45.4999 94.8 48.2999 94.1 50.7999 92.9V108.2C50.8999 109.4 47.5999 111.2 42.5999 111.2ZM50.9 88.7C50.9 89.9 47.6 91.7 42.7 91.7C37.8 91.7 34.5 89.9 34.5 88.7C34.5 87.5 37.8 85.7 42.7 85.7C47.6 85.7 50.9 87.5 50.9 88.7ZM31.4 88.7V99.5C28.8 98.2 26 97.6 23.2 97.7C22.4 97.7 21.7 97.7 21 97.8V64.4C23.6 65.7 26.4 66.3 29.2 66.2C32.1 66.3 34.9 65.7 37.4 64.4V83.4C33.7 84.4 31.4 86.3 31.4 88.7ZM37.4 60.2C37.4 61.4 34.1 63.2 29.2 63.2C24.3 63.2 21 61.4 21 60.2C21 59 24.3 57.2 29.2 57.2C34.1 57.2 37.4 59 37.4 60.2ZM38.0999 42.2C33.0999 42.2 29.9 40.4 29.9 39.2C29.9 38 33.1999 36.2 38.0999 36.2C42.9999 36.2 46.2999 38 46.2999 39.2C46.2999 40.4 43.0999 42.2 38.0999 42.2ZM86.4 40.7C86.4 43.2 83.7 45.2 80.4 45.2C79.8 45.2 79.3 45.1 78.7 45C80.9 42.7 82.4 39.8 83.1 36.7C84.9 37.3 86.2 38.9 86.4 40.7ZM55.2 31.4C56.5 32.6 58.1 33.2 59.9 33.2C61.6 33.2 63.2999 32.6 64.5999 31.4C65.2999 30.7 66.4 30.2 67.4 30.2C68.5 30.2 69.4999 30.6 70.1999 31.4C71.4999 32.6 73.1 33.2 74.9 33.2C76.6 33.2 78.3 32.6 79.6 31.4C80 31 80.5 30.7 81 30.5C81 33.3 80.4999 40.2 75.5999 43.9C74.4999 44.7 73.2 45.2 71.8 45.2C73.1 43 74.1 40.6 74.9 38.1C75 37.6 74.9 37 74.5 36.6C74.1 36.2 73.5999 36.1 73.0999 36.2C72.5999 36.3 72.2 36.7 72 37.3C71.2 40.1 69.8999 42.8 68.1999 45.2H66.6999C64.9999 42.8 63.8 40.1 62.9 37.3C62.7 36.5 61.8999 36 61.0999 36.3C60.2999 36.5 59.7999 37.3 60.0999 38.1C60.7999 40.6 61.9 43 63.2 45.2C61.8 45.2 60.5 44.7 59.4 43.9C54.6 40.1 54 33.2 54 30.5C54.3 30.7 54.8 31 55.2 31.4Z" fill="white"/>
<path d="M93.1 97.2C94.9 94.8 95.8 91.8 95.9 88.8C95.9 88.4 95.8 88 95.5 87.7C95.2 87.4 94.9 87.2 94.5 87.2C93.7 87.2 93 87.8 92.9 88.6C92.9 91 92.2 93.3 90.8 95.3C87.9 99 82.3 99.2 81.2 99.2C80.4 99.2 79.7 99.9 79.7 100.7C79.7 101.5 80.4 102.2 81.2 102.2C82.5 102.2 89.3 102 93.1 97.2Z" fill="white"/>
</g>
<defs>
<linearGradient id="paint0_linear" x1="82.6994" y1="44.4226" x2="45.6119" y2="134.971" gradientUnits="userSpaceOnUse">
<stop stop-color="#FBB12E" stop-opacity="0.17"/>
<stop offset="1" stop-color="#D30823" stop-opacity="0.26"/>
</linearGradient>
<linearGradient id="paint1_linear" x1="88.9538" y1="28.2956" x2="26.8452" y2="131.354" gradientUnits="userSpaceOnUse">
<stop stop-color="#FBB12E"/>
<stop offset="1" stop-color="#D30823"/>
</linearGradient>
<clipPath id="clip0">
<rect width="134.1" height="137.8" fill="white"/>
</clipPath>
</defs>
</svg>
