<svg width="131" height="124" viewBox="0 0 131 124" fill="none" xmlns="http://www.w3.org/2000/svg">
<g clip-path="url(#clip0)">
<path fill-rule="evenodd" clip-rule="evenodd" d="M129.4 83.6C127.2 96.1 122.9 109.1 112.9 116.8C103.1 124.3 89.8001 123.3 77.5001 123.4C66.3001 123.5 55.9001 121 45.3001 117.2C32.1001 112.5 16.6001 110.3 8.60013 98.7C0.000128746 86.4 -1.99987 69.6 1.90013 54.9C5.70013 40.5 16.6001 29.1 29.0001 20.9C40.2001 13.4 54.2001 14.9 67.3001 11.5C83.9001 7 97.2001 -3.4 111.7 5.9C126.4 15.2 122.2 30.9 124.9 48.2C126.8 60.2 131.5 71.6 129.4 83.6Z" fill="url(#paint0_linear)"/>
<path fill-rule="evenodd" clip-rule="evenodd" d="M43.6999 102.5C35.4999 96.8 26.6999 92.2 20.8999 84C13.8999 73.9 5.79994 63 6.99994 50.1C8.19994 36.9 16.4999 24 27.2999 15.9C37.3999 8.3 50.5999 11.2 62.5999 8.4C73.6999 5.9 84.2999 -1.7 95.0999 0.3C106.4 2.4 117.9 8.8 122.3 19.5C126.7 30 116.1 42.4 117.3 54C118.6 66.5 132.6 75.5 129.5 88C126.5 100.3 114 109 102.7 114.4C91.9999 119.5 79.8999 119.3 68.7999 117.1C59.0999 115.2 51.8999 108.1 43.6999 102.5Z" fill="url(#paint1_linear)" fill-opacity="0.8"/>
<path d="M99.4 62.8C95.7 62.8 92.2 64.0001 89.3 66.3001C88.7 66.7001 88.6 67.6 89.1 68.1C89.5 68.7 90.4 68.8001 90.9 68.3001C93.3 66.4001 96.3 65.4001 99.3 65.4001C106.9 65.4001 113 71.5 113 79.1C113 86.7 106.9 92.8001 99.3 92.8001C91.7 92.8001 85.6 86.7 85.6 79.1C85.6 76.5 86.3 74.0001 87.7 71.8001C88.1 71.2001 87.9 70.4 87.3 70C86.7 69.6 85.9 69.8001 85.5 70.4001C83.9 73.0001 83 76 83 79.1C83 88.1 90.3 95.4001 99.3 95.4001C108.3 95.4001 115.6 88.1 115.6 79.1C115.7 70.1 108.4 62.8 99.4 62.8Z" fill="white"/>
<path d="M109.7 79.7H100.7V70.7C100.7 70 100.1 69.4 99.4001 69.4C98.7001 69.4 98.1001 70 98.1001 70.7V81C98.1001 81.7 98.7001 82.3 99.4001 82.3H109.7C110.4 82.3 111 81.7 111 81C111 80.3 110.4 79.7 109.7 79.7Z" fill="white"/>
<path d="M113 60.9V38C113 34.6 110.2 31.8 106.8 31.8H104V28.6C104 25.7 101.6 23.4 98.8001 23.4C96.0001 23.4 93.6001 25.8 93.6001 28.6V31.8H86.8001V28.6C86.8001 25.7 84.4001 23.4 81.6001 23.4C78.8001 23.4 76.4001 25.8 76.4001 28.6V31.8H69.6001V28.6C69.6001 25.7 67.2001 23.4 64.4001 23.4C61.5001 23.4 59.2001 25.8 59.2001 28.6V31.8H52.4001V28.6C52.4001 25.7 50.0001 23.4 47.2001 23.4C44.3001 23.4 42.0001 25.8 42.0001 28.6V31.8H39.2001C35.8001 31.8 33.0001 34.6 33.0001 38V38.6C33.0001 39.3 33.6001 39.9 34.3001 39.9C35.0001 39.9 35.6001 39.3 35.6001 38.6V38C35.6001 36 37.2001 34.4 39.2001 34.4H42.0001V37.6C42.0001 40.5 44.4001 42.8 47.2001 42.8C50.1001 42.8 52.4001 40.4 52.4001 37.6V34.4H59.2001V37.6C59.2001 40.5 61.6001 42.8 64.4001 42.8C67.3001 42.8 69.6001 40.4 69.6001 37.6V34.4H76.4001V37.6C76.4001 40.5 78.8001 42.8 81.6001 42.8C84.4001 42.8 86.8001 40.4 86.8001 37.6V34.4H93.6001V37.6C93.6001 40.5 96.0001 42.8 98.8001 42.8C101.6 42.8 104 40.4 104 37.6V34.4H106.8C108.8 34.4 110.4 36 110.4 38V47.3H35.2001V43.9C35.2001 43.2 34.6001 42.6 33.9001 42.6C33.2001 42.6 32.6001 43.2 32.6001 43.9V89.3C32.6001 92.7 35.4001 95.5 38.8001 95.5H85.6001C89.5001 99 94.7001 101.2 100.4 101.2C105.1 101.2 109.7 99.7 113.5 96.9C114.1 96.5 114.2 95.6 113.8 95.1C113.4 94.5 112.5 94.4 112 94.8C108.6 97.3 104.6 98.6 100.5 98.6C89.7001 98.6 81.0001 89.8 81.0001 79.1C81.0001 68.3 89.8001 59.6 100.5 59.6C102.4 59.6 104.4 59.9 106.3 60.5H106.4C114.3 63 120.1 70.4 120.1 79.1C120.1 83.6 118.5 88 115.7 91.5C115.2 92.1 115.3 92.9 115.9 93.4C116.5 93.9 117.3 93.8 117.8 93.2C121 89.3 122.8 84.3 122.8 79.2C122.6 71.5 118.8 64.9 113 60.9ZM49.5001 37.7C49.5001 39.1 48.3001 40.3 46.9001 40.3C45.5001 40.3 44.3001 39.1 44.3001 37.7V28.6C44.3001 27.2 45.5001 26 46.9001 26C48.3001 26 49.5001 27.2 49.5001 28.6V37.7ZM66.7001 37.7C66.7001 39.1 65.5001 40.3 64.1001 40.3C62.7001 40.3 61.5001 39.1 61.5001 37.7V28.6C61.5001 27.2 62.7001 26 64.1001 26C65.5001 26 66.7001 27.2 66.7001 28.6V37.7ZM84.0001 37.7C84.0001 39.1 82.8001 40.3 81.4001 40.3C80.0001 40.3 78.8001 39.1 78.8001 37.7V28.6C78.8001 27.2 80.0001 26 81.4001 26C82.8001 26 84.0001 27.2 84.0001 28.6V37.7ZM101.3 37.7C101.3 39.1 100.1 40.3 98.7001 40.3C97.3001 40.3 96.1001 39.1 96.1001 37.7V28.6C96.1001 27.2 97.3001 26 98.7001 26C100.1 26 101.3 27.2 101.3 28.6V37.7ZM66.3001 50H79.2001V62.6H66.3001V50ZM48.1001 93H38.8001C36.8001 93 35.2001 91.4 35.2001 89.4V80.4H48.1001V93V93ZM48.1001 77.7H35.2001V65.2H48.1001V77.7ZM48.1001 62.5H35.2001V50H48.1001V62.5ZM50.7001 65.2H63.6001V77.8H50.7001V65.2ZM63.7001 93H50.7001V80.4H63.6001V93H63.7001ZM63.7001 62.5H50.7001V50H63.6001V62.5H63.7001ZM66.3001 65.2H79.2001V72.5C78.7001 74.2 78.3001 76 78.2001 77.8H66.3001V65.2ZM83.1001 93H66.3001V80.4H78.2001C78.5001 85 80.2001 89.4 83.1001 93ZM81.9001 66.9V65.1H83.2001C82.7001 65.7 82.3001 66.3 81.9001 66.9ZM94.8001 57.6C91.4001 58.5 88.2001 60.2 85.7001 62.5H81.9001V50H94.8001V57.6V57.6ZM110.4 59.3C109.2 58.7 107.9 58.2 106.5 57.8H106.4C104.4 57.2 102.4 57 100.4 57C99.4001 57 98.4001 57.1 97.4001 57.2V50H110.3V59.3H110.4Z" fill="white"/>
</g>
<defs>
<linearGradient id="paint0_linear" x1="131.821" y1="73.2435" x2="4.18393" y2="44.5624" gradientUnits="userSpaceOnUse">
<stop stop-color="#C02E00" stop-opacity="0.28"/>
<stop offset="0.5781" stop-color="#FD801B" stop-opacity="0.28"/>
<stop offset="1" stop-color="#FBB12E" stop-opacity="0.28"/>
</linearGradient>
<linearGradient id="paint1_linear" x1="77.6759" y1="118.86" x2="59.0709" y2="0.643108" gradientUnits="userSpaceOnUse">
<stop stop-color="#FBB12E"/>
<stop offset="0.0001" stop-color="#DA2825"/>
<stop offset="1" stop-color="#FBB12E"/>
</linearGradient>
<clipPath id="clip0">
<rect width="130.1" height="123.4" fill="white"/>
</clipPath>
</defs>
</svg>
