<svg width="57" height="57" viewBox="0 0 57 57" fill="none" xmlns="http://www.w3.org/2000/svg">
<g clip-path="url(#clip0)">
<path d="M42.9579 28.7922C40.6242 28.7922 38.4197 29.5531 36.5827 30.9924C36.2202 31.2764 36.1566 31.8004 36.4406 32.1627C36.7245 32.5251 37.2488 32.5887 37.611 32.3047C39.1518 31.0975 41.0008 30.4594 42.9579 30.4594C47.7439 30.4594 51.6376 34.3531 51.6376 39.1391C51.6376 43.9251 47.7439 47.8188 42.9579 47.8188C38.1719 47.8188 34.2782 43.9251 34.2782 39.1391C34.2782 37.5024 34.738 35.9068 35.6079 34.5244C35.8532 34.1349 35.7359 33.6202 35.3464 33.3749C34.9567 33.1297 34.442 33.2469 34.1968 33.6365C33.1594 35.2851 32.6108 37.1879 32.6108 39.1391C32.6108 44.8444 37.2524 49.4861 42.9579 49.4861C48.6634 49.4861 53.305 44.8445 53.305 39.1391C53.305 33.434 48.6634 28.7922 42.9579 28.7922Z" fill="white"/>
<path d="M49.4964 39.5493H43.7918V33.8446C43.7918 33.3843 43.4185 33.011 42.9581 33.011C42.4978 33.011 42.1245 33.3843 42.1245 33.8446V40.383C42.1245 40.8434 42.4978 41.2167 42.9581 41.2167H49.4964C49.9568 41.2167 50.3301 40.8434 50.3301 40.383C50.3301 39.9227 49.9568 39.5493 49.4964 39.5493Z" fill="white"/>
<path d="M51.5703 27.5912V13.1307C51.5703 10.9578 49.8024 9.18987 47.6294 9.18987H45.8402V7.13821C45.8402 5.30786 44.3512 3.81885 42.5208 3.81885C40.6905 3.81885 39.2015 5.30786 39.2015 7.13821V9.18976H34.8943V7.13821C34.8943 5.30786 33.4053 3.81885 31.5749 3.81885C29.7446 3.81885 28.2556 5.30786 28.2556 7.13821V9.18976H23.9484V7.13821C23.9484 5.30786 22.4594 3.81885 20.6291 3.81885C18.7987 3.81885 17.3097 5.30786 17.3097 7.13821V9.18976H13.0025V7.13821C13.0025 5.30786 11.5135 3.81885 9.68316 3.81885C7.85282 3.81885 6.36347 5.30786 6.36347 7.13821V9.18976H4.57409C2.40119 9.18976 0.633301 10.9575 0.633301 13.1307V13.5419C0.633301 14.0023 1.00658 14.3755 1.46693 14.3755C1.92727 14.3755 2.30055 14.0023 2.30055 13.5419V13.1307C2.30055 11.8771 3.32054 10.8571 4.57409 10.8571H6.36325C6.36325 10.8571 6.36325 12.9086 6.36325 12.9087C6.36325 14.739 7.85226 16.228 9.68261 16.228C11.513 16.228 13.002 14.739 13.002 12.9086V10.8571H17.3091C17.3091 10.8571 17.3091 12.9086 17.3091 12.9087C17.3091 14.739 18.7982 16.228 20.6285 16.228C22.4588 16.228 23.9479 14.739 23.9479 12.9086V10.8571H28.255C28.255 10.8571 28.255 12.9086 28.255 12.9087C28.255 14.739 29.744 16.228 31.5744 16.228C33.4047 16.228 34.8938 14.739 34.8938 12.9086V10.8571H39.2009C39.2009 10.8571 39.2009 12.9086 39.2009 12.9087C39.2009 14.739 40.6899 16.228 42.5203 16.228C44.3506 16.228 45.8396 14.739 45.8396 12.9086V10.8571H47.6288C48.8825 10.8571 49.9025 11.8771 49.9025 13.1307V19.0144H2.30055V16.8764C2.30055 16.4161 1.92727 16.0428 1.46693 16.0428C1.00658 16.0428 0.633301 16.416 0.633301 16.8764V45.646C0.633301 47.8191 2.40119 49.587 4.57409 49.587H34.2202C36.7075 51.8202 39.9932 53.1811 43.5914 53.1811C46.5958 53.1811 49.4619 52.2448 51.8802 50.4736C52.2517 50.2015 52.3322 49.6798 52.0601 49.3084C51.788 48.9369 51.2662 48.8565 50.8949 49.1285C48.7645 50.689 46.239 51.5137 43.5913 51.5137C36.7678 51.5137 31.2167 45.9624 31.2167 39.1391C31.2167 32.3158 36.768 26.7646 43.5913 26.7646C44.8259 26.7646 46.0555 26.9493 47.2357 27.3124C47.2591 27.3195 47.2821 27.327 47.3055 27.3344C52.3197 28.9155 55.9659 33.6093 55.9659 39.1391C55.9659 41.9921 54.9714 44.7762 53.1658 46.9788C52.8739 47.3348 52.9258 47.8601 53.2818 48.1519C53.638 48.4438 54.1632 48.3918 54.455 48.0359C56.5045 45.5363 57.6333 42.3767 57.6333 39.1391C57.6333 34.3582 55.2307 30.1281 51.5703 27.5912ZM11.3347 12.9086C11.3347 13.8196 10.5936 14.5607 9.68261 14.5607C8.77161 14.5607 8.0305 13.8197 8.0305 12.9086V7.13821C8.0305 6.22721 8.7715 5.4861 9.68261 5.4861C10.5936 5.4861 11.3347 6.2271 11.3347 7.13821V12.9086ZM22.2807 12.9086C22.2807 13.8196 21.5396 14.5607 20.6286 14.5607C19.7176 14.5607 18.9765 13.8197 18.9765 12.9086V7.13821C18.9765 6.22721 19.7176 5.4861 20.6286 5.4861C21.5396 5.4861 22.2807 6.2271 22.2807 7.13821V12.9086ZM33.2268 12.9086C33.2268 13.8196 32.4857 14.5607 31.5747 14.5607C30.6637 14.5607 29.9226 13.8197 29.9226 12.9086V7.13821C29.9226 6.22721 30.6637 5.4861 31.5747 5.4861C32.4857 5.4861 33.2268 6.2271 33.2268 7.13821V12.9086ZM44.1728 12.9086C44.1728 13.8196 43.4317 14.5607 42.5207 14.5607C41.6097 14.5607 40.8686 13.8197 40.8686 12.9086V7.13821C40.8686 6.22721 41.6097 5.4861 42.5207 5.4861C43.4317 5.4861 44.1728 6.2271 44.1728 7.13821V12.9086ZM22.0084 20.6816H30.195V28.6494H22.0084V20.6816ZM10.4872 47.9196H4.57409C3.32054 47.9196 2.30055 46.8996 2.30055 45.6459V39.9517H10.4871V47.9196H10.4872ZM10.4872 38.2845H2.30055V30.3167H10.4871V38.2845H10.4872ZM10.4872 28.6494H2.30055V20.6816H10.4871V28.6494H10.4872ZM12.1544 30.3167H20.3409V38.2845H12.1544V30.3167ZM20.3412 47.9196H12.1546V39.9518H20.3412V47.9196ZM20.3412 28.6494H12.1546V20.6816H20.3412V28.6494ZM22.0083 30.3167H30.1949V34.9279C29.858 35.9976 29.6464 37.1223 29.5763 38.2846H22.0083V30.3167ZM32.6296 47.9196H22.0084V39.9518H29.5729C29.7381 42.8945 30.7989 45.6486 32.6296 47.9196ZM31.8624 31.4282V30.3167H32.6762C32.3874 30.6733 32.1158 31.0443 31.8624 31.4282ZM40.0489 25.5503C37.8723 26.1181 35.9003 27.1968 34.2678 28.6494H31.8624V20.6816H40.0489V25.5503ZM49.9029 26.5929C49.1178 26.1974 48.2989 25.8792 47.4569 25.6385C47.439 25.6334 47.4209 25.6282 47.4031 25.6231C46.1648 25.2733 44.8783 25.0971 43.5916 25.0971C42.9557 25.0972 42.3299 25.1404 41.7163 25.2227V20.6814H49.9029V26.5929Z" fill="white"/>
</g>
<defs>
<clipPath id="clip0">
<rect width="57" height="57" fill="white"/>
</clipPath>
</defs>
</svg>
