<svg width="57" height="57" viewBox="0 0 57 57" fill="none" xmlns="http://www.w3.org/2000/svg">
<path d="M53.4375 41.8594V32.0625H51.6562V41.8594H46.3125V38.2969H44.5312V41.8594H39.1875V10.6875H51.6562V30.2812H53.4375V9.79688C53.4375 9.56067 53.3437 9.33413 53.1766 9.16711C53.0096 9.00008 52.7831 8.90625 52.5469 8.90625H51.6562V6.23438C51.6562 5.99817 51.5624 5.77163 51.3954 5.60461C51.2284 5.43758 51.0018 5.34375 50.7656 5.34375H46.3125V1.78125H44.5312V5.34375H40.0781C39.8419 5.34375 39.6154 5.43758 39.4484 5.60461C39.2813 5.77163 39.1875 5.99817 39.1875 6.23438V8.90625H38.2969C38.0607 8.90625 37.8341 9.00008 37.6671 9.16711C37.5001 9.33413 37.4062 9.56067 37.4062 9.79688V15.1406H32.9531C32.8362 15.1406 32.7204 15.1637 32.6123 15.2084C32.5042 15.2532 32.4061 15.3188 32.3234 15.4015L25.1984 22.5265C25.1157 22.6092 25.0501 22.7074 25.0053 22.8154C24.9605 22.9235 24.9375 23.0393 24.9375 23.1562V28.3448L20.1734 24.2613C20.0119 24.123 19.8064 24.0469 19.5938 24.0469C19.3811 24.0469 19.1756 24.123 19.0141 24.2613L12.7797 29.605C12.6822 29.6887 12.6039 29.7924 12.5502 29.9091C12.4966 30.0258 12.4688 30.1528 12.4688 30.2812V34.0519L9.3645 32.1894C9.22608 32.1063 9.06768 32.0625 8.90625 32.0625C8.74482 32.0625 8.58642 32.1063 8.448 32.1894L3.99488 34.8613C3.863 34.9404 3.75387 35.0524 3.6781 35.1862C3.60233 35.32 3.5625 35.4712 3.5625 35.625V41.8594H1.78125V43.6406H6.48237C8.93852 47.2111 12.2262 50.1307 16.0619 52.1478C19.8976 54.1648 24.1663 55.2188 28.5 55.2188C32.8337 55.2188 37.1024 54.1648 40.9381 52.1478C44.7738 50.1307 48.0615 47.2111 50.5176 43.6406H55.2188V41.8594H53.4375ZM40.9688 7.125H49.875V8.90625H40.9688V7.125ZM38.328 43.6406C37.5459 45.1977 36.636 46.6872 35.6076 48.0938H21.3924C20.364 46.6872 19.454 45.1977 18.672 43.6406H38.328ZM26.7188 23.5251L33.322 16.9219H37.4062V41.8594H32.9531V38.2969H31.1719V41.8594H26.7188V23.5251ZM14.25 30.6909L19.5938 26.1106L24.9375 30.6909V41.8594H20.4844V38.2969H18.7031V41.8594H14.25V30.6909ZM5.34375 36.1293L8.90625 33.9918L12.4688 36.1293V41.8594H9.79688V38.2969H8.01562V41.8594H5.34375V36.1293ZM8.68248 43.6406H16.6914C17.4182 45.1873 18.2623 46.676 19.2165 48.0938H13.0661C11.4244 46.7986 9.95167 45.3025 8.68248 43.6406ZM20.505 49.875C21.3172 50.9227 22.1943 51.9185 23.1312 52.8564C20.4897 52.2765 17.9604 51.2695 15.6433 49.875H20.505ZM26.2998 53.3411C25.0373 52.287 23.8666 51.1274 22.8004 49.875H34.1996C33.1334 51.1274 31.9627 52.287 30.7002 53.3411C29.9727 53.405 29.2393 53.4372 28.5 53.4375C27.7613 53.4375 27.0279 53.4054 26.2998 53.3411H26.2998ZM36.4951 49.875H41.3568C39.0396 51.2695 36.5104 52.2765 33.8688 52.8564C34.8057 51.9185 35.6829 50.9227 36.4951 49.875ZM43.9339 48.0938H37.7835C38.7377 46.676 39.5818 45.1873 40.3086 43.6406H48.3175C47.0483 45.3025 45.5756 46.7986 43.9339 48.0938Z" fill="white"/>
<path d="M16.0312 32.0625H17.8125V36.5156H16.0312V32.0625Z" fill="white"/>
<path d="M21.375 32.0625H23.1562V36.5156H21.375V32.0625Z" fill="white"/>
<path d="M28.5 32.0625H30.2812V36.5156H28.5V32.0625Z" fill="white"/>
<path d="M33.8438 32.0625H35.625V36.5156H33.8438V32.0625Z" fill="white"/>
<path d="M28.5 25.8281H30.2812V30.2812H28.5V25.8281Z" fill="white"/>
<path d="M33.8438 25.8281H35.625V30.2812H33.8438V25.8281Z" fill="white"/>
<path d="M40.9688 25.8281H42.75V30.2812H40.9688V25.8281Z" fill="white"/>
<path d="M44.5312 25.8281H46.3125V30.2812H44.5312V25.8281Z" fill="white"/>
<path d="M40.9688 19.5938H42.75V24.0469H40.9688V19.5938Z" fill="white"/>
<path d="M44.5312 19.5938H46.3125V24.0469H44.5312V19.5938Z" fill="white"/>
<path d="M40.9688 13.3594H42.75V17.8125H40.9688V13.3594Z" fill="white"/>
<path d="M44.5312 13.3594H46.3125V17.8125H44.5312V13.3594Z" fill="white"/>
<path d="M48.0938 25.8281H49.875V30.2812H48.0938V25.8281Z" fill="white"/>
<path d="M40.9688 32.0625H42.75V36.5156H40.9688V32.0625Z" fill="white"/>
<path d="M44.5312 32.0625H46.3125V36.5156H44.5312V32.0625Z" fill="white"/>
<path d="M48.0938 32.0625H49.875V36.5156H48.0938V32.0625Z" fill="white"/>
<path d="M48.0938 19.5938H49.875V24.0469H48.0938V19.5938Z" fill="white"/>
<path d="M48.0938 13.3594H49.875V17.8125H48.0938V13.3594Z" fill="white"/>
<path d="M33.8438 19.5938H35.625V24.0469H33.8438V19.5938Z" fill="white"/>
<path d="M2.31691 30.2075C2.47607 30.2766 2.65196 30.2978 2.82298 30.2683C2.99399 30.2389 3.15269 30.1601 3.27956 30.0417L16.0646 18.109L20.8048 22.0592C20.9803 22.2054 21.2052 22.2786 21.4332 22.2637C21.6611 22.2488 21.8745 22.1469 22.0295 21.9791L32.2012 10.9597L34.2404 12.3191C34.3682 12.4044 34.516 12.4551 34.6692 12.4663C34.8225 12.4776 34.9761 12.449 35.115 12.3833C35.2539 12.3176 35.3735 12.2171 35.4621 12.0916C35.5507 11.966 35.6053 11.8196 35.6206 11.6667L36.5112 2.76048C36.5258 2.61486 36.5043 2.4679 36.4485 2.33259C36.3927 2.19728 36.3045 2.07779 36.1916 1.9847C36.0787 1.8916 35.9446 1.82776 35.8011 1.79883C35.6576 1.7699 35.5093 1.77676 35.3691 1.81881L26.4629 4.49069C26.301 4.53926 26.1562 4.6329 26.0456 4.76065C25.9349 4.88841 25.8629 5.04502 25.8379 5.21218C25.813 5.37934 25.8361 5.55015 25.9046 5.70467C25.9731 5.85918 26.0841 5.99102 26.2248 6.08477L28.0396 7.29477L21.2866 14.7982L16.6014 10.8939C16.4348 10.7551 16.2231 10.6818 16.0063 10.6879C15.7894 10.694 15.5822 10.779 15.4236 10.927L10.6524 15.3802L11.8678 16.6824L16.0646 12.7653L20.8048 16.7155C20.9818 16.8629 21.209 16.9361 21.4387 16.9196C21.6685 16.9031 21.8829 16.7982 22.037 16.627L30.0526 7.72079C30.1381 7.62578 30.2022 7.51348 30.2404 7.39152C30.2787 7.26956 30.2902 7.1408 30.2743 7.01398C30.2584 6.88716 30.2153 6.76526 30.1481 6.65655C30.0809 6.54784 29.991 6.45488 29.8847 6.38398L28.788 5.65284L34.6064 3.90731L33.9956 10.0152L32.5565 9.05586C32.3802 8.93823 32.1676 8.8874 31.9571 8.9125C31.7465 8.9376 31.5519 9.03699 31.4081 9.19279L21.2948 20.1488L16.6014 16.2377C16.4348 16.0988 16.2231 16.0255 16.0062 16.0316C15.7894 16.0377 15.5822 16.1227 15.4236 16.2708L3.5625 27.3411V24.4339L10.4046 18.048L9.18919 16.7458L2.06419 23.3958C1.97491 23.4791 1.90372 23.5799 1.85505 23.6919C1.80637 23.8039 1.78125 23.9247 1.78125 24.0469V29.3906C1.78126 29.5642 1.83196 29.7339 1.92712 29.879C2.02228 30.0241 2.15776 30.1383 2.31691 30.2075Z" fill="white"/>
</svg>
