<svg width="25" height="20" viewBox="0 0 25 20" fill="none" xmlns="http://www.w3.org/2000/svg">
<path d="M23.4371 16.8077H20.3119C19.8312 16.8089 19.3769 16.5876 19.0812 16.2086L16.0343 12.3218C15.8975 12.1471 15.6652 12.0781 15.4552 12.1502C15.2454 12.2221 15.104 12.4189 15.1033 12.6408V14.2033C15.1033 15.6423 13.7034 16.8077 11.9781 16.8077C11.3037 16.8138 10.6416 16.6263 10.0705 16.2674C5.69521 13.4676 2.72628 9.93238 0.148184 4.4504C-0.0789925 3.96667 -0.0431325 3.40035 0.243174 2.94905C0.529481 2.49775 1.02656 2.22423 1.56102 2.22365H4.68617C5.31143 2.22213 5.87737 2.59351 6.12495 3.16765L6.47649 3.98804C7.00772 5.22043 7.72091 6.36623 8.59261 7.38671C8.62103 7.41723 8.66147 7.43402 8.70324 7.4323C8.74158 7.43592 8.77992 7.42314 8.80834 7.39701C8.83695 7.37107 8.85316 7.33407 8.85297 7.29554V5.25763C8.13806 5.00222 7.71042 4.26996 7.83879 3.52186C7.96716 2.77376 8.61473 2.22613 9.37389 2.22365H13.5407C14.4036 2.22365 15.1033 2.9233 15.1033 3.78623V7.4323C15.1037 7.66482 15.2582 7.86891 15.4819 7.93243C15.7056 7.99595 15.9443 7.90344 16.0669 7.70563L18.9771 2.97232C19.2592 2.50519 19.7662 2.22079 20.3119 2.22365H23.4371C24.0144 2.22384 24.5445 2.54258 24.8158 3.05225C25.087 3.56191 25.055 4.17973 24.7326 4.65869L21.4512 9.20965C21.3187 9.39219 21.3187 9.63921 21.4512 9.82175L24.7067 14.3336C25.0485 14.8097 25.0952 15.4371 24.8276 15.9586C24.56 16.48 24.023 16.8077 23.4371 16.8077ZM15.6242 11.0782C16.1049 11.0772 16.559 11.2983 16.8547 11.6773L19.9016 15.5641C20 15.6909 20.1513 15.7655 20.3119 15.7659H23.4371C23.6331 15.7667 23.813 15.657 23.9023 15.4825C23.9917 15.3077 23.9753 15.0979 23.8601 14.939L20.6049 10.4272C20.2104 9.88107 20.2104 9.14384 20.6049 8.59774L23.8798 4.05976C23.9313 3.97774 23.9584 3.88294 23.9578 3.78623C23.9578 3.49859 23.7247 3.26531 23.4371 3.26531H20.3119C20.1313 3.2655 19.9638 3.35915 19.8692 3.5127L16.9588 8.24601C16.5945 8.84457 15.8762 9.12744 15.2015 8.93784C14.5268 8.74843 14.061 8.1329 14.0616 7.4323V3.78623C14.0616 3.49859 13.8283 3.26531 13.5407 3.26531H9.37389C9.08606 3.26531 8.85297 3.49859 8.85297 3.78623C8.85297 4.07387 9.08606 4.30715 9.37389 4.30715H9.89463V7.29554C9.88871 7.78975 9.57837 8.22904 9.11429 8.39975C8.6504 8.57028 8.12929 8.43657 7.80464 8.06385C6.86637 6.96498 6.09806 5.73163 5.52602 4.40481L5.1678 3.58442C5.08635 3.39063 4.89637 3.26473 4.68617 3.26531H1.56102C1.38325 3.26626 1.21826 3.35782 1.12327 3.50812C1.02828 3.65843 1.01664 3.84669 1.09218 4.00768C3.6119 9.36587 6.37883 12.6669 10.6368 15.3949C11.0402 15.6419 11.5051 15.7707 11.9781 15.7659C13.1239 15.7659 14.0616 15.0628 14.0616 14.2033V12.6408C14.0616 11.7778 14.7611 11.0782 15.6242 11.0782V11.0782Z" fill="black"/>
</svg>
