<svg width="20" height="20" viewBox="0 0 20 20" fill="none" xmlns="http://www.w3.org/2000/svg">
<path d="M15.8064 12.3892C15.397 11.9629 14.9031 11.7349 14.3797 11.7349C13.8605 11.7349 13.3624 11.9586 12.936 12.385L11.6022 13.7146C11.4924 13.6555 11.3827 13.6007 11.2771 13.5458C11.1252 13.4698 10.9816 13.398 10.8592 13.3221C9.60978 12.5285 8.47429 11.4943 7.38524 10.1562C6.8576 9.48927 6.50302 8.92786 6.24553 8.35801C6.59166 8.04142 6.91247 7.71217 7.22483 7.39559C7.34303 7.27739 7.46122 7.15498 7.57941 7.03679C8.46585 6.15035 8.46585 5.0022 7.57941 4.11576L6.42704 2.96339C6.29618 2.83253 6.16111 2.69746 6.03447 2.56238C5.78121 2.30067 5.51527 2.03051 5.2409 1.77725C4.83145 1.37202 4.3418 1.15674 3.82682 1.15674C3.31184 1.15674 2.81375 1.37202 2.39163 1.77725C2.38741 1.78147 2.38741 1.78147 2.38319 1.78569L0.948004 3.23354C0.407699 3.77385 0.099556 4.43234 0.0320178 5.19637C-0.0692895 6.42894 0.293728 7.57709 0.572323 8.32846C1.25615 10.1731 2.27766 11.8827 3.80149 13.7146C5.65035 15.9223 7.87489 17.6656 10.416 18.894C11.3869 19.3541 12.6828 19.8986 14.1306 19.9915C14.2193 19.9957 14.3121 19.9999 14.3965 19.9999C15.3716 19.9999 16.1905 19.6496 16.8321 18.9531C16.8364 18.9446 16.8448 18.9404 16.849 18.932C17.0685 18.666 17.3218 18.4254 17.5877 18.1679C17.7692 17.9949 17.955 17.8134 18.1365 17.6234C18.5544 17.1886 18.7739 16.6821 18.7739 16.1629C18.7739 15.6395 18.5501 15.1372 18.1238 14.715L15.8064 12.3892ZM17.3176 16.8341C17.3134 16.8341 17.3134 16.8383 17.3176 16.8341C17.1529 17.0113 16.9841 17.1718 16.8026 17.349C16.5282 17.6107 16.2496 17.8851 15.9879 18.1933C15.5616 18.6491 15.0593 18.8644 14.4008 18.8644C14.3374 18.8644 14.2699 18.8644 14.2066 18.8602C12.9529 18.78 11.7879 18.2904 10.9141 17.8725C8.52494 16.7159 6.42704 15.0738 4.68371 12.9928C3.2443 11.2579 2.28188 9.6539 1.64449 7.93167C1.25193 6.88061 1.10841 6.0617 1.17172 5.28924C1.21394 4.79536 1.40389 4.38591 1.75424 4.03556L3.19365 2.59615C3.40048 2.40198 3.61998 2.29645 3.83526 2.29645C4.10119 2.29645 4.31647 2.45685 4.45155 2.59193C4.45577 2.59615 4.45999 2.60037 4.46421 2.60459C4.7217 2.8452 4.96653 3.09424 5.22402 3.36017C5.35487 3.49525 5.48995 3.63033 5.62502 3.76963L6.77739 4.922C7.22483 5.36944 7.22483 5.78311 6.77739 6.23055C6.65498 6.35296 6.53679 6.47538 6.41438 6.59357C6.0598 6.95659 5.72211 7.29428 5.35487 7.62353C5.34643 7.63197 5.33799 7.63619 5.33377 7.64463C4.97075 8.00765 5.03829 8.36223 5.11427 8.60283C5.11849 8.6155 5.12271 8.62816 5.12693 8.64082C5.42663 9.36686 5.84874 10.0507 6.49036 10.8654L6.49458 10.8696C7.65961 12.3048 8.88796 13.4234 10.2429 14.2803C10.416 14.39 10.5933 14.4787 10.7621 14.5631C10.9141 14.6391 11.0576 14.7108 11.18 14.7868C11.1969 14.7952 11.2138 14.8079 11.2307 14.8164C11.3742 14.8881 11.5093 14.9219 11.6486 14.9219C11.9989 14.9219 12.2184 14.7024 12.2902 14.6306L13.7338 13.187C13.8773 13.0435 14.1053 12.8704 14.3712 12.8704C14.6329 12.8704 14.8482 13.035 14.9791 13.1785C14.9833 13.1828 14.9833 13.1828 14.9875 13.187L17.3134 15.5128C17.7481 15.9434 17.7481 16.3866 17.3176 16.8341Z" fill="black"/>
<path d="M10.8087 4.7574C11.9146 4.94313 12.9192 5.46656 13.7213 6.26857C14.5233 7.07059 15.0425 8.07522 15.2324 9.18116C15.2789 9.45975 15.5195 9.65392 15.7938 9.65392C15.8276 9.65392 15.8571 9.6497 15.8909 9.64548C16.2033 9.59483 16.4101 9.29935 16.3595 8.98698C16.1315 7.64888 15.4984 6.42897 14.5317 5.46233C13.5651 4.49569 12.3452 3.86252 11.0071 3.63458C10.6947 3.58393 10.4034 3.79076 10.3486 4.09891C10.2937 4.40705 10.4963 4.70675 10.8087 4.7574Z" fill="black"/>
<path d="M19.9769 8.82242C19.6012 6.61899 18.5628 4.61395 16.9672 3.01836C15.3716 1.42277 13.3666 0.384369 11.1631 0.00868772C10.855 -0.0461871 10.5637 0.16487 10.5088 0.473013C10.4582 0.785377 10.665 1.07664 10.9774 1.13151C12.9444 1.46498 14.7384 2.39785 16.1652 3.82037C17.5919 5.24712 18.5206 7.0411 18.854 9.00815C18.9005 9.28675 19.1411 9.48092 19.4154 9.48092C19.4492 9.48092 19.4788 9.4767 19.5125 9.47248C19.8207 9.42604 20.0317 9.13056 19.9769 8.82242Z" fill="black"/>
</svg>
