<svg width="57" height="57" viewBox="0 0 57 57" fill="none" xmlns="http://www.w3.org/2000/svg">
<g clip-path="url(#clip0)">
<path d="M38.6585 36.1187H36.1192V33.1412C39.5299 30.7389 41.7625 26.7715 41.7625 22.292V13.8265C41.7626 6.20253 35.5601 0 27.936 0C20.3142 0 14.1131 6.19897 14.1096 13.8201C14.1094 13.8507 14.1108 13.8812 14.1139 13.9115C14.1148 13.9201 14.1164 13.9285 14.1175 13.9371C14.1199 13.9554 14.1223 13.974 14.1259 13.9921C14.1291 14.0086 14.1337 14.0248 14.138 14.0409C14.1406 14.0508 14.1428 14.0609 14.1457 14.0708C14.1512 14.0887 14.1576 14.1061 14.1643 14.1235C14.1672 14.1315 14.1699 14.1397 14.1731 14.1476C14.1799 14.1641 14.1877 14.18 14.1955 14.196C14.1998 14.2048 14.2036 14.2137 14.2082 14.2223C14.2154 14.2359 14.2235 14.2489 14.2314 14.2621C14.2379 14.2727 14.2439 14.2835 14.2507 14.2939C14.2576 14.3042 14.2652 14.314 14.2725 14.3241C14.2815 14.3365 14.2903 14.349 14.2999 14.3609C14.3061 14.3685 14.313 14.3757 14.3194 14.383C14.331 14.3964 14.3426 14.4096 14.355 14.4223C14.361 14.4285 14.3676 14.4339 14.3736 14.4398C14.3872 14.4527 14.4006 14.4655 14.4151 14.4776C14.423 14.4841 14.4315 14.4898 14.4396 14.4961C14.453 14.5064 14.4659 14.5167 14.4799 14.5263C14.4956 14.537 14.512 14.5465 14.5283 14.5562C14.5355 14.5604 14.5421 14.5649 14.5494 14.569C14.5759 14.5835 14.6034 14.5966 14.6314 14.6084C14.8349 14.6944 15.0371 14.7758 15.2381 14.8538V22.292C15.2381 26.7716 17.4707 30.7389 20.8814 33.1412V36.119L18.3593 36.1195C18.3534 36.1194 18.3478 36.1186 18.342 36.1186H18.3409C17.5023 36.1186 16.6737 36.2372 15.8759 36.4708C15.4289 36.6017 15.1704 37.0735 15.3013 37.5216C15.4063 37.8794 15.7404 38.13 16.114 38.13H16.1151C16.1941 38.13 16.2743 38.1187 16.3521 38.0961C16.3521 38.095 16.3532 38.095 16.3532 38.095C16.9914 37.9089 17.6564 37.8132 18.3292 37.8119C18.3336 37.812 18.3378 37.8126 18.3422 37.8126C18.3422 37.8126 18.3423 37.8126 18.3424 37.8126L21.4723 37.8119L24.4028 39.7659L25.4344 42.8601C25.4345 42.8605 25.4347 42.861 25.4348 42.8614L25.4399 42.8766C25.4409 42.8794 25.4424 42.882 25.4434 42.8848C25.4565 42.9229 25.4721 42.9596 25.4904 42.9951C25.4923 42.9988 25.4938 43.0027 25.4958 43.0064C25.514 43.0406 25.535 43.073 25.5576 43.1041C25.5634 43.1122 25.5692 43.1199 25.5752 43.1277C25.598 43.157 25.6223 43.1851 25.6486 43.2111C25.6536 43.216 25.6589 43.2204 25.664 43.2251C25.6887 43.2483 25.7147 43.2698 25.742 43.2899C25.7478 43.2942 25.7532 43.2986 25.759 43.3027C25.7904 43.3247 25.8232 43.3443 25.8575 43.3617C25.8633 43.3646 25.8691 43.3674 25.875 43.3702C25.9091 43.3867 25.9442 43.4015 25.9807 43.4133C25.9823 43.4138 25.984 43.4146 25.9858 43.4152C26.0222 43.4268 26.0599 43.4353 26.0983 43.442C26.1077 43.4437 26.1172 43.4449 26.1265 43.4464C26.1619 43.4513 26.1981 43.4545 26.2347 43.4548C26.2374 43.4549 26.2401 43.4555 26.2427 43.4555C26.2436 43.4555 26.2445 43.4553 26.2454 43.4553H26.3722L24.3974 55.3071H18.0603V49.3809C18.0603 48.9135 17.6814 48.5344 17.2138 48.5344C16.7463 48.5344 16.3673 48.9133 16.3673 49.3809V55.3071H11.2882V44.8665C11.2882 44.8655 11.288 44.8646 11.288 44.8637C11.2885 43.8218 11.5096 42.8204 11.9449 41.8855C12.3659 40.9826 12.9641 40.1913 13.7214 39.5345C14.0736 39.2287 14.112 38.6925 13.806 38.3403C13.6456 38.154 13.4122 38.0479 13.1659 38.0479C12.9627 38.0479 12.7652 38.1213 12.6117 38.2545C10.6941 39.917 9.59473 42.3268 9.59473 44.8663C9.59473 44.8678 9.59495 44.8691 9.59495 44.8707V56.1536C9.59495 56.621 9.97391 57.0001 10.4415 57.0001H25.114C25.1144 57.0001 25.1149 57.0002 25.1153 57.0002C25.1161 57.0002 25.1169 57.0001 25.1178 57.0001H31.8831C31.884 57.0001 31.8847 57.0002 31.8855 57.0002C31.886 57.0002 31.8864 57.0001 31.8868 57.0001H46.5593C47.0268 57.0001 47.4059 56.6212 47.4059 56.1536V44.8661C47.4059 40.0429 43.4819 36.1187 38.6585 36.1187ZM27.936 1.69308C34.2043 1.69308 39.3776 6.47084 40.0055 12.576C39.5678 12.0194 39.0771 11.6073 38.5241 11.3276C36.533 10.3203 34.1529 11.2376 31.3969 12.2995C27.3382 13.8635 22.313 15.7989 15.8161 13.262C16.1122 6.83265 21.4349 1.69308 27.936 1.69308ZM16.9312 22.292V15.4292C23.2237 17.2626 28.237 15.3316 32.0056 13.8793C34.4832 12.9246 36.4403 12.1707 37.7598 12.8382C38.712 13.32 39.4677 14.6066 40.0695 16.7661V22.2919C40.0695 28.6712 34.8796 33.861 28.5004 33.861C22.1211 33.861 16.9312 28.6712 16.9312 22.292ZM34.4262 34.1542V36.5122L31.7616 38.2885L29.347 37.4836V35.5264C31.1627 35.4115 32.8801 34.9296 34.4262 34.1542ZM25.2392 38.2884L22.5746 36.5117V34.1541C24.1207 34.9296 25.8381 35.4114 27.6538 35.5264V37.4836L25.2392 38.2884ZM26.1852 39.7579L28.5006 38.9862L30.816 39.7579L30.1479 41.7622H26.8533L26.1852 39.7579ZM26.1136 55.3068L28.0889 43.4552H28.912L30.8873 55.3068H26.1136ZM45.7128 55.3068H40.6338V49.3806C40.6338 48.9131 40.2548 48.534 39.7872 48.534C39.3198 48.534 38.9407 48.9131 38.9407 49.3806V55.3068H32.6037L30.6284 43.4552H30.7551C30.756 43.4552 30.757 43.4554 30.7578 43.4554C30.7604 43.4554 30.7631 43.4548 30.7658 43.4547C30.8026 43.4544 30.8386 43.4511 30.874 43.4462C30.8833 43.4449 30.8928 43.4437 30.9021 43.4419C30.9407 43.4352 30.9783 43.4267 31.0149 43.4151C31.0165 43.4146 31.0179 43.414 31.0195 43.4134C31.0563 43.4015 31.0916 43.3867 31.1258 43.37C31.1315 43.3673 31.1372 43.3646 31.1427 43.3619C31.1771 43.3443 31.2102 43.3245 31.2417 43.3025C31.2474 43.2987 31.2525 43.2944 31.2581 43.2904C31.2857 43.2701 31.3121 43.2483 31.337 43.2248C31.3419 43.2203 31.3469 43.2161 31.3517 43.2113C31.3782 43.1852 31.4026 43.1569 31.4255 43.1275C31.4314 43.1198 31.4371 43.1122 31.4429 43.1042C31.4656 43.073 31.4865 43.0406 31.5048 43.0063C31.5067 43.0027 31.5082 42.9989 31.5101 42.9953C31.5284 42.9599 31.544 42.9229 31.5572 42.8848C31.5582 42.882 31.5597 42.8794 31.5607 42.8766L31.5657 42.8614C31.5658 42.861 31.566 42.8605 31.5661 42.8601L32.5977 39.7659L35.5288 37.8119H38.6584C42.5484 37.8118 45.7129 40.9764 45.7129 44.8661V55.3068H45.7128Z" fill="white"/>
</g>
<defs>
<clipPath id="clip0">
<rect width="57" height="57" fill="white"/>
</clipPath>
</defs>
</svg>
