<svg width="57" height="57" viewBox="0 0 57 57" fill="none" xmlns="http://www.w3.org/2000/svg">
<g clip-path="url(#clip0)">
<path d="M51.4284 44.3203C52.5543 42.7721 53.1646 40.9089 53.1726 38.9946C53.1848 38.7429 53.0964 38.4967 52.9269 38.3101C52.7575 38.1236 52.5209 38.012 52.2692 37.9999C51.7471 37.9804 51.3052 38.3818 51.2745 38.9034C51.2817 40.4206 50.8143 41.902 49.9379 43.1404C48.0844 45.4812 44.5675 45.5999 43.8807 45.5999C43.356 45.5999 42.9307 46.0253 42.9307 46.5499C42.9307 47.0746 43.356 47.4999 43.8807 47.4999C44.7205 47.4999 49.0306 47.347 51.4284 44.3203Z" fill="white"/>
<path d="M32.2999 32.2999C32.2999 31.7752 31.8746 31.3499 31.3499 31.3499C30.8252 31.3499 30.3999 31.7752 30.3999 32.2999C30.3999 34.3986 32.1012 36.0999 34.1999 36.0999V37.0499C34.1999 37.5746 34.6252 37.9999 35.1499 37.9999C35.6746 37.9999 36.0999 37.5746 36.0999 37.0499V36.0999C38.1986 36.0999 39.8999 34.3986 39.8999 32.2999C39.8999 30.2012 38.1986 28.4999 36.0999 28.4999V24.6999C37.1492 24.6999 37.9999 25.5506 37.9999 26.5999C37.9999 27.1246 38.4252 27.5499 38.9499 27.5499C39.4746 27.5499 39.8999 27.1246 39.8999 26.5999C39.8999 24.5012 38.1986 22.7999 36.0999 22.7999V21.8499C36.0999 21.3252 35.6746 20.8999 35.1499 20.8999C34.6252 20.8999 34.1999 21.3252 34.1999 21.8499V22.7999C32.1012 22.7999 30.3999 24.5012 30.3999 26.5999C30.3999 28.6986 32.1012 30.3999 34.1999 30.3999V34.1999C33.1506 34.1999 32.2999 33.3492 32.2999 32.2999ZM32.2999 26.5999C32.2999 25.5506 33.1506 24.6999 34.1999 24.6999V28.4999C33.1506 28.4999 32.2999 27.6492 32.2999 26.5999ZM36.0999 30.3999C37.1492 30.3999 37.9999 31.2506 37.9999 32.2999C37.9999 33.3492 37.1492 34.1999 36.0999 34.1999V30.3999Z" fill="white"/>
<path d="M56.2058 32.0819C53.865 22.1345 48.6609 16.3708 44.9027 13.3603C49.6157 13.7156 51.1328 15.6764 51.1775 15.7353C51.4751 16.1602 52.0585 16.2677 52.4881 15.9769C52.9177 15.6861 53.0345 15.1045 52.7507 14.6703C52.6823 14.5677 51.3627 12.6829 47.5257 11.8203C48.5068 11.0138 49.0872 9.81929 49.115 8.54949C48.988 6.44423 47.5224 4.65902 45.4822 4.12439C45.5659 3.43816 45.6084 2.74754 45.6095 2.05624C45.6085 1.41936 45.2884 0.825349 44.7571 0.47419C44.2258 0.123031 43.5539 0.061435 42.9676 0.310138C42.4879 0.527285 42.0425 0.813061 41.6452 1.15849C41.1789 1.63759 40.5371 1.9053 39.8687 1.89949C39.2012 1.90419 38.5607 1.6366 38.095 1.15849C36.4208 -0.38779 33.8393 -0.38779 32.1651 1.15849C31.6988 1.63864 31.056 1.90649 30.3867 1.89949C29.7194 1.90503 29.0789 1.63729 28.614 1.15849C28.2177 0.813803 27.7736 0.52837 27.2954 0.311088C26.7095 0.0640519 26.0388 0.12649 25.5086 0.47744C24.9783 0.828391 24.6588 1.42132 24.6573 2.05719C24.6573 4.42079 25.1247 8.63689 28.0839 11.4679C26.5287 12.4136 25.0762 13.5187 23.75 14.7653V7.59949C23.75 5.43349 20.6863 3.79949 16.625 3.79949C12.5638 3.79949 9.5 5.43349 9.5 7.59949V17.1707C6.16835 17.5032 3.8 18.9995 3.8 20.8995V45.0627C1.5048 45.6793 0 46.9295 0 48.4495V53.1995C0 55.3655 3.06375 56.9995 7.125 56.9995C10.7569 56.9995 13.585 55.6913 14.1427 53.8645C15.7825 54.7327 17.6204 55.1584 19.475 55.0995C23.5363 55.0995 26.6 53.4655 26.6 51.2995V38.9495C26.6 36.7835 23.5363 35.1495 19.475 35.1495C18.9991 35.1492 18.5235 35.173 18.05 35.2207V20.8995C18.05 18.819 15.2219 17.2344 11.4 17.1118V10.23C13.0162 11.0515 14.8129 11.4536 16.625 11.3995C18.4371 11.4536 20.2338 11.0515 21.85 10.23V16.709C21.224 17.4092 20.5951 18.172 19.9747 19.0175C19.6906 19.4406 19.7909 20.0124 20.2019 20.3135C20.613 20.6146 21.1884 20.5379 21.5061 20.1395C22.1163 19.3135 22.7702 18.5207 23.465 17.7645C23.4726 17.7559 23.4793 17.7474 23.4869 17.7398C25.3003 15.7243 27.4299 14.0177 29.792 12.6867C30.2577 12.9114 30.7504 13.0752 31.2579 13.1741L28.8088 15.4598C28.4252 15.8181 28.4048 16.4196 28.7632 16.8031C29.1215 17.1866 29.7229 17.207 30.1065 16.8487L33.9065 13.3042H34.2095V16.1542C34.2095 16.6789 34.6348 17.1042 35.1595 17.1042C35.6842 17.1042 36.1095 16.6789 36.1095 16.1542V13.2995H36.4126L40.2126 16.8439C40.4607 17.0758 40.8136 17.1576 41.1384 17.0586C41.4632 16.9597 41.7105 16.695 41.7872 16.3642C41.8639 16.0334 41.7584 15.6868 41.5103 15.455L39.045 13.1598C39.5495 13.06 40.0389 12.8956 40.5014 12.6706C43.0122 14.0291 51.2658 19.3966 54.3571 32.517C55.7014 38.2284 55.2169 42.5975 52.9179 45.4997C49.9767 49.2095 44.8733 49.3995 43.8805 49.3995H30.4C29.8753 49.3995 29.45 49.8248 29.45 50.3495C29.45 50.8742 29.8753 51.2995 30.4 51.2995H43.8805C45.4955 51.2995 51.0103 50.966 54.4065 46.6796C57.0836 43.2986 57.6897 38.3871 56.2058 32.0819ZM7.125 46.5495C10.2667 46.5495 12.35 47.6895 12.35 48.4495C12.35 49.2095 10.2667 50.3495 7.125 50.3495C3.98335 50.3495 1.9 49.2095 1.9 48.4495C1.9 47.6895 3.98335 46.5495 7.125 46.5495ZM7.125 55.0995C3.98335 55.0995 1.9 53.9595 1.9 53.1995V51.08C3.51617 51.9015 5.31286 52.3036 7.125 52.2495C8.93714 52.3036 10.7338 51.9015 12.35 51.08V53.1995C12.35 53.9595 10.2667 55.0995 7.125 55.0995ZM19.475 53.1995C16.3334 53.1995 14.25 52.0595 14.25 51.2995V41.58C15.8662 42.4015 17.6629 42.8036 19.475 42.7495C21.2871 42.8036 23.0838 42.4015 24.7 41.58V51.2995C24.7 52.0595 22.6167 53.1995 19.475 53.1995ZM24.7 38.9495C24.7 39.7095 22.6167 40.8495 19.475 40.8495C16.3334 40.8495 14.25 39.7095 14.25 38.9495C14.25 38.1895 16.3334 37.0495 19.475 37.0495C22.6167 37.0495 24.7 38.1895 24.7 38.9495ZM12.35 38.9495V45.8189C10.7338 44.9975 8.93714 44.5954 7.125 44.6495C6.6491 44.6492 6.17349 44.673 5.7 44.7207V23.53C7.31617 24.3515 9.11286 24.7536 10.925 24.6995C12.7371 24.7536 14.5338 24.3515 16.15 23.53V35.5627C13.8548 36.1793 12.35 37.4295 12.35 38.9495ZM16.15 20.8995C16.15 21.6595 14.0667 22.7995 10.925 22.7995C7.78335 22.7995 5.7 21.6595 5.7 20.8995C5.7 20.1395 7.78335 18.9995 10.925 18.9995C14.0667 18.9995 16.15 20.1395 16.15 20.8995ZM16.625 9.49949C13.4834 9.49949 11.4 8.35949 11.4 7.59949C11.4 6.83949 13.4834 5.69949 16.625 5.69949C19.7667 5.69949 21.85 6.83949 21.85 7.59949C21.85 8.35949 19.7667 9.49949 16.625 9.49949ZM47.215 8.54949C47.215 10.1065 45.5288 11.3843 43.415 11.3995C43.0614 11.3973 42.7092 11.3568 42.3643 11.2788C43.7431 9.80781 44.7015 7.99343 45.1393 6.02534C46.2828 6.36227 47.1053 7.36242 47.215 8.54949ZM27.4246 2.64049C28.2269 3.39226 29.2873 3.80716 30.3867 3.79949C31.4868 3.80775 32.548 3.3928 33.3507 2.64049C33.8203 2.16638 34.4599 1.89965 35.1272 1.89965C35.7945 1.89965 36.4341 2.16638 36.9037 2.64049C37.7064 3.39336 38.7681 3.80838 39.8687 3.79949C40.9691 3.80799 42.0307 3.39302 42.8336 2.64049C43.0969 2.40781 43.3898 2.21103 43.7048 2.05529C43.7048 3.81944 43.377 8.18089 40.3161 10.572C39.6275 11.0892 38.7927 11.3749 37.9316 11.3881C38.754 9.97555 39.4049 8.46992 39.8706 6.90314C39.9615 6.57595 39.871 6.2251 39.6331 5.98273C39.3953 5.74037 39.0462 5.64331 38.7173 5.72813C38.3885 5.81295 38.1299 6.06675 38.039 6.39394C37.5128 8.17971 36.7039 9.86965 35.6431 11.3995H34.6665C33.6077 9.8683 32.7987 8.17876 32.2696 6.39394C32.1287 5.88842 31.6047 5.59281 31.0992 5.73369C30.5937 5.87456 30.2981 6.39857 30.439 6.90409C30.905 8.47222 31.5566 9.97912 32.3798 11.3928C31.5015 11.3883 30.648 11.1008 29.9459 10.573C26.885 8.18279 26.5573 3.82134 26.5573 2.06289C26.8721 2.21372 27.1641 2.40816 27.4246 2.64049Z" fill="white"/>
<path d="M51.4284 44.3205C52.5543 42.7723 53.1646 40.9091 53.1726 38.9948C53.1848 38.7431 53.0964 38.4968 52.9269 38.3103C52.7575 38.1238 52.5209 38.0122 52.2692 38.0001C51.7475 37.9816 51.3061 38.3825 51.2745 38.9036C51.2817 40.4207 50.8143 41.9022 49.9379 43.1406C48.0844 45.4814 44.5675 45.6001 43.8807 45.6001C43.356 45.6001 42.9307 46.0255 42.9307 46.5501C42.9307 47.0748 43.356 47.5001 43.8807 47.5001C44.7205 47.5001 49.0306 47.3472 51.4284 44.3205Z" fill="white"/>
</g>
<defs>
<clipPath id="clip0">
<rect width="57" height="57" fill="white"/>
</clipPath>
</defs>
</svg>
