<svg width="135" height="138" viewBox="0 0 135 138" fill="none" xmlns="http://www.w3.org/2000/svg">
<g clip-path="url(#clip0)">
<path fill-rule="evenodd" clip-rule="evenodd" d="M9.39984 112.6C-2.50016 95.3 -2.40016 72.5 5.79984 51.6C14.0998 30.4 29.5998 9.9 52.3998 2.5C74.0998 -4.6 95.9998 4.3 112.5 16.8C126.3 27.2 128.6 44.6 130.8 61.6C133.2 80.2 138.8 100.4 125.4 115.9C110.9 132.7 86.8998 138.3 64.9998 137.7C42.6998 137.1 21.0998 129.5 9.39984 112.6Z" fill="url(#paint0_linear)" fill-opacity="0.8"/>
<path fill-rule="evenodd" clip-rule="evenodd" d="M114 48.4C121.7 60.3 130.7 73.1 129.2 87.1C127.6 101.6 117.9 114.6 105.8 122.4C94.4999 129.7 80.0999 125.8 66.6999 127.3C52.7999 128.9 38.3999 138.3 25.9999 131.4C13.5999 124.6 11.1999 107.9 7.09986 94.3C3.49986 82.2 2.59986 70.2 3.99986 57.8C5.59986 44 5.49986 28.2 15.6999 19.2C25.9999 10.2 41.4999 12 55.1999 12.9C67.0999 13.7 77.9999 18 88.2999 24.2C98.5999 30.4 107.4 38.3 114 48.4Z" fill="url(#paint1_linear)" fill-opacity="0.8"/>
<path d="M105.6 78.1H97.1998V73.9C97.1998 71.6 95.2998 69.7 92.9998 69.7H78.8998C77.6998 69.7 76.5998 70.2 75.7998 71L60.5998 68.5V65C64.7998 62.6 67.5998 58 67.5998 52.8H68.9998C71.2998 52.8 73.1998 50.9 73.1998 48.6C73.1998 46.3 71.2998 44.4 68.9998 44.4H68.2998L69.0998 42.6C70.4998 39.3 70.2998 35.4 68.3998 32.3C67.1998 30.3 65.4998 28.8 63.3998 27.8L59.4998 26C54.8998 23.9 49.1998 24.5 45.0998 27.6L42.8998 29.3C40.6998 29.9 38.7998 31.3 37.5998 33.3C36.0998 35.9 35.8998 39 37.2998 41.7L38.6998 44.5H38.1998C35.8998 44.5 33.9998 46.4 33.9998 48.7C33.9998 51 35.8998 52.9 38.1998 52.9H39.5998C39.5998 58.1 42.3998 62.6 46.5998 65.1V68.6L29.4998 71.4C24.6998 72.2 21.2998 76.3 21.2998 81.1V110.5C21.2998 111.3 21.8998 111.9 22.6998 111.9H66.2998H67.6998H105.7C107.3 111.9 108.5 110.6 108.5 109.1V80.9C108.5 79.3 107.2 78.1 105.6 78.1ZM94.3998 73.9V78.1H85.4998C84.6998 75.7 83.0998 73.7 80.8998 72.5H92.9998C93.7998 72.5 94.3998 73.1 94.3998 73.9ZM77.4998 74.1C79.6998 74.6 81.4998 76 82.4998 78H77.4998V74.1ZM70.4998 48.5C70.4998 49.3 69.8998 49.9 69.0998 49.9H67.6998V47.1H69.0998C69.8998 47.1 70.4998 47.8 70.4998 48.5ZM39.9998 34.6C41.0998 32.8 42.9998 31.7 45.0998 31.7C47.2998 31.7 49.3998 32.8 50.5998 34.6L50.9998 35.3L53.2998 33.7L52.8998 33C51.5998 31.1 49.6998 29.8 47.5998 29.2C50.7998 27.2 54.8998 26.9 58.2998 28.5L62.1998 30.3C63.7998 31 65.0998 32.2 65.9998 33.7C67.3998 36.1 67.5998 39 66.4998 41.5L66.3998 41.7L64.5998 38.1C64.3998 37.7 64.0998 37.5 63.6998 37.4C63.2998 37.3 62.8998 37.4 62.4998 37.6L60.2998 39.3C58.3998 40.8 55.9998 41.6 53.4998 41.6C50.9998 41.6 48.6998 40.8 46.6998 39.3L44.4998 37.6C44.1998 37.3 43.6998 37.3 43.2998 37.4C42.8998 37.5 42.5998 37.8 42.3998 38.1L40.4998 41.9L39.6998 40.3C38.8998 38.5 38.9998 36.3 39.9998 34.6ZM38.0998 50C37.2998 50 36.6998 49.4 36.6998 48.6C36.6998 47.8 37.2998 47.2 38.0998 47.2H39.4998V50H38.0998ZM42.3998 52.8V44.7L44.2998 40.9L45.1998 41.6C47.5998 43.4 50.5998 44.4 53.5998 44.4C56.5998 44.4 59.5998 43.4 61.9998 41.6L62.8998 40.9L64.7998 44.7V52.8C64.7998 59 59.7998 64.1 53.5998 64.1C47.3998 64.1 42.3998 59 42.3998 52.8ZM53.5998 66.8C55.0998 66.8 56.4998 66.6 57.7998 66.2V69.1L53.5998 73.3L49.3998 69.1V66.2C50.6998 66.6 52.0998 66.8 53.5998 66.8ZM53.1998 82.3H54.0998L56.3998 88L53.5998 100L50.8998 88L53.1998 82.3ZM56.2998 76.5L54.2998 79.5H52.9998L50.9998 76.5L51.4998 75.1L52.6998 76.3C52.9998 76.6 53.2998 76.7 53.6998 76.7C54.0998 76.7 54.3998 76.6 54.6998 76.3L55.8998 75.1L56.2998 76.5ZM38.0998 109V85.1H35.2998V109H24.0998V81C24.0998 77.5 26.5998 74.6 29.9998 74.1L47.4998 71.2L49.1998 72.9L48.0998 76.3C47.9998 76.7 47.9998 77.2 48.2998 77.5L50.6998 81.1L48.1998 87.4C47.9998 87.7 47.9998 88 47.9998 88.2L52.1998 106.5C52.2998 107.1 52.8998 107.6 53.5998 107.6C54.2998 107.6 54.7998 107.1 54.9998 106.5L59.1998 88.2C59.2998 87.9 59.1998 87.6 59.0998 87.4L56.5998 81.1L58.9998 77.5C59.1998 77.1 59.2998 76.7 59.1998 76.3L57.9998 72.8L59.6998 71.1L74.6998 73.6C74.6998 73.7 74.6998 73.7 74.6998 73.8V78H66.2998C64.6998 78 63.4998 79.3 63.4998 80.8V109H38.0998ZM67.6998 109H66.2998V106.2H105.7V109H67.6998ZM105.6 103.4H66.2998V92C68.0998 93.8 70.5998 95 73.2998 95H81.6998V96.4C81.6998 98.7 83.5998 100.6 85.8998 100.6C88.1998 100.6 90.0998 98.7 90.0998 96.4V95H98.4998C101.3 95 103.7 93.9 105.5 92V103.4H105.6ZM84.5998 96.4V89.4H87.3998V96.4C87.3998 97.2 86.7998 97.8 85.9998 97.8C85.1998 97.8 84.5998 97.1 84.5998 96.4ZM105.6 85.1C105.6 89 102.4 92.1 98.5998 92.1H90.1998V87.9C90.1998 87.1 89.5998 86.5 88.7998 86.5H83.1998C82.3998 86.5 81.7998 87.1 81.7998 87.9V92.1H73.3998C69.4998 92.1 66.3998 88.9 66.3998 85.1V80.9H105.8V85.1H105.6Z" fill="white"/>
</g>
<defs>
<linearGradient id="paint0_linear" x1="82.6992" y1="44.4226" x2="45.6117" y2="134.971" gradientUnits="userSpaceOnUse">
<stop stop-color="#FBB12E" stop-opacity="0.17"/>
<stop offset="1" stop-color="#D30823" stop-opacity="0.26"/>
</linearGradient>
<linearGradient id="paint1_linear" x1="89.235" y1="28.4875" x2="26.4413" y2="131.129" gradientUnits="userSpaceOnUse">
<stop stop-color="#FBB12E"/>
<stop offset="1" stop-color="#D30823"/>
</linearGradient>
<clipPath id="clip0">
<rect width="134.1" height="137.8" fill="white"/>
</clipPath>
</defs>
</svg>
