<svg width="138" height="138" viewBox="0 0 138 138" fill="none" xmlns="http://www.w3.org/2000/svg">
<g clip-path="url(#clip0)">
<path fill-rule="evenodd" clip-rule="evenodd" d="M12.9999 112.6C1.09994 95.3 1.19994 72.5 9.39994 51.6C17.6999 30.4 33.1999 9.9 55.9999 2.5C77.6999 -4.6 99.5999 4.3 116.1 16.8C129.9 27.2 132.2 44.6 134.4 61.6C136.8 80.2 142.4 100.4 129 115.9C114.5 132.7 90.4999 138.3 68.5999 137.7C46.2999 137.1 24.6999 129.5 12.9999 112.6Z" fill="url(#paint0_linear)" fill-opacity="0.8"/>
<path fill-rule="evenodd" clip-rule="evenodd" d="M57.1 12.8C70.7 8.6 85.4 3.3 98.4 8.6C111.9 14.1 121.8 26.9 126.1 40.6C130 53.4 122.4 66.3 120.3 79.6C118.1 93.4 123.2 109.8 113.3 119.9C103.4 130 86.7 127.8 72.5 128.1C60 128.3 48.1 125.9 36.5 121.2C23.7 116 8.40004 111.8 2.50004 99.5C-3.39996 87.2 2.50004 72.7 7.10004 59.8C11.1 48.6 18.2 39.2 26.9 31C35.7 22.8 45.6 16.4 57.1 12.8Z" fill="url(#paint1_linear)" fill-opacity="0.8"/>
<path d="M60 79.3C60.7 78.6 60.7 77.5 60 76.8C59.3 76.1 58.2 76.1 57.5 76.8C56.8 77.5 56.8 78.6 57.5 79.3C58.2 80 59.3 80 60 79.3Z" fill="white"/>
<path d="M51.6 37.6C51.6 48.3 60.3 56.9 71 56.9C81.7 56.9 90.4 48.2 90.4 37.6C90.4 26.9 81.7 18.3 71 18.3C60.3 18.2 51.6 26.9 51.6 37.6ZM86.9 37.6C86.9 46.3 79.8 53.4 71.1 53.4C62.4 53.4 55.3 46.3 55.3 37.6C55.3 28.9 62.4 21.8 71.1 21.8C79.7 21.8 86.9 28.8 86.9 37.6Z" fill="white"/>
<path d="M38.8 107.7C39.5 108.4 40.6 108.4 41.3 107.7L49.8 99.3C51.3 97.9 51.7 95.7 51.1 93.8L52.9 92C53.9 91 55.2 90.5 56.6 90.5H80C84.2 90.5 88.1 88.9 91.1 86C91.2 85.9 90.2 87.1 107.1 67C109.6 64 109.2 59.6 106.3 57.1C103.4 54.6 98.9 55 96.4 57.9L85.9 68.7C84.6 67 82.6 66 80.4 66H60.8C58 64.8 55 64.2 52 64.2C43.5 64.2 36.1 68.1 32.1 75.4C30.4 75.1 28.7 75.6 27.4 76.9L19 85.3C18.3 86 18.3 87.1 19 87.8L38.8 107.7ZM52 67.8C54.7 67.8 57.3 68.3 59.8 69.4C60 69.5 60.3 69.5 60.5 69.5H80.5C82.4 69.5 84 71.1 84 73C84 74.9 82.4 76.5 80.5 76.5H66.1C65.1 76.5 64.3 77.3 64.3 78.3C64.3 79.3 65.1 80.1 66.1 80.1H80.5C84.4 80.1 87.5 76.9 87.5 73.1C87.5 72.8 87.5 72.5 87.4 72.2C97.5 61.8 98.9 60.4 99 60.3C100.3 58.8 102.5 58.6 104 59.9C105.5 61.2 105.7 63.4 104.4 64.9L88.5 83.7C86.2 85.9 83.2 87.1 80 87.1H56.6C54.3 87.1 52.1 88 50.5 89.6L49 91L35.2 77.3C38.4 71.2 44.5 67.8 52 67.8ZM29.9 79.5C30.5 78.9 31.4 78.8 32.1 79.3C32.4 79.5 31.5 78.7 47.4 94.5C48.1 95.2 48.1 96.3 47.4 97L40.1 104.2L22.8 86.6L29.9 79.5Z" fill="white"/>
<path d="M68.9 27V29.1C66.9 29.8 65.4 31.8 65.4 34.1C65.4 37 67.8 39.4 70.7 39.4C71.7 39.4 72.5 40.2 72.5 41.2C72.5 42.2 71.7 43 70.7 43C69.9 43 69.1 42.5 68.4 41.7C67.8 41 66.7 40.9 65.9 41.5C65.2 42.1 65.1 43.2 65.7 44C66.6 45.1 67.7 45.9 68.9 46.3V48.4C68.9 49.4 69.7 50.2 70.7 50.2C71.7 50.2 72.5 49.4 72.5 48.4V46.3C74.5 45.6 76 43.6 76 41.3C76 38.4 73.6 36 70.7 36C69.7 36 68.9 35.2 68.9 34.2C68.9 33.2 69.7 32.4 70.7 32.4C71.3 32.4 72 32.7 72.6 33.3C73.3 34 74.4 34 75.1 33.3C75.8 32.6 75.8 31.5 75.1 30.8C74.2 29.9 73.3 29.4 72.5 29.2V27.2C72.5 26.2 71.7 25.4 70.7 25.4C69.7 25.3 68.9 26.1 68.9 27Z" fill="white"/>
</g>
<defs>
<linearGradient id="paint0_linear" x1="86.2869" y1="44.4229" x2="49.1999" y2="134.972" gradientUnits="userSpaceOnUse">
<stop stop-color="#FBB12E" stop-opacity="0.17"/>
<stop offset="1" stop-color="#D30823" stop-opacity="0.26"/>
</linearGradient>
<linearGradient id="paint1_linear" x1="31.2512" y1="31.3024" x2="113.128" y2="119.477" gradientUnits="userSpaceOnUse">
<stop stop-color="#FBB12E"/>
<stop offset="1" stop-color="#D30823"/>
</linearGradient>
<clipPath id="clip0">
<rect width="137.7" height="137.8" fill="white"/>
</clipPath>
</defs>
</svg>
