<svg width="138" height="138" viewBox="0 0 138 138" fill="none" xmlns="http://www.w3.org/2000/svg">
<g clip-path="url(#clip0)">
<path fill-rule="evenodd" clip-rule="evenodd" d="M12.9999 112.6C1.09994 95.3 1.19994 72.5 9.39994 51.6C17.6999 30.4 33.1999 9.9 55.9999 2.5C77.6999 -4.6 99.5999 4.3 116.1 16.8C129.9 27.2 132.2 44.6 134.4 61.6C136.8 80.2 142.4 100.4 129 115.9C114.5 132.7 90.4999 138.3 68.5999 137.7C46.2999 137.1 24.6999 129.5 12.9999 112.6Z" fill="url(#paint0_linear)" fill-opacity="0.8"/>
<path fill-rule="evenodd" clip-rule="evenodd" d="M57.0999 12.8C70.6999 8.6 85.3999 3.3 98.3999 8.6C111.9 14.1 121.8 26.9 126.1 40.6C130 53.4 122.4 66.3 120.3 79.6C118.1 93.4 123.2 109.8 113.3 119.9C103.4 130 86.6999 127.8 72.4999 128.1C59.9999 128.3 48.0999 125.9 36.4999 121.2C23.6999 116 8.39992 111.8 2.49992 99.5C-3.40008 87.2 2.49992 72.7 7.09992 59.8C11.0999 48.6 18.1999 39.2 26.8999 31C35.6999 22.8 45.5999 16.4 57.0999 12.8Z" fill="url(#paint1_linear)" fill-opacity="0.8"/>
<path d="M60.4 31.7C55.7 31.7 51 33.1 47.1 35.7C43.2 38.3 40.1 42.1 38.3 46.5C36.5 50.9 36 55.7 36.9 60.4C37.8 65.1 40.1 69.3 43.5 72.7C46.9 76.1 51.1 78.3 55.8 79.3C60.5 80.2 65.3 79.8 69.7 77.9C74.1 76.1 77.8 73 80.5 69.1C83.2 65.2 84.5 60.5 84.5 55.8C84.5 49.4 82 43.3 77.5 38.8C72.9 34.3 66.8 31.7 60.4 31.7ZM60.4 76.7C56.2 76.7 52.2 75.5 48.7 73.2C45.2 70.9 42.6 67.6 41 63.8C39.4 60 39 55.7 39.8 51.7C40.6 47.6 42.6 43.9 45.5 40.9C48.4 38 52.2 36 56.3 35.2C60.4 34.4 64.6 34.8 68.4 36.4C72.2 38 75.5 40.7 77.8 44.1C80.1 47.6 81.3 51.6 81.3 55.8C81.3 61.4 79.1 66.7 75.1 70.6C71.4 74.5 66 76.7 60.4 76.7Z" fill="white"/>
<path d="M66.2999 46.6L54.3999 58.4C53.4999 57.7 52.3999 57.3 51.2999 57.3C50.1999 57.3 49.0999 57.8 48.1999 58.6C47.3999 59.4 46.8999 60.6 46.8999 61.8C46.8999 63 47.3999 64.1 48.1999 65L51.1999 68C51.9999 68.8 53.1999 69.3 54.3999 69.3C55.5999 69.3 56.6999 68.8 57.5999 68L72.5999 53C73.3999 52.2 73.8999 51 73.8999 49.8C73.8999 48.6 73.3999 47.5 72.5999 46.7C71.7999 45.9 70.5999 45.4 69.4999 45.4C68.2999 45.3 67.0999 45.7 66.2999 46.6ZM70.4999 50.8L55.4999 65.8C55.1999 66.1 54.7999 66.2 54.3999 66.2C53.9999 66.2 53.5999 66 53.2999 65.8L50.2999 62.8C49.9999 62.5 49.8999 62.1 49.8999 61.7C49.8999 61.3 50.0999 60.9 50.2999 60.7C50.5999 60.4 50.9999 60.3 51.2999 60.3C51.6999 60.3 52.0999 60.4 52.3999 60.7L53.2999 61.6C53.5999 61.9 53.9999 62 54.3999 62C54.7999 62 55.1999 61.8 55.4999 61.6L68.3999 48.7C68.6999 48.4 69.0999 48.3 69.4999 48.3C69.8999 48.3 70.2999 48.5 70.4999 48.7C70.7999 49 70.8999 49.4 70.8999 49.7C70.8999 50.1 70.7999 50.5 70.4999 50.8Z" fill="white"/>
<path d="M92.6999 49.9L89.5999 48.7C88.8999 45.7 87.6999 42.8 86.0999 40.2L87.3999 37.1C87.6999 36.5 87.6999 35.9 87.6999 35.3C87.5999 34.7 87.3999 34.1 86.9999 33.6C86.4999 32.9 85.7999 32.2 84.9999 31.4C84.1999 30.6 83.4999 30 82.7999 29.4C82.2999 29 81.6999 28.7 81.0999 28.6C80.4999 28.5 79.7999 28.6 79.2999 28.9L75.9999 30.2C73.3999 28.6 70.4999 27.4 67.4999 26.7L66.2999 23.6C66.0999 23 65.6999 22.5 65.1999 22.1C64.6999 21.7 64.0999 21.5 63.4999 21.4C61.4999 21.2 59.4999 21.2 57.5999 21.4C56.9999 21.5 56.3999 21.7 55.8999 22.1C55.3999 22.5 54.9999 23 54.7999 23.6L53.5999 26.7C50.5999 27.4 47.6999 28.6 45.0999 30.2L41.9999 28.9C41.3999 28.6 40.7999 28.6 40.1999 28.6C39.5999 28.7 38.9999 28.9 38.4999 29.3C37.7999 29.8 37.0999 30.5 36.2999 31.3C35.4999 32.1 34.8999 32.8 34.2999 33.5C33.8999 34 33.5999 34.6 33.4999 35.2C33.3999 35.8 33.4999 36.5 33.7999 37L35.0999 40.1C33.4999 42.7 32.2999 45.6 31.5999 48.6L28.4999 49.8C27.8999 50 27.3999 50.4 26.9999 50.9C26.5999 51.4 26.3999 52 26.2999 52.6C26.0999 54.6 26.0999 56.6 26.2999 58.5C26.3999 59.1 26.5999 59.7 26.9999 60.2C27.3999 60.7 27.8999 61.1 28.4999 61.3L31.5999 62.5C32.2999 65.5 33.4999 68.4 35.0999 71L33.7999 74.1C33.4999 74.7 33.4999 75.3 33.4999 75.9C33.5999 76.5 33.7999 77.1 34.1999 77.6C34.6999 78.3 35.3999 79 36.1999 79.8C36.9999 80.6 37.6999 81.2 38.3999 81.8C38.4999 81.8 38.4999 81.9 38.5999 81.9L30.9999 99.3C30.6999 100 30.5999 100.8 30.6999 101.5C30.7999 102.3 30.9999 103 31.4999 103.6C31.8999 104.2 32.4999 104.8 33.1999 105.1C33.8999 105.5 34.5999 105.6 35.3999 105.6H41.7999C41.8999 105.6 41.9999 105.6 41.9999 105.6C42.0999 105.6 42.0999 105.7 42.1999 105.7L45.8999 109.3C46.3999 109.8 47.0999 110.2 47.7999 110.4C48.4999 110.6 49.2999 110.7 49.9999 110.5C50.6999 110.4 51.3999 110 51.9999 109.6C52.5999 109.1 53.0999 108.5 53.3999 107.8L60.6999 91.7L67.9999 107.8C68.2999 108.5 68.7999 109.1 69.3999 109.6C69.9999 110.1 70.6999 110.4 71.3999 110.5C71.6999 110.6 71.9999 110.6 72.2999 110.6C73.4999 110.6 74.6999 110.1 75.5999 109.2L79.2999 105.6C79.3999 105.5 79.5999 105.4 79.6999 105.4H86.0999C86.8999 105.4 87.5999 105.2 88.2999 104.8C88.9999 104.4 89.4999 103.9 89.9999 103.3C90.3999 102.7 90.6999 101.9 90.6999 101.2C90.7999 100.4 90.5999 99.7 90.2999 99L82.6999 81.6C82.7999 81.6 82.7999 81.5 82.8999 81.5C83.5999 81 84.1999 80.3 85.0999 79.5C85.8999 78.7 86.4999 78 87.0999 77.3C87.4999 76.8 87.7999 76.2 87.8999 75.6C87.9999 75 87.8999 74.3 87.5999 73.8L85.9999 71.3C87.5999 68.7 88.7999 65.8 89.4999 62.8L92.5999 61.6C93.1999 61.4 93.6999 61 94.0999 60.5C94.4999 60 94.6999 59.4 94.7999 58.8C94.8999 57.8 94.8999 56.8 94.8999 55.8C94.8999 54.8 94.8999 53.8 94.7999 52.8C94.6999 52.2 94.4999 51.6 94.0999 51.1C93.7999 50.5 93.2999 50.2 92.6999 49.9ZM50.3999 107.3C50.2999 107.5 50.0999 107.8 49.8999 107.9C49.6999 108.1 49.3999 108.2 49.1999 108.2C48.8999 108.2 48.6999 108.2 48.3999 108.2C48.0999 108.1 47.8999 108 47.6999 107.8L43.9999 104.2C43.2999 103.5 42.3999 103.1 41.3999 103.2H34.9999C34.6999 103.2 34.4999 103.1 34.1999 103C33.9999 102.9 33.7999 102.7 33.5999 102.5C33.4999 102.3 33.3999 102 33.2999 101.8C33.2999 101.5 33.2999 101.3 33.3999 101L41.2999 82.9C41.3999 82.9 41.4999 82.9 41.5999 82.8L44.6999 81.5C47.2999 83.1 50.1999 84.3 53.1999 85L54.3999 88.1C54.5999 88.7 54.9999 89.2 55.4999 89.6C55.9999 90 56.5999 90.2 57.1999 90.3C57.3999 90.3 57.6999 90.3 57.8999 90.3L50.3999 107.3ZM87.2999 100.8C87.3999 101 87.3999 101.3 87.3999 101.6C87.3999 101.9 87.2999 102.1 87.0999 102.3C86.9999 102.5 86.6999 102.7 86.4999 102.8C86.2999 102.9 85.9999 103 85.6999 103H79.2999C78.2999 103 77.3999 103.4 76.6999 104.1L72.9999 107.7C72.7999 107.9 72.5999 108 72.2999 108.1C71.9999 108.2 71.7999 108.2 71.4999 108.1C71.1999 108 70.9999 107.9 70.7999 107.8C70.5999 107.6 70.3999 107.4 70.2999 107.2L62.4999 90.1C62.6999 90.1 62.8999 90.1 63.1999 90.1C63.7999 90 64.3999 89.8 64.8999 89.4C65.3999 89 65.7999 88.5 65.9999 87.9L67.1999 84.8C70.1999 84.1 73.0999 82.9 75.6999 81.3L78.7999 82.6C78.8999 82.6 78.9999 82.7 79.0999 82.7L87.2999 100.8ZM91.7999 58.4C91.7999 58.5 91.7999 58.5 91.6999 58.6C91.6999 58.7 91.5999 58.7 91.4999 58.7L87.6999 60.2C87.4999 60.3 87.2999 60.4 87.0999 60.6C86.8999 60.8 86.7999 61 86.7999 61.3C86.0999 64.5 84.8999 67.6 83.0999 70.3C82.9999 70.5 82.8999 70.7 82.8999 71C82.8999 71.2 82.8999 71.5 82.9999 71.7L84.5999 75.5C84.5999 75.6 84.5999 75.6 84.5999 75.7C84.5999 75.8 84.5999 75.8 84.4999 75.9C83.9999 76.5 83.3999 77.1 82.6999 77.9C81.8999 78.7 81.2999 79.2 80.6999 79.7C80.5999 79.7 80.5999 79.8 80.4999 79.8C80.3999 79.8 80.3999 79.8 80.2999 79.8L76.4999 78.2C76.2999 78.1 75.9999 78.1 75.7999 78.1C75.5999 78.1 75.2999 78.2 75.0999 78.3C72.3999 80.1 69.2999 81.3 66.0999 82C65.8999 82.1 65.5999 82.2 65.3999 82.3C65.1999 82.5 65.0999 82.7 64.9999 82.9L63.4999 86.7C63.4999 86.8 63.3999 86.8 63.3999 86.9C63.2999 86.9 63.2999 87 63.1999 87C62.2999 87.1 61.3999 87.1 60.4999 87.1C59.5999 87.1 58.6999 87.1 57.7999 87C57.6999 87 57.6999 87 57.5999 86.9C57.4999 86.9 57.4999 86.8 57.4999 86.7L55.8999 83C55.7999 82.8 55.6999 82.6 55.4999 82.4C55.2999 82.2 55.0999 82.1 54.7999 82.1C51.5999 81.4 48.4999 80.2 45.7999 78.4C45.5999 78.2 45.2999 78.2 44.9999 78.2C44.7999 78.2 44.5999 78.2 44.3999 78.3L40.5999 79.9C40.4999 79.9 40.4999 79.9 40.3999 79.9C40.2999 79.9 40.2999 79.9 40.1999 79.8C39.5999 79.3 38.9999 78.7 38.1999 78C37.3999 77.2 36.8999 76.6 36.3999 76C36.3999 75.9 36.2999 75.9 36.2999 75.8C36.2999 75.7 36.2999 75.7 36.2999 75.6L37.8999 71.8C37.9999 71.6 37.9999 71.3 37.9999 71.1C37.9999 70.9 37.8999 70.6 37.7999 70.4C35.9999 67.7 34.6999 64.6 34.0999 61.4C33.9999 61.2 33.8999 60.9 33.7999 60.7C33.5999 60.5 33.3999 60.4 33.1999 60.3L29.3999 58.8C29.2999 58.8 29.2999 58.7 29.1999 58.7C29.1999 58.6 29.0999 58.6 29.0999 58.5C28.9999 57.6 28.9999 56.7 28.9999 55.7C28.9999 54.7 28.9999 53.8 29.0999 53C29.0999 52.9 29.0999 52.9 29.1999 52.8C29.1999 52.7 29.2999 52.7 29.3999 52.7L33.1999 51.2C33.3999 51.1 33.5999 51 33.7999 50.8C33.9999 50.6 34.0999 50.4 34.0999 50.1C34.7999 46.9 35.9999 43.8 37.7999 41.1C37.8999 40.9 37.9999 40.7 37.9999 40.4C37.9999 40.2 37.9999 39.9 37.8999 39.7L36.2999 35.9C36.2999 35.8 36.2999 35.8 36.2999 35.7C36.2999 35.6 36.2999 35.5 36.3999 35.5C36.8999 34.9 37.4999 34.3 38.1999 33.5C38.9999 32.7 39.5999 32.2 40.1999 31.7C40.2999 31.7 40.2999 31.6 40.3999 31.6C40.4999 31.6 40.4999 31.6 40.5999 31.6L44.3999 33.2C44.5999 33.3 44.8999 33.3 45.0999 33.3C45.2999 33.3 45.5999 33.2 45.7999 33.1C48.4999 31.3 51.5999 30 54.7999 29.4C54.9999 29.3 55.2999 29.2 55.4999 29.1C55.6999 28.9 55.7999 28.7 55.8999 28.5L57.3999 24.7C57.3999 24.6 57.4999 24.6 57.4999 24.5C57.5999 24.5 57.5999 24.4 57.6999 24.4C59.4999 24.2 61.2999 24.2 63.0999 24.4C63.1999 24.4 63.1999 24.4 63.2999 24.5C63.3999 24.5 63.3999 24.6 63.3999 24.7L64.8999 28.5C64.9999 28.7 65.0999 28.9 65.2999 29.1C65.4999 29.3 65.6999 29.4 65.9999 29.4C69.1999 30.1 72.2999 31.3 74.9999 33.1C75.1999 33.2 75.3999 33.3 75.6999 33.3C75.8999 33.3 76.1999 33.3 76.3999 33.2L80.1999 31.6C80.2999 31.6 80.2999 31.6 80.3999 31.6C80.4999 31.6 80.4999 31.6 80.5999 31.7C81.1999 32.2 81.7999 32.8 82.5999 33.5C83.3999 34.3 83.8999 34.9 84.3999 35.5C84.3999 35.6 84.4999 35.6 84.4999 35.7C84.4999 35.8 84.4999 35.8 84.4999 35.9L82.8999 39.7C82.7999 39.9 82.7999 40.2 82.7999 40.4C82.7999 40.6 82.8999 40.9 82.9999 41.1C84.7999 43.8 85.9999 46.9 86.6999 50.1C86.7999 50.3 86.8999 50.6 86.9999 50.8C87.1999 51 87.3999 51.1 87.5999 51.2L91.3999 52.7C91.4999 52.7 91.4999 52.8 91.5999 52.8C91.5999 52.9 91.6999 52.9 91.6999 53C91.7999 53.9 91.7999 54.8 91.7999 55.7C91.9999 56.6 91.8999 57.5 91.7999 58.4Z" fill="white"/>
</g>
<defs>
<linearGradient id="paint0_linear" x1="86.2869" y1="44.4229" x2="49.1999" y2="134.972" gradientUnits="userSpaceOnUse">
<stop stop-color="#FBB12E" stop-opacity="0.17"/>
<stop offset="1" stop-color="#D30823" stop-opacity="0.26"/>
</linearGradient>
<linearGradient id="paint1_linear" x1="31.2511" y1="31.3024" x2="113.128" y2="119.477" gradientUnits="userSpaceOnUse">
<stop stop-color="#FBB12E"/>
<stop offset="1" stop-color="#D30823"/>
</linearGradient>
<clipPath id="clip0">
<rect width="137.7" height="137.8" fill="white"/>
</clipPath>
</defs>
</svg>
