<svg width="138" height="138" viewBox="0 0 138 138" fill="none" xmlns="http://www.w3.org/2000/svg">
<g clip-path="url(#clip0)">
<path fill-rule="evenodd" clip-rule="evenodd" d="M12.9999 112.6C1.09994 95.3 1.19994 72.5 9.39994 51.6C17.6999 30.4 33.1999 9.9 55.9999 2.5C77.6999 -4.6 99.5999 4.3 116.1 16.8C129.9 27.2 132.2 44.6 134.4 61.6C136.8 80.2 142.4 100.4 129 115.9C114.5 132.7 90.4999 138.3 68.5999 137.7C46.2999 137.1 24.6999 129.5 12.9999 112.6Z" fill="url(#paint0_linear)" fill-opacity="0.8"/>
<path fill-rule="evenodd" clip-rule="evenodd" d="M57.0999 12.8C70.6999 8.6 85.3999 3.3 98.3999 8.6C111.9 14.1 121.8 26.9 126.1 40.6C130 53.4 122.4 66.3 120.3 79.6C118.1 93.4 123.2 109.8 113.3 119.9C103.4 130 86.6999 127.8 72.4999 128.1C59.9999 128.3 48.0999 125.9 36.4999 121.2C23.6999 116 8.39992 111.8 2.49992 99.5C-3.40008 87.2 2.49992 72.7 7.09992 59.8C11.0999 48.6 18.1999 39.2 26.8999 31C35.6999 22.8 45.5999 16.4 57.0999 12.8Z" fill="url(#paint1_linear)" fill-opacity="0.8"/>
<path d="M109.4 55.3L66.0999 36.8C65.6999 36.6 65.1999 36.6 64.6999 36.8L21.4999 55.3C20.8999 55.6 20.3999 56.2 20.3999 56.9C20.3999 57.6 20.7999 58.2 21.4999 58.5L34.1999 64V76.8C34.1999 80.7 37.5999 84.3 43.7999 86.9C49.4999 89.2 57.0999 90.5 65.0999 90.5C73.0999 90.5 80.6999 89.2 86.3999 86.9C92.5999 84.4 95.9999 80.8 95.9999 76.8V64.3L100.3 62.5V64.4C100.3 65.4 101.1 66.2 102.1 66.2C103.1 66.2 103.9 65.4 103.9 64.4V61L109.5 58.6C110.1 58.3 110.6 57.7 110.6 57C110.6 56.3 110 55.6 109.4 55.3ZM65.0999 87C48.8999 87 37.6999 81.6 37.6999 76.8V65.5L64.7999 77.1C64.9999 77.2 65.2999 77.2 65.4999 77.2C65.6999 77.2 65.9999 77.2 66.1999 77.1L92.5999 65.8V76.8C92.4999 81.6 81.2999 87 65.0999 87ZM65.3999 73.6L26.6999 56.9L65.4999 40.3L104.3 56.9L65.3999 73.6Z" fill="white"/>
<path d="M103.8 86.8V70.1C103.8 69.1 103 68.3 102 68.3C101 68.3 100.2 69.1 100.2 70.1V86.8C98.5 87.5 97.3 89.2 97.3 91.2C97.3 93.8 99.4 95.9 102 95.9C104.6 95.9 106.7 93.8 106.7 91.2C106.8 89.2 105.6 87.5 103.8 86.8ZM102.1 92.3C101.4 92.3 100.9 91.8 100.9 91.1C100.9 90.4 101.4 89.9 102.1 89.9C102.7 89.9 103.3 90.4 103.3 91.1C103.3 91.8 102.7 92.3 102.1 92.3Z" fill="white"/>
<path d="M62.8001 44.1L57.7001 46.3C56.8001 46.7 56.4001 47.7 56.8001 48.6C57.1001 49.3 57.7001 49.7 58.4001 49.7C58.6001 49.7 58.9001 49.7 59.1001 49.6L64.2001 47.4C65.1001 47 65.5001 46 65.1001 45.1C64.7001 44.1 63.7001 43.7 62.8001 44.1Z" fill="white"/>
<path d="M51.1999 49.1L37.4999 55.1C36.5999 55.5 36.1999 56.5 36.5999 57.4C36.8999 58.1 37.4999 58.5 38.1999 58.5C38.3999 58.5 38.6999 58.5 38.8999 58.4L52.5999 52.4C53.4999 52 53.8999 51 53.4999 50.1C53.0999 49.2 52.0999 48.7 51.1999 49.1Z" fill="white"/>
</g>
<defs>
<linearGradient id="paint0_linear" x1="86.2869" y1="44.4229" x2="49.1999" y2="134.972" gradientUnits="userSpaceOnUse">
<stop stop-color="#FBB12E" stop-opacity="0.17"/>
<stop offset="1" stop-color="#D30823" stop-opacity="0.26"/>
</linearGradient>
<linearGradient id="paint1_linear" x1="31.2511" y1="31.3024" x2="113.128" y2="119.477" gradientUnits="userSpaceOnUse">
<stop stop-color="#FBB12E"/>
<stop offset="1" stop-color="#D30823"/>
</linearGradient>
<clipPath id="clip0">
<rect width="137.7" height="137.8" fill="white"/>
</clipPath>
</defs>
</svg>
