<svg width="57" height="57" viewBox="0 0 57 57" fill="none" xmlns="http://www.w3.org/2000/svg">
<g clip-path="url(#clip0)">
<path d="M28.5001 6.6499C25.4938 6.6499 22.555 7.54137 20.0554 9.21156C17.5558 10.8818 15.6075 13.2557 14.4571 16.0331C13.3066 18.8106 13.0056 21.8668 13.5921 24.8153C14.1786 27.7638 15.6263 30.4722 17.752 32.5979C19.8778 34.7237 22.5862 36.1713 25.5347 36.7578C28.4832 37.3443 31.5394 37.0433 34.3168 35.8929C37.0943 34.7424 39.4682 32.7942 41.1384 30.2946C42.8086 27.7949 43.7001 24.8562 43.7001 21.8499C43.6953 17.8201 42.0923 13.9567 39.2428 11.1072C36.3933 8.25764 32.5299 6.65468 28.5001 6.6499ZM28.5001 35.1499C25.8696 35.1499 23.2981 34.3699 21.111 32.9084C18.9238 31.447 17.2191 29.3699 16.2125 26.9396C15.2058 24.5093 14.9424 21.8351 15.4556 19.2552C15.9688 16.6753 17.2355 14.3054 19.0955 12.4454C20.9556 10.5853 23.3254 9.31864 25.9054 8.80546C28.4853 8.29227 31.1595 8.55566 33.5897 9.5623C36.02 10.5689 38.0972 12.2736 39.5586 14.4608C41.02 16.648 41.8001 19.2194 41.8001 21.8499C41.7963 25.3761 40.3938 28.7568 37.9004 31.2503C35.407 33.7437 32.0263 35.1461 28.5001 35.1499Z" fill="white"/>
<path d="M32.1852 16.0349L24.7002 23.5228C24.1501 23.0533 23.4454 22.8048 22.7225 22.8255C21.9997 22.8463 21.3103 23.1347 20.7881 23.6349C20.2538 24.1693 19.9536 24.8941 19.9536 25.6498C19.9536 26.4056 20.2538 27.1303 20.7881 27.6648L22.6881 29.5648C23.2261 30.0927 23.9497 30.3885 24.7035 30.3885C25.4572 30.3885 26.1809 30.0927 26.7189 29.5648L36.2189 20.0648C36.7381 19.5273 37.0253 18.8074 37.0188 18.0601C37.0123 17.3128 36.7126 16.598 36.1842 16.0696C35.6558 15.5412 34.941 15.2415 34.1937 15.235C33.4464 15.2285 32.7265 15.5157 32.189 16.0349H32.1852ZM34.8718 18.7215L25.3718 28.2215C25.1912 28.3948 24.9505 28.4917 24.7002 28.4917C24.4498 28.4917 24.2091 28.3948 24.0285 28.2215L22.1285 26.3215C21.9555 26.1423 21.8597 25.9023 21.8619 25.6533C21.864 25.4042 21.9639 25.1659 22.1401 24.9898C22.3162 24.8136 22.5545 24.7137 22.8036 24.7115C23.0527 24.7094 23.2926 24.8051 23.4718 24.9782L24.0285 25.5349C24.2067 25.713 24.4482 25.813 24.7002 25.813C24.9521 25.813 25.1937 25.713 25.3718 25.5349L33.5285 17.3782C33.7077 17.2051 33.9477 17.1094 34.1967 17.1116C34.4458 17.1137 34.6841 17.2136 34.8602 17.3898C35.0364 17.5659 35.1363 17.8042 35.1384 18.0533C35.1406 18.3023 35.0449 18.5423 34.8718 18.7215Z" fill="white"/>
<path d="M48.9059 18.1716L46.9347 17.385C46.4746 15.476 45.7178 13.651 44.6917 11.9767L45.5258 10.0235C45.6888 9.65984 45.7465 9.25779 45.6924 8.86299C45.6383 8.46819 45.4746 8.09647 45.2199 7.79003C44.8732 7.37298 44.4751 6.93503 43.946 6.39163C43.4216 5.88053 42.9827 5.48248 42.5761 5.14523C42.2695 4.88727 41.8966 4.72051 41.5 4.66391C41.1033 4.60732 40.6987 4.66316 40.3322 4.82508L38.378 5.66013C36.7021 4.63462 34.8754 3.87871 32.9649 3.42003L32.1764 1.44593C32.0303 1.07758 31.7864 0.756107 31.471 0.5162C31.1555 0.276294 30.7806 0.127055 30.3866 0.0845807C29.1348 -0.0275425 27.8755 -0.0275425 26.6237 0.0845807C26.2274 0.125246 25.8497 0.273482 25.5316 0.513258C25.2135 0.753033 24.9669 1.07522 24.8187 1.44498L24.0349 3.42003C22.1259 3.88023 20.301 4.63709 18.6266 5.66298L16.6724 4.82413C16.3089 4.66116 15.907 4.60342 15.5124 4.6575C15.1177 4.71158 14.7462 4.87529 14.4399 5.13003C14.021 5.47678 13.5849 5.87578 13.0415 6.40303C12.5304 6.92743 12.1314 7.36633 11.7961 7.77293C11.537 8.07912 11.3694 8.45206 11.3124 8.84908C11.2555 9.24609 11.3115 9.65111 11.474 10.0178L12.3091 11.9719C11.2827 13.648 10.5252 15.4745 10.0642 17.385L8.09012 18.1745C7.72252 18.3212 7.40198 18.5656 7.16307 18.8812C6.92416 19.1968 6.77597 19.5716 6.73447 19.9652C6.62237 21.2164 6.62237 22.4751 6.73447 23.7263C6.77452 24.1228 6.92252 24.5007 7.16237 24.8189C7.40223 25.1372 7.72475 25.3836 8.09487 25.5313L10.0652 26.3188C10.5264 28.2276 11.2835 30.0525 12.3091 31.7272L11.475 33.6804C11.3127 34.0435 11.2552 34.4447 11.3091 34.8387C11.363 35.2328 11.5261 35.6039 11.7799 35.91C12.1267 36.329 12.5257 36.765 13.0539 37.3084C13.5773 37.8195 14.0162 38.2185 14.4228 38.5548C14.4561 38.5833 14.4969 38.5976 14.5321 38.6242L9.73647 49.6556C9.54884 50.1008 9.47428 50.5854 9.51944 51.0664C9.5646 51.5474 9.72808 52.0098 9.99529 52.4122C10.2625 52.8147 10.6252 53.1448 11.0509 53.3731C11.4767 53.6014 11.9523 53.7208 12.4354 53.7206H16.5109C16.5626 53.72 16.614 53.7297 16.6619 53.7491C16.7099 53.7685 16.7535 53.7973 16.7902 53.8337L19.1073 56.145C19.4444 56.4818 19.8584 56.7315 20.3136 56.8724C20.7689 57.0133 21.2515 57.0412 21.72 56.9538C22.1884 56.8663 22.6285 56.6661 23.0022 56.3704C23.3759 56.0748 23.672 55.6925 23.8649 55.2568L28.4999 45.0462L33.1302 55.2397C33.3204 55.6779 33.615 56.0629 33.9882 56.361C34.3615 56.659 34.8021 56.8612 35.2715 56.9497C35.4506 56.9837 35.6326 57.0005 35.8149 57C36.5919 57.0009 37.3374 56.6934 37.8878 56.145L40.2087 53.8337C40.283 53.7618 40.3827 53.7222 40.4861 53.7235H44.5616C45.0456 53.7237 45.522 53.6039 45.9484 53.3748C46.3748 53.1457 46.7377 52.8145 47.0047 52.4109C47.2717 52.0072 47.4345 51.5436 47.4785 51.0616C47.5225 50.5796 47.4463 50.0943 47.2567 49.6489L42.4583 38.6308C42.4906 38.6061 42.5305 38.5928 42.5618 38.5662C42.9789 38.2195 43.4168 37.8214 43.9602 37.2923C44.4713 36.7679 44.8694 36.329 45.2066 35.9224C45.4652 35.6161 45.6323 35.2432 45.6889 34.8464C45.7456 34.4496 45.6894 34.0449 45.5268 33.6785L44.6917 31.7243C45.7179 30.0497 46.4747 28.2244 46.9347 26.315L48.9088 25.5265C49.2764 25.3796 49.5969 25.1353 49.836 24.8197C50.075 24.5042 50.2235 24.1294 50.2654 23.7358C50.3257 23.1091 50.354 22.4796 50.3499 21.85C50.354 21.222 50.3258 20.5942 50.2654 19.969C50.2235 19.5742 50.0748 19.1982 49.8352 18.8815C49.5957 18.5649 49.2744 18.3194 48.9059 18.1716ZM22.1283 54.4797C22.0608 54.6341 21.9566 54.7696 21.8248 54.8745C21.693 54.9795 21.5375 55.0506 21.3719 55.0817C21.2063 55.1128 21.0356 55.1029 20.8747 55.053C20.7138 55.003 20.5675 54.9145 20.4487 54.7951L18.1335 52.4894C17.7015 52.0625 17.1183 51.8235 16.5109 51.8244H12.4354C12.2657 51.8252 12.0986 51.7835 11.9492 51.703C11.7998 51.6225 11.673 51.5058 11.5804 51.3637C11.4859 51.2252 11.4277 51.0652 11.4111 50.8984C11.3945 50.7316 11.4201 50.5633 11.4854 50.4089L16.4748 38.931C16.5404 38.9101 16.6069 38.9044 16.6715 38.8769L18.6256 38.0418C20.3003 39.0678 22.1256 39.8247 24.0349 40.2848L24.8234 42.2598C24.9706 42.6271 25.2151 42.9474 25.5306 43.1862C25.8461 43.4251 26.2207 43.5735 26.6142 43.6155C26.7538 43.6297 26.9049 43.6364 27.0502 43.6468L22.1283 54.4797ZM45.5135 50.3947C45.5792 50.551 45.6052 50.7213 45.5891 50.8901C45.573 51.059 45.5154 51.2212 45.4213 51.3624C45.3272 51.5035 45.1996 51.6192 45.0499 51.699C44.9002 51.7788 44.7331 51.8202 44.5635 51.8197H40.4889C39.8841 51.8205 39.3039 52.0594 38.8739 52.4847L36.554 54.7951C36.434 54.9147 36.2865 55.003 36.1244 55.0523C35.9623 55.1015 35.7905 55.1103 35.6243 55.0778C35.458 55.0452 35.3022 54.9724 35.1707 54.8656C35.0391 54.7589 34.9358 54.6214 34.8697 54.4654L29.9553 43.6449C30.0969 43.6345 30.2403 43.6288 30.3809 43.6145C30.7772 43.5739 31.1548 43.4256 31.473 43.1859C31.7911 42.9461 32.0377 42.6239 32.1859 42.2541L32.9735 40.2829C34.8825 39.8228 36.7075 39.066 38.3818 38.0399L40.335 38.874C40.3958 38.9006 40.4604 38.9054 40.525 38.9263L45.5135 50.3947ZM48.3739 23.56C48.3654 23.6065 48.3449 23.65 48.3147 23.6863C48.2844 23.7226 48.2452 23.7504 48.201 23.7671L45.7671 24.7399C45.6222 24.7982 45.4938 24.8911 45.3931 25.0105C45.2924 25.1299 45.2225 25.2722 45.1895 25.4249C44.7575 27.4536 43.9564 29.3857 42.8259 31.1249C42.7412 31.2556 42.69 31.4052 42.6768 31.5605C42.6635 31.7157 42.6886 31.8718 42.7499 32.015L43.7807 34.429C43.8019 34.4728 43.8106 34.5217 43.8058 34.5702C43.8009 34.6186 43.7827 34.6648 43.7531 34.7035C43.4415 35.0835 43.0748 35.4844 42.6131 35.9528C42.1267 36.4278 41.7239 36.7945 41.3354 37.1146C41.2967 37.1408 41.2518 37.1562 41.2053 37.1594C41.1587 37.1626 41.1121 37.1534 41.0703 37.1327L38.6649 36.1C38.5217 36.039 38.3658 36.0142 38.2107 36.0276C38.0557 36.041 37.9063 36.0923 37.7757 36.177C36.0366 37.3074 34.1045 38.1086 32.0757 38.5406C31.923 38.5736 31.7808 38.6434 31.6614 38.7441C31.542 38.8448 31.449 38.9733 31.3908 39.1182L30.4189 41.5492C30.4015 41.5956 30.3719 41.6364 30.3333 41.6675C30.2947 41.6986 30.2485 41.7188 30.1995 41.7259C29.6365 41.7792 29.0711 41.8039 28.5056 41.8H28.4942C27.9261 41.8033 27.3583 41.778 26.7928 41.724C26.7463 41.7154 26.7029 41.6949 26.6666 41.6647C26.6303 41.6344 26.6025 41.5953 26.5857 41.5511L25.6129 39.1172C25.5551 38.9722 25.4625 38.8436 25.3432 38.7428C25.2239 38.6421 25.0816 38.5723 24.9289 38.5396C22.8999 38.1082 20.9678 37.3069 19.2289 36.176C19.075 36.0762 18.8955 36.0231 18.7121 36.0231C18.5824 36.0226 18.454 36.0488 18.3349 36.1L15.921 37.1308C15.8775 37.1527 15.8286 37.1618 15.7801 37.1569C15.7317 37.1521 15.6856 37.1334 15.6474 37.1032C15.2674 36.7907 14.8665 36.424 14.3981 35.9632C13.9231 35.4778 13.5583 35.0759 13.2353 34.6855C13.2092 34.647 13.1939 34.6022 13.1908 34.5558C13.1878 34.5093 13.1973 34.4629 13.2182 34.4214L14.2499 32.015C14.3109 31.8719 14.3358 31.7159 14.3224 31.5608C14.3089 31.4058 14.2576 31.2564 14.173 31.1258C13.0422 29.3867 12.2407 27.4547 11.8084 25.4258C11.776 25.2731 11.7064 25.1306 11.6058 25.0112C11.5053 24.8917 11.3768 24.7989 11.2318 24.7409L8.80167 23.7662C8.75572 23.748 8.71528 23.7183 8.6843 23.6798C8.65333 23.6413 8.63288 23.5955 8.62497 23.5467C8.57462 23.0423 8.54992 22.4875 8.54992 21.85C8.54992 21.2126 8.57462 20.6578 8.62592 20.14C8.63479 20.0938 8.65534 20.0506 8.68559 20.0145C8.71585 19.9784 8.75483 19.9507 8.79882 19.9339L11.2327 18.9611C11.3777 18.9031 11.5062 18.8103 11.6068 18.6908C11.7074 18.5713 11.777 18.4289 11.8094 18.2761C12.2417 16.2473 13.0432 14.3152 14.1739 12.5761C14.2588 12.4453 14.3101 12.2955 14.3233 12.1401C14.3366 11.9847 14.3114 11.8284 14.2499 11.685L13.2211 9.27488C13.1996 9.23094 13.1908 9.18188 13.1957 9.13321C13.2005 9.08455 13.2189 9.03821 13.2486 8.99938C13.5612 8.61938 13.9269 8.21943 14.3886 7.75013C14.8741 7.27513 15.2769 6.91033 15.6673 6.58828C15.7055 6.56178 15.7501 6.54618 15.7965 6.54317C15.8429 6.54015 15.8892 6.54984 15.9305 6.57118L18.3349 7.60003C18.4782 7.66118 18.6344 7.68615 18.7896 7.67273C18.9448 7.65931 19.0944 7.60792 19.2251 7.52308C20.964 6.39217 22.8961 5.59096 24.9251 5.15948C25.0778 5.12683 25.2201 5.05705 25.3394 4.9563C25.4587 4.85556 25.5513 4.72696 25.6091 4.58188L26.58 2.15178C26.5975 2.10522 26.6272 2.0642 26.666 2.03296C26.7047 2.00173 26.7511 1.98142 26.8004 1.97413C27.9324 1.87343 29.0712 1.87343 30.2033 1.97413C30.2497 1.98269 30.2932 2.0031 30.3295 2.03339C30.3658 2.06368 30.3936 2.10282 30.4104 2.14703L31.3832 4.58093C31.4414 4.72585 31.5344 4.85428 31.6538 4.95497C31.7732 5.05567 31.9154 5.12556 32.0681 5.15853C34.0969 5.5905 36.029 6.39168 37.7681 7.52213C37.8995 7.60825 38.0502 7.66045 38.2067 7.67404C38.3632 7.68764 38.5206 7.66221 38.6649 7.60003L41.0789 6.56928C41.1227 6.54801 41.1716 6.53932 41.22 6.54419C41.2685 6.54905 41.3147 6.56727 41.3534 6.59683C41.7334 6.90843 42.1343 7.27513 42.6027 7.73683C43.0777 8.22323 43.4444 8.62603 43.7645 9.01458C43.7911 9.05303 43.8069 9.09796 43.8101 9.14462C43.8132 9.19128 43.8037 9.23793 43.7826 9.27963L42.7499 11.685C42.6889 11.8282 42.664 11.9842 42.6775 12.1392C42.6909 12.2943 42.7422 12.4437 42.8269 12.5742C43.9573 14.3134 44.7585 16.2455 45.1905 18.2742C45.2234 18.4269 45.2933 18.5692 45.394 18.6886C45.4947 18.808 45.6231 18.9009 45.7681 18.9592L48.1991 19.931C48.2439 19.9475 48.2837 19.9753 48.3145 20.0118C48.3453 20.0483 48.3661 20.0921 48.3749 20.1391V20.1505C48.4289 20.7153 48.4539 21.2826 48.4499 21.85C48.4538 22.421 48.4285 22.9917 48.3739 23.56Z" fill="white"/>
</g>
<defs>
<clipPath id="clip0">
<rect width="57" height="57" fill="white"/>
</clipPath>
</defs>
</svg>
