<svg width="57" height="57" viewBox="0 0 57 57" fill="none" xmlns="http://www.w3.org/2000/svg">
<g clip-path="url(#clip0)">
<path d="M53.1999 11.3999C51.1041 11.3999 49.3999 13.1042 49.3999 15.1999C49.3999 17.2955 51.1042 18.9998 53.1999 18.9998C55.2955 18.9998 56.9998 17.2956 56.9998 15.1999C56.9998 13.1042 55.2955 11.3999 53.1999 11.3999ZM53.1999 17.0999C52.152 17.0999 51.2998 16.2478 51.2998 15.1999C51.2998 14.152 52.1519 13.2998 53.1999 13.2998C54.2478 13.2998 55.0999 14.1519 55.0999 15.1999C55.0998 16.2478 54.2477 17.0999 53.1999 17.0999Z" fill="white"/>
<path d="M3.79996 42.75C1.70432 42.75 0 44.4543 0 46.55C0 48.6456 1.70432 50.3499 3.79996 50.3499C5.89571 50.3499 7.59993 48.6456 7.59993 46.55C7.59993 44.4543 5.89571 42.75 3.79996 42.75ZM3.79996 48.45C2.75214 48.45 1.89993 47.5979 1.89993 46.55C1.89993 45.502 2.75203 44.6499 3.79996 44.6499C4.84778 44.6499 5.7 45.502 5.7 46.55C5.7 47.5979 4.84789 48.45 3.79996 48.45Z" fill="white"/>
<path d="M51.3583 12.6008L43.1626 8.64407C42.6895 8.41507 42.1224 8.61457 41.8944 9.08683C41.6664 9.55897 41.8649 10.1271 42.3371 10.3551L50.5328 14.3118C50.6658 14.3764 50.8064 14.4068 50.945 14.4068C51.2984 14.4068 51.6376 14.2091 51.8009 13.869C52.0289 13.3969 51.8304 12.8288 51.3583 12.6008Z" fill="white"/>
<path d="M42.7497 49.3999C40.6539 49.3999 38.9497 51.1042 38.9497 53.1999C38.9497 55.2955 40.6539 56.9999 42.7497 56.9999C44.8454 56.9999 46.5496 55.2956 46.5496 53.2C46.5496 51.1043 44.8454 49.3999 42.7497 49.3999ZM42.7497 55.0999C41.7018 55.0999 40.8496 54.2478 40.8496 53.1999C40.8496 52.1519 41.7018 51.2999 42.7497 51.2999C43.7975 51.2999 44.6497 52.152 44.6497 53.2C44.6497 54.2479 43.7975 55.0999 42.7497 55.0999Z" fill="white"/>
<path d="M40.9081 50.6009L32.7124 46.6442C32.2393 46.4152 31.6722 46.6138 31.4442 47.087C31.2162 47.5591 31.4147 48.1272 31.8869 48.3552L40.0826 52.3119C40.2156 52.3765 40.3562 52.4069 40.4948 52.4069C40.8482 52.4069 41.1874 52.2093 41.3508 51.8692C41.5787 51.3969 41.3802 50.8289 40.9081 50.6009Z" fill="white"/>
<path d="M28.4997 25.6499C26.4039 25.6499 24.6997 27.3542 24.6997 29.4499C24.6997 31.5456 26.404 33.2498 28.4997 33.2498C30.5954 33.2498 32.2996 31.5455 32.2996 29.4499C32.2996 27.3542 30.5954 25.6499 28.4997 25.6499ZM28.4997 31.3499C27.4518 31.3499 26.5996 30.4978 26.5996 29.4499C26.5996 28.402 27.4517 27.5498 28.4997 27.5498C29.5475 27.5498 30.3997 28.4019 30.3997 29.4499C30.3997 30.4978 29.5475 31.3499 28.4997 31.3499Z" fill="white"/>
<path d="M26.8296 26.9572L20.534 22.0505C20.1198 21.7303 19.5233 21.8015 19.2002 22.2158C18.8781 22.63 18.9513 23.2265 19.3655 23.5496L25.6611 28.4564C25.835 28.5913 26.0402 28.6569 26.2445 28.6569C26.5276 28.6569 26.8069 28.5315 26.9949 28.2912C27.317 27.8768 27.2439 27.2802 26.8296 26.9572Z" fill="white"/>
<path d="M45.5999 24.7C39.8382 24.7 35.1499 29.3882 35.1499 35.15C35.1499 40.9118 39.8382 45.6 45.5999 45.6C51.3617 45.6 56.05 40.9118 56.05 35.15C56.05 29.3882 51.3617 24.7 45.5999 24.7ZM45.5999 43.6999C40.8851 43.6999 37.0499 39.8647 37.0499 35.1499C37.0499 30.435 40.8851 26.5999 45.5999 26.5999C50.3148 26.5999 54.1499 30.435 54.1499 35.1499C54.1499 39.8647 50.3148 43.6999 45.5999 43.6999Z" fill="white"/>
<path d="M45.6003 28.5C43.5045 28.5 41.8003 30.2043 41.8003 32.3C41.8003 34.3957 43.5046 36.0999 45.6003 36.0999C47.696 36.0999 49.4002 34.3956 49.4002 32.3C49.4002 30.2043 47.696 28.5 45.6003 28.5ZM45.6003 34.2C44.5524 34.2 43.7002 33.3479 43.7002 32.3C43.7002 31.2521 44.5523 30.3999 45.6003 30.3999C46.6481 30.3999 47.5003 31.252 47.5003 32.3C47.5003 33.3479 46.6481 34.2 45.6003 34.2Z" fill="white"/>
<path d="M48.3558 38H42.844C41.2205 38 39.8999 39.2854 39.8999 40.8642V43.3685C39.8999 43.7076 40.0804 44.0211 40.3739 44.1912C41.9662 45.1126 43.773 45.6 45.5999 45.6C47.4268 45.6 49.2337 45.1126 50.8259 44.1912C51.1194 44.0221 51.2999 43.7076 51.2999 43.3695V40.8653C51.2999 39.2854 49.9794 38 48.3558 38ZM49.3999 42.8022C47.0354 43.9802 44.1644 43.9802 41.7998 42.8022V40.8653C41.7998 40.3332 42.2682 39.9 42.8439 39.9H48.3557C48.9314 39.9 49.3998 40.3332 49.3998 40.8653V42.8022H49.3999Z" fill="white"/>
<path d="M22.8001 36.1001C17.0383 36.1001 12.3501 40.7883 12.3501 46.5501C12.3501 52.3119 17.0383 57 22.8001 57C28.5619 57 33.2502 52.3118 33.2502 46.55C33.2502 40.7882 28.5619 36.1001 22.8001 36.1001ZM22.8001 55.1C18.0853 55.1 14.2501 51.2649 14.2501 46.55C14.2501 41.8352 18.0853 38 22.8001 38C27.515 38 31.3501 41.8352 31.3501 46.55C31.3501 51.2649 27.515 55.1 22.8001 55.1Z" fill="white"/>
<path d="M22.8 39.9001C20.7042 39.9001 19 41.6045 19 43.7001C19 45.7959 20.7043 47.5001 22.8 47.5001C24.8956 47.5001 26.5999 45.7957 26.5999 43.7001C26.5999 41.6045 24.8957 39.9001 22.8 39.9001ZM22.8 45.6001C21.7521 45.6001 20.8999 44.748 20.8999 43.7001C20.8999 42.6523 21.752 41.8001 22.8 41.8001C23.8478 41.8001 24.7 42.6522 24.7 43.7001C24.7 44.748 23.8478 45.6001 22.8 45.6001Z" fill="white"/>
<path d="M25.556 49.3999H20.0442C18.4207 49.3999 17.1001 50.6853 17.1001 52.2642V54.7684C17.1001 55.1075 17.2806 55.421 17.5741 55.5911C19.1663 56.5125 20.9732 56.9999 22.8001 56.9999C24.627 56.9999 26.4338 56.5125 28.0261 55.5911C28.3196 55.422 28.5001 55.1076 28.5001 54.7694V52.2652C28.5001 50.6853 27.1796 49.3999 25.556 49.3999ZM26.6001 54.2022C24.2355 55.3801 21.3646 55.3801 19 54.2022V52.2652C19 51.7331 19.4684 51.2999 20.0441 51.2999H25.5559C26.1316 51.2999 26.6 51.7331 26.6 52.2652V54.2022H26.6001Z" fill="white"/>
<path d="M10.45 12.3499C4.68825 12.3499 0 17.0381 0 22.7999C0 28.5617 4.68825 33.2499 10.45 33.2499C16.2118 33.2499 20.9001 28.5617 20.9001 22.7999C20.9 17.0381 16.2117 12.3499 10.45 12.3499ZM10.45 31.3499C5.73518 31.3499 1.90004 27.5147 1.90004 22.7999C1.90004 18.085 5.73518 14.2499 10.45 14.2499C15.1649 14.2499 19 18.085 19 22.7999C19 27.5147 15.1649 31.3499 10.45 31.3499Z" fill="white"/>
<path d="M10.4499 16.1501C8.35411 16.1501 6.6499 17.8545 6.6499 19.9501C6.6499 22.0458 8.35422 23.7501 10.4499 23.7501C12.5456 23.7501 14.2498 22.0458 14.2498 19.9501C14.2498 17.8545 12.5455 16.1501 10.4499 16.1501ZM10.4499 21.8501C9.40204 21.8501 8.54983 20.998 8.54983 19.9501C8.54983 18.9022 9.40193 18.0501 10.4499 18.0501C11.4977 18.0501 12.3499 18.9022 12.3499 19.9501C12.3499 20.998 11.4977 21.8501 10.4499 21.8501Z" fill="white"/>
<path d="M13.2059 25.6499H7.69407C6.07057 25.6499 4.75 26.9353 4.75 28.5142V31.0184C4.75 31.3575 4.93046 31.671 5.22404 31.8411C6.81625 32.7625 8.62311 33.2499 10.45 33.2499C12.2769 33.2499 14.0838 32.7625 15.676 31.8411C15.9695 31.672 16.15 31.3575 16.15 31.0194V28.5152C16.15 26.9353 14.8294 25.6499 13.2059 25.6499ZM14.25 30.4522C11.8855 31.6301 9.01454 31.6301 6.64993 30.4522V28.5152C6.64993 27.9831 7.11828 27.5499 7.69396 27.5499H13.2058C13.7815 27.5499 14.2499 27.9831 14.2499 28.5152V30.4522H14.25Z" fill="white"/>
<path d="M33.2498 0C27.4881 0 22.7998 4.68825 22.7998 10.45C22.7998 16.2118 27.4881 20.9001 33.2498 20.9001C39.0116 20.9001 43.6999 16.2118 43.6999 10.45C43.6998 4.68825 39.0115 0 33.2498 0ZM33.2498 19C28.535 19 24.6998 15.1649 24.6998 10.45C24.6998 5.73518 28.535 1.90004 33.2498 1.90004C37.9647 1.90004 41.7998 5.73518 41.7998 10.45C41.7998 15.1649 37.9647 19 33.2498 19Z" fill="white"/>
<path d="M33.2502 3.80005C31.1544 3.80005 29.4502 5.50437 29.4502 7.60001C29.4502 9.69565 31.1545 11.4 33.2502 11.4C35.3458 11.4 37.0501 9.69576 37.0501 7.60012C37.0501 5.50448 35.3458 3.80005 33.2502 3.80005ZM33.2502 9.50005C32.2023 9.50005 31.3501 8.64794 31.3501 7.60001C31.3501 6.55219 32.2022 5.69997 33.2502 5.69997C34.2981 5.69997 35.1502 6.55208 35.1502 7.60001C35.1501 8.64794 34.298 9.50005 33.2502 9.50005Z" fill="white"/>
<path d="M36.0062 13.3H30.4944C28.8709 13.3 27.5503 14.5854 27.5503 16.1643V18.6685C27.5503 19.0076 27.7308 19.3211 28.0243 19.4912C29.6165 20.4127 31.4234 20.9001 33.2503 20.9001C35.0772 20.9001 36.884 20.4127 38.4763 19.4912C38.7698 19.3221 38.9503 19.0076 38.9503 18.6695V16.1653C38.9503 14.5853 37.6297 13.3 36.0062 13.3ZM37.0502 18.1023C34.6858 19.2803 31.8148 19.2803 29.4502 18.1023V16.1653C29.4502 15.6333 29.9186 15.2001 30.4943 15.2001H36.0061C36.5818 15.2001 37.0501 15.6333 37.0501 16.1653V18.1023H37.0502Z" fill="white"/>
<path d="M24.4729 9.83149C24.1319 9.43438 23.5324 9.38685 23.1334 9.72796L16.5499 15.3615C16.1509 15.7025 16.1044 16.302 16.4454 16.701C16.6335 16.9204 16.8995 17.0335 17.1674 17.0335C17.3859 17.0335 17.6053 16.9585 17.7849 16.8045L24.3684 11.171C24.7675 10.83 24.8141 10.2305 24.4729 9.83149Z" fill="white"/>
<path d="M45.41 25.081L39.71 17.4809C39.3955 17.0601 38.7999 16.9774 38.38 17.2909C37.96 17.6054 37.8755 18.201 38.1899 18.6199L43.8899 26.22C44.0771 26.4689 44.3621 26.5999 44.6509 26.5999C44.8485 26.5999 45.049 26.5381 45.22 26.4099C45.6399 26.0955 45.7245 25.4999 45.41 25.081Z" fill="white"/>
<path d="M37.6134 38.2916C37.2989 37.8717 36.7032 37.7872 36.2833 38.1015L30.9766 42.0811C30.5567 42.3956 30.4722 42.9912 30.7866 43.4101C30.9737 43.659 31.2587 43.7901 31.5475 43.7901C31.746 43.7901 31.9455 43.7274 32.1166 43.6L37.4233 39.6205C37.8432 39.3062 37.9279 38.7105 37.6134 38.2916Z" fill="white"/>
<path d="M13.3002 45.5999H6.65016C6.1258 45.5999 5.7002 46.0245 5.7002 46.5498C5.7002 47.0752 6.1258 47.4998 6.65016 47.4998H13.3001C13.8245 47.4998 14.2501 47.0752 14.2501 46.5498C14.2501 46.0245 13.8246 45.5999 13.3002 45.5999Z" fill="white"/>
<path d="M10.45 0C8.35422 0 6.6499 1.70432 6.6499 3.79996C6.6499 5.89571 8.35422 7.59993 10.4499 7.59993C12.5456 7.59993 14.2498 5.8956 14.2498 3.79996C14.2499 1.70432 12.5456 0 10.45 0ZM10.45 5.7C9.40216 5.7 8.54994 4.84789 8.54994 3.79996C8.54994 2.75214 9.40204 1.89993 10.45 1.89993C11.4978 1.89993 12.35 2.75203 12.35 3.79996C12.3499 4.84789 11.4978 5.7 10.45 5.7Z" fill="white"/>
<path d="M10.45 5.69995C9.92561 5.69995 9.5 6.12456 9.5 6.64991V13.2999C9.5 13.8252 9.92561 14.2498 10.45 14.2498C10.9743 14.2498 11.3999 13.8252 11.3999 13.2999V6.64991C11.3999 6.12456 10.9743 5.69995 10.45 5.69995Z" fill="white"/>
</g>
<defs>
<clipPath id="clip0">
<rect width="57" height="57" fill="white"/>
</clipPath>
</defs>
</svg>
