<svg width="57" height="57" viewBox="0 0 57 57" fill="none" xmlns="http://www.w3.org/2000/svg">
<path d="M5.51611 18.3872H9.19353V20.2259H5.51611V18.3872Z" fill="white"/>
<path d="M54.2419 14.7097C55.7624 14.7097 57 13.472 57 11.9516V2.75806C57 1.23763 55.7624 0 54.2419 0H41.371C39.8505 0 38.6129 1.23763 38.6129 2.75806V11.9516C38.6129 13.472 39.8505 14.7097 41.371 14.7097H44.129V16.5484H42.2903V18.3871H46.8871V27.5806H43.093C42.3595 26.8646 41.4563 26.3165 40.4453 26.0149C40.4498 25.9219 40.4516 25.8322 40.4516 25.7419C40.4516 21.6865 37.1522 18.3871 33.0968 18.3871C30.5807 18.3871 28.2419 19.6961 26.9024 21.7898C25.9588 21.366 24.9384 21.1452 23.9032 21.1452C20.852 21.1452 18.1047 23.0683 17.0301 25.8892C16.3316 26.0391 15.6807 26.3076 15.0894 26.6613H8.27419V23.9032H11.9516C13.472 23.9032 14.7097 22.6656 14.7097 21.1452V2.75806C14.7097 1.23763 13.472 0 11.9516 0H2.75806C1.23763 0 0 1.23763 0 2.75806V21.1452C0 22.6656 1.23763 23.9032 2.75806 23.9032H6.43548V28.5H13.134C12.743 29.058 12.4396 29.6739 12.2403 30.3387H8.27419V40.4516H4.59677C3.07634 40.4516 1.83871 41.6892 1.83871 43.2097V51.4839H0V54.2419C0 55.7624 1.23763 57 2.75806 57H17.4677C18.9882 57 20.2258 55.7624 20.2258 54.2419V51.4839H18.3871V43.2097C18.3871 41.6892 17.1495 40.4516 15.629 40.4516H10.1129V32.1774H11.9516C11.9516 35.7251 14.8394 38.6129 18.3871 38.6129H38.6129C41.8482 38.6129 44.5263 36.2099 44.9748 33.0968H48.7258V40.4516H42.2903V57H57V40.4516H50.5645V31.2581H44.9712C44.8756 30.6107 44.6771 29.9949 44.3993 29.4194H48.7258V18.3871H53.3226V16.5484H51.4839V14.7097H54.2419ZM12.871 14.7097H1.83871V5.51613H12.871V14.7097ZM2.75806 1.83871H11.9516C12.4589 1.83871 12.871 2.2508 12.871 2.75806V3.67742H1.83871V2.75806C1.83871 2.2508 2.2508 1.83871 2.75806 1.83871ZM1.83871 21.1452V16.5484H12.871V21.1452C12.871 21.6524 12.4589 22.0645 11.9516 22.0645H2.75806C2.2508 22.0645 1.83871 21.6524 1.83871 21.1452ZM18.3871 54.2419C18.3871 54.7492 17.975 55.1613 17.4677 55.1613H2.75806C2.2508 55.1613 1.83871 54.7492 1.83871 54.2419V53.3226H18.3871V54.2419ZM16.5484 43.2097V51.4839H3.67742V43.2097C3.67742 42.7024 4.08951 42.2903 4.59677 42.2903H15.629C16.1363 42.2903 16.5484 42.7024 16.5484 43.2097ZM44.129 55.1613V49.6452H55.1613V55.1613H44.129ZM55.1613 47.8065H44.129V42.2903H55.1613V47.8065ZM38.6129 36.7742H18.3871C15.8526 36.7742 13.7903 34.7119 13.7903 32.1774C13.7903 29.8534 15.5298 27.8931 17.8354 27.6175L18.4387 27.5447L18.6089 26.9612C19.2889 24.6192 21.467 22.9839 23.9032 22.9839C24.9182 22.9839 25.9148 23.2689 26.7883 23.8067L27.6659 24.3481L28.1036 23.413C29.0086 21.476 30.9685 20.2258 33.0968 20.2258C36.139 20.2258 38.6129 22.6997 38.6129 25.7419C38.6129 25.9956 38.59 26.2658 38.5402 26.5922L38.4015 27.5016L39.3105 27.6395C41.5335 27.9788 43.2097 29.9298 43.2097 32.1774C43.2097 34.7119 41.1474 36.7742 38.6129 36.7742ZM41.371 1.83871H54.2419C54.7492 1.83871 55.1613 2.2508 55.1613 2.75806V9.19355H40.4516V2.75806C40.4516 2.2508 40.8637 1.83871 41.371 1.83871ZM40.4516 11.9516V11.0323H55.1613V11.9516C55.1613 12.4589 54.7492 12.871 54.2419 12.871H41.371C40.8637 12.871 40.4516 12.4589 40.4516 11.9516ZM49.6452 16.5484H45.9677V14.7097H49.6452V16.5484Z" fill="white"/>
<path d="M45.9678 44.1289H47.8065V45.9676H45.9678V44.1289Z" fill="white"/>
<path d="M51.4839 51.4839H53.3226V53.3226H51.4839V51.4839Z" fill="white"/>
<path d="M49.645 44.1289H53.3224V45.9676H49.645V44.1289Z" fill="white"/>
<path d="M45.9678 51.4839H49.6452V53.3226H45.9678V51.4839Z" fill="white"/>
</svg>
