<svg width="57" height="57" viewBox="0 0 57 57" fill="none" xmlns="http://www.w3.org/2000/svg">
<g clip-path="url(#clip0)">
<path d="M43.6913 27.5612C43.6913 26.5947 43.2698 25.7249 42.6011 25.1256C44.0324 23.8402 44.0343 21.5287 42.6011 20.2444C44.0322 18.9592 44.0344 16.6481 42.6016 15.3637C44.6409 13.5355 43.569 10.0197 40.8343 9.67302V3.34887C40.8343 1.50229 39.3321 0 37.4856 0H26.9004C25.8203 0 25.8203 1.67082 26.9004 1.67082H37.4856C38.4109 1.67082 39.1635 2.42369 39.1635 3.34887V3.79097H18.5367V3.34887C18.5367 2.42346 19.2896 1.67082 20.2148 1.67082H22.3352C23.4153 1.67082 23.4153 0 22.3352 0H20.2148C18.3682 0 16.8659 1.50229 16.8659 3.34887V15.5786C14.5916 14.1291 11.5181 15.8429 11.5181 18.5327V38.1223L9.95387 39.6937C8.25454 38.8999 6.15399 39.2793 4.83304 40.6064C3.06933 42.378 3.06933 45.2607 4.83304 47.0324L10.0038 52.2268C10.7658 52.9924 11.9498 51.8137 11.1879 51.0481L6.0172 45.8537C4.90054 44.732 4.90054 42.9068 6.0172 41.7851C7.11593 40.6814 8.97299 40.6874 10.0656 41.7851L18.6898 50.4487C19.8062 51.5704 19.8062 53.3956 18.6898 54.5173C17.4131 55.7999 15.428 55.5058 14.3141 54.1886C13.552 53.4229 12.3681 54.6018 13.13 55.3673C17.1111 59.576 23.4245 54.8831 20.4258 49.9418L21.9308 48.4298C26.452 48.7748 30.8417 46.2789 32.8697 42.2203H37.4856C39.3321 42.2203 40.8343 40.718 40.8343 38.8714V30.8166C42.4432 30.6127 43.6913 29.2346 43.6913 27.5612ZM42.0205 27.5723C42.0205 28.4543 41.3029 29.1719 40.4209 29.1719H38.9622C36.8381 29.0833 36.8383 26.0498 38.9622 25.9615H40.4209C41.3028 25.9615 42.0205 26.6791 42.0205 27.5723ZM42.0205 22.691C42.0205 23.5731 41.3029 24.2907 40.4209 24.2907H38.9622C36.8381 24.2021 36.8383 21.1686 38.9622 21.0802H40.4209C41.3028 21.0802 42.0205 21.7978 42.0205 22.691ZM42.0205 17.8098C42.0205 18.6919 41.3029 19.4094 40.4209 19.4094H38.9622C36.8381 19.3209 36.8383 16.2873 38.9622 16.199H40.4209C41.3028 16.199 42.0205 16.9166 42.0205 17.8098ZM42.0205 12.9173C41.9921 13.7724 41.3046 14.5282 40.4209 14.5282H38.9622C36.8382 14.4398 36.8383 11.4061 38.9622 11.3178H40.4209C41.3028 11.3177 42.0205 12.0353 42.0205 12.9173ZM39.1635 5.46179V9.64685C36.0544 9.49436 34.4968 13.3042 36.7814 15.3635C35.3364 16.6179 35.3369 18.9908 36.7814 20.2447C35.3364 21.4992 35.3369 23.8721 36.7814 25.126C34.4959 27.1869 36.0561 30.9952 39.1635 30.8426V35.0277H23.3228C22.7939 32.178 21.1512 29.5015 18.5367 28.1369V5.46179H39.1635ZM22.8088 46.7982L21.6388 46.7438C21.4048 46.7344 21.1741 46.8218 21.0079 46.9889L19.3055 48.6991L11.3264 40.6834L12.9456 39.0567C13.1015 38.9002 13.189 38.6882 13.189 38.4673V18.5327C13.189 16.1796 16.8169 16.1796 16.8169 18.5327V28.6405C16.8169 28.9735 17.0147 29.2748 17.3205 29.4071C19.3109 30.2684 20.7835 32.0519 21.4671 34.4292C22.2382 37.1107 21.8269 40.071 20.3939 42.1548C19.7994 43.0192 21.1318 44.0303 21.7705 43.1016C21.964 42.8202 22.1419 42.5258 22.3041 42.2204H30.9613C29.2231 45.0615 26.1805 46.7918 22.8088 46.7982ZM37.4856 40.5496H23.0017C23.3863 39.3337 23.5598 38.0192 23.5088 36.6987H39.1635V38.8715C39.1635 39.7967 38.4109 40.5496 37.4856 40.5496Z" fill="white"/>
<path d="M20.9238 11.7923C21.3197 12.1135 21.7134 12.1083 22.1051 11.7768L24.5504 9.26683C25.3041 8.49324 24.1072 7.32701 23.3536 8.10094L20.9083 10.6109C20.5864 10.9415 20.5934 11.4704 20.9238 11.7923Z" fill="white"/>
<path d="M20.9238 17.1636C21.3197 17.4847 21.7134 17.4796 22.1051 17.1481L29.7829 9.26683C30.5367 8.49324 29.3397 7.32701 28.5862 8.10094L20.9083 15.9822C20.5864 16.3127 20.5934 16.8415 20.9238 17.1636Z" fill="white"/>
</g>
<defs>
<clipPath id="clip0">
<rect width="57" height="57" fill="white"/>
</clipPath>
</defs>
</svg>
