<svg width="150" height="132" viewBox="0 0 150 132" fill="none" xmlns="http://www.w3.org/2000/svg">
<g clip-path="url(#clip0)">
<path fill-rule="evenodd" clip-rule="evenodd" d="M16.2 31.3C22.2 20.2 30.5 9.10003 43.3 4.30003C55.7 -0.399971 69.3 3.60003 82.2 6.40003C93.8 9.00003 104 13.7 113.9 19.6C126.3 27.1 141.8 32.7 146.8 45.3C152.2 58.8 149.2 74.8 140.8 87.5C132.6 100 117.7 108 102.4 112.8C88.5 117.1 74.3 112.5 59.7 112.7C41 112.9 17.3 126.1 4.90002 114.1C-7.79998 102 8.00002 81.9 10.3 65.2C11.9 53.6 10.4 41.9 16.2 31.3Z" fill="url(#paint0_linear)"/>
<path fill-rule="evenodd" clip-rule="evenodd" d="M106.3 16.5C115.2 22.5 124.7 27.2 130.9 36.1C138.5 46.9 147.2 58.6 145.7 72.9C144.2 87.5 135.1 102.2 123.3 111.5C112.2 120.3 97.8999 117.6 84.7999 121.1C72.6999 124.3 61.1999 133.1 49.3999 131.3C37.0999 129.4 24.6999 122.8 19.9999 111.1C15.3999 99.6 26.9999 85.5 25.7999 72.8C24.3999 59 9.39988 49.6 12.7999 35.6C16.1999 21.8 29.8999 11.8 42.1999 5.39998C53.8999 -0.700016 66.9999 -0.900016 79.0999 1.19998C89.6999 2.99998 97.4999 10.5 106.3 16.5Z" fill="url(#paint1_linear)" fill-opacity="0.8"/>
<path d="M111.3 43.9C113.7 43.9 115.7 41.9 115.7 39.5V25C115.7 22.6 113.7 20.6 111.3 20.6H91.0001C88.6001 20.6 86.6001 22.6 86.6001 25V39.5C86.6001 41.9 88.6001 43.9 91.0001 43.9H95.4001V46.8H92.5001V49.7H99.8001V64.2H93.8001C92.6001 63.1 91.2001 62.2 89.6001 61.7C89.6001 61.6 89.6001 61.4 89.6001 61.3C89.6001 54.9 84.4001 49.7 78.0001 49.7C74.0001 49.7 70.3001 51.8 68.2001 55.1C66.7001 54.4 65.1001 54.1 63.5001 54.1C58.7001 54.1 54.3001 57.1 52.6001 61.6C51.5001 61.8 50.5001 62.3 49.5001 62.8H38.8001V58.4H44.6001C47.0001 58.4 49.0001 56.4 49.0001 54V25C49.0001 22.6 47.0001 20.6 44.6001 20.6H30.0001C27.6001 20.6 25.6001 22.6 25.6001 25V54C25.6001 56.4 27.6001 58.4 30.0001 58.4H35.8001V65.7H46.4001C45.8001 66.6 45.3001 67.6 45.0001 68.6H38.7001V84.6H33.0001C30.6001 84.6 28.6001 86.6 28.6001 89V102.1H25.7001V106.5C25.7001 108.9 27.7001 110.9 30.1001 110.9H53.3001C55.7001 110.9 57.7001 108.9 57.7001 106.5V102.1H54.8001V88.9C54.8001 86.5 52.8001 84.5 50.4001 84.5H41.7001V71.5H44.6001C44.6001 77.1 49.2001 81.7 54.8001 81.7H86.7001C91.8001 81.7 96.0001 77.9 96.7001 73H102.6V84.6H92.5001V110.7H115.7V84.5H105.5V70H96.7001C96.5001 69 96.2001 68 95.8001 67.1H102.6V49.7H109.9V46.8H107V43.9H111.3V43.9ZM46.0001 43.9H28.6001V29.4H46.0001V43.9ZM30.0001 23.6H44.5001C45.3001 23.6 46.0001 24.3 46.0001 25.1V26.6H28.6001V25C28.6001 24.2 29.2001 23.6 30.0001 23.6ZM28.6001 54V46.7H46.0001V54C46.0001 54.8 45.3001 55.5 44.5001 55.5H30.0001C29.2001 55.5 28.6001 54.8 28.6001 54ZM54.7001 106.3C54.7001 107.1 54.0001 107.8 53.2001 107.8H30.0001C29.2001 107.8 28.5001 107.1 28.5001 106.3V104.8H54.6001V106.3H54.7001ZM51.8001 88.9V102H31.5001V88.9C31.5001 88.1 32.2001 87.4 33.0001 87.4H50.4001C51.2001 87.4 51.8001 88.1 51.8001 88.9ZM95.4001 107.7V99H112.8V107.7H95.4001ZM112.8 96.1H95.4001V87.4H112.8V96.1V96.1ZM86.7001 78.7H54.7001C50.7001 78.7 47.4001 75.4 47.4001 71.4C47.4001 67.7 50.1001 64.6 53.8001 64.2L54.8001 64.1L55.1001 63.2C56.2001 59.5 59.6001 56.9 63.5001 56.9C65.1001 56.9 66.7001 57.4 68.1001 58.2L69.5001 59.1L70.2001 57.6C71.6001 54.5 74.7001 52.6 78.1001 52.6C82.9001 52.6 86.8001 56.5 86.8001 61.3C86.8001 61.7 86.8001 62.1 86.7001 62.6L86.5001 64L87.9001 64.2C91.4001 64.7 94.1001 67.8 94.1001 71.4C93.9001 75.5 90.7001 78.7 86.7001 78.7ZM91.0001 23.6H111.3C112.1 23.6 112.8 24.3 112.8 25.1V35.3H89.6001V25C89.6001 24.2 90.2001 23.6 91.0001 23.6ZM89.6001 39.5V38H112.8V39.5C112.8 40.3 112.1 41 111.3 41H91.0001C90.2001 41 89.6001 40.3 89.6001 39.5ZM104.1 46.8H98.3001V43.9H104.1V46.8Z" fill="white"/>
</g>
<defs>
<linearGradient id="paint0_linear" x1="11.9997" y1="37.9508" x2="128.141" y2="108.426" gradientUnits="userSpaceOnUse">
<stop stop-color="#C02E00" stop-opacity="0.28"/>
<stop offset="0.5781" stop-color="#FD801B" stop-opacity="0.28"/>
<stop offset="1" stop-color="#FBB12E" stop-opacity="0.28"/>
</linearGradient>
<linearGradient id="paint1_linear" x1="65.5001" y1="0.429584" x2="90.6318" y2="129.183" gradientUnits="userSpaceOnUse">
<stop stop-color="#FBB12E"/>
<stop offset="0.5885" stop-color="#F1852B"/>
<stop offset="1" stop-color="#D30823"/>
</linearGradient>
<clipPath id="clip0">
<rect width="149.5" height="131.5" fill="white"/>
</clipPath>
</defs>
</svg>
