<svg width="147" height="135" viewBox="0 0 147 135" fill="none" xmlns="http://www.w3.org/2000/svg">
<g clip-path="url(#clip0)">
<path fill-rule="evenodd" clip-rule="evenodd" d="M11.6 31.7C16.9 20.3 24.5 8.70001 36.9 3.00001C49 -2.39999 62.8 0.700012 75.8 2.70001C87.6 4.50001 98.1 8.50001 108.3 13.8C121.2 20.4 137 25 142.8 37.3C149 50.4 147.1 66.6 139.6 79.8C132.2 92.8 117.9 101.8 102.9 107.5C89.3 112.7 74.8 109 60.2 110.1C41.5 111.6 18.8 126.2 5.59999 115.1C-7.70001 103.8 6.69999 82.8 7.89999 66C8.79999 54.3 6.49999 42.8 11.6 31.7Z" fill="url(#paint0_linear)"/>
<path fill-rule="evenodd" clip-rule="evenodd" d="M86.7001 9.30002C96.7001 13.1 107 15.5 115.1 22.7C125 31.5 136.1 40.9 138 55.1C139.9 69.7 134.4 86.1 125.1 97.8C116.3 108.9 101.8 109.6 89.9001 116C78.9001 121.9 69.6001 133.1 57.8001 134.1C45.4001 135.1 31.8001 131.5 24.5001 121.2C17.4001 111.1 25.4001 94.7 21.3001 82.6C16.8001 69.6 5.39196e-05 63.8 0.100054 49.5C0.200054 35.3 11.2001 22.4 21.8001 13.3C31.8001 4.70002 44.5001 1.40002 56.7001 0.700019C67.5001 1.94125e-05 76.8001 5.60002 86.7001 9.30002Z" fill="url(#paint1_linear)" fill-opacity="0.8"/>
<path d="M94.7 67C94.7 65.5 94 64.1 93 63.2C95.3 61.2 95.3 57.5 93 55.5C95.3 53.5 95.3 49.8 93 47.8C96.2 44.9 94.5 39.4 90.2 38.8V28.8C90.2 25.9 87.8 23.5 84.9 23.5H68.2C66.5 23.5 66.5 26.1 68.2 26.1H84.9C86.4 26.1 87.5 27.3 87.5 28.7V29.4H55V28.7C55 27.2 56.2 26.1 57.6 26.1H61C62.7 26.1 62.7 23.5 61 23.5H57.7C54.8 23.5 52.4 25.9 52.4 28.8V48.1C48.8 45.8 44 48.5 44 52.8V83.7L41.5 86.2C38.8 84.9 35.5 85.5 33.4 87.6C30.6 90.4 30.6 94.9 33.4 97.7L41.6 105.9C42.8 107.1 44.7 105.2 43.5 104L35.3 95.8C33.5 94 33.5 91.1 35.3 89.4C37 87.7 40 87.7 41.7 89.4L55.3 103.1C57.1 104.9 57.1 107.8 55.3 109.5C53.3 111.5 50.1 111.1 48.4 109C47.2 107.8 45.3 109.7 46.5 110.9C52.8 117.5 62.8 110.1 58 102.3L60.4 99.9C67.5 100.4 74.5 96.5 77.7 90.1H85C87.9 90.1 90.3 87.7 90.3 84.8V72.1C92.7 71.8 94.7 69.6 94.7 67ZM92.1 67C92.1 68.4 91 69.5 89.6 69.5H87.3C83.9 69.4 83.9 64.6 87.3 64.4H89.6C90.9 64.5 92.1 65.6 92.1 67ZM92.1 59.3C92.1 60.7 91 61.8 89.6 61.8H87.3C83.9 61.7 83.9 56.9 87.3 56.7H89.6C90.9 56.8 92.1 57.9 92.1 59.3ZM92.1 51.6C92.1 53 91 54.1 89.6 54.1H87.3C83.9 54 83.9 49.2 87.3 49H89.6C90.9 49 92.1 50.2 92.1 51.6ZM92.1 43.9C92.1 45.3 91 46.4 89.6 46.4H87.3C83.9 46.3 83.9 41.5 87.3 41.3H89.6C90.9 41.3 92.1 42.5 92.1 43.9ZM87.6 32.1V38.7C82.7 38.5 80.2 44.5 83.8 47.7C81.5 49.7 81.5 53.4 83.8 55.4C81.5 57.4 81.5 61.1 83.8 63.1C80.2 66.4 82.7 72.4 87.6 72.1V78.7H62.6C61.8 74.2 59.2 70 55 67.8V32.1H87.6ZM61.7 97.4L59.9 97.3C59.5 97.3 59.2 97.4 58.9 97.7L56.2 100.4L43.6 87.7L46.2 85.1C46.4 84.9 46.6 84.5 46.6 84.2V52.7C46.6 49 52.3 49 52.3 52.7V68.7C52.3 69.2 52.6 69.7 53.1 69.9C56.2 71.3 58.6 74.1 59.6 77.8C60.8 82 60.2 86.7 57.9 90C57 91.4 59.1 93 60.1 91.5C60.4 91.1 60.7 90.6 60.9 90.1H74.6C71.9 94.6 67.1 97.4 61.7 97.4ZM84.9 87.5H62C62.6 85.6 62.9 83.5 62.8 81.4H87.5V84.8C87.6 86.3 86.4 87.5 84.9 87.5Z" fill="white"/>
<path d="M58.8001 42.1C59.4001 42.6 60.0001 42.6 60.7001 42.1L64.6001 38.1C65.8001 36.9 63.9001 35 62.7001 36.3L58.8001 40.3C58.2001 40.7 58.2001 41.6 58.8001 42.1Z" fill="white"/>
<path d="M58.8 50.6C59.4 51.1 60 51.1 60.7 50.6L72.8 38.2C74 37 72.1 35.1 70.9 36.4L58.7 48.7C58.2 49.2 58.2 50.1 58.8 50.6Z" fill="white"/>
</g>
<defs>
<linearGradient id="paint0_linear" x1="7.85109" y1="38.6806" x2="128.318" y2="101.475" gradientUnits="userSpaceOnUse">
<stop stop-color="#C02E00" stop-opacity="0.28"/>
<stop offset="0.5781" stop-color="#FD801B" stop-opacity="0.28"/>
<stop offset="1" stop-color="#FBB12E" stop-opacity="0.28"/>
</linearGradient>
<linearGradient id="paint1_linear" x1="43.3102" y1="3.09732" x2="97.3948" y2="122.612" gradientUnits="userSpaceOnUse">
<stop stop-color="#FBB12E"/>
<stop offset="0.526" stop-color="#F1852B"/>
<stop offset="1" stop-color="#D30823"/>
</linearGradient>
<clipPath id="clip0">
<rect width="146.5" height="134.3" fill="white"/>
</clipPath>
</defs>
</svg>
