<svg width="147" height="138" viewBox="0 0 147 138" fill="none" xmlns="http://www.w3.org/2000/svg">
<g clip-path="url(#clip0)">
<path fill-rule="evenodd" clip-rule="evenodd" d="M11.6 31.7C16.9 20.3 24.5 8.70001 36.9 3.00001C49 -2.39999 62.8 0.700012 75.8 2.70001C87.6 4.50001 98.1 8.50001 108.3 13.8C121.2 20.4 137 25 142.8 37.3C149 50.4 147.1 66.6 139.6 79.8C132.2 92.8 117.9 101.8 102.9 107.5C89.3 112.7 74.8 109 60.2 110.1C41.5 111.6 18.8 126.2 5.59999 115.1C-7.70001 103.8 6.69999 82.8 7.89999 66C8.79999 54.3 6.49999 42.8 11.6 31.7Z" fill="url(#paint0_linear)"/>
<path fill-rule="evenodd" clip-rule="evenodd" d="M81.6 8.50003C92 10.7 102.6 11.6 111.7 17.5C122.8 24.7 135.2 32.3 139.2 46.1C143.3 60.2 140.3 77.2 132.9 90.3C125.9 102.6 111.6 105.5 100.8 113.6C90.8 121.1 83.4 133.6 71.7 136.3C59.6 139.1 45.6 137.6 36.9 128.6C28.3 119.7 33.8 102.3 27.9 90.9C21.7 78.6 4.10002 75.4 2.10002 61.2C0.100024 47.2 9.00002 32.8 18.1 22.2C26.7 12.1 38.7 7.00003 50.7 4.50003C61.3 2.20003 71.3 6.20003 81.6 8.50003Z" fill="url(#paint1_linear)" fill-opacity="0.8"/>
<path d="M85.8 80.5H81.8V75.8C87.2 72 90.7 65.7 90.7 58.7V45.3C90.7 33.3 80.9 23.5 68.9 23.5C56.9 23.5 47.1 33.3 47.1 45.3V45.4V45.5V45.6V45.7V45.8C47.1 45.8 47.1 45.8 47.1 45.9C47.1 45.9 47.1 45.9 47.1 46C47.1 46 47.1 46 47.1 46.1C47.1 46.1 47.1 46.1 47.2 46.2C47.2 46.2 47.2 46.2 47.3 46.3C47.3 46.3 47.3 46.3 47.4 46.3H47.5C47.5 46.3 47.6 46.3 47.6 46.4C47.9 46.5 48.2 46.7 48.6 46.8V58.5C48.6 65.6 52.1 71.8 57.5 75.6V80.3H53.5C52.2 80.3 50.9 80.5 49.6 80.9C48.9 81.1 48.5 81.9 48.7 82.6C48.9 83.2 49.4 83.6 50 83.6C50.1 83.6 50.3 83.6 50.4 83.5C51.4 83.2 52.5 83.1 53.5 83.1H58.4L63 86.2L64.6 91.1C64.6 91.2 64.6 91.2 64.7 91.3C64.7 91.4 64.8 91.4 64.8 91.5L64.9 91.6L65 91.7C65 91.7 65.1 91.8 65.2 91.8C65.3 91.8 65.3 91.9 65.4 91.9C65.5 91.9 65.5 91.9 65.6 91.9C65.7 91.9 65.7 91.9 65.8 91.9H66L62.9 110.6H52.9V101.2C52.9 100.5 52.3 99.9 51.6 99.9C50.9 99.9 50.3 100.5 50.3 101.2V110.6H42.3V94.3C42.3 92.7 42.6 91.1 43.3 89.6C44 88.2 44.9 86.9 46.1 85.9C46.7 85.4 46.7 84.6 46.2 84C45.9 83.7 45.6 83.5 45.2 83.5C44.9 83.5 44.6 83.6 44.3 83.8C41.3 86.4 39.5 90.2 39.5 94.2V112C39.5 112.7 40.1 113.3 40.8 113.3H64H74.7H97.9C98.6 113.3 99.2 112.7 99.2 112V94.3C99.6 86.7 93.4 80.5 85.8 80.5ZM68.8 26.1C78.7 26.1 86.9 33.6 87.9 43.3C87.2 42.4 86.4 41.8 85.6 41.3C82.5 39.7 78.7 41.2 74.3 42.8C67.9 45.3 60 48.3 49.7 44.3C50.2 34.3 58.6 26.1 68.8 26.1ZM51.5 58.7V47.8C61.4 50.7 69.4 47.6 75.3 45.4C79.2 43.9 82.3 42.7 84.4 43.8C85.9 44.6 87.1 46.6 88 50V58.7C88 68.8 79.8 77 69.7 77C59.6 76.9 51.5 68.7 51.5 58.7ZM79.1 77.4V81.1L74.9 83.9L71.1 82.6V79.5C73.9 79.4 76.6 78.6 79.1 77.4ZM64.6 83.9L60.4 81.1V77.4C62.8 78.6 65.6 79.4 68.4 79.6V82.7L64.6 83.9ZM66.1 86.2L69.8 85L73.5 86.2L72.4 89.4H67.2L66.1 86.2ZM66 110.8L69.1 92.1H70.4L73.5 110.8H66ZM96.9 110.8H88.9V101.4C88.9 100.7 88.3 100.1 87.6 100.1C86.9 100.1 86.3 100.7 86.3 101.4V110.8H76.3L73.2 92.1H73.4C73.5 92.1 73.5 92.1 73.6 92.1C73.7 92.1 73.7 92.1 73.8 92.1C73.9 92.1 73.9 92.1 74 92C74.1 92 74.1 91.9 74.2 91.9L74.3 91.8L74.4 91.7C74.4 91.7 74.5 91.6 74.5 91.5C74.5 91.4 74.6 91.4 74.6 91.3L76.2 86.4L80.8 83.3H85.7C91.8 83.3 96.8 88.3 96.8 94.4V110.8H96.9Z" fill="white"/>
</g>
<defs>
<linearGradient id="paint0_linear" x1="7.85109" y1="38.6806" x2="128.318" y2="101.475" gradientUnits="userSpaceOnUse">
<stop stop-color="#C02E00" stop-opacity="0.28"/>
<stop offset="0.5781" stop-color="#FD801B" stop-opacity="0.28"/>
<stop offset="1" stop-color="#FBB12E" stop-opacity="0.28"/>
</linearGradient>
<linearGradient id="paint1_linear" x1="37.8218" y1="8.84303" x2="109.28" y2="118.855" gradientUnits="userSpaceOnUse">
<stop stop-color="#FBB12E"/>
<stop offset="0.4792" stop-color="#F1852B"/>
<stop offset="1" stop-color="#D30823"/>
</linearGradient>
<clipPath id="clip0">
<rect width="146.5" height="137.5" fill="white"/>
</clipPath>
</defs>
</svg>
